<svg width="1441" height="121" viewBox="0 0 1441 121" fill="none" xmlns="http://www.w3.org/2000/svg">
<path d="M1440.09 119.943L1440.09 19.9913C1439.87 17.8031 1439.69 15.5927 1439.78 13.4045C1439.58 12.9403 1439.36 12.4761 1439.16 12.012C1437.32 10.1111 1434.33 10.8405 1431.82 10.5974C1430.69 10.4868 1429.63 10.5531 1428.87 9.84583C1427.39 9.11642 1425.31 9.16062 1424.2 7.98914C1423.95 7.85652 1423.67 7.746 1423.36 7.67969C1421.67 7.59127 1420.21 7.01658 1418.83 6.44189C1417.44 5.8451 1416.2 5.8451 1414.87 6.44189C1414.47 6.68503 1414.25 6.99448 1414.14 7.32603C1412.36 5.91141 1408.84 5.51355 1405.34 6.55241C1404.12 6.90607 1402.97 7.39235 1401.77 7.79021C1401.61 7.90073 1401.53 8.05545 1401.37 8.18807C1400.46 8.05545 1399.89 7.67969 1399.93 6.90607C1399.71 6.90607 1399.49 6.90607 1399.24 6.90607C1397.05 7.61338 1394.7 7.92283 1392.28 8.07756C1387.05 7.61338 1382.09 8.63015 1377.06 9.31536C1374.04 9.71322 1371.14 9.33746 1368.28 8.65225C1367.15 8.9396 1366.86 10.0669 1365.42 10.0669C1365.14 10.1332 1364.87 10.2437 1364.6 10.3542C1364.03 10.7521 1363.23 11.0615 1362.92 11.592C1362.32 11.0836 1361.79 10.5311 1360.84 10.2879C1360.37 10.2216 1359.91 10.2437 1359.48 10.3984C1359.15 10.5753 1358.97 10.7963 1358.77 11.0173C1358.77 10.8847 1358.82 10.7521 1358.86 10.6416C1356.47 9.97847 1353.9 10.2216 1351.44 9.93426C1350.55 9.84585 1349.2 9.97847 1348.96 9.47009C1347.87 7.23763 1345.19 8.25439 1343.19 7.79022C1340.62 7.19343 1339.03 7.61339 1336.75 8.36491C1334.2 9.20485 1331.58 10.2437 1328.7 10.5311C1326.95 10.7079 1325.64 11.2384 1324.47 12.0562C1324.31 11.592 1324.67 10.9952 1324.2 10.3984C1323.45 11.6583 1322.69 12.1225 1320.9 11.1279C1319.1 10.1332 1317.07 11.0615 1315.31 11.7025C1313.3 12.4541 1312.17 11.3047 1310.88 10.7521C1309.69 10.2437 1310.99 9.73533 1311.41 9.27116C1310.57 8.82909 1309.71 8.71857 1308.87 9.20485C1307.65 8.09968 1305.87 7.56919 1304.06 7.06081C1302.22 6.55243 1300.18 6.48612 1299.09 4.82836C1298.4 3.76739 1295.77 3.52425 1294.86 4.71784C1293.46 6.55243 1291.56 6.9945 1288.9 6.64085C1290.03 5.46936 1288.68 4.80625 1287.3 4.14315C1286.44 3.78949 1285.24 4.14315 1284.49 3.52425C1283.09 2.41908 1281.54 2.70642 1280.43 3.61267C1279.17 4.65153 1278.17 4.4526 1276.73 3.8337C1275.31 3.2148 1273.83 2.59591 1272.1 2.50749C1270.37 2.41908 1268.82 2.64011 1267.73 3.96632C1268.31 2.61801 1268.29 1.49073 1267 0.54028C1266.6 0.252934 1265.76 -0.100722 1265.58 0.0761062C1263.48 2.10963 1260.73 -1.18379 1258.65 0.496074C1258.49 0.606592 1258.31 0.717109 1258.22 0.849731C1257.09 2.48539 1256.05 3.10429 1254.19 1.11497C1253.13 -0.0344092 1251.02 -0.078616 1249.78 0.938146C1247.32 2.97167 1243.57 4.03264 1241.67 6.50823C1239.83 4.98309 1237.01 4.96099 1234.8 4.07685C1233.71 3.63478 1232.21 4.01054 1231.36 4.62944C1227.51 7.50289 1222.81 7.21555 1218.04 6.35351C1215.96 5.97775 1214.08 5.11572 1212.41 6.884C1211.79 7.5471 1211.04 6.83979 1210.38 6.64086C1207.07 5.69041 1202.66 6.19879 1200.65 7.72393C1200.16 8.09969 1199.87 8.49756 1199.76 8.96173C1199.72 8.96173 1199.67 8.96173 1199.63 8.98384C1199.52 9.00594 1199.45 9.05015 1199.34 9.07225C1198.83 8.71859 1198.12 8.65228 1197.21 8.80701C1196.37 8.96173 1195.64 8.87332 1195.68 8.07759C1195.99 7.19345 1196.3 6.33141 1194.84 5.77883C1193.24 5.77883 1192.42 6.884 1190.96 7.10504C1189.45 7.59132 1188.32 8.47546 1186.93 9.09435C1183.91 5.40307 1181.56 5.13783 1176.4 7.87866C1175.78 9.02805 1175.56 10.3322 1173.76 10.9953C1173.17 11.3047 1172.63 11.6805 1172.17 12.1004C1171.75 12.4762 1171.37 12.8741 1170.73 13.0509C1170.17 12.7635 1170.24 12.211 1169.66 11.9457C1167.8 11.57 1166.6 12.2773 1165.96 13.3161C1165.54 13.9571 1164.83 14.3108 1164.21 14.7529C1161.31 14.2445 1158.4 13.6035 1155.46 14.576C1154.57 14.8634 1153.75 14.7308 1152.86 14.5318C1150.96 14.134 1149.07 14.3992 1147.24 14.775C1146.7 14.8855 1146.26 15.2833 1145.73 15.2612C1144.44 15.217 1142.85 13.7361 1141.98 15.0623C1140.83 16.8527 1138.17 18.201 1138.48 20.8976C1137.44 19.4388 1137.48 18.1568 1136.51 17.14C1136.44 17.0516 1136.33 17.0074 1136.24 16.919C1137.62 16.1012 1138.72 15.4602 1138.08 14.2224C1137.88 13.8245 1137.24 13.5372 1136.75 13.7582C1135.2 14.4655 1135.71 15.5486 1135.67 16.6317C1134.45 16.4769 1133.36 16.4106 1132.39 16.4769C1133.65 15.9244 1134.03 14.6423 1134.58 13.6919C1134.94 13.073 1133.76 12.5425 1132.3 12.5204C1132.19 13.7582 1129.08 13.0951 1129.39 14.4876C1129.55 15.1728 1129.7 16.4106 1130.83 16.6538C1128.44 17.14 1126.91 18.4884 1126.05 20.8755C1124.85 19.7483 1124.25 18.1568 1121.84 18.3557C1119.8 18.5326 1118.36 19.3946 1117.52 20.6766C1117.45 20.8092 1117.52 20.9197 1117.47 21.0524C1116.01 21.4281 1114.39 21.4944 1113.35 22.467C1112.33 21.5165 1112.97 20.9197 1113.7 20.4556C1116.07 18.9967 1114.21 18.0242 1112.62 17.7811C1110.42 17.4495 1108.76 16.6317 1106.92 15.9244C1105.17 15.2613 1103.31 14.5981 1101.2 15.3939C1100.32 15.7254 1098.79 15.2834 1099.05 15.1065C1100.69 14.0235 1100.27 12.1226 1102.47 11.2826C1102.82 11.15 1103.11 10.9953 1103.42 10.8405C1102.2 10.7742 1101.03 10.7521 1099.79 10.6637C1098.66 10.5753 1097.55 10.4206 1096.44 10.288C1095.88 10.7742 1095.73 11.371 1096.88 12.1226C1097.08 12.2552 1096.84 12.6751 1096.79 12.9846C1093.45 12.7636 1093.27 15.5486 1090.68 16.1454C1089.86 14.775 1091.16 14.0677 1092.21 13.2719C1092.69 12.8962 1093.76 12.1447 1093.18 12.012C1091.05 11.5258 1090.9 10.6416 1091.01 9.71327C1089.24 9.49224 1087.46 9.2712 1085.67 9.02806C1085.25 9.09437 1084.78 9.11648 1084.29 9.09437C1083.14 9.05017 1082.17 9.2933 1081.35 9.73537C1080.59 8.0334 1078.24 8.27654 1076.43 7.87868C1075.67 7.79027 1074.92 7.72396 1074.19 7.65765C1073.99 7.72396 1073.74 7.72396 1073.59 7.87868C1071.28 10.0669 1068.23 10.3322 1064.72 9.62486C1063.48 9.38172 1062.26 9.40383 1061.58 10.3543C1063.17 13.5151 1059.14 14.9297 1057.12 17.0516C1056.9 16.5654 1057.1 16.0128 1056.57 15.637C1054.86 14.8192 1053.18 15.6812 1052.27 16.2117C1050.21 17.4495 1047.9 18.5989 1046.37 20.1903C1046.46 19.4388 1045.82 18.842 1044.18 18.3779C1041.79 17.7148 1040.3 17.8916 1039.1 19.7041C1037.24 22.5333 1020.4 21.1629 1021.91 24.0364C1022.13 24.4342 1022.26 24.7658 1021.84 25.0973C1021.29 25.5173 1020.62 25.4289 1020.02 25.1636C1018.25 24.4121 1016.7 24.7658 1015.21 25.451C1014.99 24.589 1013.84 24.5226 1012.71 24.6995C1009.21 25.2521 1005.77 25.9373 1002.14 25.1194C1001.1 24.8984 1000.19 25.3405 999.501 25.9152C997.373 27.6834 995.068 29.1644 991.456 29.3854C989.594 29.4959 989.04 31.1758 987.289 31.6179C985.583 28.2802 983.832 27.9708 979.865 30.2696C978.38 31.1095 976.917 31.7947 975.233 30.4464C974.457 29.8496 973.393 29.9822 972.928 30.5569C971.709 32.0821 969.958 31.5516 968.252 31.3084C967.919 31.3305 967.631 31.4189 967.365 31.5295C963.709 33.0325 962.179 35.8396 959.431 37.8732C958.523 35.2208 954.733 34.7787 952.45 33.2756C951.94 33.2756 951.519 33.4525 951.209 33.7398C949.259 35.6407 945.801 36.2817 943.629 38.0058C943.341 38.2489 942.477 38.2047 942.012 38.05C938 36.768 933.878 37.6079 929.8 37.6963C927.606 37.7406 925.722 37.1438 923.683 36.8343C920.47 37.4753 917.433 36.7238 914.464 36.0607C911.804 35.4639 907.616 35.4639 906.219 36.348C902.873 38.4921 898.44 38.1826 894.651 39.2215C894.34 39.3099 893.941 39.3099 893.675 39.1552C890.351 37.2764 886.672 36.9006 882.639 37.829C882.373 37.8953 881.996 37.7627 881.641 37.7627C881.42 37.7627 881.22 37.8511 881.021 37.8953C881.021 37.8953 881.043 37.8953 881.065 37.8953C881.863 36.8785 882.927 35.8839 880.533 35.3534C879.048 35.0218 879.115 34.0493 878.383 33.4304C877.297 32.5241 876.344 31.419 874.594 32.922C874.505 32.9883 874.416 33.0104 874.35 32.8778C873.552 31.419 871.735 32.1042 870.316 31.9494C870.006 31.9494 869.696 31.9494 869.385 31.9937C868.056 32.2147 867.657 33.0767 866.948 33.7398C865.906 33.2315 865.773 31.9494 864 32.1705C863.247 32.3473 862.582 32.6347 861.895 32.922C861.274 32.9662 860.654 33.0104 860.011 33.0767C859.324 34.0493 857.506 33.563 856.642 34.2924C856.221 34.5356 855.734 34.7345 855.379 34.9997C855.091 35.1324 854.758 35.1987 854.382 35.1324C853.384 34.9113 852.52 34.4029 851.39 34.6019C851.057 34.6903 850.769 34.845 850.57 35.0439C850.149 35.5965 850.215 36.0386 850.481 36.4586C849.661 36.1049 848.73 36.0828 847.799 36.0607C846.492 36.0828 845.339 36.6133 843.943 35.6407C842.968 34.9555 840.885 34.8892 839.178 34.9555C838.425 34.9997 837.272 35.0439 837.051 34.5577C835.876 32.0379 832.906 32.922 830.668 33.0546C827.875 33.2315 824.795 32.7673 822.379 34.2924C821.692 36.0607 820.695 37.4532 817.415 37.188C816.041 37.0775 815.464 37.6964 815.066 38.4037C814.822 38.2711 814.6 38.0942 814.29 38.0279C813.293 37.8953 812.34 37.4753 811.254 37.7185C810.766 37.829 810.323 38.0058 809.946 38.2269C809.547 38.47 809.237 38.7352 808.949 39.0226C807.752 39.2436 806.666 39.5752 807.043 41.0782C807.264 41.9845 805.403 42.2497 804.383 42.5591C803.297 42.9128 799.818 40.9456 797.646 41.3435C796.782 41.4982 796.183 41.1887 795.496 40.9014C792.061 39.5089 788.892 40.4814 787.518 39.9951C787.074 39.9951 786.609 39.9951 786.166 39.9951C782.62 39.9509 779.118 39.531 775.705 38.8458C775.151 39.1331 774.597 39.3983 773.91 39.5973C772.846 39.752 771.805 39.9288 770.985 40.4814C770.608 40.8351 770.586 40.9456 768.835 40.813C766.641 40.6582 766.84 41.1003 767.04 42.095C767.173 42.7581 766.619 43.1117 765.732 43.2223C764.89 43.3328 764.07 43.178 763.737 42.6255C763.095 41.5645 762.541 40.4593 762.12 39.332C761.499 37.7185 757.31 37.5859 757.222 35.4197C757.2 34.7345 756.956 34.1377 755.826 34.1156C754.74 34.1156 753.654 34.1598 753.255 35.1766C752.811 36.3481 752.834 37.608 751.836 38.6468C751.061 38.7352 750.617 39.0447 750.484 39.5752C749.044 39.9288 748.002 40.6362 747.116 41.454C745.985 41.8076 744.855 42.1834 743.725 41.454C743.082 40.3046 746.517 41.3214 745.653 39.3541C744.523 36.768 742.306 37.8953 740.356 37.7185C739.957 37.3648 739.603 36.8343 738.827 37.1659C738.096 37.4975 738.406 38.1385 738.317 38.6468C737.098 37.1438 734.904 36.8564 732.821 36.4144C732.821 36.3702 732.821 36.326 732.821 36.2818C732.821 36.2597 732.644 36.2154 732.555 36.2154C732.444 36.2154 732.356 36.2597 732.245 36.3039C730.317 34.3145 730.073 34.3367 728.455 36.4807C725.33 34.9998 721.452 34.8892 721.097 34.0714C719.922 34.6019 717.418 33.8946 717.263 33.8725C715.113 33.5409 714.626 33.0104 716 32.281C719.856 30.2475 716.354 30.0265 714.67 29.2971C714.515 29.3192 714.36 29.3413 714.205 29.3634C711.567 30.358 712.919 32.3915 711.944 33.8946C710.437 33.121 711.479 32.4136 711.678 31.7284C712.343 29.4518 710.969 28.4792 707.778 29.2528C706.071 29.6728 705.207 28.3687 703.722 28.7224C702.126 28.9434 701.284 29.6065 701.151 30.7117C700.375 31.1538 701.217 32.3694 699.932 32.3694C698.226 32.3694 698.913 31.3085 698.802 30.6012C698.713 30.0707 698.447 29.496 697.406 29.5402C696.851 29.5623 696.054 29.8054 696.209 30.1812C697.206 32.6789 693.97 31.8832 693.04 32.4358C691.089 32.3031 694.303 30.1149 690.956 30.6896C690.735 30.6896 690.535 30.6896 690.314 30.6896C689.072 30.137 689.494 28.8992 688.319 28.3245C688.319 28.1919 688.275 28.0593 688.252 27.9045C687.233 27.7056 686.324 28.0593 685.438 28.2582C684.152 28.5455 683.931 27.9708 683.554 27.4183C683.022 26.9541 682.047 26.9762 681.537 26.4899C676.883 26.1805 672.296 26.5783 667.686 27.1088C667.641 27.1309 667.575 27.153 667.531 27.1751C665.248 25.871 663.275 24.1469 659.663 24.6774C658.466 24.8543 658.621 24.1027 658.511 23.6165C654.122 22.8428 650.266 24.4122 646.255 25.0753C644.969 25.2963 643.75 25.65 642.399 25.5837C641.711 26.2468 639.894 25.2079 639.584 26.4457C638.077 27.352 634.908 26.9983 635.174 29.1644C635.307 27.1088 634.996 26.932 632.292 27.2414C631.184 27.3741 630.076 28.0814 628.902 27.352C628.015 29.2087 626.796 30.8664 623.76 31.7064C623.472 30.6233 625.156 30.4243 625.489 29.6949C625.71 29.1866 626.397 28.6119 625.555 28.2361C624.558 27.794 624.292 28.5013 623.915 28.9655C623.583 29.3634 623.206 29.9381 622.497 29.6949C622.12 29.5623 622.142 28.8771 621.987 28.4571C619.505 29.3413 620.679 30.8443 620.702 32.1484C618.308 31.2864 616.712 32.8999 614.651 33.121C613.698 33.2315 612.967 34.2041 611.992 32.9663C611.416 32.2368 610.618 32.8778 609.864 33.2757C608.468 34.0493 606.828 34.3367 605.166 33.5409C605.166 33.2315 605.166 32.922 605.166 32.6126C603.703 33.121 603.127 32.701 603.149 31.6843C602.351 31.4632 601.841 31.7727 601.509 32.1926C600.046 34.1156 596.722 34.403 595.126 33.5852C594.018 33.0105 592.888 33.5631 591.824 34.0493C591.89 33.2757 591.669 32.5684 590.317 32.1263C589.874 32.1263 589.43 32.1263 588.965 32.1263C587.458 32.1263 589.253 33.6073 587.015 33.8725C584.599 34.1599 582.582 35.9502 584.577 32.5463C585.175 31.5074 583.757 30.7117 581.895 30.9327C581.186 31.0212 580.654 31.5295 579.723 31.2422C576.864 30.3359 576.643 30.4244 574.848 32.2811C573.739 31.1759 574.493 29.3634 572.077 28.855C569.351 29.0318 568.155 30.6233 566.603 31.8832C565.406 31.0433 567.246 30.9327 566.825 30.3138C563.478 29.5623 561.816 31.5074 559.644 32.7452C558.181 31.6843 560.508 30.4244 558.979 29.4739C557.805 29.4297 557.406 30.9327 555.877 30.2917C554.525 29.275 553.084 28.3466 555.611 27.0425C556.985 26.3352 555.81 24.6995 553.261 23.9922C556.719 23.4175 557.029 22.3787 554.525 20.942C554.081 21.0967 553.638 21.2514 553.173 21.4061C551.466 20.743 550.912 18.9968 548.43 19.0632C548.208 19.0632 547.987 19.0632 547.765 19.0632C547.366 18.5769 547.255 17.958 546.391 17.6706C545.394 15.7918 543.133 16.8528 543.022 17.5159C542.823 18.7758 541.582 19.1295 540.695 19.8368C538.922 17.9359 534.157 17.5601 534.911 14.3772C534.734 13.3826 533.98 12.9847 532.54 13.2057C532.407 13.272 532.296 13.3604 532.163 13.4268C531.077 14.6203 530.412 13.7583 529.636 13.2057C528.395 12.3437 527.354 12.0784 526.977 13.692C526.622 15.2392 524.605 15.8581 523.143 16.7644C522.19 17.3612 521.392 16.9854 520.483 16.5213C519.53 16.0129 519.065 14.7972 517.292 15.3056C517.248 15.3719 517.203 15.5045 517.137 15.5045C514.876 15.7476 519.043 17.7812 515.873 17.7369C514.411 17.7148 512.837 18.0464 511.507 17.0959C511.448 18.2453 510.488 19.1147 508.626 19.7042C507.673 19.1958 508.493 18.4222 508.006 17.8033C507.43 17.0738 507.385 16.1897 505.634 17.0075C504.393 17.6043 503.285 16.7202 502.133 16.0792C502.111 17.317 503.662 17.6927 503.795 18.5769C503.352 18.8863 502.886 19.1958 502.443 19.5052C501.956 19.8147 501.446 20.0357 500.692 20.0799C495.794 20.2568 487.971 21.4061 484.89 20.8535C483.073 20.5441 485.843 18.7979 483.516 18.5769C482.608 18.8863 482.12 18.378 481.5 18.0906C481.5 17.9359 481.5 17.7812 481.5 17.6485C482.408 16.5655 481.61 15.8361 480.347 15.3498C479.239 14.9077 478.397 15.615 478.353 16.1234C478.242 17.0296 475.095 17.4717 477.577 18.7095C478.862 19.3505 478.752 20.4999 479.084 21.4061C479.328 22.0471 477.4 21.8261 476.58 22.3787C475.915 22.8208 474.629 22.4229 474.762 21.4061C473.543 22.224 472.48 22.8429 471.172 21.3619C470.352 20.4336 469.133 19.6379 467.249 20.3231C466.673 20.5441 466.075 20.4778 466.03 19.9473C465.897 18.0464 463.016 17.5822 461.952 16.1455C461.421 15.4603 456.323 16.2118 455.503 17.1844C454.883 17.9138 454.373 18.179 453.087 18.3559C451.802 18.5327 449.785 19.2842 451.292 20.7651C452.445 21.8924 450.45 22.3787 450.428 23.2407C449.098 23.5944 448.566 24.8101 446.217 24.0144C443.668 23.1523 438.482 23.2407 439.014 22.0029C439.214 21.5609 437.773 21.2735 437.241 21.8261C436.421 22.666 435.114 22.9313 434.028 23.4397C433.585 21.6051 429.906 20.7209 427.468 21.8261C424.83 22.9313 421.506 22.8208 419.002 24.1028C419.002 24.0586 419.024 24.0144 419.024 23.9702C419.512 23.1523 419.556 22.3787 418.248 22.025C416.941 21.6714 415.456 21.384 414.458 22.4892C414.658 22.7545 414.325 22.3787 414.547 22.6439C414.481 22.6439 414.481 22.5997 414.414 22.5776C411.378 21.6493 408.475 22.0472 406.458 23.6607C404.663 25.0974 402.535 25.5395 400.252 25.429C396.374 25.2522 393.027 26.3573 389.681 27.2857C388.196 27.7057 385.182 27.0868 383.121 26.711C381.813 26.49 381.281 28.214 379.73 27.352C378.844 26.7552 377.292 27.0647 376.627 26.1805C375.962 25.3406 375.032 24.6112 373.502 24.8985C371.818 25.208 371.175 26.2026 370.998 27.3299C370.976 27.5067 370.976 27.6836 370.954 27.8383C368.649 27.1089 361.889 24.8322 359.917 22.7103C358.388 21.0525 357.878 21.6714 356.792 22.3566C356.105 22.7987 355.928 23.6828 354.576 23.3955C353.357 23.1302 353.49 22.4892 353.445 21.7377C353.379 20.4115 353.024 20.4115 350.21 21.7598C349.013 20.8315 349.124 19.6821 349.124 18.5548C347.838 18.5548 346.664 18.7758 345.822 19.5053C344.913 20.301 343.672 20.3231 342.918 19.6821C341.123 18.1569 340.303 19.3284 340.148 20.2347C339.793 22.2903 337.865 22.644 335.228 22.8429C335.25 21.362 337.289 19.9915 335.427 18.1569C334.408 20.7652 330.84 21.4504 328.934 23.2408C328.446 23.7049 328.225 24.5449 327.094 24.4122C325.543 24.2354 327.028 23.1302 326.186 22.6882C325.188 22.9534 325.72 23.6828 325.255 24.0807C324.368 24.8101 322.95 24.5891 322.95 23.9039C322.95 20.721 320.623 22.224 318.695 22.7545C318.296 22.5113 317.875 22.445 317.387 22.5998C315.415 23.5502 313.465 24.5228 311.625 25.5837C311.071 25.9153 310.716 26.1363 309.941 25.9153C307.592 25.2743 305.885 26.1142 304.356 27.1973C304.134 27.1973 303.935 27.2194 303.713 27.1973C303.137 27.0868 302.605 26.7552 301.962 26.9984C301.851 27.0647 301.785 27.1531 301.785 27.2636C299.923 28.413 294.604 29.6066 291.391 30.8444C290.815 31.0654 290.261 30.8223 289.684 30.6012C289.928 30.5349 290.128 30.4023 290.261 30.2255C289.574 29.9602 288.864 29.7171 288.177 29.4519C286.449 29.6729 284.72 29.916 282.991 30.1371C281.684 29.7171 280.509 28.7666 278.913 29.7613C278.182 30.3581 277.163 30.1813 276.232 30.2476C275.877 30.4686 275.523 30.6675 275.39 30.9549C273.816 30.7781 272.509 31.1759 271.312 31.839C271.179 31.7285 271.024 31.618 270.913 31.5075C270.846 31.4191 270.758 31.3086 270.647 31.2422C269.539 31.6622 268.453 31.6843 267.411 31.1538C267.079 32.1043 266.569 31.2643 266.126 31.2201C264.22 32.1927 262.048 30.9107 260.12 31.5517C258.568 31.1317 257.216 30.0929 255.311 30.8002C254.646 31.0654 254.247 31.397 254.225 31.7948C251.942 31.4633 249.77 31.7948 247.487 32.038C243.166 32.5021 238.755 32.3253 234.434 31.7285C234.722 31.5738 234.965 31.3749 235.054 31.0875C235.165 30.7118 235.054 30.3581 234.832 30.0266C233.724 28.9877 232.262 28.8772 230.666 29.3634C227.807 30.2476 224.992 30.0708 222.466 28.9214C221.18 28.3467 219.851 28.1257 218.477 27.9046C218.166 27.8825 217.834 27.9046 217.524 27.9488C216.571 28.192 215.729 28.6561 214.643 28.634C213.933 28.634 213.224 28.634 212.648 28.8772C212.493 28.833 212.36 28.7888 212.205 28.7667C209.656 28.2583 207.218 28.0593 204.736 26.8437C202.675 25.8269 198.819 25.5616 195.317 26.2248C195.627 25.3406 196.824 24.5449 195.893 23.6607C195.694 23.4839 195.45 23.3513 195.162 23.2629C194.741 23.2629 194.298 23.2629 193.876 23.2629C191.15 23.506 189.134 22.1577 186.696 21.7156C185.477 21.6714 184.258 21.6493 183.039 21.6051C182.795 21.6714 182.551 21.7377 182.308 21.9146C182.308 22.3787 182.795 22.8429 182.308 23.3071C180.38 24.8543 182.773 26.4237 182.308 27.9709C182.197 27.9267 182.064 27.9046 182.042 27.8604C181.421 26.8658 181.953 25.3185 179.693 25.1196C178.163 24.987 175.748 26.8216 175.061 28.3246C174.861 28.0372 174.595 27.7941 174.263 27.6394C172.556 26.8216 171.914 25.7385 172.002 24.3681C170.539 23.7713 169.077 23.926 167.658 24.4565C165.575 25.1859 163.47 24.4565 161.364 24.5449C159.68 24.3902 158.461 23.5944 157.043 23.064C157.419 22.7766 157.574 22.423 156.754 22.423C154.184 22.3788 152.123 21.2515 149.685 21.0967C146.493 20.8757 145.075 22.1798 146.117 24.2576C145.407 25.2522 143.723 23.4176 143.125 24.7438C142.748 25.0091 142.571 25.5396 141.773 25.208C141.551 25.0533 141.329 24.8986 141.086 24.7438C139.446 24.1912 138.271 24.3902 137.717 25.6943C136.808 26.9321 135.279 27.2194 133.506 26.9542C131.6 26.6668 129.938 26.7331 128.941 28.0594C128.52 28.6119 127.943 28.5677 127.256 28.5014C125.727 28.3688 126.702 27.7499 126.769 27.3299C126.835 26.7995 126.547 26.2248 125.816 26.2911C122.691 26.5784 119.921 24.8322 116.663 25.6943C115.244 26.07 113.737 25.5396 112.696 24.6554C110.568 22.8208 109.593 23.0198 107.532 24.9428C106.734 25.6943 104.784 25.6943 103.277 25.208C102.368 25.5175 101.482 25.8269 100.573 26.1585C100.817 26.9763 102.368 26.6226 102.767 27.3299C102.412 27.8604 101.836 27.9709 101.238 27.9931C101.06 27.7941 100.883 27.5952 100.639 27.3963C100.373 27.1531 100.285 26.8437 100.063 26.5784C99.4869 25.9153 99.6863 24.567 98.1128 24.788C97.0047 24.9428 96.8717 25.4733 96.9604 26.0479C96.5615 25.8711 96.1182 25.7827 95.7193 25.628C91.9295 24.2576 88.0954 24.5449 85.4138 26.5342C83.7294 27.7941 82.8208 26.7774 81.9786 26.0479C79.031 23.4839 78.0559 23.4839 75.0861 26.1585C74.3326 26.8437 72.9142 27.0205 72.471 27.9046C72.1607 27.3078 71.651 26.7553 70.8974 26.4016C68.3931 25.1859 66.3098 23.6829 64.4925 22.003C62.8747 20.5 60.5919 20.7431 58.3314 21.0083C56.2703 21.2515 54.453 21.6272 52.9459 19.8148C51.9486 18.5991 49.4886 18.0686 47.3832 19.3727C45.9204 20.9641 44.1474 21.9146 41.2885 20.942C39.7815 20.4337 38.629 20.7652 38.1636 21.8925C37.1663 24.3902 33.8419 25.0091 31.116 26.0922C30.3846 26.3795 29.3651 26.3795 28.6338 26.7553C27.8803 27.131 27.2376 27.6173 27.5478 28.3246C27.8138 28.9214 28.6338 29.0098 29.4538 29.0319C31.0052 29.0761 32.5565 29.2309 34.3074 29.2088C30.0079 29.3856 25.7527 29.5845 24.0683 32.8558C23.4035 31.5959 22.2732 30.4908 21.4089 29.3193C20.2342 27.7278 17.8629 27.2858 15.3807 27.3521C13.3639 27.3963 11.7904 27.3521 11.192 25.5396C10.6158 23.7934 8.64333 23.8597 6.7152 24.766C6.38277 24.6554 6.07249 24.5449 5.74006 24.4344C5.80655 24.346 5.87303 24.2576 5.89519 24.125C4.76491 22.0693 3.14706 21.4946 3.84327e-06 21.9809L2.09987e-05 120.098L1440 120.098L1440.09 119.943Z" fill="#DFCBAF"/>
</svg>
