<svg width="305" height="305" viewBox="0 0 305 305" fill="none" xmlns="http://www.w3.org/2000/svg">
<g clip-path="url(#clip0_648_1231)">
<path d="M184.88 152.32C184.9 151.94 184.91 151.56 184.91 151.18C184.91 146.25 183.79 141.57 181.79 137.4C180.54 134.77 178.94 132.35 177.04 130.18C176.14 129.14 175.16 128.17 174.14 127.26L180.58 119.98L185.83 121.39L195.28 123.91L304.23 153.06L184.89 152.33L184.88 152.32Z" fill="#A3883B"/>
<path d="M304.23 153.06L190.08 179.25L184.24 180.59L176.02 173.31C177.35 171.92 178.55 170.41 179.62 168.8C182.77 164.05 184.67 158.4 184.88 152.33L304.22 153.06H304.23Z" fill="#A3883B"/>
<path d="M153.05 0L152.32 119.22C146.06 119.34 140.23 121.27 135.34 124.49C132.97 126.06 130.82 127.94 128.95 130.06C128.69 130.35 128.45 130.63 128.21 130.93L119.99 123.64L120.53 121.63L123.06 112.19L153.05 0Z" fill="#A3883B"/>
<path d="M180.58 119.98L174.14 127.26C173.05 126.29 171.9 125.4 170.67 124.58C165.6 121.19 159.5 119.21 152.93 119.21C152.73 119.21 152.51 119.21 152.31 119.21L153.04 -0.00976562L179.58 115.65L180.57 119.97L180.58 119.98Z" fill="#A3883B"/>
<path d="M131.74 175.119L128.88 178.349L123.64 184.259L123.11 184.109L113.67 181.579L0 151.189L120.97 151.929C121.12 158.199 123.06 164.039 126.33 168.919C127.86 171.219 129.68 173.299 131.73 175.119H131.74Z" fill="#A3883B"/>
<path d="M124.16 137.26C122.11 141.47 120.97 146.2 120.97 151.19C120.97 151.44 120.97 151.69 120.97 151.93L0 151.19L112.31 125.41L119.97 123.65L128.19 130.94C126.61 132.87 125.25 134.99 124.15 137.26H124.16Z" fill="#A3883B"/>
<path d="M184.24 180.591L183.23 184.371L180.7 193.811L151.16 304.241L151.91 183.141C152.25 183.141 152.58 183.161 152.93 183.161C157.92 183.161 162.65 182.021 166.87 179.981C169.48 178.711 171.9 177.101 174.06 175.201C174.74 174.591 175.39 173.961 176.02 173.311L184.24 180.591Z" fill="#A3883B"/>
<path d="M151.92 183.139L151.17 304.239L125.74 193.439L123.63 184.259L128.87 178.349L131.73 175.119C131.8 175.179 131.87 175.239 131.93 175.289C134.1 177.179 136.52 178.789 139.14 180.039C143.03 181.899 147.36 182.999 151.92 183.139Z" fill="#A3883B"/>
<path d="M209.547 188.25L187.111 210.686C186.697 211.1 186.697 211.771 187.111 212.185L190.314 215.388C190.728 215.802 191.399 215.802 191.813 215.388L214.25 192.952C214.664 192.538 214.664 191.867 214.25 191.453L211.046 188.25C210.632 187.836 209.961 187.836 209.547 188.25Z" fill="#A3883B"/>
<path d="M190.31 188.251L187.11 191.451C186.7 191.861 186.7 192.541 187.11 192.961L213.92 219.771C214.34 220.191 215.01 220.191 215.43 219.771L218.63 216.571C219.04 216.161 219.04 215.481 218.63 215.061L191.82 188.251C191.4 187.831 190.73 187.831 190.31 188.251Z" fill="#A3883B"/>
<path d="M204.32 193.491L200.68 197.131L198.33 199.481L188.71 189.861L183.23 184.381L174.06 175.211C174.74 174.601 175.39 173.971 176.02 173.321C177.35 171.931 178.55 170.421 179.62 168.811L204.31 193.501L204.32 193.491Z" fill="#DFCBAF"/>
<path d="M198.33 199.469L192.35 205.449L180.71 193.809L166.87 179.979C169.48 178.709 171.9 177.099 174.06 175.199L183.23 184.369L188.71 189.849L198.33 199.469Z" fill="#DFCBAF"/>
<path d="M95.0313 188.243L91.8281 191.446C91.4142 191.86 91.4142 192.531 91.8281 192.945L114.265 215.381C114.679 215.795 115.35 215.795 115.764 215.381L118.967 212.178C119.381 211.764 119.381 211.093 118.967 210.679L96.5304 188.243C96.1165 187.829 95.4453 187.829 95.0313 188.243Z" fill="#A3883B"/>
<path d="M115.77 188.249L118.97 191.449C119.38 191.859 119.36 192.559 118.92 192.999L90.6302 221.289C90.1902 221.729 89.4902 221.749 89.0802 221.339L85.8802 218.139C85.4702 217.729 85.4902 217.029 85.9302 216.589L114.22 188.299C114.66 187.859 115.36 187.839 115.77 188.249Z" fill="#A3883B"/>
<path d="M131.93 175.29L107.75 199.47L101.77 193.49L126.33 168.93C127.86 171.23 129.68 173.31 131.73 175.13C131.8 175.19 131.87 175.25 131.93 175.3V175.29Z" fill="#DFCBAF"/>
<path d="M139.14 180.039L113.73 205.449L110.1 201.819L107.74 199.459L131.92 175.279C134.09 177.169 136.51 178.779 139.13 180.029L139.14 180.039Z" fill="#DFCBAF"/>
<path d="M219.15 88.0703L204.88 114.31L181.78 137.41C180.53 134.78 178.93 132.36 177.03 130.19L219.14 88.0803L219.15 88.0703Z" fill="#DFCBAF"/>
<path d="M219.15 88.0703L177.04 130.18C176.14 129.14 175.16 128.17 174.14 127.26C173.05 126.29 171.9 125.4 170.67 124.58L192.91 102.34L219.15 88.0703Z" fill="#DFCBAF"/>
<path d="M135.33 124.5C132.96 126.07 130.81 127.95 128.94 130.07L86.9399 88.0703L113.18 102.34L135.34 124.5H135.33Z" fill="#DFCBAF"/>
<path d="M128.94 130.07C128.68 130.36 128.44 130.64 128.2 130.94C126.62 132.87 125.26 134.99 124.16 137.26L112.31 125.41L101.21 114.31L86.8901 88.0195L128.94 130.07Z" fill="#DFCBAF"/>
<path d="M153.05 172.28C164.698 172.28 174.14 162.837 174.14 151.19C174.14 139.542 164.698 130.1 153.05 130.1C141.402 130.1 131.96 139.542 131.96 151.19C131.96 162.837 141.402 172.28 153.05 172.28Z" fill="#DFCBAF"/>
</g>
<defs>
<clipPath id="clip0_648_1231">
<rect width="304.23" height="304.24" fill="white"/>
</clipPath>
</defs>
</svg>
