<?xml version="1.0" encoding="UTF-8"?>
<svg id="Layer_2" data-name="Layer 2" xmlns="http://www.w3.org/2000/svg" viewBox="0 0 249.65 365.53">
  <defs>
    <style>
      .cls-1 {
        fill: #fff6e9;
        stroke-width: 0px;
      }
    </style>
  </defs>
  <g id="Layer_1-2" data-name="Layer 1">
    <path class="cls-1" d="M108.4,294.62c.08.37.1.75.24,1.1.78,1.92,1.83,3.65,3.74,4.75-.12.19-.18.33-.28.43-1.8,1.85-3.58,3.73-5.43,5.54-.98.96-1.7,2.09-2.4,3.25-.61.99-.64,1.99-.25,3.1.53,1.53.95,3.09,1.37,4.65.26.98.08,1.91-.54,2.74-.37.5-.74.99-1.1,1.49-.72.99-1.83,1.1-2.89,1.21-2.11.21-4.22.34-6.33.5-1.96.15-3.91.36-5.87.43-1.34.04-2.69-.15-4.04-.17-.69-.01-1.38.1-2.06.19-1.97.25-3.81.77-5.53,1.86-2.26,1.43-4.35,3.07-6.48,4.67-1.14.86-1.6.77-2.23-.52-1.04-2.13-1.97-4.32-1.64-6.77.19-1.41.56-2.8.91-4.18.3-1.17.11-1.62-1.09-1.72-.87-.07-1.79-.03-2.62.21-1.4.41-2.74,1.03-4.12,1.53-.68.25-1.4.41-2.1.62-.58.18-.93-.06-1-.61-.09-.68-.19-1.38-.13-2.06.39-4.28,2.27-7.98,4.58-11.5.91-1.38,2.19-2.2,3.87-2.48,2.36-.4,4.73-.69,7.12-.65,1.1.02,1.95-.32,2.64-1.16.24-.3.54-.56.82-.82,1.06-.98,2.28-1.45,3.76-1.54,3.49-.22,7.02-.37,10.34-1.62,1.39-.52,2.71-1.29,3.98-2.07,1.18-.73,1.8-1.95,1.98-3.28.34-2.52.52-5.06.78-7.59.08-.73-.23-1.24-.75-1.71-1.46-1.3-2.63-2.81-3.33-4.65-.28-.75-.65-1.32-1.54-1.5-.97-.2-1.52-1.03-2.13-1.71-.3-.33-.58-.52-1.02-.65-.65-.19-1.35-.48-1.83-.93-1.36-1.25-2.66-2.57-3.89-3.95-.31-.35-.37-1.01-.39-1.53-.04-1.24-.02-2.48.05-3.71.03-.54-.13-.84-.56-1.15-1.03-.75-2.04-1.52-3.01-2.35-.59-.51-1.15-.54-1.8-.2-1.83.96-3.79,1.48-5.81,1.84-2.23.39-4.45.87-6.74.9-1.15.01-2.3.19-3.46.19-3.17,0-6.29-.49-9.37-1.21-1.42-.33-2.82-.87-4.26-1.03-2.11-.23-4.24-.19-6.3.52-.47.16-.96.3-1.42.5-.75.33-.85.73-.32,1.33.38.43.84.79,1.27,1.18.91.83,1.82,1.67,2.74,2.5.85.77,1.06,1.74.66,2.74-.36.9-.28,1.73-.06,2.6.9,3.5-.3,6.56-2.14,9.4-.93,1.42-2.54,1.97-4.21,2.13-.89.09-1.27-.45-1.15-1.42.15-1.26.28-2.52.38-3.79.12-1.53-.66-2.54-2.04-3-1.09-.37-2.24-.56-3.36-.8-.57-.12-1.07.11-1.47.52-.35.36-.68.74-1.01,1.11-1.73,1.89-3.89,3.14-6.21,4.16-1.16.51-2.29,1.11-3.42,1.7-.83.43-1.27,1.12-1.17,2.08.1.92.22,1.83.37,2.74.07.42.25.82.31,1.23.13.87-.19,1.34-1.04,1.24-1.13-.13-2.31-.31-3.35-.76-2.08-.9-3.86-2.27-5.15-4.18-.09-.13-.17-.26-.27-.37-.62-.73-1.42-.66-1.84.21-.3.62-.48,1.3-.71,1.96-.17.47-.3.96-.5,1.42-.41.95-.91,1.05-1.67.34-.22-.21-.41-.47-.58-.72-1.6-2.44-2.67-5.12-2.73-8.02-.08-4,1.15-7.52,5.05-9.43,2.07-1.02,4.22-1.9,6.37-2.74,2.15-.84,3.75-2.16,4.25-4.49.26-1.2.29-2.45.49-3.67.2-1.22.43-2.43.75-3.62.38-1.42,1.22-2.59,2.37-3.5,2.96-2.31,6.03-4.47,9.66-5.62,1.79-.57,3.65-.92,5.49-1.32,1.88-.41,3.76-.81,5.65-1.14,3.13-.55,6.08-1.68,9.03-2.8,2.1-.8,3.44-2.43,4.73-4.12.36-.47.44-1.08.17-1.66-.32-.7-.59-1.43-.98-2.09-2.72-4.6-5.09-9.37-7.07-14.32-1.38-3.44-2.5-6.98-3.19-10.64-.69-3.71-1.49-7.41-2.08-11.14-.43-2.7-.67-5.43-.89-8.16-.17-2.15-.18-4.32-.25-6.48-.07-1.97-.24-3.94-.15-5.9.12-2.73.29-5.47.69-8.17.57-3.85,1.26-7.69,2.08-11.49,1.01-4.73,2.49-9.32,4.26-13.82,1.67-4.24,3.4-8.45,5.15-12.66,1.53-3.67,3.24-7.27,4.63-10.99,1.29-3.46,2.34-7.03,3.35-10.59.43-1.5.52-3.11.68-4.68.13-1.22.23-2.46.19-3.69-.06-1.77-.2-3.54-.42-5.3-.14-1.15-.55-2.25-1.31-3.18-1.22-1.5-2.59-1.7-4.14-.6-.47.34-.93.7-1.37,1.06-.98.81-1.37,1.93-1.62,3.12-.4,1.9-.89,2.09-2.55,2.27-1.05.12-1.95.48-2.76,1.07-2.78,2.01-4.84,4.6-6.39,7.67-1.37,2.72-2.13,5.63-2.93,8.53-.96,3.47-3.09,5.74-6.42,7.08-2.73,1.1-5.53,1.4-8.4,1.17-1.1-.09-2.18-.47-3.24-.81-.45-.14-.82-.53-1.22-.79.11-.65.46-.98.86-1.3.75-.6,1.5-1.21,2.22-1.86,1.9-1.69,3.31-3.78,4.52-5.98.36-.66.55-1.45.64-2.2.12-1.06.39-1.85,1.59-2.06.97-.17,1.59-.82,2.09-1.67,1.47-2.55,2.85-5.13,3.61-8,.24-.9.26-1.8.01-2.76-.69,0-.96.54-1.34.88-1.11.99-1.63,2.23-1.48,3.73,0,.08.01.15.01.23.03,1.44-.47,2.1-1.93,2.17-.92.04-1.46.48-2.05,1.09-1.29,1.33-2.65,2.59-3.98,3.88-.69.67-1.38,1.35-2.07,2.03-1.31,1.28-1.54,2.86-1.31,4.6.27,2.03-.29,2.52-2.38,2.18-.57-.09-1.14-.2-1.71-.24-.69-.04-.94.17-.98.85-.04.61,0,1.23.05,1.85.1,1.13-.35,1.66-1.49,1.69-.31,0-.62.02-.93-.02-.87-.12-1.38.29-1.72,1.04-.54,1.19-1.19,2.34-1.65,3.56-.32.85-.37,1.8-.57,2.71-.11.49-.21.99-.43,1.43-.39.82-1,.99-1.67.4-.57-.5-1.1-1.1-1.49-1.75-1.51-2.54-2.59-5.26-3.23-8.14-.61-2.72-.91-5.47-1-8.26-.1-3.17.01-6.3.93-9.38.67-2.23,2.12-3.52,4.39-3.92,1.33-.23,2.65-.47,3.98-.67,1-.15,1.82-.61,2.53-1.3.5-.49,1-.98,1.43-1.52.81-1,1.64-1.95,2.77-2.6.59-.34.85-.9.96-1.52.21-1.21.75-2.1,1.83-2.79,1.23-.78,1.23-2.53.14-3.48-.15-.13-.3-.25-.45-.37-1.36-1.12-1.51-1.57-1-3.2.15-.48.31-.96.47-1.43.27-.83.72-1.52,1.43-2.05.81-.6,1.54-1.29,2.36-1.87,1.79-1.27,3.18-2.92,4.53-4.61,1.11-1.39,2.26-2.74,3.34-4.15.84-1.1,1.88-1.93,3-2.69.41-.28.81-.6,1.26-.83,1.25-.66,2.05-1.58,2.11-3.07.03-.76.52-1.28,1.14-1.66.65-.4,1.05-.97,1.46-1.6,2.56-3.94,5.61-7.48,9.01-10.71,2.13-2.02,4.2-4.11,6.45-5.98,4.38-3.63,9.03-6.88,14.13-9.45.48-.24,1-.41,1.51-.6.47-.17.83.03,1.13.36.31.33.32.7.09,1.06-.25.38-.49.8-.83,1.1-1.51,1.38-3.05,2.73-4.57,4.1-2.01,1.81-4.01,3.63-5.7,5.75-.22.27-.42.56-.61.85-.06.09-.06.21-.11.44.31-.05.57-.04.77-.14.59-.28,1.17-.59,1.74-.92,3.46-2.07,7.15-3.61,10.9-5.08,3.17-1.24,6.38-2.29,9.73-2.88.83-.15,1.68-.28,2.52-.27.63,0,1.36.1,1.63.85.21.57-.16,1.13-1.06,1.59-1.34.68-2.72,1.3-4.06,1.98-8.01,4.03-15.42,8.96-22.25,14.77-.85.73-1.69,1.47-2.52,2.22-.3.27-.55.6-.93,1.02.4.13.6.24.8.24,1.31.02,2.63.01,3.94.03.64.01,1.07-.31,1.5-.74,1.38-1.4,2.79-2.78,4.2-4.15.33-.32.71-.59,1.09-.86.32-.22.72-.49,1.04-.12.21.26.38.73.3,1.03-.38,1.49-.83,2.97-1.29,4.44-.14.44-.39.84-.53,1.28-.24.75,0,1.09.78,1.16,1.27.12,2.45-.19,3.58-.74.66-.32,1.33-.62,2.01-.9.28-.12.58-.21.88-.25,1.01-.14,1.38.34,1,1.28-.22.54-.51,1.04-.71,1.59-.13.35-.2.75-.2,1.13,0,.43.28.75.75.69.41-.05.84-.15,1.21-.33,2.46-1.16,4.7-2.67,6.91-4.23.48-.34.94-.65,1.6-.58.19.61-.1,1.08-.36,1.53-.56.97-1.2,1.89-1.72,2.88-.52.99-.91,2.03-1.38,3.04-.31.66-.65,1.31-1.01,1.95-.55.99-.58,1.22.25,1.88,3.44,2.74,5.32,6.45,6.71,10.49.86,2.52,1.7,5.05,2.61,7.55.42,1.15.99,2.26,1.53,3.37,1.33,2.75,2.7,5.47,4.02,8.23.25.53.55,1.11.22,1.77-1.28-.03-2.1-1.23-3.36-1.18-.33.5-.2.97-.03,1.46,1.07,3.08,1.54,6.29,1.93,9.5.29,2.37.45,4.76.66,7.14.04.41,0,.82-.1,1.26-.89-.94-1.58-1.97-2.01-3.15-.19-.51-.32-1.03-.53-1.53-.14-.35-.32-.71-.56-1-.4-.49-.83-.39-.95.24-.2.98-.35,1.98-.45,2.97-.39,3.58-1.13,7.08-2.33,10.48-1.22,3.46-2.47,6.9-3.55,10.4-1.32,4.28-2.36,8.64-2.72,13.11-.24,3-.42,6.01-.44,9.01-.02,2.99.61,5.9,1.53,8.74.4,1.25.83,2.49,1.25,3.73.1.29.22.58.37.84.8,1.33,1.8,1.08,2.3-.05,1.2-2.69,2.71-5.21,4.48-7.55,1.7-2.24,3.31-4.55,5.35-6.54,2.27-2.21,4.46-4.51,6.98-6.43,4.77-3.62,9.31-7.52,13.85-11.42,2.69-2.32,5.35-4.67,8.02-7.02.2-.17.35-.4.57-.65-.17-.27-.29-.57-.5-.76-2.75-2.47-4.94-5.41-6.97-8.46-1.62-2.43-2.73-5.1-3.41-7.93-.15-.6-.09-1.26-.13-2.06.86.28,1.29.78,1.67,1.28,2.14,2.79,4.72,5.08,7.65,7,.55.36,1.16.61,1.72.96,1.9,1.16,3.79,2.35,5.76,3.57.15-.14.36-.29.51-.49,1.01-1.37,2-2.74,3-4.12.51-.7.56-1.41.39-2.28-.53-2.64-.93-5.31-1.38-7.97-.09-.53-.16-1.07-.24-1.6-.28-1.86.37-3.53,1.2-5.09.64-1.21.64-2.18-.02-3.42-3.24-6.11-6.47-12.22-10.11-18.11-.24-.39-.49-.79-.77-1.16-1.9-2.5-3.55-5.15-5.09-7.88-.89-1.58-1.95-3.06-3.03-4.52-3.42-4.63-6.95-9.18-10.73-13.53-.85-.98-1.91-1.78-2.89-2.65-.84-.75-1.84-.79-2.84-.47-1.53.49-2.97.24-4.38-.34-1.56-.65-2.33-2.18-2.06-3.86.3-1.91,1.05-3.6,2.1-5.22,2.87-4.44,6.26-8.43,10.05-12.1,2.89-2.79,5.66-5.7,8.8-8.22,2.26-1.81,4.54-3.59,6.76-5.45,2.07-1.74,4.03-3.61,6.12-5.33,3.19-2.63,6.42-5.2,9.68-7.74,1.49-1.16,3.14-2.12,4.62-3.29.85-.68,1.71-.86,2.75-.86,34.68.02,69.37.02,104.05.01.58,0,1.15-.06,1.73-.09v59.17c-1.02.53-2.06,1.03-3.04,1.61-4.43,2.63-7.67,6.29-9.55,11.13-1.11,2.84-1.29,5.76-1.01,8.76.27,2.87.92,5.64,1.99,8.3,1.14,2.85,2.85,5.38,4.64,7.86.45.63.96,1.22,1.38,1.86.65,1.01.55,1.37-.5,1.88-1.77.86-3.59,1.62-5.31,2.57-2.97,1.64-5.91,3.35-8.58,5.48-3.97,3.16-7.33,6.85-9.91,11.23-.74,1.26-1.44,2.56-2.13,3.85-1.36,2.53-1.61,5.38-2.37,8.09-.46,1.65-.64,3.33-.7,5.03-.08,2.28-.16,4.55-.21,6.83-.01.57.09,1.15.11,1.73.02.55-.27.77-.8.56-1.8-.73-3.71-.97-5.61-1.24-1.4-.2-2.8-.45-4.2-.72-2.56-.49-5.14-.48-7.72-.43-1.96.04-3.93.11-5.89.24-1.26.09-2.52.29-3.77.49-.91.15-1.8,1.5-1.63,2.45.45,2.48.53,4.99.44,7.5-.05,1.34-.23,2.69-.43,4.02-.52,3.35-1.05,6.7-1.67,10.04-.41,2.2-.99,4.36-1.48,6.54-.07.33-.09.67-.14,1.08.26,0,.45.05.61,0,2.08-.71,4.12-1.51,6.22-2.12,1.84-.53,3.74-.85,5.62-1.25.62-.13,1.11.15,1.32.69.34.85.68,1.73.83,2.63.29,1.71.32,3.44.01,5.15-.1.56-.28,1.12-.5,1.65-.19.47-.23.84.11,1.28.46.61.84,1.29,1.25,1.95,1.11,1.82,2.45,3.46,4.03,4.91,1.45,1.33,2.86,2.7,4.3,4.04.31.29.64.56.99.79.65.42,1.25.5,2.02.07,1.11-.62,2.32-1.1,3.64-.92.56.08,1.15.19,1.64.44,1.56.79,2.72,2.03,3.58,3.53.75,1.31,1.52,2.62,2.06,4.01,1.41,3.63,2.67,7.32,4.04,10.97,1.25,3.35,1.6,6.9,2.26,10.37.34,1.77.41,3.6.57,5.4.17,1.88.35,3.75.45,5.63.15,2.72-.59,5.27-1.72,7.71-.81,1.76-1.72,3.45-2.88,5.01-.5.68-.91,1.43-1.31,2.18-1.03,1.92-2.39,3.61-3.79,5.26-.99,1.16-1.7,2.44-2.23,3.88-1.22,3.28-2.6,6.51-3.83,9.79-.82,2.21-1.76,4.36-2.93,6.39-.94,1.62-1.85,3.26-3.12,4.7-1.19,1.35-2.14,2.92-3.24,4.36-1.27,1.65-2.55,3.29-3.89,4.89-1.43,1.71-2.91,3.38-4.39,5.05-.85.97-1.73,1.91-2.61,2.86-.52.56-.97,1.09-1.06,1.96-.26,2.57-.75,5.11-.95,7.68-.12,1.53.37,3.05.94,4.49.27.68.62,1.33.91,2,.39.93.57,1.82-.28,2.67-.47.47-.51,1.09-.46,1.81.1,1.22.75,2.17,1.25,3.17.75,1.52,1.66,2.96,2.52,4.42.15.26.42.45.63.67.69.74.92,1.61,1.04,2.64.22,1.96-.72,3.35-1.72,4.87-1.64,2.5-3.93,4.35-6,6.41-3.22,3.22-6.55,6.34-9.91,9.4-1.74,1.58-3.65,2.97-5.52,4.41-.48.37-1.04.69-1.62.88-1.97.65-3.95,1.33-5.96,1.83-1.97.49-3.98.89-6.03.96-.84.03-1.64.32-2.51.03-.63-.21-1.12-.51-1.46-1.05-.38-.63-.8-1.24-1.07-1.92-1.05-2.57-2.1-5.15-3.06-7.75-.56-1.52-1.05-3.08-1.36-4.66-.36-1.85-.54-3.73-.7-5.61-.12-1.45-.07-1.48-1.5-1.58-.19-.01-.38-.02-.58-.03-.19,1.28-.29,2.55-.58,3.77-.44,1.79-.98,3.57-1.56,5.32-.23.69-.35,1.29-.13,2.01.84,2.69,1.56,5.41,2.46,8.08.71,2.09,1.82,4,3.04,5.84.28.42.58.82.86,1.23,1.11,1.68,2.69,2.43,4.68,2.54,3.33.18,6.52-.31,9.61-1.6,2.2-.92,4.49-1.65,6.66-2.64,1.71-.78,3.37-1.73,4.92-2.79,2.64-1.8,5.24-3.68,7.76-5.65,1.58-1.23,3.03-2.64,4.45-4.06,2.15-2.16,4.27-4.35,6.28-6.65,1.24-1.42,2.28-3.01,3.33-4.59.97-1.45.83-3.5-.22-4.86-.19-.24-.37-.5-.58-.72-.77-.78-1.44-1.59-1.21-2.96.86,1.05,2,1.73,2.48,2.99-.18-.09-.37-.18-.7-.35.1.32.1.49.19.58,1.79,1.82,1.42,3.9.31,5.74-1.19,1.97-2.7,3.75-4.21,5.5-1.53,1.78-3.23,3.4-4.84,5.11-.12.12-.11.36-.17.54.49-.14.81-.4,1.1-.69.97-.99,1.94-1.99,2.89-2.99.87-.92,1.78-1.82,2.58-2.79.98-1.19,1.94-2.4,2.79-3.68,1.25-1.87,1.97-3.86.85-6.08.76.9,1.25,1.75.83,3.09-.43,1.34-1.06,2.55-1.66,3.79-.31.63-.89,1.13-1.34,1.69-.53.66-1.05,1.33-1.6,1.97-.63.73-1.26,1.46-1.93,2.14-1.46,1.48-2.91,2.98-4.44,4.38-1.79,1.64-3.64,3.21-5.51,4.76-1.59,1.32-3.24,2.58-4.87,3.85-.69.54-1.4,1.07-2.15,1.53-1.04.63-2.12,1.2-3.18,1.78-.67.37-1.33.75-2.02,1.08-1.45.69-2.87,1.41-4.46,1.79-1.33.32-2.56,1.03-3.88,1.37-1.59.42-3.24.65-4.86.94-.64.11-1.28.19-1.93.25-.26.03-.54.02-.79-.04-.71-.18-1.4-.43-2.11-.59-2.22-.5-3.67-1.96-4.8-3.81-.78-1.28-1.51-2.59-2.25-3.9-.93-1.66-1.39-3.5-1.9-5.31-.25-.88-.47-1.78-.72-2.66-.16-.56-.53-.91-1.19-1-.16.25-.34.5-.49.76-1.1,1.85-2.22,3.69-3.3,5.55-.89,1.53-1.76,3.07-2.6,4.62-1.22,2.23-4.16,2.43-5.71.44-1.11-1.43-2.27-2.83-3.54-4.11-.8-.81-1.85-1.35-2.77-2.05-.83-.63-1.63-1.29-2.44-1.95-1.22-.99-2.48-1.92-3.63-2.99-.69-.65-1.2-1.49-1.79-2.26-.14-.18-.22-.41-.37-.59-1.39-1.66-1.12-3.42-.31-5.21.54-1.19.98-2.47,1.71-3.54,1.3-1.9,1.78-4.08,2.41-6.21.21-.7.34-1.44-.46-1.96-.16-.11-.22-.4-.28-.62-.92-3.19-2.17-6.26-3.48-9.31-.29-.66-.4-1.4-.62-2.1-.39-1.23.18-2.07,1.11-2.76.93-.69,1.88-1.35,2.8-2.04.67-.5.75-.72.4-1.46-.31-.66-.73-1.26-1.09-1.9-.6-1.09-.53-1.45.44-2.13.69-.48,1.42-.92,2.16-1.31.71-.37,1.47-.66,2.37-1.05-.07-.49-.15-1.02-.24-1.71-1.32.86-2.56.61-3.82.46-1.84-.22-3.49-.92-5.12-1.72-.24-.12-.48-.26-.67-.44-.6-.59-1.16-1.22-1.75-1.81-.61-.6-1.09-1.26-1.45-2.06-.36-.81-.58-1.8-1.62-2.12-1.5-4.41-2.5-8.95-3.3-13.55.21.19.32.41.39.65,1.32,4.39,2.59,8.8,3.99,13.17.37,1.15,1.03,2.25,1.75,3.23.61.83,1.58,1.3,2.53,1.77,1.77.87,3.61,1.55,5.5,2.12,2.23.68,2.43.59,3.61-1.4,1.1-1.85,2.16-3.75,3.43-5.49,1.21-1.66,2-3.47,2.6-5.39.85-2.71.89-5.54,1.15-8.34.06-.69.13-1.38.16-2.07.07-1.81.13-3.62.18-5.42.02-.67,0-1.33,0-2.13-.42.18-.69.29-.97.41-.97.42-.99.42-.95,1.41.13,3.17-.04,6.33-.48,9.47-.3,2.17-.76,4.31-1.62,6.34-.21.5-.49.96-.72,1.45-1.21,2.58-2.84,4.86-4.89,6.84-.91.87-1.6.75-2.17-.36-.09-.17-.13-.36-.2-.54-1.5-3.75-2.16-7.72-2.97-11.65-.41-1.95-.5-3.97-.73-5.96-.14-1.23-.35-2.45-.4-3.68-.08-1.93-.04-3.86-.07-5.79-.05-3.52.13-7.01.7-10.49.55-3.33,1.66-6.42,3.61-9.18.88-1.24,1.97-2.24,3.34-2.88.94.88,2.2.96,3.17.22-.56-.61-1.25-1.01-1.99-1.31-1.7-.7-3.17.18-4.38,1.09-1.3.97-2.38,2.3-3.4,3.6-2.11,2.66-4.17,5.36-6.81,7.54-1.34,1.11-2.91,1.75-4.63,1.89-.56.05-1.14-.16-1.7-.27-.79-.15-.95-.08-1.14.7-.12.48-.15.99-.2,1.49-.27,2.72-.63,5.44-.78,8.17-.12,2.23-.14,4.46.12,6.71.23,2,.48,3.98,1.08,5.9.96,3.02,2.01,6,3.71,8.71l.02-.03c-.25-.27-.59-.5-.75-.82-.59-1.13-1.12-2.28-1.67-3.43-.34-.73-.67-1.46-1-2.2-.16-.35-.38-.49-.81-.48-.86,0-1.65-.29-2.29-.89.68.05,1.21.92,1.91.46-.33-1.54-.66-2.99-.95-4.45-.57-2.9-.48-5.84-.47-8.77,0-3.64.4-7.23,1.51-10.72.08-.24.03-.64-.13-.8-.28-.29-.68-.29-1.04,0-1.08.87-2.16,1.74-3.26,2.59-1.46,1.13-2.88,2.34-4.43,3.34-1.24.79-2.1,1.75-2.53,3.14-.41,1.33-.34,2.66-.17,3.99.13,1.07.79,1.91,1.47,2.7.26.31.59.63,1.1.37-.22-1.11-.43-2.2-.66-3.28-.22-1.07-.29-2.15-.04-3.22.19.79.26,1.58.42,2.37.67,3.41,1.79,6.64,4.18,9.27.98,1.07,2.08,2.04,3.13,3.05-.58-.09-.95-.77-1.74-.58.13.23.17.45.3.53.94.52,1.85,1.12,2.86,1.46.74.24,1.21.6,1.49,1.27.16.39.29.8.46,1.18.88,1.97,1.83,3.91,3.2,5.6.68.84,1.47,1.55,2.49,1.98.33-.22.62-.42.9-.61ZM139.17,352.43c.7-.03.74-.48.71-1.12-.5.31-.83.58-.69,1.14-.43.1-.6.34-.5.88.46-.23.7-.45.47-.9ZM127.59,190.02c-1.12.39-2.33,1.33-2.66,2.06.79-.13,2.12-1.19,2.64-2.08.94-.07,1.48-.68,1.94-1.4-.83.22-1.5.66-1.91,1.43ZM182.85,132.97c-.99.47-1.7,1.78-1.29,2.61.44-.73.86-1.39,1.25-2.08.08-.14.02-.36.02-.55.69-.19.98-.67,1.11-1.49-.74.38-1.27.7-1.08,1.52ZM141.82,348.34c-.2.08-.47.11-.57.26-.38.57-.71,1.18-1.03,1.78-.1.18-.1.41-.21.85,1.11-.86,1.53-1.84,1.77-2.92.77-.57,1.16-1.34,1.19-2.3-.65.64-1.43,1.21-1.16,2.33ZM149.7,361.23c-.04,1.01.78,1.92,1.96,1.91-.74-.71-1.36-1.3-1.98-1.89-.04-.18-.03-.39-.12-.54-.62-1.02-1.25-2.03-1.9-3.04-.09-.14-.28-.23-.51-.41-.02.26-.09.44-.03.54.59,1.04,1.18,2.07,1.83,3.08.13.2.5.24.76.36ZM173.54,307.92c1.18.19,2.07-.4,2.94-1.12-.56-.18-1.2-.43-1.62-.22-.53.26-.87.89-1.3,1.36-.23-.09-.56-.33-.69-.25-.61.39-1.4.65-1.52,1.54,1.16.11,1.74-.24,2.19-1.32ZM162.01,106.6l-.02-.03c-.1.16-.18.35-.31.49-1.11,1.18-1,2.7-1.14,4.14-.01.16.12.33.26.69,1.2-1.46,2.29-2.79,3.43-4.17.37.2.65.17.97-.28,1.17-1.63,2.42-3.2,3.62-4.8.14-.19.2-.44.3-.66-.86.46-1.55,1.06-2.3,1.58-.76.53-1.19,1.47-2.22,1.69.08-.44.25-.8.41-1.17.1-.24.34-.59.25-.72-.46-.69-.02-1.2.3-1.69.7-1.06,1.41-2.13,2.21-3.11,1.81-2.21,3.8-4.27,6.03-6.08.24-.19.43-.45.72-.77-.31-.07-.43-.13-.52-.11-.26.06-.52.15-.77.25-2.53.94-4.7,2.48-6.83,4.08-.54.41-1.17.76-1.16,1.61,0,.21-.27.45-.45.65-2.73,3.05-5.18,6.32-7.16,9.91-.78,1.42-1.54,2.86-2.12,4.36-.98,2.55-1.81,5.16-2.69,7.75-.2.6-.52,1.2-.25,2.02.72-.15,1.41-.3,2.1-.45,0-1.98.56-3.72,1.17-5.41.6-1.67,1.45-3.26,2.18-4.88-.05-.04-.1-.08-.14-.12-.5.34-1,.68-1.5,1.01-.09-.29-.06-.45.03-.55,1.27-1.4,2.55-2.79,3.82-4.2.48-.53,1.06-.88,1.76-1.04ZM170.52,332.72c.48-1.1.95-2.2,1.48-3.42-1.08.06-1.96.12-2.97.18.2.71.38,1.25.5,1.81.12.56.18,1.14.28,1.8.34-.18.54-.29.74-.39-.14.18-.24.44-.42.53-1.85.89-2.45,2.9-3.93,4.15.73.9,1.65,1.23,2.57,1.43,2.25.5,3.96-.58,4.57-2.81.14-.52.24-1.05.35-1.58.39-1.88,3.17-2.96,4.38-2.69.39.09.79.34,1.07.63,1.06,1.12,1.4,2.44.96,3.95-.33,1.15-.66,2.3-.94,3.46-.47,1.97.44,3.54,2.35,4.1,1.34.39,2.84-.54,3.2-1.98-.06-.05-.11-.11-.18-.14-.1-.05-.22-.07-.33-.12-1.3-.6-2.15-1.5-1.98-3.05.08-.72.18-1.45.35-2.15.53-2.17.35-4.3-.41-6.36-.76-2.08-3.15-2.98-5.28-2.37-1.22.35-2.41.8-3.58,1.29-.43.18-.83.54-1.12.9-.28.35-.37.84-.61,1.24-.33.55-.71,1.07-1.07,1.61ZM138.07,206.51c-.73,1.25-.59,2.67-.74,4.03-.08.69-.18,1.41.16,2.1,1.23-1.91,2.06-3.88,1.22-6.25-.25.06-.46.11-.67.16.14-.43.48-.9.39-1.27-.22-.87-.65-1.7-1.04-2.63-.49.22-.85.35-1.18.53-1.05.59-1.26,1.07-1.08,2.26.13.88.21,1.76.32,2.64.25,2.05-1,3.32-2.41,4.45-.52.42-1.21.5-1.88.31-1.82-.51-3.21.2-4.45,1.49-1.12,1.17-1.67,2.63-1.9,4.15-.23,1.51-.2,3.07-.2,4.6,0,.29.36.65.64.85,2.55,1.88,5.11,3.73,7.67,5.58.11.08.27.08.39.12.07-.77.08-1.49.21-2.19.22-1.21.52-2.41.77-3.62.33-1.56,1.06-3.08.39-4.73-.01-.04.07-.11.1-.16.22.11.43.22.65.33.63-1.28,1.76-5.13,1.67-5.8-.32.35-.58.67-.88.95-1.18,1.11-2.67,1.53-4.21,1.72-2.14.26-2.84.84-3.52,3.05-.03.11-.03.23-.07.34-.35.96.01,1.74.63,2.44.66.75,1.28.82,2.03.28.86-.62.94-.95.39-1.92-.26-.46-.35-.89.09-1.24.59-.46,1.23-.86,2.32-.79-.51.3-.79.48-1.08.64q-1.12.58-.8,1.77c.02.07.05.15.08.22.35.9-.26,1.36-.83,1.83-.57.46-1.23.52-1.83.15-.77-.48-1.34-1.17-1.5-2.11-.42-2.47,1.48-5.03,3.96-5.11,1.21-.04,2.26-.43,3.32-.86,1.13-.45,1.76-1.49,1.74-2.73,0-.85-.04-1.71.05-2.55.12-1.09.03-2.28,1.06-3.06ZM154.08,292.38c-.53,1.44-1.1,2.87-1.57,4.34-.61,1.88-.15,3.65.79,5.32.52.93,1.4,1.43,2.39,1.7.85.23,1.93-.46,1.88-1.17-.06-.88-.19-1.76-.23-2.65-.13-2.8-.33-5.6-.32-8.4,0-2.11.28-4.23.47-6.33.04-.45-.1-.73-.4-1.01-.62-.57-1.25-1.14-1.83-1.75-.72-.75-1.36-1.58-2.1-2.3-2.3-2.24-4.44-4.61-6.3-7.22-.64-.9-1.04-1.01-2.06-.61-1.06.41-1.63,1.19-1.86,2.31-.15.7-.43,1.57-1.28,1.59-.92.02-1.19-.85-1.43-1.59-.42-1.29-.36-2.6-.09-3.89.34-1.62.78-3.22,1.17-4.83.03-.13-.02-.29-.04-.64-1.25.84-2.38,1.6-3.41,2.3.2,2.62.37,5.08.58,7.53.09,1.03.25,2.06.45,3.08.1.48.32.96.6,1.36,1.04,1.51,3.17,1.52,4.04-.03.13-.23.29-.46.4-.7.38-.86,1.1-1.41,1.86-1.85.58-.34,1.23-.55,1.98-.39,2.25.47,3.07,2.88,1.99,4.72-.42.71-1.05,1.34-1.68,1.88-1.28,1.08-1.78,1.03-3.06-.1-.61-.54-1.36-.42-1.7.33-.19.41-.26.88-.33,1.33-.16,1.13.58,2.22,1.71,2.34,2.33.26,4.53.07,6.3-1.8,1.21-1.28,2.73-1.23,4-.06.61.56.79,1.3.87,2.08.19,1.99-.94,3.51-1.81,5.13.11-.29.21-.58.33-.86.64-1.52.94-3.07.71-4.73-.14-.97-.66-1.58-1.51-1.87-.81-.27-1.66-.1-2.24.56-1.7,1.93-3.87,2.43-6.29,2.09-2.64-.38-3.11-2.96-1.94-4.66.76-1.1,1.42-1.07,2.23,0,.55.73.94.83,1.79.46,1.78-.78,2.62-2.31,2.38-4.37-.13-1.1-.78-1.74-1.87-1.84-1.5-.14-2.61.52-3.45,1.7-.27.38-.48.79-.75,1.17-.87,1.26-2,1.47-3.31.63-.27-.18-.54-.35-1.02-.66.04.7.02,1.16.1,1.6.5,2.77,1.03,5.53,1.52,8.3.14.77.53,1.27,1.24,1.54,1.46.54,2.88.36,4.25-.32.38-.19.74-.42,1.13-.58.99-.41,1.72-.27,2.43.45.73.74.94,1.64.43,2.54-.66,1.18-1.35,2.35-2.48,3.17-.37.27-.72.59-1.04.92-.7.72-1.1,1.56-1.04,2.61.1,1.78.93,3.23,2.05,4.55.41.49,1.01.65,1.66.68.78.03,1.6.15,2.13.75.94,1.07,1.85,2.18,2.61,3.37.33.52.68.78,1.21.92.85.23,1.76.34,2.54.72,1,.49,2,.51,3.04.45.65-.04,1.31-.1,1.95-.24,1.06-.24,2.11-.54,3.33-.86-.54-.65-.92-1.18-1.39-1.61-.16-.15-.56-.11-.83-.08-.45.05-.94.34-1.33.24-1-.25-1.99-.61-2.93-1.04-1.14-.53-1.7-1.52-1.83-2.76-.04-.4-.15-.79-.23-1.22-.29.03-.45.01-.58.07-1.38.6-2.55.02-3.47-.87-1.25-1.22-1.97-2.82-1.95-4.57.02-2.38,1.02-4.47,2.44-6.36ZM95.15,224.38c-1.29,1.09-1.68,2.61-1.96,4.17-.05.27.02.55.05,1.11.38-.5.59-.76.77-1.04.98-1.48,1.98-1.9,3.74-1.46,2.79.71,5.63.94,8.49.76,1.02-.06,2.02-.34,3.09-.52,0-.53,0-.9,0-1.28-.03-1.66.02-3.32.37-4.96.12-.54.09-1.17-.05-1.71-.28-1.12-.65-2.22-1.05-3.3-.33-.9-.74-1.76-1.22-2.87.88.81,1.18,1.69,1.56,2.5.4.83.46,1.81,1.11,2.57.11-.45.16-.9.1-1.32-.31-2.06-.66-4.11-.99-6.16-.13-.78-.25-1.56-.38-2.35.35.8.61,1.6.81,2.42.21.86.33,1.74.54,2.6.2.78.09,1.65.61,2.53.15-.31.24-.47.3-.64.55-1.64,1.07-3.3,1.64-4.93.92-2.62,2.03-5.16,3.49-7.54.48-.79,1-1.57,1.36-2.42.73-1.68,1.7-3.2,2.86-4.6.16-.19.26-.43.37-.63-.47-.47-1.18-.49-1.55-1.26.75.37,1.32.66,1.94.97.62-.83,1.63-1.24,1.98-2.33-1.05-.56-2.06-1.11-3.08-1.62-.48-.23-1-.37-1.39-.51-.91.68-1.72,1.33-2.56,1.92-3.28,2.27-6.19,4.97-9.04,7.73-1.08,1.04-2,2.24-3.04,3.32-1.5,1.55-2.42,3.3-2.45,5.53-.02,1.73-.26,3.46-.51,5.17-.36,2.44-1.34,4.65-2.72,6.7-1.35,2.02-2.89,3.91-3.85,6.18-.04.09-.19.14-.29.21.18-.77.5-1.43.77-2.11.11-.27.1-.58.14-.87.19-.1.45-.14.56-.29.97-1.29,1.91-2.6,2.85-3.92.11-.15.09-.38.17-.75-.29.18-.45.23-.53.33-.96,1.3-1.92,2.6-2.85,3.92-.14.19-.12.49-.18.73ZM160.63,118.92c.5-.2.98-.48,1.5-.6.94-.22,1.5-.71,1.58-1.71.03-.34.22-.66.28-1,.03-.18-.07-.39-.11-.58-.08-.02-.16-.04-.24-.06l-.81,1.55c.22-.97.59-1.88,1.05-2.73,1.3-2.42,2.85-4.68,4.51-6.86.14-.18.29-.37.39-.58,1.02-2.11,2.47-3.91,4.12-5.55.75-.75,1.52-1.54,2.62-1.76.86.69.91.79.32,1.58-.89,1.21-1.85,2.37-2.76,3.56-.24.31-.64.59-.43,1.17,1.13-.38,1.47-1.63,2.47-2.17-1.53,2.03-3.01,3.99-4.49,5.96-2.27,3.03-3.68,5.39-3.82,6.43.64-.09,1.01-.47,1.35-.96,1.05-1.52,2.12-3.04,3.18-4.55.09-.12.23-.21.35-.31l.18.15c-.94,1.39-2.2,2.59-2.72,4.25.69-.39,1.08-1.05,1.62-1.57.51-.5.83-1.24,1.68-1.41-.39.57-.78,1.15-1.17,1.72l.13.16c.72-.45,1.45-.89,2.28-1.4.35,1.05.38,2,.48,2.95.11,1,.27,1.99.46,2.97.18.94.4,1.89.66,2.81.26.92.4,1.9,1.09,2.7.25-.56.4-1.1.43-1.65.06-.96-.02-1.94.08-2.9.11-1.02.4-2.03.55-3.05.08-.56.1-1.14.02-1.7-.12-.88.03-1.09.88-1.09-.14.69-.28,1.41-.42,2.13-.14.74-.7,1.42-.34,2.43,1.17-1.72,1.96-3.5,3.38-4.82.01.19-.05.33-.13.46-1.35,2.15-2.37,4.43-2.64,6.97-.1,1-.35,2.08.5,2.97.13.14.11.44.13.67.02.39-.05.79.03,1.16.15.67-.03,1.45.7,2.19.15-.54.32-.92.35-1.3.1-1.38.13-2.77.24-4.15.19-2.58,1.22-4.89,2.28-7.32.73.93-.33,1.35-.4,2-.07.72-.38,1.41-.54,2.13-.16.75-.29,1.52-.4,2.28-.1.72-.14,1.46-.2,2.19-.06.69-.48,1.38-.03,2.2.42-.47.85-.94.62-1.44-.41-.89.08-1.6.13-2.45.56.63-.4,1.42.39,1.96.57-.4.87-.86.96-1.54.11-.84.35-1.66.59-2.47.25-.85.57-1.69.86-2.53.14.2.09.34.05.48-.27,1-.57,2-.8,3.02-.05.2.14.46.22.69.23-.1.52-.14.67-.31.49-.58.95-1.17.95-2.03,0-.6.22-1.21.38-1.8.47-1.73,1.3-3.3,2.19-4.84.3-.52.66-1.15.61-1.7-.2-1.98.71-3.41,2-4.73.26-.26.47-.56.74-.88-.99-.25-1.49-.21-2.5-.08-.59.07-1.3.14-1.78-.12-1.2-.64-1.32-2.06-.29-3,.74-.67,1.6-1.21,2.4-1.81.32-.24.76-.37.85-.94-.4-.02-.74-.06-1.08-.05-2.19.03-4.39-.12-6.56.43-1.18.29-2.16-.61-2.1-1.83.02-.51.29-1.02.46-1.52.09-.26.22-.52.45-1.03-.65.21-1.05.32-1.43.47-.88.35-1.72.5-2.39-.35-.43.15-.8.28-1.33.47.24-.39.37-.61.5-.82-.67-.96-.67-1.42,0-2.3.16-.21.35-.42.55-.59,1.22-1,2.45-1.99,3.67-2.99.25-.2.47-.42.87-.77-2.18-.18-4.12-.11-5.95.5-2.27.75-4.47,1.71-6.7,2.56-.42.16-.88.23-1.31.37-.88.29-1.84.48-2.62.95-1.12.67-2.11,1.55-3.16,2.34-.12.09-.3.1-.46.15.35-.67.78-1.2,1.26-1.69.46-.47.98-.87,1.44-1.34.45-.46,1.25-.58,1.43-1.37-.99,0-1.07.04-1.5.46-.21.2-.44.43-.7.52-1.25.42-2.28,1.12-3.03,2.21-.09.13-.22.22-.34.33-.05-.04-.11-.09-.16-.13.38-.66.76-1.31,1.16-2.01-.7-.86-.32-1.66.16-2.45.14-.23.33-.43.49-.64,1.44-1.85,3.26-3.27,5.18-4.59.61-.42,1.2-.88,1.8-1.32-.03-.08-.06-.15-.1-.23-.33.04-.67.04-.98.13-2.51.75-5.02,1.5-7.37,2.72-.96.5-1.98.85-3.08.25-.41-.22-.82-.06-1.17.26-1.43,1.35-2.99,2.59-4.28,4.06-1.79,2.02-3.41,4.19-5.06,6.34-.81,1.06-1.72,1.63-3.08,1.14-.06-.02-.14.04-.27.08-.29.92-.95,1.81-.41,2.97.87-.38,1.57-.07,2.18.54.13-.12.23-.18.29-.27,1.68-2.25,3.31-4.55,5.06-6.76,1.23-1.54,2.63-2.94,4.42-3.86.27-.14.54-.37.83-.39.35-.03.79.02,1.04.22.29.24.32.67.09,1.06-.18.31-.3.67-.53,1.21.84-.32,1.47-.56,2.14-.82.27.76.28,1.39-.16,2.03-.63.92-1.22,1.88-1.81,2.83-.43.7-.73,1.45-.62,2.38.98.06.88,1.14,1.54,1.77.27-.36.49-.66.72-.95.52-.66,1.01-1.34,1.57-1.96.21-.23.57-.38.88-.44.88-.16,1.28.36.89,1.25-.37.86-.35,1.58.27,2.28.79-.66,1.05-1.63,1.82-2.25.62-.5.99-1.28,1.59-1.81,1.83-1.61,3.84-2.97,6.01-4.07.89-.45,1.83-.82,2.78-1.14.43-.14.94-.13,1.25.35.34.52-.01.91-.31,1.23-.5.54-1.06,1.02-1.62,1.49-2.22,1.88-4.13,4.05-5.87,6.37-.19.26-.3.63-.31.96-.03.58.23.76.79.68.53-.08,1.05-.14,1.58-.24.18-.03.37-.11.5-.22,1.13-.93,2.25-1.87,3.38-2.8.12-.1.31-.1.59-.18-.1.25-.12.37-.19.44-.94.91-1.92,1.78-2.82,2.73-2,2.11-3.71,4.46-5.17,6.96-1.6,2.73-3.04,5.56-4.49,8.37-.31.6-.39,1.31-.58,1.96-.66-.59-.58-1.35-.33-2.03.56-1.56,1.22-3.08,1.84-4.62.13-.33.26-.66.39-.99-.09-.05-.18-.11-.26-.16-.28.34-.6.65-.84,1.02-.27.42-.43.91-.72,1.32-1.43,2-2.77,4.04-3.68,6.34.61-2.79,2.46-4.93,4.04-7.41-1.35-.07-.99-1.1-1.28-1.77-.57.09-.68.54-.85.9-.76,1.61-1.52,3.21-2.21,4.84-.55,1.31-1.01,2.65-1.48,4-.1.29-.05.64-.09,1.17,2.01-.85,3.74-1.76,5.48-2.63ZM142.23,177.04c-.33,2.93-.86,5.84-.81,8.86.29,0,.53.05.73,0,2.15-.61,4.25-1.32,6.3-2.22,1.1-.48,1.59-1.21,1.7-2.33.06-.57.14-1.14.2-1.72.05-.53-.19-.85-.69-1.06-1.27-.53-2.54-1.07-3.79-1.66-1.27-.6-2.48-.78-3.67.16.1-.81.61-1.13,1.37-1.1.46.02.94.03,1.36.17.99.32,1.95.72,2.92,1.1.77.3,1.53.6,2.3.91.31-.66-.1-.81-.4-1.04-2.1-1.62-4.4-2.84-6.92-3.68-.87-.29-1.64-.14-2.28.38-1.26,1.02-2.48,2.08-3.64,3.21-.39.37-.68.98-.75,1.51-.24,1.83-.46,3.68-.5,5.52-.07,3.01.05,6.01.4,9.01.47,4.01,1.06,7.96,2.93,11.6.67,1.3.82,2.65.43,4.05-.72,2.56-1.4,5.14-2.23,7.67-1.21,3.71-2.25,7.46-3.05,11.28-.05.26-.11.53-.13.8-.12,1.81-.08,1.89,1.46,2.85.94.59,1.95,1.1,2.55,2.12.09.15.29.25.47.31,1.8.64,3.29,1.8,4.82,2.88,1.45,1.02,2.87,2.09,4.33,3.09.24.16.69.22.95.11,2.59-1.1,5.24-2.04,7.69-3.47.63-.37,1.09-.8,1.42-1.44.41-.8.55-1.65.38-2.48-.35-1.71-.96-3.27-2.94-3.77-1.11-.28-1.98-.97-2.78-1.79-1.12-1.14-1.74-2.52-2.24-4-.39-1.14-.47-2.26-.21-3.41.27-1.17.6-2.32.85-3.48.12-.56.18-1.15.13-1.72-.07-.76-.45-1.44-1.17-1.75-1.39-.61-4.79.54-5.63,1.84-.04.07-.09.13-.11.2-.58,1.47-1.17,2.94-1.73,4.41-.06.16,0,.36,0,.78.5-.34.84-.55,1.17-.78.88-.63,1.76-1.26,2.84-1.51.7-.17,1.06.08,1.02.79-.03.45-.2.9-.33,1.34-.29,1.04-.74,2.06-.87,3.11-.27,2.19,0,4.24,2.04,5.64.76.52,1.5,1.08,2.18,1.71.69.63.98,1.52.81,2.42-.33,1.8-2.23,3.35-4.05,3.42-.3.01-.62-.04-.9-.13-1.7-.55-2.55-1.98-2.29-3.77.1-.69.18-1.38.26-2.07.09-.73-.2-1.26-.83-1.65-.75-.46-1.51-.51-2.29-.11-.97.5-1.74,1.11-1.66,2.38.05.68-.09,1.38-.17,2.07-.02.2-.12.39-.23.74-.61-.9-.33-1.7-.22-2.46.14-.99.43-1.96.6-2.95.48-2.81,1.06-5.6,1.84-8.34.8-2.8,2.11-5.39,3.31-8.02.39-.85.96-1.72,2.2-1.49.21.04.46-.03.68-.1,1.47-.46,2.96-.86,4.39-1.41,1.54-.59,3.16-1.12,4.52-2.03,2.08-1.39,4-3.02,5.9-4.65,1.28-1.1,2.4-2.39,3.62-3.58.97-.94,2.05-1.77,2.94-2.77,1.56-1.74,3.36-3.19,5.2-4.6.77-.59,1.74-.96,2.68-1.27,2.31-.75,4.74-.39,7.1-.7,1.44-.19,2.95-.22,4.31-.68,2.45-.82,4.53-2.31,6.14-4.37.7-.89,1.26-1.88,1.3-3.04.07-2.09-.08-4.17-.46-6.22-.17-.91-.44-1.06-1.37-.91-1.44.23-2.9.38-4.33.69-1.46.31-2.91.72-4.34,1.16-1.1.33-2.16.79-3.25,1.15-.44.14-.55.35-.36.78.11,0,.24.04.34,0,1.74-.75,3.58-1.13,5.43-1.52,1.33-.28,2.37.51,3.55.79.13.03.24.2.32.32.81,1.34.86,3.73-.83,4.85-1.21.8-2.48,1.42-3.86,1.78-1.45.37-2.93.52-4.46.29-2.08-.32-4.06-.92-5.98-1.73-.69-.29-1.18-.16-1.64.37-.68.79-1.46,1.51-2.02,2.37-.95,1.48-2.16,2.71-3.38,3.94-2.65,2.65-5.52,5.05-8.41,7.43-2.9,2.38-5.87,4.64-9.16,6.47-1.28.72-2.58,1.4-4.03,1.71-1.15.25-1.45.11-2.03-.94-.61-1.12-1.22-2.24-1.79-3.37-.31-.62-.6-1.26-.81-1.92-.89-2.84-1.47-5.73-1.72-8.72-.26-3.14-.2-6.24.34-9.33.2-1.12.35-2.29,1.06-3.26ZM166.93,148.89v-.02c-.17.17-.35.32-.48.5-1.86,2.49-4.47,3.84-7.3,4.88-2.85,1.05-5.85.9-8.79,1.05-1.94.1-3.62.64-5.17,1.72-.2.14-.43.24-.91.51.16-.62.18-1,.34-1.3.23-.44.54-.85.87-1.22,1.26-1.46,1.86-3.16,2.02-5.12-.53-.33-1.04-.67-1.58-.96-1.05-.57-1.79-1.46-2.48-2.39-.57-.77-.59-1.56-.04-2.36.59-.86,1.18-1.72,1.74-2.6.15-.23.21-.5.32-.76-.07-.05-.14-.09-.21-.14-.28.25-.53.53-.84.73-.75.47-1.5.93-2.29,1.33-.31.16-.72.22-1.09-.39,1.58.16,2.62-.6,3.61-1.49.14-.13.32-.28.49-.29,1.07-.08,1.46-.99,2.13-1.57q-.66-.83.14-1.44c.52-.39.47-.89-.15-1.14-.16-.06-.37,0-.55,0-.3.61-.58,1.19-.86,1.76-.71,1.48-1.93,2.41-3.44,2.91-.89.3-1.79.11-2.4-.68-.87-1.12-1.66-2.3-2.5-3.44-.31-.42-.26-.86.07-1.15,1.51-1.36,4.02-2.61,6.32-1.15,1.32.84,2.78,1.24,4.39,1.2,1.34-.03,2.34-.59,3.27-1.43,1.47-.02,2.96.05,4.57-.03-.15-1.33.4-2.21,1.2-3,1.42-1.41,2.74-2.92,4.6-3.82,1.44-.7,2.86-1.15,4.41-.43,1.28.6,2.62,1.1,3.71,2.05.46.4,1.01.71,1.52,1.06.48.34.93.3,1.35-.12.38-.37.77-.73,1.07-1.02,1.51.41,2.85.91,4.42.53-.23-.51-.38-.86-.56-1.19-1.18-2.18-2.22-4.41-2.88-6.82-.71-2.61-1.48-5.2-1.4-7.95,0-.23,0-.47-.06-.69-.13-.49-.54-.62-.84-.22-.52.69-1.27.93-1.99,1.29-1.36.69-2.75,1.36-4.01,2.2-1.66,1.1-3.13,2.52-5.24,2.76-.15.02-.3.1-.42.19-1.15.97-2.8,1.12-3.84,2.28-.07.07-.23.12-.32.09-.45-.14-.71.16-1.04.36-.28.18-.62.3-.95.37-1.07.22-2.09.76-3.24.57-.13-.02-.31.08-.41.18-.59.57-1.36.69-2.11.86-.56.12-1.12.36-1.68.35-.59-.02-1.16-.38-1.75-.41-1.2-.06-2.33-.22-3.46-.7-.89-.38-1.93-.39-2.89-.59-.33-.07-.65-.25-.97-.36-.23-.08-.47-.15-.88-.28.06,2.31.09,4.47.19,6.62.06,1.22.12,2.37-.88,3.33-.57.55-.45,1.11.25,1.82.5.52.88.09,1.29-.2,1.22-.91,2.55-1.22,4.02-.72.69.23,1.37.54,2.09.65.82.13,1.4.61,2.02,1.05.17.12.22.41.32.62-.05.06-.11.12-.16.19-1.04-1.16-2.53-1.23-3.85-1.73-1.45-.54-2.92-.43-4.21.45-1.12.76-2.26,1.59-2.42,3.08-.09.83-.18,1.77.93,2.15.12.04.2.22.28.34.24.39.4,1.03.73,1.14.74.23.3.83.56,1.21.88,1.3,1.24,2.85,1.38,4.37.3,3.23.08,6.47-.27,9.7-.25,2.34-.44,4.68-.61,7.03-.09,1.27.47,2.34,1.36,3.19.81.77,1.66,1.52,2.56,2.17,2.43,1.77,4.85,3.55,7.35,5.22,1.83,1.22,3.74,2.32,5.67,3.36.94.51,2.01.81,3.12.38,1.15-.44,2.35-.76,3.43-1.32,1.74-.91,3.41-1.96,5.11-2.96,3.32-1.95,6.14-4.52,8.91-7.15.98-.93,1.94-1.88,2.89-2.84.3-.3.57-.63.78-1,2.16-3.82,2.7-7.98,2.48-12.27-.06-1.22-.42-2.43-.65-3.64-.3-1.51-.65-3.01-.91-4.53-.26-1.56-.44-3.13-.64-4.7-.08-.61-.18-1.22-.21-1.83-.03-.6-.16-1.27.74-1.45.19-.04.31-.41.46-.63.34-.51.63-1.07,1.04-1.53,2.48-2.82,5.13-5.46,7.98-7.89,3-2.56,6.03-5.06,9.01-7.64,2.45-2.13,4.86-4.3,7.23-6.51,1.48-1.38,2.76-2.96,3.81-4.71-.56,1.75-1.78,3.07-2.94,4.37-1.51,1.7-3.17,3.28-4.89,4.78-3.37,2.94-6.82,5.81-10.26,8.68-1.33,1.12-2.42,2.47-3.63,3.7-2.72,2.74-4.77,5.96-6.83,9.18-.16.25-.21.57-.28.87-.11.48-.22.97-.3,1.45-.05.3-.13.62-.08.91.44,2.31.9,4.61,1.37,6.91.05.23.24.44.43.79.27-.33.45-.56.63-.78,1.14-1.4,2.2-2.89,3.44-4.19,1.65-1.74,3.56-3.19,5.5-4.6.77-.56,1.44-1.28,2.12-1.95.46-.45.88-.95,1.43-1.56-.08-.25-.23-.64-.34-1.03-.24-.87-.61-1.76.27-2.52.16.05.29.06.37.13.21.17.4.36.59.55.24.25.44.54.7.77.61.55.95.52,1.59-.01,2.18-1.8,3.66-4.16,5.16-6.5.73-1.13,1.36-2.33,2.02-3.5.21-.37.4-.75.57-1.13.99-2.17,1.96-4.36,2.98-6.53,1.31-2.78,2.06-5.72,2.61-8.73.29-1.59.7-3.16,1.03-4.74.1-.49.32-1-.1-1.64-.41.55-.76,1-1.1,1.46-.3.4-.56.83-.88,1.22-1.95,2.4-4.62,3.96-7.04,5.8-2.05,1.57-4.32,2.84-6.47,4.27-1.73,1.15-3.46,2.32-5.15,3.53-1.38.99-2.79,1.95-4.03,3.1-1.83,1.7-3.59,3.51-5.26,5.37-1.36,1.52-2.52,3.21-3.79,4.81-.78.98-1.59,1.93-2.47,2.99,0,.1.03.37,0,.64-.08.48-.41.78-.88.75-.31-.02-.7-.15-.88-.37-.32-.39-.08-.81.24-1.12.17-.17.39-.29.61-.44-.61-.78-1.09.12-1.71-.03-.34-.13-.44-.91-1.2-.57-.04.12-.07.3-.15.47-.52,1.04-1.49,1.21-2.42.5-1.41-1.07-2.8-2.17-4.46-2.87-1.59-.68-3.16-.87-4.75.03-2.02,1.15-3.49,2.9-5.03,4.57-.26.29-.41.68-.62,1.02.07.06.13.13.2.19.2-.11.45-.18.6-.34.47-.51.9-1.06,1.36-1.58,1.08-1.21,2.24-2.34,3.61-3.23.76-.49,1.6-.85,2.52-.67,1.34.25,2.59.78,3.71,1.55.85.58.82,1.01-.11,1.47-.38.19-.57.37-.47.78.27,1.12-.1,2.14-.55,3.13-.87,1.93-2.63,2.97-4.72,2.83-1.01-.06-1.82-.57-2.61-1.14-.3-.22-.65-.38-.97-.56h0c.5-.3.25-.58-.08-.75-.69-.35-1.4-.27-2.21.06.08.59.18,1.19.25,1.79.38,3.31-.05,4.75-3.46,5.72-.81.23-1.6.54-2.42.77-2.12.59-4.24,1.15-6.48.71-.24-.05-.6.12-.78.3-.53.54-.48.96.15,1.72.99,1.2,2.09,2.28,3.55,2.9.59.25.73.66.63,1.19-.11.56-.22,1.15-.48,1.65-.58,1.13-1.26,2.2-1.89,3.31-.16.27-.28.56-.42.84.07.06.13.11.2.17.26-.12.52-.25.78-.36.78-.32,1.53-.79,2.34-.93,2-.33,4.03-.49,6.05-.73.95-.11,1.91-.18,2.85-.36,3.12-.6,5.69-2.26,8.05-4.29.4-.34.89-.57,1.33-.85ZM158.21,285.3c-.09,1.29-.25,2.4-.24,3.51.03,3.36.13,6.72.21,10.07.01.54.07,1.08.13,1.61.17,1.42.39,2.83.51,4.24.19,2.2,1.95,3.74,4.11,3.47.56-.07,1.1-.33,1.62-.57.97-.45,1.99-.75,3.05-.92-.78.54-1.55,1.07-2.42,1.67.62.58,1.13,1.04,1.62,1.52.59.58,1.23.62,1.88.14.96-.7,1.95-1.38,2.84-2.17,1.15-1.02,2.18-2.17,3.31-3.22,1.81-1.67,3.94-3.01,5.17-5.26.07-.12.31-.14.46-.2.32.38.14.62-.08.87-.99,1.13-1.98,2.26-2.97,3.4-.57.65-1.13,1.31-1.69,1.97.04.08.09.16.13.24,1.13-.09,2.28.24,3.4-.19,1.42-.55,2.68-1.39,3.77-2.43,1.2-1.14,2.32-2.36,3.46-3.56,1.22-1.29,2.42-2.59,3.62-3.89,1.85-2.02,3.71-4.03,5.53-6.08,1.3-1.47,2.54-2.99,3.81-4.49,1.39-1.65,2.84-3.25,4.17-4.95,2.24-2.88,3.89-6.11,5.35-9.44,1.2-2.75,2.31-5.55,3.47-8.32.22-.52.52-1.01.78-1.52-.41-.27-.74-.49-1.12-.74.21-.31.35-.54.52-.74,1.7-1.95,3.39-3.91,5.12-5.83,1.19-1.33,2.21-2.75,2.91-4.42.89-2.13,1.85-4.23,2.83-6.32,1.08-2.29,1.92-4.62,1.71-7.22-.09-1.18.04-2.38-.03-3.57-.1-1.77-.23-3.54-.45-5.3-.25-1.95-.7-3.87-.91-5.82-.37-3.33-1.38-6.48-2.44-9.62-.65-1.94-1.42-3.84-2.07-5.77-.91-2.69-2.24-5.16-3.88-7.46-1.15-1.62-2.55-2.57-4.71-2.02-1.63.41-3.31.82-4.58,1.82-1.33,1.06-2.37,2.52-3.39,3.92-1.29,1.77-2.35,3.71-3.64,5.49-1.55,2.14-2.88,4.41-3.87,6.82-1.77,4.31-2.31,8.86-2.24,13.5,0,.23.11.45.24.96,2.19-4.66,4.21-9.1,7.72-12.6-.89,1.53-1.89,3-2.79,4.52-.91,1.52-1.76,3.09-2.58,4.66-.8,1.54-1.55,3.1-2.06,4.78.18,0,.31-.04.36-.12.96-1.56,2.2-2.87,3.52-4.12,2.1-1.99,4.28-3.89,6.82-5.32,1.58-.88,3.25-1.52,5.01-1.98-2.88,1.33-5.38,3.24-7.89,5.13-2.78,2.09-6.41,5.73-6.73,6.81,2.41-1.63,4.78-3.07,7.57-3.59-2.39.99-4.89,1.76-6.96,3.57.48.29.85.48,1.19.72,3.19,2.21,6.63,3.93,10.25,5.29,1.27.48,2.07,1.27,2.37,2.59.46,1.99.98,3.96,1.41,5.96.51,2.42,1.06,4.81,2.11,7.06.7,1.5.5,2.08-.64,3.29-1.06,1.12-2.38,1.83-3.67,2.59-.23.13-.63.17-.85.06-.4-.19-.84-.46-1.07-.82-.67-1.07-1.25-2.2-1.86-3.31-.25-.45-.48-.9-.72-1.35-.08.03-.17.05-.25.08,0,.41-.02.82,0,1.23.05.96.21,1.92.15,2.88-.04.62-.23,1.33-.59,1.83-.81,1.12-1.74,2.16-2.68,3.18-.49.53-1.04,1.16-1.68,1.38-.93.31-1.06.84-1.01,1.64.03.5.03,1.01-.02,1.51-.04.42-.07.87-.25,1.23-1.02,2.04-2.59,3.62-4.35,5.03-.7.56-1.45.65-2.28.3-.34-.14-.71-.2-1.2-.33-.2.82-.39,1.52-.53,2.23-.14.73-.35,1.42-.93,1.94-.93.83-1.93,1.55-3.14,1.91-.69.2-1.4.37-2.1.56-.34,4.4-.31,8.78-1.14,13.11-.13-.13-.16-.26-.18-.39-.22-1.46-.18-2.9-.07-4.38.27-3.65.38-7.32.55-10.98.02-.46-.02-.93.05-1.39.4-2.78,0-5.55-.2-8.32-.11-1.45-.85-2.69-1.69-3.88-1.22-1.73-2.26-3.59-3.7-5.17-.62-.68-1.31-.86-2.23-.62,1.66,3.77,3.25,7.5,3.19,11.68-.15-.18-.25-.38-.29-.59-.42-1.93-.97-3.8-1.65-5.66-.68-1.86-1.47-3.65-2.45-5.36-1.64-2.85-4.18-4.84-6.69-6.82-1.19-.94-3.05-.62-4.28.75.22.14.43.32.68.41.67.24,1,.82,1.38,1.35,1.22,1.72,2.12,3.56,2.64,5.62.59,2.36,1.37,4.66,1.93,7.03.47,1.98.75,4.01,1.11,6.02.42,2.36.7,4.73.72,7.13,0,1.11.13,2.22.16,3.33.03,1.26.05,2.53,0,3.8-.09,1.69-.29,3.38-.39,5.07-.2,3.46-.95,6.8-2.33,9.97-.42.98-1.03,1.91-1.72,2.73-.74.89-1.39.72-1.73-.39-.73-2.36-1.29-4.75-1.3-7.26-.02-2.11-.39-4.22-.23-6.34.02-.28-.2-.67-.43-.86-1.22-1-2.48-1.95-3.73-2.92-.11-.09-.26-.12-.58-.27ZM165.03,302.98c.61-.03.88-.41,1.1-.82.76-1.38,1.52-2.75,1.86-4.33.32-1.49.88-2.93,1.16-4.43.31-1.7.75-3.39.56-5.15-.03-.26.07-.53.08-.8.07-1.54.34-3.08-.09-4.6-.27-.97-.3-1.96-.25-2.96.17-3.33-.3-6.63-.84-9.89-.44-2.69-1.16-5.35-1.82-8-.63-2.55-1.52-5.02-2.63-7.4-.36-.77-.81-1.46-1.55-1.97-1.33-.92-2.62-1.89-3.9-2.88-3.56-2.77-7.09-5.56-10.65-8.33-.33-.26-.73-.43-1.09-.63-.3-.17-.63-.29-.9-.5-2.31-1.81-4.5-3.74-7.05-5.26-1.81-1.08-3.39-2.53-5.08-3.82-1.41-1.08-2.78-2.21-4.24-3.22-2.13-1.47-4.32-2.84-6.47-4.28-.47-.31-.9-.38-1.41-.19-1.22.47-2.48.86-3.68,1.39-2.89,1.27-5.76,2.6-8.84,3.37-1.26.32-2.56.53-3.86.64-2.44.21-4.83-.28-7.21-.79-.9-.2-1.88-.4-2.68.2-.7.53-1.36,1.16-1.89,1.85-.75.97-1.32,2.09-2.07,3.06-.96,1.25-1.99,2.46-3.06,3.62-.84.9-1.81,1.67-2.7,2.53-.94.91-1.64,1.96-1.67,3.32-.03.93-.05,1.86,0,2.78.05.94.37,1.81.91,2.58.42.6.8.64,1.31.1.5-.53.91-1.18,1.49-1.61,1.16-.87,1.59-2.08,1.68-3.4.1-1.44,1.06-2.17,2.04-2.95-.14.45-.32.87-.58,1.24-.52.71-.67,1.54-.84,2.38-.18.86-.41,1.71-.64,2.68-.76-.29-1.05.2-1.37.63-.25.34-.45.72-.71,1.05-1.23,1.53-2.51,3.03-3.69,4.6-.5.66-.98,1.43-1.16,2.22-.35,1.51.12,2.97.76,4.35.02.05.14.05.21.07.07-.03.16-.04.21-.09,1.84-1.7,3.63-3.45,5.53-5.08.87-.74,1.28-1.51,1.32-2.66.02-.74-.03-1.61.64-2.25.1.6.1,1.2.09,1.8-.02,1.71-.68,3.05-1.99,4.22-1.85,1.64-3.54,3.45-5.25,5.23-.88.92-1.29,2.12-1.48,3.34-.15.97-.06,1.99-.08,2.98,0,.42-.07.86-.03,1.27.04.33.12.73.33.94,1.12,1.11,2.28,2.2,3.46,3.25.35.31.78.62,1.38.46.01-.17.06-.33.02-.47-.41-1.62-.04-3.13.58-4.62.37-.88.74-1.71,1.84-1.84.14-.02.26-.16.38-.26.95-.79,1.98-1.51,2.81-2.4,1.46-1.57,3.18-2.8,4.84-4.12.63-.5,1.24-.65,2.04-.41.88.26,1.8.46,2.71.52,2.24.16,4.06-.86,5.59-2.35,2.05-1.98,3.89-4.16,5.57-6.48,1.29-1.79,2.72-3.44,4.59-4.68,1.71-1.14,3.86-1.27,5.5-.16,2.95,1.99,5.77,4.13,8.07,6.88,1.14,1.36,2.36,2.64,3.49,4.01.84,1,1.59,2.08,2.38,3.12,1.19,1.57,2.41,3.11,3.57,4.7,1.27,1.74,2.42,3.58,3.76,5.28,2.09,2.67,4.23,5.31,6.47,7.85,2.37,2.69,4.78,5.35,7.63,7.57,1.58,1.23,3.03,2.65,4.94,3.4,1.28.51,2.56,1.04,3.86,1.51.36.13.58.31.44.64-.06.15-.43.27-.63.23-.41-.09-.79-.3-1.19-.45-1.17-.43-2.33-.91-3.58-1.11-.43,3.49.26,11.04,1.64,13.79ZM161.29,250.26c.43-.4.82-.72,1.16-1.08,1-1.06,2.85-1.22,4-.32.21.17.41.36.63.5,2.41,1.6,4.47,3.56,6.14,5.91.43.6.83.77,1.5.78.95.02,1.83.36,2.45,1.13,1.04,1.29,2.03,2.62,3.03,3.93.26.34.48.7.72,1.05.92,1.33,1.84,2.66,2.84,4.1-.37-.09-.59-.15-.9-.23,0,2.02.06,3.94-.02,5.85-.04,1.08-.08,5.16.13,5.89.81-.08,1.55-.4,2.24-.8,1.06-.62,2.1-1.3,3.11-2,.21-.14.35-.49.39-.76.32-2.17.65-4.34.9-6.52.12-1.02.16-2.07.06-3.1-.21-2.13-1.04-4.1-1.8-6.08-.53-1.37-1.07-2.73-1.59-4.1-.08-.21-.06-.46-.08-.7.56.62,1.05,1.23,1.34,1.92.98,2.35,1.95,4.7,2.77,7.1.37,1.07.57,2.29.47,3.41-.13,1.56-.61,3.09-.93,4.64-.04.18-.04.37-.07.6,1.2.52,2.27.67,3.26-.44.71-.81,1.49-1.57,2.34-2.24,1.23-.96,1.63-2.31,1.57-3.69-.1-2.27-.47-4.52-.72-6.78-.19-1.72-.4-3.44-.54-5.17-.06-.74-.25-1.37-.86-1.81-1.32-.94-2.63-1.89-3.98-2.79-1.48-.98-3-1.9-4.49-2.86-.18-.11-.26-.38-.38-.57.06-.07.11-.14.17-.21.47.22.97.39,1.42.66,1.53.9,3.09,1.76,4.56,2.75,1.34.91,2.57,1.96,3.83,2.97.47.38.69.89.73,1.52.14,1.92.29,3.84.49,5.76.08.8.24,1.6.43,2.39.08.34.34.63.57,1.03.43-.33.77-.53,1.02-.8,1.08-1.16,2.13-2.34,3.2-3.5.7-.76.78-1.56.5-2.56-.49-1.78-.82-3.61-1.2-5.41-.4-1.88-.74-3.77-1.19-5.64-.27-1.12-.96-1.79-2.16-2.13-2.26-.62-4.48-1.41-6.69-2.21-1.09-.39-2.12-.93-3.17-1.41-.29-.13-.61-.28-.56-.82,1.78.65,3.47,1.27,5.16,1.87,1.16.41,2.33.78,3.5,1.15.81.25,1.62.51,2.45.66,1.23.22,1.84,1.07,2.24,2.11.52,1.37,1.03,2.75,1.43,4.16.75,2.58,1.99,4.94,3.14,7.33.27.55.66,1.04,1.01,1.55.34.49.84.63,1.31.32,1.09-.71,2.24-1.33,3.07-2.41.53-.69.6-1.29.12-1.99-.95-1.4-1.35-3.04-1.76-4.63-.73-2.83-1.26-5.71-1.91-8.56-.19-.83-.55-1.51-1.49-1.87-1.76-.68-3.48-1.47-5.16-2.32-1.54-.78-3.01-1.72-4.51-2.58-.92-.53-1.9-.99-2.96-.62-1.61.55-3.22,1.05-4.93,1.12-1.31.06-2.63.24-3.92.1-2.44-.27-4.86-.71-7.29-1.11-2.47-.4-4.89-1.01-7.27-1.78-1.76-.57-3.43-.49-4.9.75-.64.54-1.24,1.16-1.78,1.8-1.2,1.44-2.69,2.52-4.27,3.49-1.02.62-2.08,1.18-3.14,1.74-1.74.9-3.48,1.82-5.43,2.24-.58.12-1.14.39-1.75.6.2.66.65.68,1.12.58.38-.08.73-.29,1.1-.33.27-.03.62.06.81.23.11.1.02.5-.08.72-.13.31-.35.57-.61.99,3.33,2.5,6.61,4.97,10.02,7.53ZM175.92,202.1c1.38-.48,2.08-1.36,2.11-2.7.02-.8-.05-1.62-.2-2.4-.56-2.87,1.99-5.5,4.87-5,.78.14,1.49.86,1.39,1.6-.11.83-.25,1.7-.62,2.43-.83,1.63-1.53,3.3-1.93,5.07-.45,1.98-.57,3.96.58,5.81.9,1.45,2.09,2.07,3.78,1.74,1.86-.36,3.55-1.06,4.72-2.67.23-.31.51-.59.8-.84.79-.66,1.5-1.44,2.59-1.68,1.17-.26,2.19.21,2.66,1.29.43.97.19,1.79-.49,2.56-.35.4-.67.84-.94,1.3-.18.31-.21.7.16.92.38.23.65-.01.87-.32.51-.73,1.05-1.43,1.53-2.18,1.38-2.15,2.94-4.17,4.77-5.94,1.57-1.51,1.84-3.31,1.61-5.3-.04-.32-.18-.7-.4-.93-1.32-1.35-2.69-2.65-4.01-4-.49-.5-1-.71-1.73-.69-1.88.07-2.45-.6-1.87-2.38.5-1.52-.46-2.42-.99-3.59-.9.81-1.68,1.49-2.43,2.21-.2.2-.42.51-.42.77,0,1.03-.45,1.95-.62,2.93-.17.96-.16,2.01.04,2.96.2.98.68,1.15,1.65.89.63-.17,1.24-.42,1.85-.64,1.49-.53,2.78-.21,3.84.95.97,1.06,1.08,2.12.37,3.39-.7,1.26-1.74,1.77-3.07,1.53-.34-.06-.68-.16-1.02-.18-1.84-.15-3.3.65-4.52,1.94-.83.87-1.67,1.71-2.7,2.35-.73.46-1.46.51-2.16-.02-.64-.49-.9-1.13-.67-1.94.3-1.08.5-2.19.89-3.23.63-1.69,1.2-3.39,1.32-5.21.07-1.1-.03-2.14-.65-3.13-.51,0-1.01-.03-1.5,0-1.72.13-3.43.29-5.15.44-.99.09-2.01.07-2.98.27-1.17.24-2.29.65-3.21,1.5-1.56,1.44-3.18,2.81-4.73,4.25-1.75,1.63-3.45,3.3-5.16,4.97-.29.28-.52.61-.78.91.67.43,1.27.72,1.74,1.14.74.65.84,1.59,1.02,2.51.49,2.51-1.01,5.2-2.8,6.29-.89.55-1.81.87-2.85.44-.53-.22-1.06-.43-1.58-.68-1.2-.58-2.31-.42-3.09.65-.49.67-.92,1.46-1.11,2.26-.24,1.04-.21,2.14-.29,3.21-.17,2.5.81,4.51,2.67,6.13.58.51,1.19.99,1.83,1.42.3.2.71.34,1.07.37,3.16.23,6.22-.13,9.12-1.54,1.02-.5,2.19-.73,3.29-1.04.68-.2,1.28.04,1.78.52.6.58.97,1.29,1.13,2.11.28,1.51,1.05,2.71,2.24,3.67,1.18.96,2.38.93,3.34-.26.53-.65.88-1.44,1.33-2.16.35-.55.68-1.12,1.1-1.61.44-.51,1.07-.49,1.5.05.25.32.42.74.48,1.14.12.84.14,1.69.22,2.53.09.94.65,1.63,1.3,2.25.53.51,1.12.4,1.73.2.14-.05.31,0,.46-.03,1.12-.21,2.27-.33,3.42-.88-.29-1.44-.11-2.9-.44-4.27-.76.07-1.42.29-2.02.17-1.6-.33-2.49-1.72-2.26-3.52.11-.86.44-1.71.75-2.54.5-1.32.78-2.66.72-4.07-.02-.59-.24-1.06-.7-1.39-.97-.7-3.22-.52-4.11.32-.89.83-1.44,1.8-1.37,3.06.03.54,0,1.08,0,1.62,0,1.76-1.03,3.08-2.74,3.46-.32.07-.67.03-1-.01-1.51-.18-2.76-2.51-1.91-3.92.22-.36.4-.75.57-1.14.47-1.05.98-2.09,1.39-3.17.33-.85.3-1.73-.12-2.57-.48-.95-1.54-1.51-2.66-1.29.16.36.33.7.45,1.04.16.47.36.94.41,1.42.16,1.48-.65,2.48-1.73,3.33-1.7,1.32-3.63,2.19-5.61,2.96-2.43.94-4.91,1.52-7.56,1.03-1.84-.34-2.82-1.93-2.12-3.67.45-1.11,1.17-1.93,2.41-2.3,1.47-.45,2.92-1,4.32-1.63,1.6-.72,2.6-2.01,3.02-3.73.51-2.1.13-4.18-.45-6.15-.68-2.3.45-4.77,3.27-4.93,1.62-.09,2.85,0,2.88,2.45,0,.22.05.45.09.76ZM145.83,204.16c.44-.11.87-.16,1.24-.33,1.26-.57,2.5-1.19,3.75-1.79,2.92-1.4,5.35-3.5,7.85-5.49,1.6-1.27,3.12-2.64,4.67-3.97,1.34-1.16,2.74-2.25,3.99-3.51,1.88-1.89,3.78-3.76,5.27-5.99.09-.13.15-.28.26-.38,1.53-1.52,1.59-1.7,3.48-1.03.62.22,1.23.45,1.84.68,3.38,1.28,6.72,1.07,10-.36.73-.32,1.38-.84,2.01-1.33.24-.19.46-.56.47-.87.03-.61-.04-1.23-.13-1.84-.14-.9-.56-1.27-1.5-1.24-1.31.05-2.62.13-3.92.28-.99.12-1.96.37-2.94.55-.84.16-1.22.67-1.31,1.52-.1.92-.32,1.84-.48,2.75l-.26-.04c-.08-1.6.1-3.2.37-4.77.54-3.15,1.25-6.27,1.83-9.42.49-2.65.96-5.31,1.34-7.97.28-1.94.41-3.91.59-5.86.03-.3-.08-.61-.13-.92-.29.18-.38.34-.39.51-.13,2.85-1.05,5.51-2.08,8.13-.28.7-.74,1.35-1.25,1.91-.8.89-1.68,1.7-2.56,2.51-1.9,1.75-3.72,3.6-5.75,5.19-1.97,1.54-4.13,2.84-6.25,4.17-1.86,1.17-3.8,2.19-5.96,2.71-1.07.26-2.11.32-3.13-.25-.77-.43-1.61-.75-2.42-1.1-.18-.08-.4-.08-.66-.13-.04.84.34,1.63-.19,2.54-.34-1.09-.52-2-.34-2.99-.87-.48-1.71-.95-2.78-1.54.13.57.2.86.25,1.15.19,1.1.49,2.19.54,3.3.1,2.33-.61,4.49-1.71,6.53-.51.95-1.01,1.91-1.59,2.82-1.11,1.74-2.32,3.4-3.94,4.72.02-.16.08-.29.16-.41,1.4-2.22,2.8-4.44,4.2-6.66.21-.34.55-.64.37-1.24-2.39.84-4.67,1.88-7.15,2.11-.75,3.35,1.6,12.79,4.33,17.34ZM116.21,274.96c4.41-.69,8.64-1.98,12.66-3.82,4.08-1.86,7.98-4.09,11.72-6.79-.46-.59-.83-1.07-1.21-1.55-.38-.48-.79-.95-1.15-1.45-2.49-3.44-5.17-6.73-8.08-9.82-1.17-1.25-2.59-2.27-3.8-3.31-.67.17-1.15.34-1.64.41-.84.12-1.69.12-2.52.27-.38.07-.82.29-1.06.59-.5.63-.9,1.34-1.33,2.03-.2.32-.38.66-.57.98-.06-.04-.12-.09-.18-.13.62-1.11,1.23-2.21,1.98-3.55-.43.17-.62.18-.69.28-.9,1.13-1.87,2.22-2.63,3.43-.62.98-1.14,2.09-1.42,3.21-.52,2.09-.95,4.21-1.21,6.35-.23,1.97-.21,3.97-.26,5.96-.04,1.84.04,3.68,0,5.52-.01.49.06,1.01.22,1.47.2.59.33,1.17.25,1.8-.04.3.05.61.09.92.26,2.06.59,4.12.76,6.19.23,2.93.58,5.83,1.44,8.64.44,1.44.95,2.86,1.5,4.26.32.82.62.84,1.29.32.89-.68,1.71-1.41,2.42-2.29,1.85-2.32,3.17-4.92,4.09-7.73.49-1.48.6-3.01.64-4.56.08-2.93.28-5.85.41-8.78.01-.24-.09-.49-.15-.78-.23.04-.38.05-.53.09-1.73.51-3.46,1.03-5.19,1.53-.42.12-.52.39-.5.78.07,1.11.22,2.23.17,3.34-.07,1.57.48,3.14-.13,4.7-.13-2.85-.25-5.7-.38-8.63-1.72.03-3.33.92-5,.09ZM174.82,203.12c.09-.38.17-.59.2-.81.08-.56.24-1.13.2-1.69-.06-.91-.63-1.39-1.54-1.36-.53.01-1.07.11-1.6.22-1.55.33-2.26,1.36-2.25,2.92,0,1.02.17,2.07.45,3.06.32,1.1.48,2.17.39,3.31-.21,2.72-1.57,4.64-4.04,5.73-1.27.56-2.61.95-3.89,1.47-.49.2-.98.5-1.34.87-.77.79-.89,1.79-.54,2.8.34.97,1.22,1.09,2.09,1.12,2.48.1,4.93.06,7.28-.95,1.88-.81,3.77-1.58,5.36-2.93.79-.67,1.34-1.42,1.41-2.54.05-.81-.32-1.41-.62-2.06-.17-.37-.39-.71-.61-1.11.32-.17.51-.33.72-.37,1.79-.3,3.75,1.68,3.41,3.47-.14.72-.33,1.44-.61,2.11-.43,1.03-.97,2.01-1.43,3.03-.63,1.39-.05,3.06,1.18,3.52,1.24.46,2.12-.3,3.09-.84.73-.41.53-1.03.56-1.61.02-.54.04-1.09-.01-1.62-.11-1.32.32-2.47,1.17-3.41,1.59-1.74,3.44-1.64,5.12-.35.4.3.61.97.72,1.51.1.47.04,1.01-.1,1.49-.31,1.11-.77,2.19-1.06,3.3-.22.85-.42,1.74-.39,2.6.05,1.59,1.34,2.51,3.16,2.01.54-.15.81-.56.76-1.14-.03-.3-.08-.62-.05-.91.17-1.38.41-2.74.54-4.12.28-3.12,1.32-6,2.77-8.75.15-.28.2-.62.29-.92-1.3-.55-1.45-1.08-.67-2.13.3-.4.62-.79.95-1.17.43-.5.44-1.01.17-1.61-.36-.8-.92-1.18-1.81-1.16-.9.02-1.66.34-2.29.95-.59.56-1.14,1.16-1.68,1.76-1.5,1.67-3.2,2.87-5.61,2.7-1.06-.07-1.85-.47-2.48-1.26-1.4-1.76-2.26-3.67-1.6-6,.49-1.74.86-3.55,1.87-5.07.69-1.04,1.31-2.03,1.29-3.34-.01-.88-.19-1.22-1.06-1.29-.31-.03-.62-.03-.93,0-1.21.12-2.18.72-3,1.59-.65.69-.58,1.54-.46,2.4.07.5.14.99.19,1.49.15,1.47-.06,2.86-1.07,4.02-.65.75-1.5,1.08-2.61,1.1ZM124.21,223.19c0-.73-.03-1.26,0-1.78.07-1.15.05-2.32.27-3.45.37-1.99,1.28-3.71,3-4.92.59-.41,1.21-.67,1.94-.65.81.02,1.62.03,2.44.01.3,0,.67,0,.88-.18,1.36-1.12,2.64-2.31,2.4-4.32-.07-.61-.14-1.22-.31-1.8-.41-1.43-.18-2.23,1.03-3.14.39-.3.82-.54,1.26-.83-.23-.94-.44-1.83-.66-2.72-.14-.56-.28-1.12-.45-1.68-.11-.37-.39-.65-.78-.51-.61.22-1.33.41-1.73.86-1.01,1.13-1.68,2.49-1.79,4.05-.07,1-.12,2-.19,3-.09,1.37-.66,2.52-1.61,3.5-1.32,1.36-2.86,2.33-4.67,2.91-1.36.44-2.69.7-4.03-.04-.23-.13-.5-.19-.76-.27-1.05-.31-1.72-.04-2.18.94-.31.66-.63,1.34-.78,2.05-.15.75-.17,1.54-.13,2.3.04.72.46.87,1.14.52.2-.1.39-.21.59-.31.01.27-.04.43-.15.5-.41.27-.81.62-1.37.38-.51-.23-.5-.71-.59-1.17-.26-1.35.02-2.68.61-3.82,1.08-2.07,1.75-2.64,4-1.58.54.25,1.19.43,1.77.38,2.13-.18,4.03-1.03,5.66-2.4.95-.79,1.88-1.68,2.06-2.99.13-.99.14-2,.1-3-.06-1.88.66-3.48,1.73-4.92.34-.46.95-.74,1.48-1.02.39-.21.85-.29,1.36-.45-.22-1.19-.45-2.27-.6-3.37-.18-1.25-.27-1.37-1.49-1.23-.34.04-.7.12-.99.28-1.16.62-2.28,1.31-3.15,2.32-1.01,1.17-1.76,2.46-1.52,4.09.08.53.22,1.06.34,1.58.67,2.88-.87,5.67-3.66,6.64-1.46.51-2.61,0-3.18-1.43-.37-.93-.43-1.87-.17-2.84.57-2.18,1.42-4.24,2.56-6.18.32-.55.69-1.11.56-1.81-.74-.24-1.32-.12-1.79.48-.74.93-1.64,1.77-2.25,2.78-1.54,2.54-3.08,5.09-4.38,7.76-1.15,2.35-1.97,4.85-2.92,7.29-.25.63-.42,1.29-.64,1.95,1.35.18,1.45.28,1.42,1.51-.02.81-.18,1.62-.15,2.42.04.88.17,1.76.37,2.61.14.6.61,1.02,1.27.99,1-.04,1.99-.19,2.89-.69,1.62-.91,2.94-2.3,2.3-4.53-.12-.43-.12-.9-.2-1.54,1.18,1.71.59,4.04-.35,5.14-.87,1.01-1.95,1.6-3.19,1.99-1.91.61-2.68.23-3.29-1.72-.43-1.4-.28-2.83-.07-4.24.08-.53.28-1.07-.29-1.49-.79.01-1.16.47-1.32,1.19-.25,1.17-.58,2.32-.76,3.5-.29,2.02-.5,4.05-.72,6.07-.03.24.05.5.08.83.42-.11.76-.15,1.07-.28,1.86-.75,3.71-1.5,5.56-2.27,1.49-.62,2.97-1.27,4.45-1.91.55-.24,1.05-.13,1.55.14.32.17.66.3,1.15.52ZM186.56,304.31c-.57.5-.95.8-1.28,1.14-1.16,1.2-2.45,2.25-3.9,3.07-4.19,2.36-8.64,4.06-13.33,5.12-1.42.32-2.83.66-4.28.99.73,1.84,1.44,3.58,2.13,5.34.38.97.77,1.93,1.07,2.92.47,1.55.84,3.12,1.3,4.67.31,1.06.43,1.13,1.57,1.08,2.67-.12,5.13-.97,7.43-2.28.53-.3,1.02-.69,1.56-.98,2.12-1.15,3.99-2.63,5.8-4.19,1.74-1.48,3.13-3.29,4.55-5.05.21-.26.28-.63.48-1.1-1.3.14-1.66-.71-2.02-1.46-1.17-2.47-1.56-5.06-1.1-7.77.07-.39,0-.8,0-1.5ZM154.19,331.79c.06-1.13.14-2.04.14-2.95.02-3.13.01-6.26,0-9.39,0-.46-.06-.92-.11-1.38-.18-1.84-.33-3.67-.54-5.51-.14-1.21-.14-2.49-.94-3.52-.52-.67-1.12-1.27-1.65-1.93-.3-.38-.66-.49-1.11-.46-1.31.09-2.62.1-3.92.28-1.52.22-3.03.52-4.51.92-1.16.31-1.24.84-.64,1.89.48.83.97,1.69,1.22,2.6.76,2.71,1.15,5.51,1.37,8.31.25,3.19.36,6.39.54,9.59.04.81.14,1.62.12,2.42-.02.73.29,1.09.98,1.13,1.26.08,2.53.21,3.8.19,2.08-.03,3.94-.63,5.25-2.18ZM152.74,108.43c.2,1.73-.34,3.37,0,5.28.3-.5.5-.74.61-1.02.45-1.1,1.21-1.96,2.01-2.81.34-.36.62-.78.89-1.2.85-1.38,1.62-2.81,2.55-4.14.88-1.25,1.35-2.68,2.02-4.03.08-.16,0-.4-.03-.89-.67.68-1.16,1.18-1.78,1.82.42-1.61,1.52-2.73,1.8-4.23-.34.12-.63.28-.8.53-1.09,1.54-2.22,3.07-3.21,4.67-.48.77-1.02,1.36-1.92,1.71.07-1.77,1.18-3.18,1.53-5.06-1.41.54-2.06,1.66-3.14,2.41,0-.8.37-1.28.68-1.8.2-.33.55-.69.51-1-.09-.78.31-1.35.64-1.93.75-1.3,1.59-2.56,2.38-3.84.16-.27.3-.55.45-.82-.3-.09-.46-.07-.56.02-3.3,2.83-5.27,6.68-7.87,10.36.41-2.61,1.44-4.7,2.68-6.7,1.25-2.02,2.66-3.92,4.22-5.75-.32-.04-.6-.05-.8.07-1.49.84-2.87,1.82-3.96,3.16-2.59,3.21-5.39,6.28-6.96,10.19-.39-.05-.7-.1-.96-.13-.18-1.02.5-1.9.2-2.99-1.09.72-1.65,1.78-2.47,2.81v-1.12c-.07-.03-.14-.05-.22-.08-.23.45-.46.9-.7,1.35.09-.75.29-1.45.52-2.14.25-.73.55-1.44.78-2.18.2-.65.72-1.24.49-2.26-.39.48-.69.77-.89,1.11-.89,1.58-1.81,3.15-2.62,4.77-1.4,2.8-2.54,5.72-3.24,8.78-.24,1.06-.07,1.61.74,2.22.19-.93.38-1.83.56-2.73.09,0,.17.02.26.03.03.25.08.49.08.74-.03.92-.09,1.85-.11,2.77,0,.18.14.36.32.77.18-.59.29-.94.4-1.29.26.07.46.12.79.21,0-.78-.04-1.47.01-2.16.05-.69.08-1.41.3-2.05.19-.58-.22-1.43.84-1.85.12,1.45-.04,2.87.69,4.34.19-.67.32-1.12.45-1.56.06,1.78.1,3.52.68,5.23.27-.37.37-.75.49-1.14.5-1.61.58-3.36,1.54-4.82.08-.12.08-.29.1-.45.16-1.18.3-2.37.48-3.55.06-.42.11-.87.45-1.21-.13,2.37-.68,4.71-.21,7.11.63-.89.46-2,.87-3.22.41,2.2.84,4.12,1.71,5.85,1.54-.65,1.41-2.26,2.16-3.4.2.48.35.84.49,1.19.08-.01.16-.02.24-.03.1-.86.22-1.72.29-2.59.18-2.41.74-4.72,1.64-6.95.09-.21.29-.37.45-.55.07.04.14.08.21.11-.18.48-.37.96-.54,1.45-.87,2.54-1.15,5.19-1.4,7.84-.02.25.11.51.17.76.09,0,.17,0,.26,0,.58-1.32,1.17-2.63,1.75-3.95ZM176.72,349.61c-.03-.1-.06-.21-.09-.31-.28-.06-.57-.11-.85-.19-1.14-.3-1.52-1.18-.94-2.21.15-.27.33-.52.51-.78.76-1.06.77-2.22.18-3.28-.58-1.05-1.56-1.71-2.86-1.61-.57.05-1.15.11-1.71.21-1.54.27-2.79,1.09-3.86,2.18-.66.68-.66,1.43-.1,2.21.27.37.59.73.95,1.01,1.19.94,1.06,2.75.26,3.76-.74.93-1.63,1.62-2.78,1.98-1.42.44-2.82.24-4.2-.15-.89-.25-1.6-.7-1.86-1.7-.2-.76.13-1.37.43-1.98.25-.52.66-.96.9-1.48.35-.77.35-1.59-.04-2.35-.37-.71-1.09-.47-1.67-.45-1.31.06-2.39-.54-3.46-1.15-.8-.46-1.13-1.19-1.19-2.12-.08-1.22.23-2.28.93-3.26.29-.4.57-.83.77-1.29.31-.7.18-1.37-.41-1.9-.31-.28-.64-.58-1.02-.75-.28-.13-.69-.17-.96-.06-1.29.54-2.59.97-3.99,1.12-.33.04-.64.17-1.07.29.37,2.29.13,4.6.84,6.78.31.97.58,2,1.37,2.77,1.24,1.2,2.54,2.24,4.3,2.53.18.03.37.12.53.21.8.43,1.02.95.7,1.81-.19.5-.48.97-.66,1.48-1.02,2.86.56,5.95,3.74,5.73,1.94-.14,3.88-.54,5.78-.97,1.61-.37,3.15-1,4.74-1.44,1.07-.3,1.98-.84,2.84-1.51,1.01-.78,2.01-1.56,3.01-2.35.32-.25.62-.53.93-.8ZM177.68,230.69c.04-.09.08-.18.12-.26-.41-.39-.8-.81-1.24-1.17-.91-.74-1.35-1.76-1.71-2.83-.1-.29-.13-.6-.21-.9-.41-1.43-1.27-1.97-2.7-1.62-.82.21-1.59.58-2.39.86-1.34.47-2.68.97-4.04,1.37-1.73.51-3.52.25-5.28.22-.37,0-.78-.12-1.09-.32-1.01-.63-2.01-1.29-2.96-2.01-.42-.32-.76-.77-1.07-1.2-2.21-3.02-1.77-7.59.05-10.27,1.21-1.78,2.39-2.02,4.32-1.02.81.42,1.66.75,2.65.47,1.51-.42,2.48-1.4,3.02-2.79.56-1.44.51-2.97.2-4.45-.36-1.74-2.07-2.33-3.48-1.28-.47.34-.87.77-1.35,1.09-2,1.37-3.9,2.97-6.07,4-2.63,1.25-5.42,2.2-8.33,2.71-.7.12-1.14.82-1.07,1.78.3-.14.55-.29.82-.4.71-.29,1.4-.64,2.14-.84,1.35-.36,2.66.39,3.17,1.68.45,1.12.19,2.21-.13,3.28-.4,1.34-.69,2.7-.57,4.1.27,3.1,1.46,5.64,4.46,7.03.52.24,1.08.48,1.5.86,1.36,1.24,2.23,2.73,1.99,4.67-.06.48-.14.96-.21,1.47.2-.02.35.01.42-.05.96-.71,1.93-1.4,2.84-2.16.2-.17.25-.63.21-.94-.24-1.81.86-2.94,2.63-2.58.43.09.73.04,1.06-.2.25-.18.54-.29.82-.43,1.39-.71,2.77-.24,4.02.24,2.24.87,4.58,1.31,6.89,1.89.17.04.37,0,.55,0ZM117.97,338.38c-.1.08-.26.15-.32.27-.5,1.09-1.04,2.16-1.44,3.28-.24.68-.2,1.4.13,2.13.56,1.22,1.3,2.33,2.28,3.17,2.42,2.09,4.69,4.36,7.43,6.06.91.56,1.72,1.3,2.51,2.03.41.38.67.93,1.02,1.39.55.73,1.15,1.43,1.68,2.18.54.76,1.5,1.05,2.33.59.97-.53,1.73-1.28,2.24-2.28.47-.93.95-1.85,1.47-2.76.95-1.67,1.94-3.33,2.9-5,.57-1.01,1.08-2.05,1.66-3.05,1.33-2.28,2.34-4.7,2.88-7.29.25-1.2.38-2.44.53-3.66.07-.54-.09-.99-.69-1.19-.89-.3-1.39-.85-1.45-1.86-.04-.7-.46-.96-.98-.87-.55.1-.7.4-.67,1.14.03.68.08,1.38-.04,2.05-.14.75-.48,1.45-.71,2.18-.32,1.03-.46,2.14-.96,3.07-1.93,3.6-3.96,7.15-5.97,10.71-.61,1.07-.82,1.14-1.94.59-2.49-1.23-4.94-2.53-7.23-4.12-3.15-2.2-5.5-5-6.67-8.77ZM129.37,334.4c-.86.51-1.51.88-2.14,1.28-.78.49-1.7.86-2.29,1.52-1.34,1.5-2.24,3.24-2.03,5.36.06.65.19,1.3.18,1.95,0,.63.31,1,.77,1.32.76.53,1.5,1.1,2.28,1.59.8.51,1.58,1.09,2.59,1.22.34-.96.06-1.7-.63-2.32-.26-.23-.53-.45-.78-.69-1.33-1.28-1.46-3.14-.24-4.54.53-.6,1.17-1.14,1.85-1.56.78-.48,1.66-.81,2.63-.44.93.35,1.44,1.05,1.51,2.01.07,1.01.88,1.24,1.67.75.85-.54,1.68-1.1,2.07-2.11.21-.55.5-1.06.76-1.59-.3,1.85-1.04,3.37-2.89,4.13-1.05.44-1.57.24-1.87-.87-.05-.19-.08-.38-.14-.56-.27-.92-.6-1.18-1.55-1.26-1.33-.11-2.43.46-3.37,1.28-1.53,1.34-1.53,3.14-.09,4.6.3.3.67.56.88.91.28.44.66.99.6,1.43-.19,1.2.51,1.66,1.38,2.08.31.15.62.32.94.46,1.27.56,1.39.53,2.14-.65,1.62-2.54,3.23-5.07,4.81-7.63.52-.85.99-1.75,1.35-2.68.47-1.21.8-2.48,1.19-3.73.38-1.2.26-2.39.11-3.65-.3.04-.46.03-.6.07-1.37.39-2.74.77-4.1,1.18-.63.18-1.25.4-1.87.6-.49.15-.83.42-.82.97.02.53.38.71.84.78.42.07.83.14,1.25.23.69.16,1.45.2,1.91.91-.46-.15-.88-.32-1.31-.41-.56-.12-1.14-.14-1.71-.26-1.21-.25-1.27-.34-1.43-1.56,0-.06-.09-.12-.1-.13h-3.73ZM128.89,308.88c.09-.06.18-.12.27-.18-.12-.38-.22-.78-.38-1.14-.34-.76-.57-1.57-.36-2.36.59-2.22,1.31-4.38,3.72-5.38,1.25-.52,2.04-1.49,2.32-2.84.05-.22.14-.43.23-.7.02,2.24-.58,3.11-2.61,4-.55.24-1.15.58-1.5,1.04-1.51,1.98-2.44,4.08-1.22,6.63.69,1.45,2.45,2.28,4.08,1.65-.65-1.41-1.01-2.88-.24-4.33.75-1.41,1.93-2.37,3.66-2.73-.2-.97-.38-1.83-.54-2.69-.47-2.5-.96-4.99-1.38-7.49-.59-3.49-1.16-6.99-1.66-10.5-.21-1.48-.25-2.99-.34-4.49-.12-2-.21-4-.32-5.99-.01-.2-.05-.41-.08-.62-1.28.35-1.27.38-1.26,1.46.02,1.76.01,3.52,0,5.29,0,.73.08,1.49-.08,2.19-.21.9,0,1.54.64,2.18.75.74,1.06,1.74.99,2.75-.13,1.84-.86,3.41-2.43,4.53-.32.23-.61.59-.78.95-.72,1.58-1.38,3.18-2.06,4.78-.11.27-.19.55-.28.84.54.3.99.27,1.4,0,.68-.44,1.35-.88,2-1.35.44-.31.83-.69,1.28-.98.45-.29.95-.39,1.45,0-.95-.17-1.52.41-2.14.97-.66.59-1.37,1.12-2.11,1.6-.51.33-1.07.58-1.74.29-.4-.17-.77,0-1,.37-.58.94-1.14,1.89-1.69,2.8,1.25,1.2,1.26,1.55.41,2.98-.37.62-.63,1.31-.9,1.99-.29.73-.04,1.36.49,1.89,1.2,1.18,2.63,1.97,4.17,2.57ZM143.66,306.09c-3.3-12.56-5.82-25.17-6.24-38.21-1.04.56-1.89,1.1-2.8,1.49-1.05.45-1.4,1.13-1.3,2.26.28,3.03.43,6.07.7,9.1.22,2.49.43,5,.83,7.46.52,3.23,1.23,6.44,1.86,9.65.51,2.61,1.01,5.22,1.57,7.82.28,1.28.69,2.53,1.05,3.79.11.38.24.74.79.46-.05-.19-.09-.33-.13-.48-.34-1.24,0-1.99,1.18-2.46.78-.31,1.58-.57,2.49-.89ZM116.42,315.89c-.09.05-.18.09-.27.14.04.37.02.75.13,1.1.35,1.1.74,2.19,1.14,3.27.79,2.14,1.46,4.31,1.73,6.58.09.78.52,1.24,1.18,1.58,2.86,1.5,5.72,3.01,8.59,4.49.46.24,1.02.46,1.52.43.91-.05,1.82-.28,2.72-.46.5-.1.69-.45.58-.95-.13-.64-.2-1.3-.41-1.92-.64-1.9-1.31-3.78-2.01-5.66-.67-1.8-1.39-3.59-2.09-5.38-.18-.47-.47-.66-.99-.47-.72.26-1.48.44-2.2.69-2.19.75-4.16.33-6.01-1.01-1.18-.85-2.41-1.62-3.62-2.43ZM141.52,314.68c-4.42.28-8.26,1.89-12.23,3.63.56,1.54,1.05,3.03,1.63,4.48.77,1.93,1.86,3.73,2.31,5.79.24,1.09.54,2.17.76,3.26.12.59.38.8.97.58.36-.13.74-.2,1.11-.31,1.96-.54,3.91-1.12,5.88-1.6.88-.21,1.01-.17.99-1.06-.04-1.5-.17-3-.28-4.5,0-.11-.09-.21-.13-.3-1.5-.34-1.74-.66-1.71-2.2,0-.34-.07-.68-.12-1.02-.24-1.45-.05-1.74,1.34-2.15.06-.02.11-.1.21-.2-.26-1.46-.14-3.03-.73-4.41ZM134.83,133.66c.76-.74,1.13-2.53.55-3.22-.76-.92-1.51-1.9-2.47-2.58-2.48-1.77-5.01-3.47-7.62-5.03-1.53-.91-3-1.9-4.34-3.05-1.91-1.63-3.63-3.46-5.13-5.48-.15-.21-.38-.36-.58-.54.2,1.75.6,3.36,1.3,4.85,1.74,3.69,4,7.05,6.76,10.04,2.52,2.73,5.26,5.2,8.47,7.13.78.47,1.6.98,2.18,1.67.55.64,1.16.74,1.92.79-1.06-.94-2.42-1.69-1.74-3.37-.3-.46-.53-.86-.8-1.23-.17-.25-.35-.51-.59-.68-.76-.53-1.54-1.03-2.32-1.52-2.45-1.54-4.86-3.12-7-5.1-1.88-1.75-3.46-3.73-4.91-5.84-.09-.13-.12-.31-.18-.47.75.72,1.41,1.47,2.05,2.25,1.82,2.22,3.89,4.17,6.26,5.79,1.65,1.13,3.33,2.23,4.98,3.35,1.07.73,2.13,1.49,3.19,2.24ZM161.62,337.27l.39.21c.1-.2.19-.41.31-.61.68-1.12,1.32-2.27,2.07-3.34.62-.88.62-1.76.35-2.73-.66-2.45-1.26-4.92-1.93-7.37-.47-1.7-1.01-3.39-1.57-5.07-.13-.38-.4-.79-.72-1-1.34-.89-2.72-1.74-4.12-2.56-.33-.19-.74-.23-1.29-.39.11,1.58.21,2.96.32,4.37.3.17.64.28.89.51.27.25.66.6.65.89-.07,1.14,0,2.38-.9,3.24-.58.56-.65,1.17-.63,1.88.02,1.34.03,2.68.04,4.02,0,.55.06,1.03.68,1.32,1.86.87,3.25,2.31,4.5,3.9.62.8,1.25,1.58.98,2.73ZM192.02,187.53l-.26-.15c-1.32.61-2.64,1.21-3.95,1.83-.52.25-.46.64-.22,1.06.41.73.56,1.49.29,2.33-.16.51-.29,1.08-.21,1.59.13.82-.16,1.5-.4,2.23-.49,1.54-.91,3.1-1.34,4.66-.17.62-.14,1.34.41,1.68.57.35,1.27.21,1.85-.22.15-.12.31-.22.46-.34.97-.77,1.92-1.55,2.9-2.3.93-.71,1.99-1.13,3.12-1.45.9-.25,1.75.11,2.62.06,1.62-.1,2.59-1.4,2.13-2.96-.3-1.03-1.3-1.84-2.37-1.89-1.12-.05-2.2.03-3.28.49-1.34.57-2.08.12-2.53-1.27-.43-1.31-.05-2.5.34-3.72.17-.53.29-1.08.43-1.62ZM125.16,194.44c-.32.78-.62,1.49-.89,2.21-.73,1.91-1.49,3.81-2.14,5.74-.25.75-.32,1.59-.34,2.39-.02.98.47,1.72,1.16,1.77.67.05,1.38-.02,2.04-.19,1.93-.48,3.49-3.16,3.06-5.62-.09-.49-.21-.98-.3-1.47-.23-1.21-.07-2.34.5-3.47.81-1.61,2.14-2.63,3.62-3.47.95-.55,2.02-.87,3.11-1.32-.14-.68.14-1.51-.5-2.23-.36.25-.66.5-1,.67-.86.43-1.73.83-2.6,1.22-.54.25-.97.08-1.27-.42-.1-.16-.21-.3-.31-.44-1.21.41-5.09,3.62-4.98,4.16.22.12.48.27.84.47ZM190.16,336.62c-.05-.08-.11-.16-.16-.24-.61.2-1.2.42-1.82.58-.91.24-1.25.06-1.72-.72-.59-.96-.73-1.94-.25-2.98.36-.77.73-1.53,1.14-2.27.48-.88,1.04-1.72,1.52-2.6.49-.91.68-1.89.49-2.92-.13-.7-.4-.96-1.11-.91-.64.05-1.28.23-1.91.41-1.35.39-2.72.71-4.1.43-.7-.14-1.2.02-1.73.34-.53.32-1.2.48-1.56,1.15.21.07.35.12.5.17,1.91.63,3.15,1.87,3.6,3.87.42,1.87.58,3.71.03,5.6-.25.87-.27,1.83-.25,2.75.02.95.66,1.55,1.53,1.83.79.25,1.51.13,2.08-.58.34-.42.77-.76,1.14-1.15.87-.91,1.73-1.83,2.59-2.75ZM139.91,228.2c.47-.22.74-.34,1-.48,1.65-.86,3.59.26,3.58,2.1,0,1.03-.09,2.06-.14,3.09-.05,1.02.7,2.23,1.64,2.4,1.38.26,2.73.06,3.75-1.01,1.45-1.53,1.28-3.95-.53-4.84-.44-.22-.82-.57-1.23-.86-2.17-1.53-3.37-4.36-2.25-6.91.42-.95.68-1.96,1.02-2.95.12-.35.18-.69-.32-.92-1.67.43-3.01,1.55-4.4,2.58-.17.12-.29.36-.35.57-.6,2.11-1.19,4.23-1.76,6.34-.06.2,0,.44,0,.87ZM182.09,324.54c.89.65,1.05.69,1.73.54,1.23-.28,2.46-.58,3.69-.88,1.39-.34,2.23.22,2.39,1.65.11.95-.17,1.84-.61,2.67-.49.92-1.05,1.8-1.55,2.71-.63,1.14-1.37,2.25-1.25,3.66.12,1.34.82,1.92,2.09,1.54.8-.24,1.53-.73,2.32-.99,1.38-.46,1.7-1.73,2.46-2.83-.41-.09-.62-.14-.84-.19-1.11-.23-1.45-.69-1.26-1.79.06-.34.19-.67.32-.99.32-.79.64-1.57,1-2.34.35-.76.39-1.46-.15-2.17-.3-.39-.54-.85-.75-1.3-.79-1.7-2.1-3.14-2.47-5.05-.01-.06-.11-.1-.16-.15-.97.53-1.27.9-1.05,1.26.28.05.56.11.84.16-.31.24-.62.24-.89.32-.4.12-.83.22-1.14.47-1.38,1.11-2.73,2.27-4.09,3.39-.18.14-.41.21-.62.32ZM144.45,306.19c1.06-.36,2.1-.11,2.84-.63-.64-1.25-1.29-2.38-1.82-3.57-.77-1.74-.19-3.23,1.07-4.51.4-.41.86-.77,1.3-1.14,1.04-.87,1.7-1.98,2.14-3.24.34-.97-.24-1.9-1.22-2.25-.89-.32-1.57.06-2.26.49-1.41.89-2.89,1.2-4.5.57-.2-.08-.42-.1-.76-.18,0,.46-.08.86.01,1.21,1.1,4.36,1.71,8.83,3.19,13.26ZM154.76,311.44c.05.62.11,1.13.14,1.64.03.45.3.72.69.83,1.95.52,3.5,1.75,5.13,2.84.53.35.95.77,1.14,1.41.38,1.26.82,2.5,1.16,3.76.82,3.06,1.6,6.12,2.41,9.18.12.44.26.89.48,1.3.32.59.9.79,1.6.64.55-.12.95-.61.95-1.29,0-.42-.08-.85-.19-1.25-.24-.85-.51-1.69-.78-2.53-.89-2.67-1.77-5.34-2.69-7.99-.48-1.38-1.06-2.73-1.6-4.09-.33-.82-.86-1.44-1.67-1.84-.59-.29-1.13-.67-1.72-.95-1.53-.71-3.02-1.55-5.03-1.66ZM144.78,143.69c1.27.05,2.38.17,3.47-.08,1.76-.41,3.51-.85,5.24-1.37,2.38-.72,3.19-1.98,2.91-4.29-.09-.73-.15-1.45-.2-2.18-.05-.7-.28-.95-.98-1.03-.19-.02-.39-.02-.58-.01-1.78.06-3.35.78-4.93,1.51-.88.41-1.38,1.21-2.01,1.88-.09.1-.03.34-.04.56.19,0,.31.03.4,0,.25-.11.5-.22.72-.37,1.7-1.18,3.61-1.47,5.62-1.29.11,0,.2.14.3.22,0,.08-.02.16-.02.24-1.37.04-2.76-.03-4.06.5-1.29.53-2.53,1.11-3.48,2.19-.9,1.03-1.87,2.01-2.36,3.52ZM140.32,167.03c-.23.31-.36.5-.49.68-3.05,4.17-5.3,8.68-5.73,13.93-.04.55-.18,1.15.34,1.71.17-.21.38-.35.42-.52.07-.34.02-.69.05-1.04.13-1.94.33-3.83,1.71-5.39,1.1-1.24,2.02-2.62,3.47-3.53.99-.62,1.96-.79,3.06-.33,1.95.83,3.89,1.68,5.62,2.94.29.21.64.34,1.14.61-.02-1.27-.24-2.16-1.21-2.76-2.57-1.57-5.02-3.3-7.22-5.38-.3-.29-.65-.52-1.16-.93ZM129.1,315.63c-.25-.07-.33-.12-.39-.1-.72.28-1.43.56-2.14.87-2.14.93-5.02.01-6.24-2.01-.03-.06,0-.15,0-.37.63-.43,1.3-.95,2.02-1.37.58-.34.71-.77.51-1.35-.2-.58-.41-1.16-.61-1.74-.12-.36-.4-.78-.31-1.09.37-1.18-.56-1.61-1.13-2.33-.42.27-.79.48-1.12.73-.75.55-.82.96-.36,1.76.29.5.6.99.86,1.5.22.43.24.85-.08,1.3-.8,1.14-1.69,2.18-2.78,3.05-.65.51-.65.76,0,1.24,1.3.95,2.61,1.92,3.98,2.76.78.48,1.7.84,2.64.62,1.34-.3,2.67-.69,3.99-1.08.23-.07.52-.27.6-.48.23-.6.36-1.24.55-1.92ZM160.96,312.52c.69.71,1.22,1.09,1.91,1.04,1.15-.08,2.31-.15,3.43-.39,1.8-.39,3.56-.94,5.36-1.37,2.45-.59,4.74-1.58,7.03-2.6,1.98-.88,3.82-1.99,5.45-3.44,1.46-1.29,2.66-2.79,3.63-4.47.17-.29.5-.6.14-1.13-1.01.96-1.97,1.88-2.94,2.79-1.29,1.21-2.58,2.42-4.28,3.08-.9.34-1.76.77-2.65,1.14-2.37.99-4.75,1.97-7.12,2.97-.35.15-.67.38-1.02.54-.52.24-1.06.63-1.59.62-1.65-.04-3.17.47-4.74.82-.77.17-1.57.24-2.62.39ZM124.91,332.14c-.05.34-.11.57-.12.79-.08,1.38-.74,2.41-1.94,3.06-.64.34-1.35.57-2.01.88-1.31.62-1.8,1.46-1.64,2.87.09.85.29,1.67.9,2.33.49.54.95,1.12,1.45,1.65.22.24.51.41.94.75,0-.52.03-.81,0-1.09-.38-3,.81-5.34,3.14-7.12.72-.55,1.62-.88,2.42-1.34.53-.31.6-.74.12-1.1-.94-.72-1.87-1.47-3.26-1.67ZM138.81,310.29c-.7-2.49-1.34-4.79-1.99-7.07-2.26.12-4.01,2.33-3.65,4.48.34,1.98.91,2.51,2.93,2.6.87.04,1.73,0,2.7,0ZM167.29,132.82c.38-1.91-.45-2.17-1.52-2.28-1.84-.19-3.47.3-5.02,1.32-1.7,1.11-1.73,1.43-1.19,3.32.02.07.05.15.07.22.46,1.39,3.21,2.36,4.25,1.53-1.17-1.42-1.17-1.9-.4-3.34.86-1.61,2.36-1.45,3.81-.76ZM118.86,338.43c.57-1.28,1.46-1.84,2.52-2.19.29-.1.56-.26.85-.36.94-.3,1.55-.98,2.05-1.78.41-.64.45-1.3.08-1.97-.81-1.48-2.37-1.79-3.81-2.62-.11.74-.13,1.28-.28,1.78-.46,1.54-.97,3.08-1.48,4.61-.25.76-.56,1.5.06,2.53ZM145.59,88.9c.08.05.15.1.23.15-.61,2.3-1.89,4.48-1.51,6.98.63.2.96-.02,1.19-.6-.65-.25-.65-.72-.49-1.31.23-.81.32-1.67.57-2.47.48-1.5,1.04-2.98,1.56-4.48.1-.29.16-.6.23-.9-.41.06-.64.19-.8.38-.48.55-.94,1.13-1.39,1.7-2.37,3-4.53,6.14-6.37,9.49-1.45,2.64-2.58,5.43-3.88,8.14-.93,1.93-.39,3.7-.01,5.55.27-.73.14-1.47.11-2.22-.02-.45-.07-.94.08-1.34.62-1.66,1.18-3.36,1.99-4.93,1.39-2.67,2.9-5.27,4.45-7.85,1.28-2.14,2.69-4.21,4.04-6.3ZM144.38,112.34c-.04.76-.08,1.4-.1,2.04,0,.27.04.54.07.8.19,1.41.35,2.82.58,4.22.19,1.18.42,2.36,1.1,3.38.44.66,1,.9,1.56.7.5-.17.57-.55.47-1.49-.18-1.72-.32-3.44-.45-5.17-.04-.49,0-.99,0-1.58-1.09.04-1.53-.63-1.75-1.46-.2-.77-.74-1.12-1.48-1.46ZM141.15,311.93c-.64.05-1.07.04-1.48.12-3.02.61-5.96,1.52-8.86,2.58-1.35.49-1.72,1.17-1.62,2.85,2-.71,3.94-1.49,5.94-2.09,2.01-.6,4.08-1.02,6.28-1.56-.08-.62-.16-1.2-.26-1.91ZM141.66,266.09c-.21.52-.37.79-.43,1.08-.31,1.74-.63,3.48-.89,5.24-.14.98.16,1.92.62,2.79.32.61.77.61,1.13.02.18-.29.33-.62.4-.96.26-1.31,1.1-2.07,2.27-2.57.23-.1.42-.27.74-.47-1.39-1.6-2.29-3.45-3.84-5.13ZM150.6,345.49c.14.65.18,1.07.33,1.45.79,2.04,1.58,4.09,2.44,6.1.47,1.09,1.02,2.15,1.63,3.17.42.7.88.77,1.74.51,0-.07.02-.17-.02-.22-.13-.19-.26-.38-.42-.54-1.68-1.68-1.77-3.57-.77-5.61.05-.1.11-.2.16-.31.72-1.44.62-1.81-.9-2.23-1.37-.39-2.58-.97-3.53-2.06-.08-.1-.26-.11-.66-.27ZM136.75,311.47c-.49-.37-.49-.36-.99-.4-3.22-.21-6.35-.83-9.13-2.57-1.43-.9-3.04-1.66-3.78-3.37-1.23.53-1.38,1.21-.49,2.15.11.11.24.2.35.3,2.36,2.14,5.13,3.53,8.16,4.42,2.01.6,4,.53,5.87-.55ZM186.16,231.78c-.08-.19-.11-.31-.17-.39-.9-1.04-1.32-2.23-1.21-3.61.03-.42.06-.86-.03-1.26-.07-.29-.3-.65-.55-.77-.18-.09-.61.1-.78.29-.35.4-.64.86-.87,1.34-.7,1.48-1.49,2.85-3.26,3.34.88.61,5.31,1.28,6.88,1.05ZM145.47,123.33c-.55-1.85-1.11-3.48-1.5-5.15-.38-1.64-.19-3.39-.77-5.04-.2.43-.26.86-.35,1.29-.13.62-.06,1.41-.78,1.69-.64.25-.7.68-.58,1.19.41,1.68.84,3.36,1.29,5.04.06.23.25.56.44.61.69.17,1.41.24,2.23.37ZM161.64,90.05c.07.08.14.15.21.23.18-.13.38-.24.54-.39,1.54-1.4,3.02-2.87,4.63-4.19,1.49-1.21,3.01-2.43,4.88-3.04.66-.21,1.33-.39,1.97-.65.62-.25.79-.76.39-1.17-.48-.5-1.05-.9-1.82-.77-.33.06-.68.12-1.01.1-3.33-.2-6.41.68-9.35,2.17-.4.2-.93.32-1.16,1.01.43-.13.72-.2,1-.3,1.78-.62,3.55-1.29,5.34-1.84,1.66-.51,3.36-.9,5.1-.37.25.08.49.22.73.33v.25c-2.43.62-4.38,2.05-6.35,3.47-2,1.44-3.89,2.96-5.1,5.15ZM117.08,191.26c-.03-.07-.05-.15-.08-.22-.17.04-.38.04-.52.14-1.45.96-2.99,1.8-4.3,2.92-3.58,3.06-7.09,6.2-10.03,9.92-1.03,1.3-1.6,2.69-1.56,4.37.03,1.11,0,2.24-.15,3.34-.25,1.75-.63,3.49-.93,5.24-.06.33-.26.7.17,1.23.2-.63.4-1.08.48-1.55.43-2.39.93-4.76.87-7.22-.04-1.59.28-3.16,1.29-4.48.85-1.1,1.68-2.22,2.64-3.21,1.44-1.5,2.95-2.95,4.49-4.35,1.54-1.4,3.13-2.74,4.74-4.06.91-.74,1.92-1.38,2.88-2.06ZM145.63,137.52c.4-.38.2-.67-.07-.82-.43-.24-.89-.44-1.36-.58-1.37-.41-2.75-.21-4.12.02-.71.12-.88.36-.91,1.11-.04,1.31.92,2.85,2.15,3.31.56.21,1.19.32,1.68-.23-.8-1.47-.79-2.29.02-3.06.69-.65,1.12-.61,2.61.25ZM149.89,113.57c-1.72.42-1.94,1.61-1.94,2.81,0,1.53.16,3.07.28,4.6.05.61.17,1.22.3,1.82.07.33.18.71.65.67.49-.05.76-.33.76-.84,0-.35-.03-.69-.03-1.04,0-2.07,0-4.14-.01-6.21,0-.56,0-1.13,0-1.81ZM186.11,86.31c-1.05.57-2,1.08-2.94,1.6-2.28,1.27-4.32,2.83-6.09,4.75-.15.16-.2.42-.3.63.06.05.13.1.19.14.25-.21.52-.4.76-.63,2.47-2.36,5.17-4.39,8.31-5.78.6-.27,1.14-.65,1.71-.98-.02-.12-.04-.23-.06-.35-1.27-.16-2.52-.49-3.83-.37-1.49.14-2.98.31-4.47.42-2.37.17-4.6.87-6.81,1.67-.21.08-.36.29-.54.44.04.08.08.15.12.23,1.48-.49,2.93-1.11,4.45-1.43,1.53-.32,3.13-.47,4.7-.46,1.56.01,3.13-.69,4.81.1ZM167.51,333.8c-.78-.25-1.31-.41-1.96-.62-1.24,1.86-2.51,3.78-3.87,5.82.87.05,1.55.36,2.11-.3.62-.73,1.28-1.42,1.86-2.18.64-.84,1.2-1.75,1.87-2.72ZM134.98,183.53c-.11.31-.17.44-.21.58-.28.98-.71,1.85-1.62,2.41-.58.36-1.14.78-1.68,1.21-.45.35-.88.74-1.3,1.14-.37.36-.51.87-.17,1.23.18.19.72.19,1.04.09,1.31-.4,2.38-1.23,3.39-2.12.18-.16.39-.5.33-.68-.29-.91.17-1.65.42-2.44.14-.43.31-.86-.21-1.42ZM182.6,352.83c-3.45,2.24-6.63,4.86-10.34,6.69-3.69,1.82-7.62,3.02-11.65,4.42,1.27.25,7.13-1.49,11.05-3.41,4.04-1.97,7.76-4.47,10.93-7.7ZM193.27,326.63c-.15.35-.3.69-.44,1.03-.37.88-.78,1.75-1.11,2.66-.29.8-.07,1.35.52,1.54,1.15.37,1.56.23,1.82-.8.18-.7.18-1.44.3-2.15.24-1.35.2-1.47-1.09-2.27ZM187.08,102.37c.08.1.16.2.24.3.26-.19.53-.38.78-.58.52-.4.99-.87,1.55-1.21,1.35-.83,2.73-1.59,4.1-2.39.21-.12.39-.28.61-.44-2.66-2.18-10.62-2.01-12.52-.3,1.96-.21,3.73-.8,5.58-.68,1.85.12,3.73-.05,5.67.88-2.14,1.54-4.46,2.5-6.02,4.43ZM168.85,110.56c-1.08-.33-1.18-.35-1.59.35-1.09,1.86-2.13,3.74-3.17,5.63-.11.19-.05.48-.07.76.95-.12,1.48-.56,1.86-1.32.66-1.3,1.4-2.56,2.1-3.84.27-.5.55-.99.87-1.57ZM139.95,112.66c-.12.04-.24.08-.36.12,0,.42-.03.83,0,1.25.06.65.17,1.29.25,1.94.23,1.75.42,3.5.71,5.23.13.76.51,1.44,1.59,1.56-.07-.49-.09-.9-.2-1.29-.73-2.51-1.36-5.04-1.49-7.66-.02-.39-.33-.76-.5-1.14ZM151.53,122.32c.09,0,.19,0,.28,0,0-.36,0-.73,0-1.09,0-.5-.08-1.03.06-1.49.53-1.76,1.13-3.5,1.71-5.24.11-.33.4-.65.18-.99-.53.13-.99.21-1.43.36-.23.08-.52.23-.6.43-.16.38-.24.81-.27,1.22-.1,1.34-.21,2.68-.22,4.02,0,.93-.24,1.92.28,2.8ZM130.27,288.55c1.4-.72,1.96-1.75,2.04-2.96.09-1.28.34-2.7-1.21-3.71-.28,2.25-.54,4.34-.82,6.67ZM178.94,93.7c.03.07.07.14.1.2.25-.04.51-.06.75-.14,1.64-.55,3.27-1.12,4.91-1.66.25-.08.53-.06.97-.1q-4.33,4.05-4.27,4.92c.87-.53,1.3-1.44,1.99-2.07.74-.68,1.48-1.36,2.24-2.01.71-.61,1.62-.96,2.16-1.81-2.86.34-5.55,1.17-8.19,2.2-.25.1-.44.31-.66.48ZM138.38,115.3c-.99.27-1.14.39-1.03,1.04.26,1.51.54,3.02.89,4.51.19.81.71,1.09,1.77,1.14-.35-1.09-.77-2.14-1.03-3.23-.27-1.11-.39-2.25-.59-3.46ZM146.17,94.43c.07,0,.19.04.21,0,2.45-3.22,4.96-6.39,8.04-9.05.03-.02-.02-.13-.03-.2-1.98.4-8.19,7.39-8.22,9.24ZM189.19,102.97c1.72-.07,3.45-.17,5.4-.05-.98.87-1.82,1.54-2.57,2.3-.73.73-1.64,1.35-1.95,2.66,2.01-1.81,3.85-3.48,5.69-5.15-1.08-.72-3.83-.68-6.57.24ZM175.21,100.05c-1.26.54-2.17,1.46-3,2.46q-2.03,2.46-1.99,3.15c2.4-1.21,3.5-3.58,4.99-5.62ZM168.31,130.21c-.87-.67-1.89-.87-2.85-1.22-1.32-.48-2.49-.12-3.56.67-.43.31-.96.57-1.2,1.4.5-.21.8-.33,1.1-.45.98-.41,1.93-1.01,3.07-.79.82.16,1.63.38,2.44.58.31.08.62.39,1.02-.19ZM136.49,131.09c.09.01.18.02.27.03.06-.35.18-.7.17-1.05-.02-.77-.13-1.53-.16-2.29-.07-1.95-.23-3.92.38-5.82-.33-.26-.59-.47-1.05-.84.02,3.47-.13,6.73.39,9.97ZM123.92,303.63c.52-.79.99-1.39,1.33-2.06.39-.77.14-1.18-.75-1.51-1.48,1.42-1.53,1.64-.58,3.57ZM191.99,109.08c-.91.02-.92.02-1.1.3-.16.26-.27.57-.48.77-1.35,1.27-2.11,2.91-2.92,4.53-.1.21-.1.47-.19.95.88-.72,1.1-1.54,1.52-2.24.46-.75.91-1.51,1.43-2.22.49-.67,1.06-1.28,1.73-2.09ZM191.57,295.1c-1.67,1.69-3.37,3.22-4.89,5.09.25.06.45.16.5.11,1.39-1.36,2.77-2.72,4.14-4.1.22-.22.56-.45.25-1.09ZM142.2,320.01c-.29.15-.62.22-.64.36-.15.74-.27,1.5-.29,2.25,0,.3.22.66.44.9.14.15.48.21.7.16.12-.03.25-.37.24-.56-.02-.69-.08-1.37-.16-2.06-.04-.33-.17-.64-.28-1.05ZM189.48,314.52c-.25-2.14-1.66-3.88-1.91-6.01-.34.61-.18,2.25.29,3.52.35.94.68,1.9,1.62,2.49ZM137.49,120.97c.33-.87-.42-4.51-.96-5.4-.08.21-.18.35-.19.49-.02,1.45.09,2.88.66,4.24.11.25.32.45.49.67ZM171.05,105.83c-.72.37-1.68,1.56-2.63,3.17-.16.28-.5.53-.2.91.91-.31.91-.31,1.23-.88.46-.84.92-1.68,1.37-2.52.1-.18.13-.39.23-.68ZM155.54,319.53c-.13,1.21-.27,2.2.06,3.27,1.34-.88,1.37-2.27-.06-3.27ZM184.14,147.13c-.74.31-.73.74-.7,1.17.09,1.03.18,2.05.29,3.07.02.15.13.3.19.44.09-.02.18-.03.26-.05.11-1.5.25-3-.05-4.64ZM164.12,229.79c-.73-.43-.99-.39-1.63.19-.65.6-.68.82-.13,1.93.59-.71,1.14-1.38,1.75-2.12ZM157.81,84.4c.69.2.92-.06,1.08-.46.26-.64.55-1.27.8-1.91.06-.16.04-.35.06-.69-.65.38-1.37.39-1.27,1.33.03.27-.21.56-.32.84-.11.27-.22.54-.35.89ZM196.91,187.41c-.44.81-.78,1.45-.22,2,.45.44,1.09.36,1.79.05-.53-.69-.99-1.28-1.57-2.04ZM150.75,116.7c.09,0,.18,0,.28.01.14-1.17.28-2.34.44-3.67-1.16.84-1.36,2.19-.72,3.66ZM204.79,195.8v2.33c.08.03.15.06.23.09.4-.42.79-.84,1.27-1.35-.55-.39-.97-.69-1.5-1.07ZM188.41,302.16c-.15-.02-.3-.05-.45-.07-.33,1.37-.62,2.75-.51,4.19.09.01.18.03.28.04l.69-4.16ZM156.6,134.51c.69.52,1.21.17,1.6-.06.45-.28.38-.84.17-1.51-.62.55-1.14,1.02-1.76,1.57ZM81.79,262.68c.13.06.26.13.38.19.42-.8.88-1.59,1.24-2.42.15-.34,0-.69-.45-.69-.4,1-.79,1.96-1.18,2.92ZM135.62,358.3c-.77,1.2-1.92,1.68-3.24,1.9,1.73.47,3.26-.42,3.24-1.9ZM213.78,97.78c.34.4.59.68.83.97.07-.03.14-.05.2-.08v-1.72c-.47.37-.72.58-1.04.83ZM163.81,134.07c.49.27.86.08,1.11-.36.08-.14.08-.4,0-.51-.08-.1-.36-.16-.49-.1-.39.17-.75.4-.61.98ZM142.64,135.15c.01-.09.03-.19.04-.28-.87-.28-1.72-.23-2.54.48.83-.07,1.67-.14,2.5-.2ZM168.72,87.58c1.2.28,1.37.22,1.9-.6-.76-.14-1.3.32-1.9.6ZM117.88,336.61c-.64.51-.93,1.01-.75,2,.44-.72.93-1.15.75-2ZM169.46,88.99c.9.13,1.46-.12,1.99-.88-.77.1-1.4.36-1.99.88ZM150.69,122.73c.34-.73.29-1.3-.02-2.04-.54.74-.38,1.31.02,2.04ZM115.91,344.6c-.04-.6.08-1.26-.56-1.77-.26.8,0,1.33.56,1.77ZM187.63,117.99c.05.07.11.15.16.22.91-.3,1.13-.5,1.35-1.3-.56.4-1.04.74-1.51,1.08ZM146.88,357.07c.1-.04.19-.08.29-.13-.1-.29-.16-.6-.31-.86-.15-.26-.18-.74-.82-.6.31.58.58,1.08.84,1.58ZM156.55,364.54v-.25h-2.26c0,.08,0,.16,0,.23.75.14,1.51.12,2.27.02ZM119.82,348.97c-.27-.66-.71-.86-1.3-.85.36.34.46,1.08,1.3.85ZM163.43,249.07c.78.33,1.3-.03,1.85-.27-.57-.12-1.14-.32-1.85.27ZM166.62,134.35c-.05-.92-.1-.96-.97-.68.36.25.63.44.97.68ZM163.67,109.72c-.08-.06-.16-.11-.24-.17-.42.3-.74.67-.59,1.36.28-.4.56-.79.84-1.19ZM143.21,138.7c.21-.32.38-.5.43-.71.02-.09-.19-.25-.3-.38-.16.17-.36.31-.45.51-.04.09.15.28.32.57ZM85.15,249.87c.71-.72.71-.74-.06-1.22.02.43.04.78.06,1.22ZM187.66,307.22c-.12,0-.25,0-.37,0,.01.24.02.48.04.72.1,0,.2,0,.29,0,.01-.24.03-.47.04-.71ZM188.81,141.07c-.07-.08-.15-.16-.22-.24-.44.04-.59.35-.53.88.25-.22.5-.43.74-.65ZM136.37,119.21c-.13.03-.25.06-.38.09.09.27.17.55.26.82.08-.02.17-.04.25-.06-.04-.28-.09-.57-.13-.85ZM187.04,349.43c-.06-.06-.11-.13-.17-.19q-.67.27-.91,1.12c.47-.4.78-.66,1.08-.93ZM142.7,95.76c.1.01.2.02.3.03.02-.2.04-.41.05-.61,0-.01-.18-.02-.28-.04-.02.2-.04.41-.06.61ZM155.69,84.3c-.6-.13-.76.08-.84.39,0,.03.08.09.17.19.18-.16.36-.32.67-.58ZM138.64,136.14c-.09-.07-.17-.14-.26-.21-.14.17-.3.33-.42.51-.02.04.09.16.21.37.19-.28.33-.48.46-.68ZM135.57,134c.65-.07.81-.28.75-.65,0-.05-.11-.09-.26-.19-.13.23-.26.45-.49.84ZM196.91,130.91c-.13.62.07.8.64.55-.26-.22-.45-.38-.64-.55ZM84.21,247.21c-.1.07-.21.14-.31.22.14.2.29.4.43.6.08-.05.16-.1.24-.15-.12-.22-.24-.45-.36-.67ZM151.1,241.93c-.27-.11-.43-.2-.59-.22-.05,0-.19.2-.18.22.1.13.22.27.37.33.06.02.2-.16.4-.33ZM187.99,348.07c.44.1.78.06.69-.54-.23.18-.46.36-.69.54ZM172.58,105.65c-.59,0-.83.1-.73.52.01.06.08.11.17.23.15-.2.3-.39.56-.74ZM135.29,112.44c-.14-.08-.22-.14-.31-.16-.03,0-.13.12-.12.15.03.09.11.16.16.24.07-.06.15-.13.27-.23ZM83.71,246.63c.11-.13.19-.2.22-.28.02-.04-.07-.18-.09-.17-.09.02-.23.05-.25.11-.02.07.05.18.11.34ZM184.39,351.5s-.08-.09-.12-.14c-.13.09-.26.18-.39.27.06.07.12.14.18.21.11-.11.22-.22.32-.34ZM158.53,364.3l.04.27c.29-.02.58-.04.87-.07,0-.07,0-.14-.01-.21h-.89Z"/>
  </g>
</svg>