<svg width="1441" height="121" viewBox="0 0 1441 121" fill="none" xmlns="http://www.w3.org/2000/svg">
<path d="M0.00024184 0.153825L0.000233102 100.106C0.221857 102.294 0.399188 104.505 0.310538 106.693C0.509999 107.157 0.731553 107.621 0.931014 108.085C2.77049 109.986 5.76241 109.257 8.26675 109.5C9.39703 109.61 10.4609 109.544 11.2144 110.251C12.6993 110.981 14.7825 110.937 15.8906 112.108C16.1344 112.241 16.4225 112.351 16.7328 112.418C18.4171 112.506 19.8799 113.081 21.254 113.655C22.6502 114.252 23.8913 114.252 25.221 113.655C25.6199 113.412 25.8416 113.103 25.9524 112.771C27.7254 114.186 31.2492 114.584 34.7508 113.545C35.9697 113.191 37.1222 112.705 38.3189 112.307C38.4741 112.197 38.5627 112.042 38.7178 111.909C39.6265 112.042 40.2028 112.418 40.1584 113.191C40.3801 113.191 40.6017 113.191 40.8455 113.191C43.0395 112.484 45.3888 112.174 47.8045 112.02C53.0348 112.484 57.9992 111.467 63.03 110.782C66.0441 110.384 68.9474 110.76 71.8064 111.445C72.9366 111.158 73.2247 110.03 74.6653 110.03C74.9534 109.964 75.2193 109.854 75.4853 109.743C76.0615 109.345 76.8594 109.036 77.1696 108.505C77.768 109.014 78.2999 109.566 79.2529 109.809C79.7183 109.876 80.1837 109.854 80.6048 109.699C80.9372 109.522 81.1145 109.301 81.314 109.08C81.314 109.213 81.2697 109.345 81.2254 109.456C83.6189 110.119 86.1897 109.876 88.6497 110.163C89.5362 110.251 90.8881 110.119 91.1319 110.627C92.2178 112.86 94.8994 111.843 96.8941 112.307C99.4649 112.904 101.061 112.484 103.343 111.732C105.892 110.892 108.507 109.854 111.388 109.566C113.139 109.389 114.447 108.859 115.621 108.041C115.776 108.505 115.422 109.102 115.887 109.699C116.641 108.439 117.394 107.975 119.19 108.969C120.985 109.964 123.024 109.036 124.774 108.395C126.791 107.643 127.921 108.793 129.207 109.345C130.404 109.854 129.096 110.362 128.675 110.826C129.517 111.268 130.382 111.379 131.224 110.892C132.443 111.998 134.216 112.528 136.033 113.037C137.872 113.545 139.911 113.611 140.997 115.269C141.684 116.33 144.322 116.573 145.23 115.379C146.627 113.545 148.532 113.103 151.192 113.456C150.062 114.628 151.414 115.291 152.788 115.954C153.652 116.308 154.849 115.954 155.602 116.573C156.999 117.678 158.55 117.391 159.658 116.485C160.921 115.446 161.919 115.645 163.359 116.264C164.778 116.883 166.262 117.501 167.991 117.59C169.72 117.678 171.271 117.457 172.357 116.131C171.781 117.479 171.803 118.607 173.088 119.557C173.487 119.844 174.329 120.198 174.507 120.021C176.612 117.988 179.36 121.281 181.444 119.601C181.599 119.491 181.776 119.38 181.865 119.248C182.995 117.612 184.037 116.993 185.898 118.982C186.962 120.132 189.067 120.176 190.308 119.159C192.769 117.126 196.514 116.065 198.42 113.589C200.259 115.114 203.074 115.136 205.29 116.02C206.376 116.463 207.883 116.087 208.725 115.468C212.582 112.594 217.28 112.882 222.045 113.744C224.128 114.12 226.012 114.982 227.674 113.213C228.295 112.55 229.048 113.258 229.713 113.456C233.015 114.407 237.426 113.899 239.442 112.373C239.93 111.998 240.218 111.6 240.329 111.136C240.373 111.136 240.418 111.136 240.462 111.114C240.573 111.091 240.639 111.047 240.75 111.025C241.26 111.379 241.969 111.445 242.878 111.29C243.72 111.136 244.451 111.224 244.407 112.02C244.097 112.904 243.786 113.766 245.249 114.319C246.845 114.319 247.665 113.213 249.127 112.992C250.634 112.506 251.765 111.622 253.161 111.003C256.175 114.694 258.524 114.96 263.688 112.219C264.309 111.069 264.53 109.765 266.325 109.102C266.924 108.793 267.456 108.417 267.921 107.997C268.342 107.621 268.719 107.223 269.362 107.046C269.916 107.334 269.849 107.886 270.426 108.152C272.287 108.527 273.484 107.82 274.127 106.781C274.548 106.14 275.257 105.787 275.877 105.344C278.781 105.853 281.684 106.494 284.632 105.521C285.518 105.234 286.338 105.367 287.225 105.566C289.13 105.963 291.014 105.698 292.854 105.322C293.386 105.212 293.829 104.814 294.361 104.836C295.646 104.88 297.242 106.361 298.106 105.035C299.259 103.245 301.918 101.896 301.608 99.1997C302.65 100.659 302.605 101.941 303.58 102.957C303.647 103.046 303.758 103.09 303.846 103.178C302.472 103.996 301.364 104.637 302.007 105.875C302.206 106.273 302.849 106.56 303.337 106.339C304.888 105.632 304.378 104.549 304.423 103.466C305.641 103.62 306.727 103.687 307.703 103.62C306.439 104.173 306.063 105.455 305.508 106.405C305.154 107.024 306.328 107.555 307.791 107.577C307.902 106.339 311.005 107.002 310.694 105.61C310.539 104.925 310.384 103.687 309.254 103.444C311.647 102.957 313.177 101.609 314.041 99.2218C315.238 100.349 315.836 101.941 318.252 101.742C320.291 101.565 321.731 100.703 322.573 99.4208C322.64 99.2881 322.573 99.1776 322.618 99.045C324.081 98.6692 325.698 98.6029 326.74 97.6304C327.759 98.5808 327.117 99.1776 326.385 99.6418C324.014 101.101 325.876 102.073 327.471 102.316C329.665 102.648 331.328 103.466 333.167 104.173C334.918 104.836 336.78 105.499 338.885 104.703C339.771 104.372 341.301 104.814 341.035 104.991C339.395 106.074 339.816 107.975 337.622 108.815C337.267 108.947 336.979 109.102 336.669 109.257C337.888 109.323 339.062 109.345 340.303 109.434C341.434 109.522 342.542 109.677 343.65 109.809C344.204 109.323 344.359 108.726 343.207 107.975C343.007 107.842 343.251 107.422 343.295 107.113C346.642 107.334 346.819 104.549 349.412 103.952C350.232 105.322 348.925 106.03 347.883 106.825C347.395 107.201 346.332 107.953 346.908 108.085C349.035 108.572 349.19 109.456 349.08 110.384C350.853 110.605 352.626 110.826 354.421 111.069C354.842 111.003 355.307 110.981 355.795 111.003C356.947 111.047 357.922 110.804 358.742 110.362C359.496 112.064 361.845 111.821 363.662 112.219C364.416 112.307 365.17 112.373 365.901 112.44C366.1 112.373 366.344 112.373 366.499 112.219C368.804 110.03 371.863 109.765 375.364 110.473C376.605 110.716 377.824 110.694 378.511 109.743C376.916 106.582 380.949 105.168 382.966 103.046C383.188 103.532 382.988 104.085 383.52 104.46C385.226 105.278 386.911 104.416 387.819 103.886C389.881 102.648 392.185 101.498 393.715 99.907C393.626 100.659 394.269 101.255 395.909 101.72C398.302 102.383 399.787 102.206 400.984 100.393C402.846 97.5641 419.689 98.9345 418.182 96.061C417.96 95.6632 417.827 95.3316 418.248 95.0001C418.802 94.5801 419.467 94.6685 420.066 94.9337C421.839 95.6853 423.39 95.3316 424.875 94.6464C425.097 95.5084 426.249 95.5748 427.379 95.3979C430.881 94.8453 434.316 94.1601 437.951 94.978C438.992 95.199 439.901 94.7569 440.588 94.1822C442.716 92.4139 445.021 90.933 448.633 90.712C450.495 90.6015 451.049 88.9216 452.8 88.4795C454.506 91.8172 456.257 92.1266 460.224 89.8278C461.709 88.9879 463.172 88.3027 464.856 89.651C465.632 90.2478 466.695 90.1152 467.161 89.5405C468.38 88.0153 470.131 88.5458 471.837 88.789C472.169 88.7669 472.458 88.6785 472.724 88.5679C476.38 87.0649 477.91 84.2578 480.658 82.2242C481.566 84.8767 485.356 85.3187 487.639 86.8218C488.149 86.8218 488.57 86.6449 488.88 86.3576C490.83 84.4567 494.288 83.8157 496.459 82.0916C496.748 81.8485 497.612 81.8927 498.077 82.0474C502.089 83.3294 506.211 82.4895 510.289 82.4011C512.483 82.3569 514.367 82.9536 516.406 83.2631C519.619 82.6221 522.655 83.3736 525.625 84.0367C528.285 84.6335 532.473 84.6335 533.87 83.7494C537.216 81.6053 541.648 81.9148 545.438 80.8759C545.749 80.7875 546.147 80.7875 546.413 80.9422C549.738 82.821 553.417 83.1968 557.45 82.2684C557.716 82.2021 558.093 82.3348 558.448 82.3348C558.669 82.3348 558.869 82.2463 559.068 82.2021C559.068 82.2021 559.046 82.2021 559.024 82.2021C558.226 83.2189 557.162 84.2136 559.556 84.744C561.041 85.0756 560.974 86.0481 561.705 86.667C562.791 87.5733 563.744 88.6785 565.495 87.1754C565.584 87.1091 565.672 87.087 565.739 87.2196C566.537 88.6785 568.354 87.9933 569.773 88.148C570.083 88.148 570.393 88.148 570.703 88.1038C572.033 87.8827 572.432 87.0207 573.141 86.3576C574.183 86.866 574.316 88.148 576.089 87.9269C576.842 87.7501 577.507 87.4628 578.194 87.1754C578.815 87.1312 579.435 87.087 580.078 87.0207C580.765 86.0481 582.582 86.5344 583.447 85.805C583.868 85.5619 584.355 85.3629 584.71 85.0977C584.998 84.9651 585.331 84.8988 585.707 84.9651C586.705 85.1861 587.569 85.6945 588.699 85.4956C589.032 85.4071 589.32 85.2524 589.519 85.0535C589.94 84.5009 589.874 84.0588 589.608 83.6389C590.428 83.9925 591.359 84.0146 592.29 84.0367C593.597 84.0146 594.75 83.4841 596.146 84.4567C597.121 85.1419 599.204 85.2082 600.911 85.1419C601.664 85.0977 602.817 85.0535 603.038 85.5398C604.213 88.0596 607.183 87.1754 609.421 87.0428C612.214 86.866 615.294 87.3302 617.71 85.805C618.397 84.0367 619.394 82.6442 622.674 82.9095C624.048 83.02 624.624 82.4011 625.023 81.6938C625.267 81.8264 625.489 82.0032 625.799 82.0695C626.796 82.2021 627.749 82.6221 628.835 82.379C629.323 82.2685 629.766 82.0916 630.143 81.8706C630.542 81.6275 630.852 81.3622 631.14 81.0749C632.337 80.8538 633.423 80.5223 633.046 79.0192C632.825 78.113 634.686 77.8477 635.706 77.5383C636.792 77.1846 640.271 79.1519 642.443 78.754C643.307 78.5993 643.906 78.9087 644.593 79.1961C648.028 80.5886 651.197 79.616 652.571 80.1023C653.014 80.1023 653.48 80.1023 653.923 80.1023C657.469 80.1465 660.971 80.5665 664.384 81.2517C664.938 80.9643 665.492 80.6991 666.179 80.5002C667.243 80.3454 668.284 80.1686 669.104 79.616C669.481 79.2624 669.503 79.1519 671.254 79.2845C673.448 79.4392 673.249 78.9971 673.049 78.0025C672.916 77.3394 673.47 76.9857 674.357 76.8752C675.199 76.7647 676.019 76.9194 676.351 77.472C676.994 78.533 677.548 79.6381 677.969 80.7654C678.59 82.379 682.778 82.5116 682.867 84.6777C682.889 85.363 683.133 85.9597 684.263 85.9818C685.349 85.9818 686.435 85.9376 686.834 84.9209C687.277 83.7494 687.255 82.4895 688.253 81.4506C689.028 81.3622 689.472 81.0528 689.605 80.5223C691.045 80.1686 692.087 79.4613 692.973 78.6435C694.103 78.2898 695.234 77.9141 696.364 78.6435C697.007 79.7929 693.572 78.7761 694.436 80.7433C695.566 83.3294 697.782 82.2021 699.733 82.379C700.132 82.7326 700.486 83.2631 701.262 82.9316C701.993 82.6 701.683 81.959 701.772 81.4506C702.991 82.9537 705.185 83.241 707.268 83.6831C707.268 83.7273 707.268 83.7715 707.268 83.8157C707.268 83.8378 707.445 83.882 707.534 83.882C707.645 83.882 707.733 83.8378 707.844 83.7936C709.772 85.7829 710.016 85.7608 711.634 83.6168C714.759 85.0977 718.637 85.2082 718.992 86.0261C720.166 85.4956 722.671 86.2029 722.826 86.225C724.976 86.5565 725.463 87.087 724.089 87.8164C720.233 89.85 723.735 90.071 725.419 90.8004C725.574 90.7783 725.729 90.7562 725.884 90.7341C728.522 89.7394 727.17 87.7059 728.145 86.2029C729.652 86.9765 728.61 87.6838 728.411 88.369C727.746 90.6457 729.12 91.6182 732.311 90.8446C734.018 90.4247 734.882 91.7288 736.367 91.3751C737.963 91.1541 738.805 90.491 738.938 89.3858C739.714 88.9437 738.871 87.728 740.157 87.728C741.863 87.728 741.176 88.789 741.287 89.4963C741.376 90.0268 741.642 90.6015 742.683 90.5573C743.237 90.5352 744.035 90.292 743.88 89.9163C742.883 87.4186 746.119 88.2143 747.049 87.6617C749 87.7943 745.786 89.9826 749.133 89.4079C749.354 89.4079 749.554 89.4079 749.775 89.4079C751.016 89.9605 750.595 91.1983 751.77 91.773C751.77 91.9056 751.814 92.0382 751.836 92.1929C752.856 92.3919 753.765 92.0382 754.651 91.8393C755.936 91.5519 756.158 92.1266 756.535 92.6792C757.067 93.1434 758.042 93.1213 758.552 93.6076C763.206 93.917 767.793 93.5192 772.403 92.9887C772.447 92.9666 772.514 92.9445 772.558 92.9224C774.841 94.2265 776.813 95.9505 780.426 95.4201C781.623 95.2432 781.468 95.9947 781.578 96.481C785.966 97.2546 789.823 95.6853 793.834 95.0222C795.12 94.8012 796.338 94.4475 797.69 94.5138C798.377 93.8507 800.195 94.8896 800.505 93.6518C802.012 92.7455 805.181 93.0992 804.915 90.933C804.782 92.9887 805.093 93.1655 807.796 92.856C808.905 92.7234 810.013 92.0161 811.187 92.7455C812.074 90.8888 813.293 89.2311 816.329 88.3911C816.617 89.4742 814.933 89.6731 814.6 90.4026C814.379 90.9109 813.692 91.4856 814.534 91.8614C815.531 92.3035 815.797 91.5962 816.174 91.132C816.506 90.7341 816.883 90.1594 817.592 90.4026C817.969 90.5352 817.947 91.2204 818.102 91.6404C820.584 90.7562 819.41 89.2532 819.387 87.9491C821.781 88.8111 823.377 87.1976 825.438 86.9765C826.391 86.866 827.122 85.8934 828.097 87.1312C828.673 87.8607 829.471 87.2197 830.225 86.8218C831.621 86.0482 833.261 85.7608 834.923 86.5566C834.923 86.866 834.923 87.1754 834.923 87.4849C836.386 86.9765 836.962 87.3965 836.94 88.4132C837.738 88.6343 838.248 88.3248 838.58 87.9049C840.043 85.9819 843.367 85.6945 844.963 86.5123C846.071 87.087 847.201 86.5344 848.265 86.0482C848.198 86.8218 848.42 87.5291 849.772 87.9712C850.215 87.9712 850.658 87.9712 851.124 87.9712C852.631 87.9712 850.836 86.4902 853.074 86.225C855.49 85.9377 857.507 84.1473 855.512 87.5512C854.914 88.5901 856.332 89.3858 858.194 89.1648C858.903 89.0764 859.435 88.568 860.366 88.8553C863.224 89.7616 863.446 89.6731 865.241 87.8165C866.349 88.9216 865.596 90.7341 868.012 91.2425C870.738 91.0657 871.934 89.4742 873.486 88.2143C874.682 89.0543 872.843 89.1648 873.264 89.7837C876.611 90.5352 878.273 88.5901 880.445 87.3523C881.907 88.4132 879.58 89.6732 881.11 90.6236C882.284 90.6678 882.683 89.1648 884.212 89.8058C885.564 90.8225 887.005 91.7509 884.478 93.055C883.104 93.7623 884.279 95.398 886.827 96.1053C883.37 96.68 883.06 97.7188 885.564 99.1556C886.007 99.0008 886.451 98.8461 886.916 98.6914C888.623 99.3545 889.177 101.101 891.659 101.034C891.88 101.034 892.102 101.034 892.324 101.034C892.723 101.521 892.833 102.14 893.698 102.427C894.695 104.306 896.956 103.245 897.066 102.582C897.266 101.322 898.507 100.968 899.394 100.261C901.167 102.162 905.931 102.537 905.178 105.72C905.355 106.715 906.109 107.113 907.549 106.892C907.682 106.825 907.793 106.737 907.926 106.671C909.012 105.477 909.677 106.339 910.453 106.892C911.694 107.754 912.735 108.019 913.112 106.406C913.467 104.858 915.483 104.239 916.946 103.333C917.899 102.736 918.697 103.112 919.606 103.576C920.559 104.085 921.024 105.3 922.797 104.792C922.841 104.726 922.886 104.593 922.952 104.593C925.213 104.35 921.046 102.316 924.215 102.361C925.678 102.383 927.252 102.051 928.581 103.002C928.64 101.852 929.601 100.983 931.462 100.393C932.415 100.902 931.595 101.675 932.083 102.294C932.659 103.024 932.704 103.908 934.454 103.09C935.695 102.493 936.804 103.377 937.956 104.018C937.978 102.781 936.427 102.405 936.294 101.521C936.737 101.211 937.203 100.902 937.646 100.592C938.133 100.283 938.643 100.062 939.397 100.018C944.294 99.8408 952.118 98.6914 955.198 99.244C957.016 99.5534 954.245 101.3 956.572 101.521C957.481 101.211 957.969 101.72 958.589 102.007C958.589 102.162 958.589 102.316 958.589 102.449C957.681 103.532 958.478 104.261 959.742 104.748C960.85 105.19 961.692 104.483 961.736 103.974C961.847 103.068 964.994 102.626 962.512 101.388C961.227 100.747 961.337 99.5976 961.005 98.6914C960.761 98.0504 962.689 98.2714 963.509 97.7188C964.174 97.2768 965.46 97.6746 965.327 98.6914C966.546 97.8736 967.609 97.2547 968.917 98.7356C969.737 99.6639 970.956 100.46 972.84 99.7745C973.416 99.5534 974.014 99.6197 974.059 100.15C974.192 102.051 977.073 102.515 978.136 103.952C978.668 104.637 983.766 103.886 984.586 102.913C985.206 102.184 985.716 101.919 987.001 101.742C988.287 101.565 990.304 100.813 988.797 99.3324C987.644 98.2051 989.639 97.7188 989.661 96.8568C990.991 96.5031 991.522 95.2875 993.872 96.0832C996.42 96.9452 1001.61 96.8568 1001.07 98.0946C1000.88 98.5367 1002.32 98.824 1002.85 98.2714C1003.67 97.4315 1004.98 97.1663 1006.06 96.6579C1006.5 98.4925 1010.18 99.3766 1012.62 98.2714C1015.26 97.1663 1018.58 97.2768 1021.09 95.9948C1021.09 96.039 1021.06 96.0832 1021.06 96.1274C1020.58 96.9452 1020.53 97.7188 1021.84 98.0725C1023.15 98.4262 1024.63 98.7135 1025.63 97.6083C1025.43 97.3431 1025.76 97.7188 1025.54 97.4536C1025.61 97.4536 1025.61 97.4978 1025.67 97.5199C1028.71 98.4483 1031.61 98.0504 1033.63 96.4368C1035.43 95.0001 1037.55 94.558 1039.84 94.6686C1043.71 94.8454 1047.06 93.7402 1050.41 92.8119C1051.89 92.3919 1054.91 93.0108 1056.97 93.3866C1058.28 93.6076 1058.81 91.8835 1060.36 92.7456C1061.25 93.3424 1062.8 93.0329 1063.46 93.917C1064.13 94.757 1065.06 95.4864 1066.59 95.199C1068.27 94.8896 1068.91 93.8949 1069.09 92.7677C1069.11 92.5908 1069.11 92.414 1069.14 92.2593C1071.44 92.9887 1078.2 95.2654 1080.17 97.3873C1081.7 99.0451 1082.21 98.4262 1083.3 97.741C1083.98 97.2989 1084.16 96.4147 1085.51 96.7021C1086.73 96.9673 1086.6 97.6083 1086.64 98.3599C1086.71 99.6861 1087.06 99.6861 1089.88 98.3377C1091.08 99.2661 1090.97 100.415 1090.97 101.543C1092.25 101.543 1093.43 101.322 1094.27 100.592C1095.18 99.7966 1096.42 99.7745 1097.17 100.415C1098.97 101.941 1099.79 100.769 1099.94 99.8629C1100.3 97.8073 1102.22 97.4536 1104.86 97.2547C1104.84 98.7356 1102.8 100.106 1104.66 101.941C1105.68 99.3324 1109.25 98.6472 1111.15 96.8568C1111.64 96.3926 1111.86 95.5527 1112.99 95.6853C1114.55 95.8622 1113.06 96.9673 1113.9 97.4094C1114.9 97.1442 1114.37 96.4147 1114.83 96.0169C1115.72 95.2875 1117.14 95.5085 1117.14 96.1937C1117.14 99.3766 1119.47 97.8736 1121.39 97.3431C1121.79 97.5862 1122.21 97.6525 1122.7 97.4978C1124.67 96.5474 1126.62 95.5748 1128.46 94.5138C1129.02 94.1823 1129.37 93.9613 1130.15 94.1823C1132.5 94.8233 1134.2 93.9834 1135.73 92.9003C1135.95 92.9003 1136.15 92.8782 1136.38 92.9003C1136.95 93.0108 1137.48 93.3424 1138.13 93.0992C1138.24 93.0329 1138.3 92.9445 1138.3 92.834C1140.17 91.6846 1145.48 90.491 1148.7 89.2532C1149.27 89.0322 1149.83 89.2753 1150.4 89.4963C1150.16 89.5627 1149.96 89.6953 1149.83 89.8721C1150.52 90.1373 1151.22 90.3805 1151.91 90.6457C1153.64 90.4247 1155.37 90.1816 1157.1 89.9605C1158.41 90.3805 1159.58 91.3309 1161.18 90.3363C1161.91 89.7395 1162.93 89.9163 1163.86 89.85C1164.21 89.629 1164.57 89.43 1164.7 89.1427C1166.27 89.3195 1167.58 88.9217 1168.78 88.2585C1168.91 88.3691 1169.07 88.4796 1169.18 88.5901C1169.24 88.6785 1169.33 88.789 1169.44 88.8553C1170.55 88.4354 1171.64 88.4133 1172.68 88.9438C1173.01 87.9933 1173.52 88.8332 1173.96 88.8775C1175.87 87.9049 1178.04 89.1869 1179.97 88.5459C1181.52 88.9659 1182.87 90.0047 1184.78 89.2974C1185.44 89.0322 1185.84 88.7006 1185.86 88.3028C1188.15 88.6343 1190.32 88.3028 1192.6 88.0596C1196.92 87.5954 1201.33 87.7723 1205.66 88.3691C1205.37 88.5238 1205.12 88.7227 1205.03 89.0101C1204.92 89.3858 1205.03 89.7395 1205.26 90.071C1206.36 91.1099 1207.83 91.2204 1209.42 90.7341C1212.28 89.85 1215.1 90.0268 1217.62 91.1762C1218.91 91.7509 1220.24 91.9719 1221.61 92.193C1221.92 92.2151 1222.25 92.193 1222.57 92.1488C1223.52 91.9056 1224.36 91.4415 1225.45 91.4636C1226.16 91.4636 1226.86 91.4636 1227.44 91.2204C1227.6 91.2646 1227.73 91.3088 1227.88 91.3309C1230.43 91.8393 1232.87 92.0383 1235.35 93.254C1237.41 94.2707 1241.27 94.536 1244.77 93.8728C1244.46 94.757 1243.26 95.5527 1244.2 96.4369C1244.4 96.6137 1244.64 96.7463 1244.93 96.8347C1245.35 96.8347 1245.79 96.8347 1246.21 96.8347C1248.94 96.5916 1250.96 97.9399 1253.39 98.382C1254.61 98.4262 1255.83 98.4483 1257.05 98.4925C1257.29 98.4262 1257.54 98.3599 1257.78 98.183C1257.78 97.7189 1257.29 97.2547 1257.78 96.7905C1259.71 95.2433 1257.32 93.6739 1257.78 92.1267C1257.89 92.1709 1258.02 92.193 1258.05 92.2372C1258.67 93.2318 1258.14 94.7791 1260.4 94.978C1261.93 95.1106 1264.34 93.2761 1265.03 91.773C1265.23 92.0604 1265.49 92.3035 1265.83 92.4582C1267.53 93.2761 1268.18 94.3591 1268.09 95.7295C1269.55 96.3263 1271.01 96.1716 1272.43 95.6411C1274.51 94.9117 1276.62 95.6411 1278.72 95.5527C1280.41 95.7074 1281.63 96.5032 1283.05 97.0337C1282.67 97.321 1282.51 97.6747 1283.33 97.6747C1285.91 97.7189 1287.97 98.8461 1290.4 99.0009C1293.6 99.2219 1295.01 97.9178 1293.97 95.8401C1294.68 94.8454 1296.37 96.68 1296.96 95.3538C1297.34 95.0885 1297.52 94.5581 1298.32 94.8896C1298.54 95.0443 1298.76 95.1991 1299 95.3538C1300.64 95.9064 1301.82 95.7074 1302.37 94.4033C1303.28 93.1655 1304.81 92.8782 1306.58 93.1434C1308.49 93.4308 1310.15 93.3645 1311.15 92.0383C1311.57 91.4857 1312.15 91.5299 1312.83 91.5962C1314.36 91.7288 1313.39 92.3477 1313.32 92.7677C1313.25 93.2982 1313.54 93.8729 1314.27 93.8065C1317.4 93.5192 1320.17 95.2654 1323.43 94.4033C1324.84 94.0276 1326.35 94.5581 1327.39 95.4422C1329.52 97.2768 1330.5 97.0779 1332.56 95.1549C1333.35 94.4033 1335.31 94.4033 1336.81 94.8896C1337.72 94.5802 1338.61 94.2707 1339.52 93.9392C1339.27 93.1213 1337.72 93.475 1337.32 92.7677C1337.68 92.2372 1338.25 92.1267 1338.85 92.1046C1339.03 92.3035 1339.21 92.5024 1339.45 92.7014C1339.72 92.9445 1339.8 93.254 1340.03 93.5192C1340.6 94.1823 1340.4 95.5306 1341.98 95.3096C1343.08 95.1549 1343.22 94.6244 1343.13 94.0497C1343.53 94.2265 1343.97 94.3149 1344.37 94.4697C1348.16 95.8401 1351.99 95.5527 1354.68 93.5634C1356.36 92.3035 1357.27 93.3203 1358.11 94.0497C1361.06 96.6137 1362.03 96.6137 1365 93.9392C1365.76 93.254 1367.17 93.0771 1367.62 92.193C1367.93 92.7898 1368.44 93.3424 1369.19 93.696C1371.7 94.9117 1373.78 96.4148 1375.6 98.0946C1377.21 99.5977 1379.5 99.3545 1381.76 99.0893C1383.82 98.8462 1385.64 98.4704 1387.14 100.283C1388.14 101.499 1390.6 102.029 1392.71 100.725C1394.17 99.1335 1395.94 98.183 1398.8 99.1556C1400.31 99.664 1401.46 99.3324 1401.93 98.2052C1402.92 95.7075 1406.25 95.0886 1408.97 94.0055C1409.7 93.7181 1410.72 93.7181 1411.46 93.3424C1412.21 92.9666 1412.85 92.4803 1412.54 91.773C1412.28 91.1762 1411.46 91.0878 1410.64 91.0657C1409.08 91.0215 1407.53 90.8668 1405.78 90.8889C1410.08 90.7121 1414.34 90.5131 1416.02 87.2418C1416.69 88.5017 1417.82 89.6069 1418.68 90.7784C1419.85 92.3698 1422.23 92.8119 1424.71 92.7456C1426.72 92.7014 1428.3 92.7456 1428.9 94.5581C1429.47 96.3043 1431.45 96.2379 1433.37 95.3317C1433.71 95.4422 1434.02 95.5527 1434.35 95.6633C1434.28 95.7517 1434.22 95.8401 1434.19 95.9727C1435.32 98.0283 1436.94 98.603 1440.09 98.1167L1440.09 -0.000772965L0.0888426 -0.000898854L0.00024184 0.153825Z" fill="#A3883C"/>
</svg>

