<svg width="1440" height="120" viewBox="0 0 1440 120" fill="none" xmlns="http://www.w3.org/2000/svg">
<path d="M1440 119.846L1440 19.9755C1439.78 17.789 1439.6 15.5805 1439.69 13.394C1439.49 12.9302 1439.27 12.4664 1439.07 12.0026C1437.23 10.1033 1434.24 10.8321 1431.73 10.5892C1430.6 10.4787 1429.54 10.545 1428.79 9.83826C1427.3 9.10944 1425.22 9.15361 1424.11 7.98309C1423.87 7.85058 1423.58 7.74015 1423.27 7.67389C1421.58 7.58555 1420.12 7.01133 1418.75 6.43711C1417.35 5.8408 1416.11 5.8408 1414.78 6.43711C1414.38 6.68005 1414.16 6.98924 1414.05 7.32052C1412.28 5.90706 1408.75 5.50952 1405.25 6.54753C1404.03 6.9009 1402.88 7.38678 1401.68 7.78432C1401.53 7.89474 1401.44 8.04934 1401.28 8.18185C1400.38 8.04934 1399.8 7.67389 1399.84 6.9009C1399.62 6.9009 1399.4 6.9009 1399.16 6.9009C1396.96 7.60763 1394.61 7.91683 1392.2 8.07142C1386.97 7.60763 1382 8.62356 1376.97 9.3082C1373.96 9.70574 1371.06 9.33029 1368.2 8.64564C1367.07 8.93275 1366.78 10.0591 1365.34 10.0591C1365.05 10.1254 1364.79 10.2358 1364.52 10.3462C1363.94 10.7438 1363.15 11.0529 1362.84 11.583C1362.24 11.075 1361.71 10.5229 1360.75 10.28C1360.29 10.2137 1359.82 10.2358 1359.4 10.3904C1359.07 10.5671 1358.89 10.7879 1358.69 11.0088C1358.69 10.8763 1358.74 10.7438 1358.78 10.6333C1356.39 9.97076 1353.82 10.2137 1351.36 9.92659C1350.47 9.83825 1349.12 9.97076 1348.87 9.4628C1347.79 7.23217 1345.11 8.2481 1343.11 7.78431C1340.54 7.188 1338.95 7.60762 1336.66 8.35852C1334.11 9.19777 1331.5 10.2358 1328.62 10.5229C1326.87 10.6996 1325.56 11.2296 1324.39 12.0468C1324.23 11.583 1324.59 10.9867 1324.12 10.3904C1323.37 11.6492 1322.61 12.113 1320.82 11.1192C1319.02 10.1254 1316.98 11.0529 1315.23 11.6934C1313.22 12.4443 1312.09 11.2959 1310.8 10.7437C1309.6 10.2358 1310.91 9.72781 1311.33 9.26402C1310.49 8.82231 1309.63 8.71189 1308.78 9.19776C1307.57 8.09349 1305.79 7.56344 1303.98 7.05548C1302.14 6.54752 1300.1 6.48126 1299.01 4.82485C1298.32 3.76475 1295.69 3.52181 1294.78 4.71443C1293.38 6.54751 1291.48 6.98922 1288.82 6.63585C1289.95 5.46533 1288.6 4.80277 1287.22 4.1402C1286.36 3.78684 1285.16 4.1402 1284.41 3.52181C1283.01 2.41754 1281.46 2.70465 1280.35 3.61015C1279.09 4.64817 1278.09 4.4494 1276.65 3.83101C1275.23 3.21261 1273.75 2.59422 1272.02 2.50588C1270.29 2.41754 1268.74 2.63839 1267.65 3.96352C1268.23 2.61631 1268.21 1.48995 1266.92 0.54028C1266.52 0.25317 1265.68 -0.100197 1265.5 0.0764861C1263.4 2.10834 1260.65 -1.18238 1258.57 0.496108C1258.41 0.606535 1258.24 0.716962 1258.15 0.849474C1257.02 2.48379 1255.98 3.10218 1254.11 1.1145C1253.05 -0.033943 1250.94 -0.0781143 1249.7 0.937814C1247.24 2.96967 1243.5 4.02977 1241.59 6.50333C1239.75 4.97944 1236.94 4.95735 1234.72 4.07394C1233.64 3.63223 1232.13 4.00768 1231.29 4.62607C1227.43 7.49717 1222.73 7.21006 1217.97 6.34873C1215.89 5.97328 1214 5.11195 1212.34 6.87878C1211.72 7.54134 1210.97 6.83461 1210.3 6.63584C1207 5.68617 1202.59 6.19413 1200.57 7.71802C1200.09 8.09348 1199.8 8.49101 1199.69 8.95481C1199.64 8.95481 1199.6 8.95481 1199.55 8.97689C1199.44 8.99898 1199.38 9.04315 1199.26 9.06523C1198.76 8.71187 1198.05 8.64561 1197.14 8.80021C1196.3 8.95481 1195.56 8.86646 1195.61 8.07139C1195.92 7.18797 1196.23 6.32664 1194.77 5.77451C1193.17 5.77451 1192.35 6.87878 1190.89 7.09963C1189.38 7.58551 1188.25 8.46892 1186.85 9.08732C1183.84 5.39905 1181.49 5.13403 1176.33 7.87262C1175.71 9.02106 1175.49 10.3241 1173.69 10.9867C1173.09 11.2959 1172.56 11.6713 1172.1 12.0909C1171.67 12.4664 1171.3 12.8639 1170.66 13.0406C1170.1 12.7535 1170.17 12.2014 1169.59 11.9363C1167.73 11.5609 1166.53 12.2676 1165.89 13.3056C1165.47 13.9461 1164.76 14.2995 1164.14 14.7412C1161.24 14.2332 1158.33 13.5927 1155.39 14.5645C1154.5 14.8516 1153.68 14.7191 1152.79 14.5203C1150.89 14.1228 1149 14.3878 1147.16 14.7633C1146.63 14.8737 1146.19 15.2712 1145.66 15.2491C1144.37 15.205 1142.78 13.7252 1141.91 15.0504C1140.76 16.8393 1138.1 18.1865 1138.41 20.8809C1137.37 19.4233 1137.41 18.1423 1136.44 17.1264C1136.37 17.0381 1136.26 16.9939 1136.17 16.9055C1137.55 16.0884 1138.65 15.4479 1138.01 14.2111C1137.81 13.8136 1137.17 13.5265 1136.68 13.7473C1135.13 14.4541 1135.64 15.5362 1135.6 16.6184C1134.38 16.4638 1133.29 16.3976 1132.32 16.4638C1133.58 15.9117 1133.96 14.6307 1134.51 13.6811C1134.87 13.0627 1133.69 12.5326 1132.23 12.5105C1132.12 13.7473 1129.01 13.0848 1129.32 14.4761C1129.48 15.1608 1129.64 16.3976 1130.77 16.6405C1128.37 17.1264 1126.84 18.4736 1125.98 20.8588C1124.78 19.7325 1124.18 18.1423 1121.77 18.3411C1119.73 18.5178 1118.29 19.3791 1117.45 20.6601C1117.38 20.7926 1117.45 20.903 1117.4 21.0355C1115.94 21.411 1114.32 21.4772 1113.28 22.449C1112.26 21.4993 1112.9 20.903 1113.63 20.4392C1116.01 18.9816 1114.14 18.0098 1112.55 17.7669C1110.36 17.4356 1108.69 16.6184 1106.85 15.9117C1105.1 15.2491 1103.24 14.5866 1101.14 15.3816C1100.25 15.7129 1098.72 15.2712 1098.99 15.0945C1100.63 14.0123 1100.21 12.113 1102.4 11.2738C1102.75 11.1412 1103.04 10.9866 1103.35 10.832C1102.13 10.7658 1100.96 10.7437 1099.72 10.6554C1098.59 10.567 1097.48 10.4124 1096.37 10.2799C1095.82 10.7658 1095.66 11.3621 1096.81 12.113C1097.01 12.2455 1096.77 12.6651 1096.73 12.9743C1093.38 12.7535 1093.2 15.5362 1090.61 16.1325C1089.79 14.7632 1091.1 14.0565 1092.14 13.2614C1092.63 12.886 1093.69 12.1351 1093.11 12.0026C1090.99 11.5167 1090.83 10.6333 1090.94 9.70569C1089.17 9.48484 1087.4 9.26398 1085.6 9.02104C1085.18 9.0873 1084.71 9.10938 1084.23 9.0873C1083.07 9.04313 1082.1 9.28607 1081.28 9.72777C1080.53 8.0272 1078.18 8.27014 1076.36 7.8726C1075.61 7.78426 1074.85 7.718 1074.12 7.65175C1073.92 7.718 1073.68 7.718 1073.52 7.8726C1071.22 10.0591 1068.16 10.3241 1064.66 9.61734C1063.42 9.3744 1062.2 9.39649 1061.51 10.3462C1063.11 13.5044 1059.07 14.9178 1057.06 17.038C1056.84 16.5522 1057.04 16 1056.5 15.6246C1054.8 14.8074 1053.11 15.6687 1052.2 16.1988C1050.14 17.4356 1047.84 18.584 1046.31 20.1742C1046.4 19.4233 1045.76 18.827 1044.12 18.3632C1041.72 17.7006 1040.24 17.8773 1039.04 19.6883C1037.18 22.5152 1020.34 21.1459 1021.84 24.017C1022.07 24.4146 1022.2 24.7458 1021.78 25.0771C1021.22 25.4967 1020.56 25.4084 1019.96 25.1434C1018.19 24.3925 1016.64 24.7458 1015.15 25.4305C1014.93 24.5692 1013.78 24.5029 1012.65 24.6796C1009.15 25.2317 1005.71 25.9164 1002.08 25.0992C1001.03 24.8783 1000.13 25.3201 999.439 25.8943C997.312 27.6611 995.007 29.1408 991.395 29.3617C989.533 29.4721 988.979 31.1506 987.229 31.5923C985.522 28.2574 983.771 27.9482 979.805 30.2451C978.32 31.0843 976.857 31.769 975.173 30.4218C974.397 29.8255 973.334 29.958 972.868 30.5322C971.649 32.0561 969.899 31.526 968.192 31.2831C967.86 31.3052 967.572 31.3935 967.306 31.504C963.649 33.0058 962.12 35.8106 959.372 37.8425C958.464 35.1922 954.674 34.7505 952.391 33.2487C951.882 33.2487 951.461 33.4254 951.15 33.7125C949.2 35.6118 945.743 36.2523 943.571 37.975C943.283 38.2179 942.419 38.1737 941.954 38.0191C937.942 36.7382 933.821 37.5774 929.743 37.6658C927.549 37.71 925.665 37.1136 923.626 36.8044C920.413 37.4449 917.377 36.694 914.407 36.0315C911.748 35.4352 907.56 35.4351 906.164 36.3186C902.817 38.4608 898.385 38.1517 894.596 39.1897C894.285 39.278 893.886 39.278 893.62 39.1234C890.296 37.2462 886.618 36.8707 882.584 37.7983C882.318 37.8645 881.942 37.732 881.587 37.732C881.365 37.732 881.166 37.8204 880.966 37.8645C880.966 37.8645 880.989 37.8645 881.011 37.8645C881.809 36.8486 882.872 35.8548 880.479 35.3247C878.994 34.9934 879.061 34.0217 878.329 33.4033C877.243 32.4978 876.291 31.3935 874.54 32.8953C874.451 32.9616 874.363 32.9837 874.296 32.8512C873.498 31.3935 871.681 32.0782 870.263 31.9236C869.953 31.9236 869.642 31.9236 869.332 31.9677C868.002 32.1886 867.603 33.0499 866.894 33.7125C865.853 33.2045 865.72 31.9236 863.947 32.1444C863.193 32.3211 862.529 32.6082 861.842 32.8953C861.221 32.9395 860.601 32.9837 859.958 33.0499C859.271 34.0217 857.454 33.5358 856.589 34.2646C856.168 34.5076 855.681 34.7063 855.326 34.9713C855.038 35.1039 854.706 35.1701 854.329 35.1039C853.332 34.883 852.467 34.375 851.337 34.5738C851.005 34.6622 850.717 34.8168 850.517 35.0155C850.096 35.5677 850.163 36.0094 850.429 36.429C849.609 36.0756 848.678 36.0535 847.747 36.0314C846.44 36.0535 845.287 36.5836 843.891 35.6118C842.916 34.9272 840.833 34.8609 839.127 34.9272C838.373 34.9713 837.221 35.0155 836.999 34.5296C835.825 32.0119 832.855 32.8953 830.617 33.0278C827.824 33.2045 824.744 32.7407 822.328 34.2646C821.642 36.0314 820.644 37.4228 817.364 37.1578C815.99 37.0474 815.414 37.6658 815.015 38.3725C814.772 38.24 814.55 38.0633 814.24 37.997C813.242 37.8645 812.29 37.4449 811.204 37.6878C810.716 37.7983 810.273 37.975 809.896 38.1958C809.497 38.4387 809.187 38.7038 808.899 38.9909C807.702 39.2117 806.616 39.543 806.993 41.0448C807.215 41.9503 805.353 42.2154 804.334 42.5245C803.248 42.8779 799.769 40.9123 797.597 41.3098C796.733 41.4644 796.134 41.1553 795.447 40.8681C792.012 39.4768 788.843 40.4485 787.469 39.9626C787.026 39.9626 786.561 39.9626 786.117 39.9626C782.572 39.9185 779.07 39.4988 775.657 38.8142C775.103 39.1013 774.549 39.3663 773.862 39.5651C772.799 39.7197 771.757 39.8964 770.937 40.4485C770.56 40.8019 770.538 40.9123 768.787 40.7798C766.594 40.6252 766.793 41.0669 766.992 42.0607C767.125 42.7233 766.571 43.0767 765.685 43.1871C764.843 43.2975 764.023 43.1429 763.69 42.5908C763.048 41.5307 762.494 40.4264 762.073 39.3001C761.452 37.6878 757.264 37.5553 757.175 35.391C757.153 34.7063 756.909 34.11 755.779 34.0879C754.693 34.0879 753.607 34.1321 753.208 35.148C752.765 36.3185 752.787 37.5774 751.79 38.6154C751.014 38.7038 750.571 39.013 750.438 39.543C748.998 39.8964 747.956 40.6031 747.07 41.4203C745.94 41.7736 744.809 42.1491 743.679 41.4203C743.036 40.2718 746.471 41.2878 745.607 39.3222C744.477 36.7382 742.261 37.8645 740.311 37.6878C739.912 37.3345 739.557 36.8044 738.781 37.1357C738.05 37.467 738.36 38.1075 738.272 38.6154C737.053 37.1136 734.859 36.8265 732.776 36.3848C732.776 36.3406 732.776 36.2965 732.776 36.2523C732.776 36.2302 732.599 36.186 732.51 36.186C732.399 36.186 732.31 36.2302 732.2 36.2744C730.272 34.2867 730.028 34.3088 728.41 36.451C725.285 34.9713 721.407 34.8609 721.053 34.0437C719.878 34.5738 717.374 33.8671 717.219 33.845C715.069 33.5137 714.582 32.9836 715.956 32.2548C719.812 30.223 716.31 30.0021 714.626 29.2733C714.471 29.2954 714.316 29.3175 714.161 29.3395C711.523 30.3334 712.875 32.3652 711.9 33.8671C710.393 33.0941 711.435 32.3873 711.634 31.7027C712.299 29.4279 710.925 28.4561 707.734 29.2291C706.028 29.6487 705.163 28.3457 703.678 28.6991C702.083 28.9199 701.241 29.5825 701.108 30.6868C700.332 31.1285 701.174 32.3432 699.889 32.3432C698.183 32.3432 698.87 31.2831 698.759 30.5763C698.67 30.0463 698.404 29.4721 697.363 29.5162C696.809 29.5383 696.011 29.7813 696.166 30.1567C697.163 32.6524 693.928 31.8573 692.997 32.4094C691.047 32.2769 694.26 30.0904 690.914 30.6647C690.692 30.6647 690.493 30.6647 690.271 30.6647C689.03 30.1125 689.451 28.8758 688.277 28.3015C688.277 28.169 688.232 28.0365 688.21 27.8819C687.191 27.6831 686.282 28.0365 685.396 28.2353C684.11 28.5224 683.889 27.9482 683.512 27.396C682.98 26.9322 682.005 26.9543 681.495 26.4684C676.842 26.1592 672.254 26.5568 667.645 27.0868C667.6 27.1089 667.534 27.131 667.49 27.1531C665.207 25.85 663.235 24.1274 659.622 24.6574C658.426 24.8341 658.581 24.0832 658.47 23.5973C654.082 22.8243 650.226 24.3924 646.215 25.055C644.93 25.2758 643.711 25.6292 642.359 25.5629C641.672 26.2255 639.855 25.1875 639.544 26.4243C638.038 27.3298 634.869 26.9764 635.134 29.1408C635.267 27.0868 634.957 26.9101 632.254 27.2193C631.146 27.3518 630.037 28.0586 628.863 27.3298C627.976 29.1849 626.758 30.8413 623.722 31.6806C623.433 30.5984 625.118 30.3996 625.45 29.6708C625.672 29.1628 626.359 28.5886 625.517 28.2132C624.519 27.7715 624.253 28.4782 623.877 28.942C623.544 29.3395 623.168 29.9138 622.458 29.6708C622.082 29.5383 622.104 28.8537 621.949 28.434C619.467 29.3174 620.641 30.8193 620.663 32.1223C618.27 31.261 616.674 32.8732 614.613 33.094C613.66 33.2045 612.929 34.1762 611.954 32.9394C611.378 32.2106 610.58 32.8511 609.827 33.2486C608.43 34.0216 606.791 34.3087 605.128 33.5137C605.128 33.2045 605.128 32.8953 605.128 32.5861C603.666 33.094 603.09 32.6744 603.112 31.6585C602.314 31.4376 601.804 31.7468 601.472 32.1665C600.009 34.0879 596.685 34.375 595.09 33.5578C593.981 32.9836 592.851 33.5358 591.788 34.0216C591.854 33.2486 591.632 32.5419 590.281 32.1002C589.837 32.1002 589.394 32.1002 588.929 32.1002C587.422 32.1002 589.217 33.5799 586.979 33.8449C584.563 34.1321 582.546 35.921 584.541 32.5198C585.139 31.4818 583.721 30.6867 581.859 30.9076C581.15 30.9959 580.618 31.5039 579.688 31.2168C576.829 30.3113 576.607 30.3996 574.812 32.2548C573.704 31.1505 574.458 29.3395 572.042 28.8316C569.316 29.0082 568.12 30.5984 566.568 31.8573C565.372 31.018 567.211 30.9076 566.79 30.2892C563.444 29.5383 561.781 31.4818 559.61 32.7186C558.147 31.6585 560.474 30.3996 558.945 29.4499C557.77 29.4058 557.371 30.9076 555.842 30.2671C554.491 29.2512 553.05 28.3236 555.576 27.0206C556.95 26.3138 555.776 24.6795 553.227 23.9728C556.684 23.3985 556.995 22.3605 554.491 20.925C554.047 21.0796 553.604 21.2342 553.139 21.3888C551.432 20.7262 550.878 18.9815 548.396 19.0477C548.175 19.0477 547.953 19.0477 547.731 19.0477C547.333 18.5618 547.222 17.9435 546.357 17.6563C545.36 15.7791 543.1 16.8392 542.989 17.5017C542.79 18.7606 541.548 19.114 540.662 19.8207C538.889 17.9214 534.125 17.5459 534.878 14.3656C534.701 13.3718 533.947 12.9742 532.507 13.1951C532.374 13.2613 532.263 13.3497 532.13 13.4159C531.044 14.6086 530.379 13.7472 529.604 13.1951C528.363 12.3338 527.321 12.0687 526.944 13.681C526.59 15.2269 524.573 15.8453 523.111 16.7508C522.158 17.3471 521.36 16.9717 520.451 16.5079C519.498 15.9999 519.033 14.7852 517.26 15.2932C517.216 15.3595 517.171 15.492 517.105 15.492C514.845 15.7349 519.011 17.7668 515.842 17.7226C514.379 17.7005 512.806 18.0318 511.476 17.0821C511.417 18.2306 510.457 19.0992 508.595 19.6882C507.642 19.1802 508.462 18.4072 507.975 17.7888C507.398 17.06 507.354 16.1766 505.603 16.9938C504.362 17.5901 503.254 16.7067 502.102 16.0662C502.08 17.303 503.631 17.6784 503.764 18.5618C503.321 18.871 502.855 19.1802 502.412 19.4894C501.925 19.7986 501.415 20.0195 500.661 20.0636C495.764 20.2403 487.941 21.3888 484.861 20.8366C483.043 20.5274 485.814 18.7827 483.487 18.5618C482.578 18.871 482.091 18.3631 481.47 18.076C481.47 17.9214 481.47 17.7668 481.47 17.6342C482.379 16.5521 481.581 15.8232 480.318 15.3374C479.21 14.8957 478.367 15.6024 478.323 16.1104C478.212 17.0159 475.065 17.4576 477.548 18.6943C478.833 19.3348 478.722 20.4833 479.054 21.3888C479.298 22.0292 477.37 21.8084 476.55 22.3605C475.885 22.8022 474.6 22.4047 474.733 21.3888C473.514 22.2059 472.45 22.8243 471.143 21.3446C470.323 20.417 469.104 19.6219 467.22 20.3066C466.644 20.5274 466.046 20.4612 466.002 19.9311C465.869 18.0318 462.988 17.568 461.924 16.1324C461.392 15.4478 456.295 16.1987 455.475 17.1704C454.855 17.8993 454.345 18.1643 453.06 18.341C451.774 18.5177 449.758 19.2686 451.265 20.7483C452.417 21.8746 450.422 22.3605 450.4 23.2218C449.071 23.5752 448.539 24.7899 446.19 23.9948C443.641 23.1335 438.456 23.2218 438.987 21.9851C439.187 21.5434 437.746 21.2562 437.214 21.8084C436.395 22.6476 435.087 22.9126 434.001 23.4206C433.558 21.5875 429.879 20.7041 427.441 21.8084C424.804 22.9126 421.48 22.8022 418.976 24.0832C418.976 24.039 418.998 23.9948 418.998 23.9507C419.486 23.1335 419.53 22.3605 418.222 22.0071C416.915 21.6538 415.43 21.3667 414.433 22.4709C414.632 22.736 414.3 22.3605 414.522 22.6255C414.455 22.6255 414.455 22.5814 414.389 22.5593C411.353 21.6317 408.45 22.0292 406.433 23.6415C404.638 25.077 402.51 25.5187 400.228 25.4083C396.35 25.2316 393.003 26.3359 389.657 27.2635C388.172 27.6831 385.158 27.0647 383.097 26.6892C381.79 26.4684 381.258 28.191 379.707 27.3297C378.82 26.7334 377.269 27.0426 376.604 26.1592C375.939 25.3199 375.009 24.5911 373.479 24.8782C371.795 25.1874 371.153 26.1813 370.975 27.3076C370.953 27.4843 370.953 27.661 370.931 27.8156C368.626 27.0868 361.867 24.812 359.895 22.6918C358.366 21.0354 357.856 21.6538 356.77 22.3384C356.083 22.7801 355.906 23.6635 354.554 23.3764C353.335 23.1114 353.468 22.4709 353.424 21.72C353.357 20.3949 353.003 20.3949 350.188 21.7421C348.992 20.8145 349.102 19.6661 349.102 18.5397C347.817 18.5397 346.642 18.7606 345.8 19.4894C344.892 20.2845 343.651 20.3066 342.897 19.6661C341.102 18.1422 340.282 19.3127 340.127 20.2182C339.773 22.2722 337.845 22.6255 335.207 22.8243C335.23 21.3446 337.268 19.9753 335.407 18.1422C334.387 20.7483 330.82 21.4329 328.914 23.2218C328.426 23.6856 328.205 24.5249 327.074 24.3923C325.523 24.2157 327.008 23.1114 326.166 22.6697C325.168 22.9347 325.7 23.6635 325.235 24.0611C324.348 24.7899 322.93 24.569 322.93 23.8844C322.93 20.7041 320.603 22.2059 318.675 22.7359C318.276 22.493 317.855 22.4267 317.368 22.5813C315.395 23.531 313.445 24.5028 311.606 25.5629C311.052 25.8942 310.697 26.115 309.922 25.8942C307.573 25.2537 305.866 26.0929 304.337 27.1751C304.115 27.1751 303.916 27.1972 303.694 27.1751C303.118 27.0647 302.586 26.7334 301.944 26.9763C301.833 27.0426 301.766 27.1309 301.766 27.2414C299.905 28.3898 294.586 29.5824 291.373 30.8192C290.797 31.04 290.243 30.7971 289.666 30.5763C289.91 30.51 290.11 30.3775 290.243 30.2008C289.556 29.9358 288.847 29.6928 288.16 29.4278C286.431 29.6487 284.702 29.8916 282.974 30.1125C281.666 29.6928 280.492 28.7432 278.896 29.737C278.165 30.3333 277.146 30.1566 276.215 30.2229C275.86 30.4437 275.506 30.6425 275.373 30.9296C273.799 30.7529 272.492 31.1505 271.295 31.813C271.162 31.7026 271.007 31.5922 270.896 31.4818C270.83 31.3934 270.741 31.283 270.63 31.2167C269.522 31.6364 268.436 31.6584 267.395 31.1284C267.062 32.0781 266.553 31.2388 266.109 31.1946C264.204 32.1664 262.032 30.8854 260.104 31.5259C258.552 31.1063 257.201 30.0683 255.295 30.775C254.63 31.04 254.231 31.3713 254.209 31.7689C251.926 31.4376 249.755 31.7689 247.472 32.0118C243.151 32.4756 238.741 32.2989 234.419 31.7026C234.707 31.548 234.951 31.3492 235.04 31.0621C235.15 30.6867 235.04 30.3333 234.818 30.002C233.71 28.964 232.247 28.8536 230.652 29.3395C227.793 30.2229 224.979 30.0462 222.452 28.8978C221.167 28.3235 219.837 28.1027 218.463 27.8818C218.153 27.8597 217.821 27.8818 217.51 27.926C216.557 28.1689 215.715 28.6327 214.629 28.6106C213.92 28.6106 213.211 28.6106 212.635 28.8536C212.48 28.8094 212.347 28.7652 212.192 28.7432C209.643 28.2352 207.205 28.0364 204.723 26.8217C202.662 25.8058 198.806 25.5408 195.305 26.2033C195.615 25.3199 196.812 24.5248 195.881 23.6414C195.682 23.4647 195.438 23.3322 195.15 23.2439C194.729 23.2439 194.286 23.2439 193.864 23.2439C191.139 23.4868 189.122 22.1396 186.684 21.6979C185.465 21.6537 184.247 21.6317 183.028 21.5875C182.784 21.6537 182.54 21.72 182.296 21.8967C182.296 22.3605 182.784 22.8243 182.296 23.2881C180.368 24.834 182.762 26.4021 182.296 27.9481C182.186 27.9039 182.053 27.8818 182.031 27.8376C181.41 26.8438 181.942 25.2978 179.681 25.0991C178.152 24.9665 175.737 26.7996 175.05 28.3014C174.85 28.0143 174.584 27.7714 174.252 27.6168C172.546 26.7996 171.903 25.7174 171.992 24.3482C170.529 23.7518 169.066 23.9064 167.648 24.4365C165.565 25.1653 163.46 24.4365 161.354 24.5248C159.67 24.3702 158.451 23.5752 157.033 23.0451C157.41 22.758 157.565 22.4046 156.745 22.4046C154.174 22.3605 152.113 21.2341 149.675 21.0795C146.484 20.8587 145.066 22.1617 146.108 24.2377C145.398 25.2316 143.714 23.3985 143.116 24.7236C142.739 24.9886 142.562 25.5187 141.764 25.1874C141.542 25.0328 141.321 24.8782 141.077 24.7236C139.437 24.1715 138.263 24.3702 137.708 25.6733C136.8 26.9101 135.271 27.1972 133.498 26.9321C131.592 26.645 129.93 26.7113 128.933 28.0364C128.512 28.5885 127.935 28.5444 127.249 28.4781C125.719 28.3456 126.694 27.7272 126.761 27.3076C126.827 26.7775 126.539 26.2033 125.808 26.2696C122.683 26.5567 119.913 24.8119 116.656 25.6733C115.237 26.0487 113.73 25.5187 112.689 24.6353C110.561 22.8022 109.586 23.0009 107.525 24.9224C106.727 25.6733 104.777 25.6733 103.27 25.1874C102.362 25.4966 101.475 25.8058 100.567 26.1371C100.81 26.9542 102.362 26.6009 102.761 27.3076C102.406 27.8376 101.83 27.9481 101.231 27.9701C101.054 27.7714 100.877 27.5726 100.633 27.3738C100.367 27.1309 100.279 26.8217 100.057 26.5567C99.4808 25.8941 99.6802 24.5469 98.1068 24.7678C96.9987 24.9224 96.8658 25.4524 96.9544 26.0266C96.5555 25.8499 96.1123 25.7616 95.7134 25.607C91.9239 24.2377 88.09 24.5248 85.4085 26.5125C83.7243 27.7714 82.8157 26.7554 81.9736 26.0266C79.0262 23.4647 78.0511 23.4647 75.0815 26.1371C74.328 26.8217 72.9097 26.9984 72.4665 27.8818C72.1562 27.2855 71.6465 26.7334 70.8931 26.38C68.3889 25.1653 66.3057 23.6635 64.4885 21.985C62.8708 20.4832 60.5882 20.7261 58.3278 20.9912C56.2668 21.2341 54.4496 21.6095 52.9426 19.7985C51.9454 18.5838 49.4855 18.0538 47.3802 19.3568C45.9176 20.947 44.1447 21.8967 41.286 20.9249C39.779 20.4169 38.6266 20.7482 38.1613 21.8746C37.164 24.3702 33.8399 24.9886 31.114 26.0708C30.3827 26.3579 29.3633 26.3579 28.632 26.7334C27.8785 27.1088 27.2359 27.5947 27.5461 28.3014C27.8121 28.8977 28.632 28.9861 29.452 29.0081C31.0032 29.0523 32.5545 29.2069 34.3052 29.1848C30.006 29.3615 25.7511 29.5603 24.0668 32.8289C23.402 31.5701 22.2718 30.4658 21.4075 29.2953C20.233 27.7051 17.8618 27.2634 15.3797 27.3297C13.3631 27.3738 11.7897 27.3297 11.1913 25.5187C10.6151 23.7739 8.64279 23.8402 6.71478 24.7457C6.38237 24.6352 6.07211 24.5248 5.7397 24.4144C5.80618 24.326 5.87266 24.2377 5.89482 24.1052C4.76461 22.0512 3.14686 21.477 -3.84012e-06 21.9629L-2.09815e-05 120L1439.91 120L1440 119.846Z" fill="#A3883C"/>
</svg>