<svg width="2560" height="214" viewBox="0 0 2560 214" fill="none" xmlns="http://www.w3.org/2000/svg">
<path d="M2560 213.725L2560 35.6229C2559.61 31.7237 2559.29 27.7852 2559.45 23.886C2559.09 23.0589 2558.7 22.2318 2558.35 21.4047C2555.08 18.0175 2549.76 19.3173 2545.3 18.884C2543.3 18.6871 2541.4 18.8052 2540.06 17.5449C2537.43 16.2452 2533.72 16.3239 2531.75 14.2365C2531.32 14.0002 2530.81 13.8033 2530.26 13.6851C2527.26 13.5276 2524.66 12.5035 2522.22 11.4795C2519.74 10.4161 2517.53 10.4161 2515.17 11.4795C2514.46 11.9128 2514.06 12.4641 2513.87 13.0549C2510.71 10.5343 2504.45 9.82531 2498.22 11.6764C2496.06 12.3066 2494.01 13.1731 2491.88 13.882C2491.61 14.079 2491.45 14.3547 2491.17 14.591C2489.56 14.3547 2488.53 13.6851 2488.61 12.3066C2488.22 12.3066 2487.82 12.3066 2487.39 12.3066C2483.49 13.5669 2479.31 14.1183 2475.02 14.394C2465.72 13.5669 2456.9 15.3787 2447.95 16.5996C2442.6 17.3086 2437.43 16.639 2432.35 15.4181C2430.34 15.9301 2429.83 17.9387 2427.27 17.9387C2426.76 18.0569 2426.29 18.2538 2425.81 18.4507C2424.79 19.1597 2423.37 19.7111 2422.82 20.6563C2421.75 19.7505 2420.81 18.7658 2419.12 18.3326C2418.29 18.2144 2417.46 18.2538 2416.71 18.5295C2416.12 18.8446 2415.81 19.2385 2415.45 19.6323C2415.45 19.396 2415.53 19.1597 2415.61 18.9628C2411.35 17.7812 2406.78 18.2144 2402.41 17.7024C2400.83 17.5449 2398.43 17.7812 2398 16.8753C2396.07 12.8974 2391.3 14.7091 2387.75 13.882C2383.18 12.8186 2380.35 13.5669 2376.29 14.906C2371.76 16.4027 2367.11 18.2538 2361.99 18.7658C2358.88 19.0809 2356.55 20.0262 2354.46 21.4834C2354.19 20.6563 2354.82 19.5929 2353.99 18.5295C2352.65 20.7745 2351.31 21.6016 2348.12 19.8292C2344.93 18.0569 2341.31 19.7111 2338.19 20.8533C2334.61 22.1924 2332.6 20.1443 2330.31 19.1597C2328.19 18.2538 2330.51 17.3479 2331.26 16.5208C2329.76 15.7331 2328.23 15.5362 2326.73 16.4027C2324.56 14.4334 2321.41 13.4881 2318.18 12.5823C2314.91 11.6764 2311.28 11.5582 2309.35 8.60432C2308.13 6.71381 2303.44 6.28057 2301.83 8.40739C2299.35 11.6764 2295.96 12.4641 2291.23 11.8339C2293.24 9.7465 2290.84 8.56493 2288.39 7.38336C2286.86 6.75319 2284.73 7.38336 2283.39 6.28056C2280.91 4.31128 2278.15 4.82329 2276.18 6.4381C2273.94 8.28923 2272.16 7.93476 2269.6 6.83196C2267.08 5.72916 2264.44 4.62636 2261.37 4.46882C2258.3 4.31128 2255.54 4.70513 2253.61 7.06827C2254.63 4.66575 2254.59 2.65708 2252.31 0.963498C2251.6 0.451484 2250.1 -0.178686 2249.79 0.136399C2246.04 3.75988 2241.16 -2.10858 2237.45 0.884724C2237.18 1.08165 2236.86 1.27858 2236.71 1.51489C2234.7 4.42943 2232.84 5.53223 2229.54 1.98752C2227.64 -0.0605329 2223.9 -0.139305 2221.69 1.67243C2217.32 5.29591 2210.66 7.18642 2207.28 11.5976C2204.01 8.88 2199 8.84062 2195.06 7.26519C2193.13 6.47748 2190.45 7.14703 2188.96 8.24983C2182.1 13.37 2173.75 12.8579 2165.28 11.3219C2161.57 10.6523 2158.23 9.11631 2155.27 12.2672C2154.17 13.4487 2152.83 12.1884 2151.65 11.8339C2145.78 10.1403 2137.94 11.0462 2134.35 13.7638C2133.48 14.4334 2132.97 15.1423 2132.78 15.9694C2132.7 15.9694 2132.62 15.9694 2132.54 16.0088C2132.34 16.0482 2132.22 16.1269 2132.03 16.1663C2131.12 15.5362 2129.86 15.418 2128.24 15.6937C2126.75 15.9694 2125.45 15.8119 2125.53 14.394C2126.08 12.8186 2126.63 11.2825 2124.03 10.2979C2121.19 10.2979 2119.73 12.2672 2117.13 12.661C2114.46 13.5275 2112.45 15.1029 2109.96 16.2057C2104.61 9.62831 2100.43 9.15568 2091.25 14.0395C2090.15 16.0876 2089.75 18.4113 2086.56 19.5929C2085.5 20.1443 2084.55 20.8138 2083.73 21.5622C2082.98 22.2317 2082.31 22.9407 2081.16 23.2557C2080.18 22.7437 2080.3 21.7591 2079.27 21.2865C2075.96 20.6169 2073.84 21.8772 2072.69 23.7284C2071.95 24.8705 2070.69 25.5007 2069.58 26.2884C2064.42 25.3826 2059.26 24.2404 2054.02 25.9733C2052.44 26.4854 2050.99 26.249 2049.41 25.8946C2046.02 25.1856 2042.67 25.6583 2039.4 26.3278C2038.46 26.5247 2037.67 27.2337 2036.72 27.1943C2034.44 27.1155 2031.6 24.4767 2030.07 26.8398C2028.02 30.0301 2023.29 32.4326 2023.84 37.2376C2021.99 34.6382 2022.07 32.3538 2020.34 30.5421C2020.22 30.3845 2020.02 30.3058 2019.86 30.1482C2022.31 28.6909 2024.27 27.5488 2023.13 25.3432C2022.78 24.6342 2021.64 24.1222 2020.77 24.5161C2018.01 25.7764 2018.92 27.7063 2018.84 29.6362C2016.67 29.3605 2014.74 29.2423 2013.01 29.3605C2015.25 28.3759 2015.92 26.0915 2016.91 24.3979C2017.54 23.2951 2015.45 22.3499 2012.85 22.3105C2012.65 24.5161 2007.14 23.3345 2007.69 25.8158C2007.96 27.0367 2008.24 29.2423 2010.25 29.6756C2005.99 30.5421 2003.28 32.9446 2001.74 37.1982C1999.61 35.1896 1998.55 32.3538 1994.25 32.7083C1990.63 33.0234 1988.07 34.5594 1986.57 36.8438C1986.45 37.0801 1986.57 37.277 1986.49 37.5133C1983.89 38.1829 1981.02 38.301 1979.17 40.034C1977.35 38.3404 1978.5 37.277 1979.8 36.4499C1984.01 33.8505 1980.7 32.1175 1977.86 31.6842C1973.96 31.0935 1971.01 29.6362 1967.74 28.3758C1964.63 27.1943 1961.32 26.0127 1957.58 27.4306C1956 28.0214 1953.28 27.2337 1953.75 26.9186C1956.67 24.9887 1955.92 21.6015 1959.82 20.1049C1960.45 19.8686 1960.96 19.5929 1961.52 19.3172C1959.35 19.199 1957.26 19.1596 1955.05 19.0021C1953.04 18.8445 1951.07 18.5688 1949.1 18.3325C1948.12 19.199 1947.84 20.2624 1949.89 21.6015C1950.25 21.8378 1949.81 22.5862 1949.74 23.1376C1943.79 22.7437 1943.47 27.7063 1938.86 28.7697C1937.4 26.3278 1939.73 25.0675 1941.58 23.6496C1942.45 22.98 1944.34 21.6409 1943.31 21.4046C1939.53 20.5381 1939.26 18.9627 1939.45 17.3085C1936.3 16.9146 1933.15 16.5208 1929.96 16.0875C1929.21 16.2057 1928.38 16.2451 1927.52 16.2057C1925.47 16.1269 1923.73 16.5601 1922.28 17.3479C1920.94 14.3152 1916.76 14.7484 1913.53 14.0395C1912.19 13.8819 1910.85 13.7638 1909.55 13.6456C1909.2 13.7638 1908.76 13.7638 1908.49 14.0395C1904.39 17.9386 1898.95 18.4113 1892.73 17.1509C1890.52 16.7177 1888.35 16.7571 1887.13 18.4507C1889.97 24.0828 1882.8 26.6035 1879.21 30.3845C1878.82 29.518 1879.17 28.5334 1878.23 27.8638C1875.2 26.4066 1872.2 27.9426 1870.59 28.8878C1866.92 31.0934 1862.82 33.1415 1860.11 35.9773C1860.26 34.6381 1859.12 33.5747 1856.21 32.7476C1851.95 31.5661 1849.31 31.8811 1847.18 35.1108C1843.87 40.1521 1813.93 37.7102 1816.61 42.8303C1817.01 43.5393 1817.24 44.1301 1816.49 44.7209C1815.51 45.4692 1814.33 45.3116 1813.26 44.839C1810.11 43.4999 1807.35 44.1301 1804.71 45.351C1804.32 43.815 1802.27 43.6968 1800.26 44.0119C1794.04 44.9966 1787.93 46.2175 1781.47 44.7602C1779.62 44.3664 1778 45.1541 1776.78 46.1781C1773 49.329 1768.9 51.9678 1762.48 52.3617C1759.17 52.5586 1758.19 55.5519 1755.07 56.3396C1752.04 50.3924 1748.93 49.841 1741.87 53.9371C1739.24 55.4337 1736.63 56.6547 1733.64 54.2522C1732.26 53.1888 1730.37 53.4251 1729.54 54.4491C1727.38 57.1667 1724.26 56.2214 1721.23 55.7882C1720.64 55.8276 1720.13 55.9851 1719.65 56.1821C1713.15 58.8603 1710.44 63.8623 1705.55 67.4857C1703.94 62.7595 1697.2 61.9717 1693.14 59.2935C1692.23 59.2935 1691.49 59.6086 1690.93 60.1206C1687.47 63.5078 1681.32 64.65 1677.46 67.722C1676.95 68.1553 1675.41 68.0765 1674.58 67.8008C1667.45 65.5164 1660.13 67.0131 1652.88 67.1706C1648.98 67.2494 1645.63 66.186 1642 65.6346C1636.29 66.7768 1630.89 65.4377 1625.61 64.2561C1620.89 63.1927 1613.44 63.1927 1610.96 64.7681C1605.01 68.5885 1597.13 68.0371 1590.39 69.8882C1589.84 70.0458 1589.13 70.0458 1588.66 69.7701C1582.75 66.4223 1576.21 65.7527 1569.04 67.4069C1568.57 67.5251 1567.9 67.2888 1567.27 67.2888C1566.87 67.2888 1566.52 67.4463 1566.16 67.5251C1566.16 67.5251 1566.2 67.5251 1566.24 67.5251C1567.66 65.7134 1569.55 63.941 1565.3 62.9958C1562.66 62.405 1562.77 60.672 1561.47 59.5692C1559.54 57.9544 1557.85 55.9851 1554.74 58.6633C1554.58 58.7815 1554.42 58.8209 1554.3 58.5846C1552.89 55.9851 1549.66 57.2061 1547.13 56.9304C1546.58 56.9304 1546.03 56.9304 1545.48 57.0091C1543.12 57.403 1542.41 58.939 1541.15 60.1206C1539.29 59.2147 1539.06 56.9304 1535.91 57.3242C1534.57 57.6393 1533.38 58.1513 1532.16 58.6633C1531.06 58.7421 1529.96 58.8209 1528.81 58.939C1527.59 60.672 1524.36 59.8055 1522.83 61.1052C1522.08 61.5385 1521.21 61.8929 1520.58 62.3656C1520.07 62.6019 1519.48 62.72 1518.81 62.6019C1517.03 62.208 1515.5 61.3022 1513.49 61.6566C1512.9 61.8142 1512.39 62.0899 1512.03 62.4443C1511.28 63.429 1511.4 64.2167 1511.87 64.965C1510.42 64.3349 1508.76 64.2955 1507.11 64.2561C1504.78 64.2955 1502.73 65.2407 1500.25 63.5077C1498.52 62.2868 1494.81 62.1686 1491.78 62.2868C1490.44 62.3656 1488.39 62.4443 1488 61.5779C1485.91 57.0879 1480.63 58.6633 1476.65 58.8996C1471.69 59.2147 1466.21 58.3876 1461.92 61.1052C1460.7 64.2561 1458.92 66.7374 1453.09 66.2647C1450.65 66.0678 1449.63 67.1706 1448.92 68.4309C1448.48 68.1946 1448.09 67.8795 1447.54 67.7614C1445.76 67.5251 1444.07 66.7767 1442.14 67.21C1441.27 67.4069 1440.49 67.722 1439.82 68.1159C1439.11 68.5491 1438.55 69.0217 1438.04 69.5337C1435.92 69.9276 1433.98 70.5184 1434.65 73.1966C1435.05 74.8114 1431.74 75.284 1429.93 75.8354C1428 76.4656 1421.81 72.9603 1417.95 73.6692C1416.41 73.9449 1415.35 73.3935 1414.13 72.8815C1408.02 70.4002 1402.39 72.1332 1399.95 71.2667C1399.16 71.2667 1398.33 71.2667 1397.54 71.2667C1391.24 71.1879 1385.01 70.4396 1378.95 69.2186C1377.96 69.7307 1376.98 70.2033 1375.76 70.5578C1373.86 70.8335 1372.01 71.1485 1370.55 72.1332C1369.89 72.7634 1369.85 72.9603 1366.73 72.724C1362.83 72.4483 1363.19 73.236 1363.54 75.0083C1363.78 76.1899 1362.79 76.8201 1361.22 77.017C1359.72 77.2139 1358.26 76.9382 1357.67 75.9536C1356.53 74.0631 1355.54 72.0938 1354.8 70.0851C1353.69 67.21 1346.25 66.9737 1346.09 63.1139C1346.05 61.8929 1345.62 60.8295 1343.61 60.7901C1341.68 60.7901 1339.75 60.8689 1339.04 62.6806C1338.25 64.7681 1338.29 67.013 1336.52 68.8642C1335.14 69.0217 1334.35 69.5731 1334.11 70.5184C1331.55 71.1485 1329.7 72.4089 1328.12 73.8661C1326.11 74.4963 1324.11 75.1659 1322.1 73.8661C1320.95 71.8181 1327.06 73.6298 1325.52 70.1245C1323.51 65.5164 1319.57 67.5251 1316.11 67.21C1315.4 66.5798 1314.77 65.6345 1313.39 66.2253C1312.09 66.8161 1312.64 67.9583 1312.48 68.8642C1310.32 66.1859 1306.42 65.6739 1302.71 64.8862C1302.71 64.8074 1302.71 64.7287 1302.71 64.6499C1302.71 64.6105 1302.4 64.5317 1302.24 64.5317C1302.04 64.5317 1301.89 64.6105 1301.69 64.6893C1298.26 61.1446 1297.83 61.184 1294.95 65.0044C1289.4 62.3655 1282.5 62.1686 1281.87 60.7113C1279.78 61.6566 1275.33 60.3963 1275.06 60.3569C1271.23 59.7661 1270.37 58.8208 1272.81 57.5211C1279.67 53.8976 1273.44 53.5038 1270.45 52.204C1270.17 52.2434 1269.89 52.2828 1269.62 52.3222C1264.93 54.0945 1267.33 57.718 1265.6 60.3962C1262.92 59.0177 1264.77 57.7574 1265.13 56.5365C1266.31 52.4797 1263.87 50.7468 1258.19 52.1253C1255.16 52.8736 1253.62 50.5498 1250.98 51.18C1248.15 51.5739 1246.65 52.7554 1246.41 54.7247C1245.03 55.5124 1246.53 57.6786 1244.25 57.6786C1241.21 57.6786 1242.43 55.7881 1242.24 54.5278C1242.08 53.5825 1241.61 52.5585 1239.76 52.6373C1238.77 52.6767 1237.35 53.1099 1237.63 53.7795C1239.4 58.23 1233.65 56.8121 1231.99 57.7968C1228.53 57.5605 1234.24 53.6613 1228.29 54.6853C1227.9 54.6853 1227.54 54.6853 1227.15 54.6853C1224.94 53.7007 1225.69 51.4951 1223.6 50.4711C1223.6 50.2347 1223.52 49.9984 1223.48 49.7227C1221.67 49.3683 1220.06 49.9984 1218.48 50.3529C1216.2 50.8649 1215.8 49.8409 1215.13 48.8562C1214.19 48.0292 1212.45 48.0685 1211.55 47.2021C1203.27 46.6507 1195.12 47.3596 1186.92 48.3048C1186.85 48.3442 1186.73 48.3836 1186.65 48.423C1182.59 46.0992 1179.08 43.0272 1172.66 43.9724C1170.53 44.2875 1170.81 42.9484 1170.61 42.0819C1162.81 40.7034 1155.96 43.4998 1148.83 44.6814C1146.54 45.0752 1144.37 45.7054 1141.97 45.5872C1140.75 46.7688 1137.52 44.9177 1136.97 47.1233C1134.29 48.7381 1128.66 48.1079 1129.13 51.9677C1129.36 48.3048 1128.81 47.9898 1124.01 48.5411C1122.04 48.7775 1120.07 50.0378 1117.98 48.7381C1116.4 52.0465 1114.24 55.0004 1108.84 56.497C1108.33 54.5671 1111.32 54.2127 1111.91 52.913C1112.31 52.0071 1113.53 50.9831 1112.03 50.3135C1110.26 49.5258 1109.78 50.7861 1109.11 51.6132C1108.52 52.3222 1107.85 53.3462 1106.59 52.9129C1105.92 52.6766 1105.96 51.4557 1105.69 50.7074C1101.27 52.2828 1103.36 54.961 1103.4 57.2848C1099.15 55.7487 1096.31 58.6239 1092.65 59.0177C1090.95 59.2146 1089.65 60.9476 1087.92 58.742C1086.89 57.4423 1085.48 58.5845 1084.14 59.2934C1081.65 60.6719 1078.74 61.1839 1075.78 59.766C1075.78 59.2146 1075.78 58.6632 1075.78 58.1118C1073.18 59.0177 1072.16 58.2694 1072.2 56.4576C1070.78 56.0638 1069.87 56.6152 1069.28 57.3635C1066.68 60.7901 1060.77 61.3021 1057.94 59.8448C1055.97 58.8208 1053.96 59.8054 1052.07 60.6719C1052.18 59.2934 1051.79 58.0331 1049.39 57.2454C1048.6 57.2454 1047.81 57.2454 1046.98 57.2454C1044.31 57.2454 1047.5 59.8842 1043.52 60.3568C1039.22 60.8688 1035.64 64.0591 1039.18 57.9937C1040.25 56.1426 1037.73 54.7247 1034.42 55.1185C1033.16 55.2761 1032.21 56.1819 1030.56 55.6699C1025.47 54.0551 1025.08 54.2127 1021.89 57.5211C1019.92 55.5518 1021.26 52.3221 1016.96 51.4163C1012.12 51.7314 1009.99 54.5671 1007.23 56.8121C1005.1 55.3155 1008.38 55.1185 1007.63 54.0157C1001.68 52.6766 998.723 56.1426 994.862 58.3481C992.261 56.4576 996.398 54.2127 993.68 52.5191C991.592 52.4403 990.883 55.1185 988.164 53.9763C985.761 52.1646 983.2 50.5104 987.691 48.1867C990.134 46.9263 988.046 44.0118 983.515 42.7514C989.661 41.7274 990.213 39.8763 985.761 37.3162C984.973 37.5919 984.185 37.8676 983.358 38.1433C980.324 36.9617 979.339 33.8503 974.927 33.9684C974.533 33.9684 974.139 33.9684 973.745 33.9684C973.036 33.102 972.839 31.9992 971.302 31.4871C969.529 28.1394 965.511 30.0299 965.314 31.2114C964.959 33.4564 962.753 34.0866 961.177 35.3469C958.025 31.9598 949.555 31.2902 950.894 25.6187C950.579 23.8463 949.24 23.1374 946.679 23.5312C946.442 23.6494 946.245 23.8069 946.009 23.9251C944.079 26.0519 942.897 24.5159 941.518 23.5312C939.311 21.9952 937.46 21.5226 936.79 24.3977C936.16 27.1547 932.574 28.2575 929.974 29.8723C928.28 30.9357 926.862 30.2662 925.247 29.4391C923.553 28.5332 922.725 26.367 919.573 27.2729C919.495 27.391 919.416 27.6273 919.298 27.6273C915.279 28.0606 922.686 31.6841 917.052 31.6053C914.452 31.5659 911.655 32.1567 909.291 30.4631C909.186 32.5112 907.478 34.0603 904.169 35.1106C902.475 34.2047 903.933 32.8262 903.066 31.7234C902.042 30.4237 901.963 28.8483 898.85 30.3056C896.644 31.369 894.674 29.7935 892.626 28.6514C892.586 30.857 895.344 31.5265 895.58 33.1019C894.792 33.6533 893.965 34.2047 893.177 34.7561C892.31 35.3075 891.404 35.7014 890.065 35.7802C881.358 36.0952 867.451 38.1433 861.974 37.1587C858.744 36.6073 863.669 33.4958 859.532 33.1019C857.917 33.6533 857.05 32.7475 855.947 32.2354C855.947 31.9597 855.947 31.684 855.947 31.4477C857.562 29.5178 856.144 28.2181 853.898 27.3516C851.928 26.5639 850.431 27.8243 850.352 28.7301C850.155 30.3449 844.561 31.1326 848.973 33.3382C851.258 34.4804 851.061 36.5285 851.652 38.1433C852.086 39.2855 848.658 38.8916 847.2 39.8763C846.019 40.664 843.733 39.955 843.97 38.1433C841.803 39.6006 839.912 40.7034 837.588 38.0645C836.13 36.4103 833.963 34.9924 830.614 36.2134C829.59 36.6072 828.526 36.4891 828.447 35.5438C828.211 32.1567 823.089 31.3296 821.198 28.7695C820.253 27.5485 811.191 28.8877 809.734 30.6206C808.63 31.9204 807.724 32.393 805.439 32.7081C803.154 33.0232 799.569 34.3623 802.248 37.0011C804.297 39.0098 800.751 39.8763 800.712 41.4123C798.348 42.0425 797.402 44.2087 793.226 42.7908C788.695 41.2547 779.476 41.4123 780.422 39.2067C780.777 38.419 778.216 37.907 777.27 38.8916C775.812 40.3883 773.488 40.8609 771.558 41.7668C770.77 38.4977 764.23 36.9223 759.896 38.8916C755.208 40.8609 749.298 40.664 744.846 42.9483C744.846 42.8696 744.886 42.7908 744.886 42.712C745.752 41.2547 745.831 39.8762 743.507 39.2461C741.182 38.6159 738.543 38.1039 736.77 40.0732C737.124 40.5458 736.533 39.8762 736.927 40.3489C736.809 40.3489 736.809 40.2701 736.691 40.2307C731.293 38.5765 726.132 39.2855 722.547 42.1606C719.356 44.7207 715.574 45.5084 711.516 45.3115C704.621 44.9964 698.672 46.9656 692.723 48.6198C690.084 49.3682 684.726 48.2654 681.062 47.5958C678.737 47.202 677.792 50.274 675.034 48.738C673.458 47.6746 670.7 48.226 669.518 46.6506C668.336 45.1539 666.682 43.8542 663.963 44.3662C660.969 44.9176 659.827 46.6899 659.512 48.6986C659.472 49.0137 659.472 49.3288 659.433 49.6045C655.335 48.3048 643.319 44.248 639.813 40.467C637.094 37.5131 636.188 38.6159 634.258 39.8368C633.036 40.6246 632.721 42.2 630.318 41.688C628.151 41.2153 628.388 40.0731 628.309 38.734C628.191 36.3709 627.56 36.3709 622.557 38.7734C620.429 37.1192 620.626 35.0712 620.626 33.0625C618.341 33.0625 616.253 33.4564 614.756 34.7561C613.141 36.174 610.935 36.2134 609.595 35.0712C606.404 32.3536 604.946 34.441 604.67 36.0558C604.04 39.7187 600.612 40.3488 595.924 40.7033C595.964 38.0645 599.588 35.6226 596.279 32.3536C594.466 37.0011 588.124 38.222 584.735 41.4123C583.869 42.2394 583.475 43.736 581.465 43.4997C578.708 43.1846 581.347 41.2153 579.85 40.4276C578.077 40.9002 579.023 42.2 578.195 42.9089C576.62 44.2086 574.098 43.8148 574.098 42.5938C574.098 36.9223 569.961 39.6005 566.534 40.5458C565.825 40.1125 565.076 39.9944 564.209 40.2701C560.703 41.9636 557.236 43.6966 553.966 45.5871C552.981 46.1779 552.351 46.5718 550.972 46.1779C546.796 45.0357 543.762 46.5324 541.044 48.4623C540.65 48.4623 540.295 48.5017 539.901 48.4623C538.877 48.2653 537.931 47.6746 536.789 48.1078C536.592 48.226 536.474 48.3835 536.474 48.5804C533.164 50.6285 523.709 52.7553 517.996 54.9609C516.972 55.3548 515.987 54.9215 514.963 54.5277C515.396 54.4095 515.751 54.1732 515.987 53.8581C514.766 53.3855 513.505 52.9522 512.284 52.4796C509.211 52.8735 506.138 53.3067 503.065 53.7006C500.74 52.9522 498.652 51.2586 495.816 53.031C494.515 54.0944 492.703 53.7793 491.048 53.8975C490.418 54.2913 489.788 54.6458 489.551 55.1578C486.754 54.8427 484.43 55.5517 482.302 56.7332C482.066 56.5363 481.79 56.3394 481.593 56.1425C481.475 55.9849 481.317 55.788 481.12 55.6698C479.151 56.4182 477.22 56.4575 475.368 55.5123C474.777 57.2059 473.871 55.7092 473.083 55.6304C469.695 57.3634 465.834 55.079 462.407 56.2212C459.649 55.4729 457.246 53.6218 453.857 54.8821C452.675 55.3547 451.966 55.9455 451.927 56.6545C447.869 56.0637 444.008 56.6545 439.95 57.0877C432.268 57.9148 424.428 57.5997 416.745 56.5363C417.257 56.2606 417.691 55.9061 417.848 55.3941C418.045 54.7246 417.848 54.0944 417.454 53.5036C415.484 51.6525 412.884 51.4556 410.048 52.322C404.965 53.8975 399.962 53.5824 395.471 51.5343C393.185 50.5103 390.822 50.1164 388.379 49.7226C387.827 49.6832 387.236 49.7226 386.685 49.8014C384.991 50.2346 383.494 51.0617 381.563 51.0223C380.303 51.0223 379.042 51.0223 378.018 51.4556C377.742 51.3768 377.505 51.298 377.23 51.2586C372.699 50.3528 368.365 49.9983 363.953 47.8321C360.289 46.0203 353.434 45.5477 347.209 46.7293C347.76 45.1538 349.888 43.736 348.233 42.1605C347.879 41.8455 347.445 41.6091 346.933 41.4516C346.184 41.4516 345.397 41.4516 344.648 41.4516C339.802 41.8848 336.217 39.4823 331.883 38.6946C329.716 38.6158 327.55 38.5764 325.383 38.4977C324.949 38.6158 324.516 38.734 324.083 39.0491C324.083 39.8762 324.949 40.7033 324.083 41.5304C320.655 44.2874 324.91 47.0837 324.083 49.8407C323.886 49.762 323.649 49.7226 323.61 49.6438C322.507 47.8715 323.452 45.1145 319.434 44.76C316.715 44.5237 312.421 47.7927 311.2 50.4709C310.845 49.9589 310.372 49.5256 309.781 49.2499C306.748 47.7927 305.605 45.8628 305.763 43.4209C303.163 42.3575 300.562 42.6332 298.041 43.5784C294.338 44.8781 290.595 43.5784 286.852 43.736C283.858 43.4603 281.691 42.0424 279.17 41.0971C279.839 40.5851 280.115 39.9549 278.657 39.9549C274.087 39.8762 270.423 37.8675 266.09 37.5918C260.416 37.1979 257.895 39.5217 259.747 43.2239C258.486 44.9963 255.492 41.7273 254.428 44.0904C253.758 44.563 253.443 45.5083 252.025 44.9175C251.631 44.6418 251.237 44.3661 250.803 44.0904C247.888 43.1058 245.8 43.4602 244.815 45.784C243.2 47.9896 240.481 48.5016 237.33 48.029C233.941 47.517 230.987 47.6351 229.214 49.9983C228.465 50.9829 227.441 50.9041 226.22 50.786C223.501 50.5497 225.235 49.4469 225.353 48.6985C225.471 47.7533 224.959 46.7293 223.659 46.8474C218.104 47.3594 213.179 44.248 207.388 45.784C204.866 46.4535 202.187 45.5083 200.335 43.9329C196.553 40.6639 194.82 41.0183 191.156 44.4449C189.738 45.784 186.271 45.784 183.592 44.9175C181.976 45.4689 180.4 46.0203 178.785 46.6111C179.219 48.0684 181.976 47.4382 182.685 48.6985C182.055 49.6438 181.031 49.8407 179.967 49.8801C179.652 49.5256 179.337 49.1712 178.903 48.8167C178.431 48.3834 178.273 47.832 177.879 47.3594C176.855 46.1778 177.209 43.7753 174.412 44.1692C172.442 44.4449 172.206 45.3901 172.363 46.4142C171.654 46.0991 170.866 45.9415 170.157 45.6658C163.42 43.2239 156.604 43.7359 151.837 47.2806C148.843 49.5256 147.228 47.7139 145.731 46.4142C140.491 41.8454 138.757 41.8454 133.478 46.6111C132.139 47.832 129.617 48.1471 128.829 49.7225C128.278 48.6591 127.372 47.6745 126.032 47.0443C121.58 44.8781 117.877 42.1999 114.646 39.2066C111.77 36.5284 107.712 36.9616 103.694 37.4342C100.03 37.8675 96.7993 38.537 94.1203 35.3074C92.3474 33.1412 87.9743 32.1959 84.2315 34.5197C81.6313 37.3554 78.4795 39.049 73.3973 37.3161C70.7182 36.4102 68.6696 37.001 67.8422 39.0096C66.0693 43.4602 60.1597 44.563 55.3139 46.4929C54.0138 47.0049 52.2015 47.0049 50.9014 47.6745C49.5619 48.344 48.4193 49.2105 48.9709 50.4709C49.4437 51.5343 50.9014 51.6918 52.3591 51.7312C55.1169 51.81 57.8747 52.0857 60.9871 52.0463C53.344 52.3614 45.7797 52.7158 42.7855 58.5449C41.6036 56.2999 39.5943 54.3306 38.0578 52.2432C35.9698 49.4074 31.7543 48.6197 27.3417 48.7379C23.7566 48.8167 20.9594 48.7379 19.8957 45.5083C18.8713 42.3968 15.365 42.5149 11.9374 44.1298C11.3464 43.9328 10.7949 43.7359 10.2039 43.539C10.3221 43.3814 10.4403 43.2239 10.4797 42.9876C8.47042 39.3247 5.59442 38.3007 -6.84821e-06 39.1672L-3.74169e-05 214L2559.84 214L2560 213.725Z" fill="#282A2E"/>
</svg>
