<svg width="2560" height="214" viewBox="0 0 2560 214" fill="none" xmlns="http://www.w3.org/2000/svg">
<path d="M2560 0H0V214H2560V0Z" fill="#FFF6E9"/>
<path d="M2560 213.714V35.5936C2559.61 31.6936 2559.29 27.7536 2559.45 23.8536C2559.09 23.0236 2558.7 22.2036 2558.35 21.3736C2555.08 17.9836 2549.76 19.2836 2545.3 18.8536C2543.3 18.6536 2541.4 18.7736 2540.06 17.5136C2537.43 16.2136 2533.72 16.2936 2531.75 14.2036C2531.32 13.9636 2530.81 13.7736 2530.26 13.6536C2527.26 13.4936 2524.66 12.4736 2522.22 11.4436C2519.74 10.3836 2517.53 10.3836 2515.17 11.4436C2514.46 11.8736 2514.06 12.4236 2513.87 13.0236C2510.71 10.5036 2504.45 9.7936 2498.22 11.6436C2496.06 12.2736 2494.01 13.1436 2491.88 13.8536C2491.61 14.0536 2491.45 14.3236 2491.17 14.5636C2489.56 14.3236 2488.53 13.6536 2488.61 12.2836H2487.39C2483.49 13.5436 2479.31 14.0936 2475.02 14.3736C2465.72 13.5436 2456.9 15.3536 2447.95 16.5836C2442.6 17.2936 2437.43 16.6236 2432.35 15.4036C2430.34 15.9136 2429.83 17.9236 2427.27 17.9236C2426.76 18.0436 2426.29 18.2436 2425.81 18.4336C2424.79 19.1436 2423.37 19.6936 2422.82 20.6436C2421.75 19.7336 2420.81 18.7536 2419.12 18.3236C2418.29 18.2036 2417.46 18.2436 2416.71 18.5236C2416.12 18.8436 2415.81 19.2336 2415.45 19.6236C2415.45 19.3836 2415.53 19.1536 2415.61 18.9536C2411.35 17.7736 2406.78 18.2036 2402.41 17.6936C2400.83 17.5336 2398.43 17.7736 2398 16.8636C2396.07 12.8836 2391.3 14.6936 2387.75 13.8736C2383.18 12.8136 2380.35 13.5536 2376.29 14.8936C2371.76 16.3936 2367.11 18.2436 2361.99 18.7536C2358.88 19.0736 2356.55 20.0136 2354.46 21.4736C2354.19 20.6436 2354.82 19.5836 2353.99 18.5236C2352.65 20.7736 2351.31 21.5936 2348.12 19.8236C2344.93 18.0536 2341.31 19.7036 2338.19 20.8436C2334.61 22.1836 2332.6 20.1336 2330.31 19.1536C2328.19 18.2436 2330.51 17.3436 2331.26 16.5136C2329.76 15.7236 2328.23 15.5336 2326.73 16.3936C2324.56 14.4236 2321.41 13.4836 2318.18 12.5736C2314.91 11.6636 2311.28 11.5536 2309.35 8.5936C2308.13 6.7036 2303.44 6.2736 2301.83 8.3936C2299.35 11.6636 2295.96 12.4536 2291.23 11.8236C2293.24 9.7336 2290.84 8.5536 2288.39 7.3736C2286.86 6.7436 2284.73 7.3736 2283.39 6.2736C2280.91 4.3036 2278.15 4.8136 2276.18 6.4336C2273.94 8.2836 2272.16 7.9336 2269.6 6.8236C2267.08 5.7236 2264.44 4.6136 2261.37 4.4636C2258.3 4.3036 2255.54 4.7036 2253.61 7.0636C2254.63 4.6636 2254.59 2.6536 2252.31 0.963602C2251.6 0.453602 2250.1 -0.176398 2249.79 0.133602C2246.04 3.7536 2241.16 -2.1064 2237.45 0.883602C2237.18 1.0836 2236.86 1.2736 2236.71 1.5136C2234.7 4.4236 2232.84 5.5336 2229.54 1.9836C2227.64 -0.066398 2223.9 -0.146398 2221.69 1.6636C2217.32 5.2836 2210.66 7.1736 2207.28 11.5936C2204.01 8.8736 2199 8.8336 2195.06 7.2636C2193.13 6.4736 2190.45 7.1436 2188.96 8.2436C2182.1 13.3636 2173.75 12.8536 2165.28 11.3136C2161.57 10.6436 2158.23 9.1036 2155.27 12.2636C2154.17 13.4436 2152.83 12.1836 2151.65 11.8336C2145.78 10.1436 2137.94 11.0436 2134.35 13.7636C2133.48 14.4336 2132.97 15.1436 2132.78 15.9736C2132.7 15.9736 2132.62 15.9736 2132.54 16.0136C2132.34 16.0536 2132.22 16.1336 2132.03 16.1736C2131.12 15.5436 2129.86 15.4236 2128.24 15.7036C2126.75 15.9836 2125.45 15.8236 2125.53 14.4036C2126.08 12.8236 2126.63 11.2936 2124.03 10.3036C2121.19 10.3036 2119.73 12.2736 2117.13 12.6636C2114.46 13.5336 2112.45 15.1036 2109.96 16.2036C2104.61 9.6236 2100.43 9.1536 2091.25 14.0336C2090.15 16.0836 2089.75 18.4036 2086.56 19.5836C2085.5 20.1336 2084.55 20.8036 2083.73 21.5536C2082.98 22.2236 2082.31 22.9336 2081.16 23.2436C2080.18 22.7336 2080.3 21.7436 2079.27 21.2736C2075.96 20.6036 2073.84 21.8636 2072.69 23.7136C2071.95 24.8536 2070.69 25.4836 2069.58 26.2736C2064.42 25.3636 2059.26 24.2236 2054.02 25.9536C2052.44 26.4636 2050.99 26.2336 2049.41 25.8736C2046.02 25.1636 2042.67 25.6336 2039.4 26.3036C2038.46 26.5036 2037.67 27.2136 2036.72 27.1736C2034.44 27.0936 2031.6 24.4536 2030.07 26.8236C2028.02 30.0136 2023.29 32.4136 2023.84 37.2236C2021.99 34.6236 2022.07 32.3436 2020.34 30.5236C2020.22 30.3636 2020.02 30.2836 2019.86 30.1336C2022.31 28.6736 2024.27 27.5336 2023.13 25.3336C2022.78 24.6236 2021.64 24.1136 2020.77 24.5036C2018.01 25.7636 2018.92 27.6936 2018.84 29.6236C2016.67 29.3436 2014.74 29.2336 2013.01 29.3436C2015.25 28.3636 2015.92 26.0736 2016.91 24.3836C2017.54 23.2836 2015.45 22.3336 2012.85 22.2936C2012.65 24.5036 2007.14 23.3136 2007.69 25.8036C2007.96 27.0236 2008.24 29.2336 2010.25 29.6636C2005.99 30.5336 2003.28 32.9336 2001.74 37.1836C1999.61 35.1736 1998.55 32.3436 1994.25 32.6936C1990.63 33.0136 1988.07 34.5436 1986.57 36.8336C1986.45 37.0736 1986.57 37.2636 1986.49 37.5036C1983.89 38.1736 1981.02 38.2936 1979.17 40.0236C1977.35 38.3336 1978.5 37.2636 1979.8 36.4436C1984.01 33.8436 1980.7 32.1136 1977.86 31.6736C1973.96 31.0836 1971.01 29.6236 1967.74 28.3636C1964.63 27.1836 1961.32 26.0036 1957.58 27.4136C1956 28.0036 1953.28 27.2136 1953.75 26.9036C1956.67 24.9736 1955.92 21.5836 1959.82 20.0936C1960.45 19.8536 1960.96 19.5836 1961.52 19.3036C1959.35 19.1836 1957.26 19.1436 1955.05 18.9836C1953.04 18.8236 1951.07 18.5536 1949.1 18.3136C1948.12 19.1836 1947.84 20.2436 1949.89 21.5836C1950.25 21.8236 1949.81 22.5636 1949.74 23.1236C1943.79 22.7336 1943.47 27.6936 1938.86 28.7536C1937.4 26.3136 1939.73 25.0536 1941.58 23.6336C1942.45 22.9636 1944.34 21.6236 1943.31 21.3936C1939.53 20.5236 1939.26 18.9536 1939.45 17.2936C1936.3 16.9036 1933.15 16.5036 1929.96 16.0736C1929.21 16.1936 1928.38 16.2336 1927.52 16.1936C1925.47 16.1136 1923.73 16.5436 1922.28 17.3336C1920.94 14.3036 1916.76 14.7336 1913.53 14.0236C1912.19 13.8636 1910.85 13.7436 1909.55 13.6336C1909.2 13.7536 1908.76 13.7536 1908.49 14.0236C1904.39 17.9236 1898.95 18.3936 1892.73 17.1336C1890.52 16.7036 1888.35 16.7436 1887.13 18.4336C1889.97 24.0636 1882.8 26.5836 1879.21 30.3636C1878.82 29.4936 1879.17 28.5136 1878.23 27.8436C1875.2 26.3836 1872.2 27.9236 1870.59 28.8636C1866.92 31.0736 1862.82 33.1136 1860.11 35.9536C1860.26 34.6136 1859.12 33.5536 1856.21 32.7236C1851.95 31.5436 1849.31 31.8536 1847.18 35.0836C1843.87 40.1236 1813.93 37.6836 1816.61 42.8036C1817.01 43.5136 1817.24 44.1036 1816.49 44.6936C1815.51 45.4436 1814.33 45.2836 1813.26 44.8136C1810.11 43.4736 1807.35 44.1036 1804.71 45.3236C1804.32 43.7836 1802.27 43.6736 1800.26 43.9836C1794.04 44.9636 1787.93 46.1936 1781.47 44.7336C1779.62 44.3436 1778 45.1236 1776.78 46.1536C1773 49.3036 1768.9 51.9436 1762.48 52.3336C1759.17 52.5336 1758.19 55.5236 1755.07 56.3136C1752.04 50.3636 1748.93 49.8136 1741.87 53.9136C1739.24 55.4136 1736.63 56.6336 1733.64 54.2336C1732.26 53.1736 1730.37 53.4036 1729.54 54.4336C1727.38 57.1536 1724.26 56.2036 1721.23 55.7736C1720.64 55.8136 1720.13 55.9736 1719.65 56.1636C1713.15 58.8436 1710.44 63.8436 1705.55 67.4636C1703.94 62.7336 1697.2 61.9536 1693.14 59.2736C1692.23 59.2736 1691.49 59.5936 1690.93 60.1036C1687.47 63.4936 1681.32 64.6336 1677.46 67.7036C1676.95 68.1336 1675.41 68.0536 1674.58 67.7836C1667.45 65.5036 1660.13 66.9936 1652.88 67.1536C1648.98 67.2336 1645.63 66.1736 1642 65.6136C1636.29 66.7536 1630.89 65.4136 1625.61 64.2336C1620.89 63.1736 1613.44 63.1736 1610.96 64.7436C1605.01 68.5636 1597.13 68.0136 1590.39 69.8636C1589.84 70.0236 1589.13 70.0236 1588.66 69.7436C1582.75 66.3936 1576.21 65.7236 1569.04 67.3836C1568.57 67.5036 1567.9 67.2636 1567.27 67.2636C1566.87 67.2636 1566.52 67.4236 1566.16 67.5036H1566.24C1567.66 65.6936 1569.55 63.9236 1565.3 62.9736C1562.66 62.3836 1562.77 60.6536 1561.47 59.5436C1559.54 57.9336 1557.85 55.9636 1554.74 58.6336C1554.58 58.7536 1554.42 58.7936 1554.3 58.5536C1552.89 55.9536 1549.66 57.1736 1547.13 56.9036C1546.58 56.9036 1546.03 56.9036 1545.48 56.9836C1543.12 57.3736 1542.41 58.9136 1541.15 60.0936C1539.29 59.1836 1539.06 56.9036 1535.91 57.2936C1534.57 57.6136 1533.38 58.1236 1532.16 58.6336C1531.06 58.7136 1529.96 58.7936 1528.81 58.9136C1527.59 60.6436 1524.36 59.7836 1522.83 61.0836C1522.08 61.5136 1521.21 61.8736 1520.58 62.3436C1520.07 62.5836 1519.48 62.6936 1518.81 62.5836C1517.03 62.1936 1515.5 61.2836 1513.49 61.6336C1512.9 61.7936 1512.39 62.0636 1512.03 62.4236C1511.28 63.4036 1511.4 64.1936 1511.87 64.9436C1510.42 64.3136 1508.76 64.2736 1507.11 64.2336C1504.78 64.2736 1502.73 65.2136 1500.25 63.4836C1498.52 62.2636 1494.81 62.1436 1491.78 62.2636C1490.44 62.3436 1488.39 62.4236 1488 61.5536C1485.91 57.0636 1480.63 58.6436 1476.65 58.8736C1471.69 59.1936 1466.21 58.3636 1461.92 61.0836C1460.7 64.2336 1458.92 66.7136 1453.09 66.2436C1450.65 66.0436 1449.63 67.1536 1448.92 68.4136C1448.48 68.1736 1448.09 67.8636 1447.54 67.7436C1445.76 67.5036 1444.07 66.7636 1442.14 67.1936C1441.27 67.3936 1440.49 67.7036 1439.82 68.1036C1439.11 68.5336 1438.55 69.0136 1438.04 69.5236C1435.92 69.9136 1433.98 70.5036 1434.65 73.1836C1435.05 74.7936 1431.74 75.2736 1429.93 75.8236C1428 76.4536 1421.81 72.9436 1417.95 73.6536C1416.41 73.9336 1415.35 73.3736 1414.13 72.8636C1408.02 70.3836 1402.39 72.1136 1399.95 71.2536H1397.54C1391.24 71.1736 1385.01 70.4236 1378.95 69.2036C1377.96 69.7136 1376.98 70.1836 1375.76 70.5436C1373.86 70.8236 1372.01 71.1336 1370.55 72.1236C1369.89 72.7536 1369.85 72.9536 1366.73 72.7136C1362.83 72.4336 1363.19 73.2236 1363.54 74.9936C1363.78 76.1736 1362.79 76.8036 1361.22 77.0036C1359.72 77.2036 1358.26 76.9236 1357.67 75.9436C1356.53 74.0536 1355.54 72.0836 1354.8 70.0736C1353.69 67.1936 1346.25 66.9636 1346.09 63.1036C1346.05 61.8836 1345.62 60.8236 1343.61 60.7836C1341.68 60.7836 1339.75 60.8636 1339.04 62.6736C1338.25 64.7636 1338.29 67.0036 1336.52 68.8536C1335.14 69.0136 1334.35 69.5636 1334.11 70.5036C1331.55 71.1336 1329.7 72.3936 1328.12 73.8536C1326.11 74.4836 1324.11 75.1536 1322.1 73.8536C1320.95 71.8036 1327.06 73.6136 1325.52 70.1136C1323.51 65.5036 1319.57 67.5136 1316.11 67.2036C1315.4 66.5736 1314.77 65.6236 1313.39 66.2236C1312.09 66.8136 1312.64 67.9536 1312.48 68.8636C1310.32 66.1836 1306.42 65.6736 1302.71 64.8836V64.6436C1302.71 64.6436 1302.4 64.5236 1302.24 64.5236C1302.04 64.5236 1301.89 64.6036 1301.69 64.6836C1298.26 61.1436 1297.83 61.1736 1294.95 65.0036C1289.4 62.3636 1282.5 62.1636 1281.87 60.7136C1279.78 61.6636 1275.33 60.4036 1275.06 60.3636C1271.23 59.7736 1270.37 58.8236 1272.81 57.5236C1279.67 53.9036 1273.44 53.5036 1270.45 52.2036C1270.17 52.2436 1269.89 52.2836 1269.62 52.3236C1264.93 54.0936 1267.33 57.7236 1265.6 60.3936C1262.92 59.0136 1264.77 57.7536 1265.13 56.5336C1266.31 52.4736 1263.87 50.7436 1258.19 52.1236C1255.16 52.8736 1253.62 50.5436 1250.98 51.1736C1248.15 51.5636 1246.65 52.7536 1246.41 54.7136C1245.03 55.5036 1246.53 57.6636 1244.25 57.6636C1241.21 57.6636 1242.43 55.7736 1242.24 54.5136C1242.08 53.5636 1241.61 52.5436 1239.76 52.6236C1238.77 52.6636 1237.35 53.0936 1237.63 53.7636C1239.4 58.2136 1233.65 56.7936 1231.99 57.7836C1228.53 57.5436 1234.24 53.6436 1228.29 54.6736H1227.15C1224.94 53.6936 1225.69 51.4836 1223.6 50.4636C1223.6 50.2236 1223.52 49.9936 1223.48 49.7136C1221.67 49.3636 1220.06 49.9936 1218.48 50.3436C1216.2 50.8536 1215.8 49.8336 1215.13 48.8436C1214.19 48.0136 1212.45 48.0536 1211.55 47.1936C1203.27 46.6436 1195.12 47.3536 1186.92 48.2936C1186.85 48.3336 1186.73 48.3736 1186.65 48.4136C1182.59 46.0936 1179.08 43.0136 1172.66 43.9636C1170.53 44.2836 1170.81 42.9436 1170.61 42.0736C1162.81 40.6936 1155.96 43.4936 1148.83 44.6736C1146.54 45.0636 1144.37 45.6936 1141.97 45.5836C1140.75 46.7636 1137.52 44.9136 1136.97 47.1236C1134.29 48.7336 1128.66 48.1036 1129.13 51.9636C1129.36 48.3036 1128.81 47.9836 1124.01 48.5336C1122.04 48.7736 1120.07 50.0336 1117.98 48.7336C1116.4 52.0436 1114.24 54.9936 1108.84 56.4936C1108.33 54.5636 1111.32 54.2136 1111.91 52.9136C1112.31 52.0036 1113.53 50.9836 1112.03 50.3136C1110.26 49.5236 1109.78 50.7836 1109.11 51.6136C1108.52 52.3236 1107.85 53.3436 1106.59 52.9136C1105.92 52.6736 1105.96 51.4536 1105.69 50.7036C1101.27 52.2836 1103.36 54.9536 1103.4 57.2836C1099.15 55.7436 1096.31 58.6236 1092.65 59.0136C1090.95 59.2136 1089.65 60.9436 1087.92 58.7336C1086.89 57.4336 1085.48 58.5736 1084.14 59.2836C1081.65 60.6636 1078.74 61.1736 1075.78 59.7536V58.1036C1073.18 59.0136 1072.16 58.2636 1072.2 56.4536C1070.78 56.0636 1069.87 56.6136 1069.28 57.3636C1066.68 60.7936 1060.77 61.3036 1057.94 59.8436C1055.97 58.8236 1053.96 59.8036 1052.07 60.6736C1052.18 59.2936 1051.79 58.0336 1049.39 57.2436H1046.98C1044.31 57.2436 1047.5 59.8836 1043.52 60.3536C1039.22 60.8636 1035.64 64.0536 1039.18 57.9936C1040.25 56.1436 1037.73 54.7236 1034.42 55.1136C1033.16 55.2736 1032.21 56.1736 1030.56 55.6636C1025.47 54.0536 1025.08 54.2036 1021.89 57.5136C1019.92 55.5436 1021.26 52.3136 1016.96 51.4136C1012.12 51.7336 1009.99 54.5636 1007.23 56.8136C1005.1 55.3136 1008.38 55.1236 1007.63 54.0136C1001.68 52.6736 998.72 56.1436 994.86 58.3436C992.26 56.4536 996.4 54.2036 993.68 52.5136C991.59 52.4336 990.88 55.1136 988.16 53.9736C985.76 52.1636 983.2 50.5036 987.69 48.1836C990.13 46.9236 988.05 44.0136 983.51 42.7436C989.66 41.7236 990.21 39.8636 985.76 37.3036C984.97 37.5836 984.18 37.8536 983.36 38.1336C980.33 36.9536 979.34 33.8436 974.93 33.9636H973.75C973.04 33.0936 972.84 31.9936 971.31 31.4836C969.54 28.1336 965.52 30.0236 965.32 31.2036C964.96 33.4536 962.76 34.0836 961.18 35.3436C958.03 31.9536 949.56 31.2836 950.9 25.6136C950.58 23.8436 949.25 23.1336 946.69 23.5236C946.45 23.6436 946.26 23.8036 946.02 23.9136C944.09 26.0436 942.91 24.5036 941.53 23.5236C939.32 21.9836 937.47 21.5136 936.8 24.3936C936.17 27.1536 932.58 28.2536 929.98 29.8636C928.29 30.9236 926.87 30.2536 925.25 29.4336C923.56 28.5236 922.73 26.3636 919.58 27.2636C919.5 27.3836 919.42 27.6136 919.3 27.6136C915.28 28.0436 922.69 31.6736 917.05 31.5936C914.45 31.5536 911.65 32.1436 909.29 30.4536C909.18 32.5036 907.48 34.0536 904.17 35.1036C902.48 34.1936 903.93 32.8236 903.07 31.7136C902.05 30.4136 901.97 28.8336 898.85 30.2936C896.64 31.3536 894.67 29.7836 892.63 28.6436C892.59 30.8536 895.35 31.5236 895.58 33.0936C894.79 33.6436 893.97 34.1936 893.18 34.7436C892.31 35.2936 891.41 35.6936 890.07 35.7636C881.36 36.0736 867.46 38.1236 861.98 37.1436C858.75 36.5936 863.68 33.4836 859.54 33.0836C857.93 33.6336 857.06 32.7336 855.96 32.2136V31.4236C857.57 29.4936 856.16 28.1936 853.91 27.3236C851.94 26.5336 850.44 27.7936 850.36 28.7036C850.16 30.3136 844.57 31.1036 848.98 33.3136C851.26 34.4536 851.07 36.5036 851.66 38.1236C852.09 39.2636 848.67 38.8736 847.21 39.8536C846.03 40.6436 843.74 39.9336 843.98 38.1236C841.81 39.5836 839.92 40.6836 837.6 38.0436C836.14 36.3936 833.98 34.9736 830.63 36.1936C829.61 36.5836 828.54 36.4736 828.46 35.5236C828.22 32.1336 823.1 31.3136 821.21 28.7536C820.26 27.5336 811.2 28.8736 809.75 30.6036C808.65 31.9036 807.74 32.3736 805.46 32.6936C803.17 33.0136 799.59 34.3436 802.27 36.9836C804.32 38.9936 800.77 39.8636 800.73 41.3936C798.37 42.0236 797.42 44.1936 793.24 42.7736C788.71 41.2336 779.49 41.3936 780.44 39.1936C780.79 38.4036 778.23 37.8936 777.29 38.8736C775.83 40.3736 773.51 40.8436 771.58 41.7536C770.79 38.4836 764.25 36.9136 759.92 38.8736C755.23 40.8436 749.32 40.6436 744.87 42.9336C744.87 42.8536 744.91 42.7736 744.91 42.6936C745.78 41.2336 745.86 39.8536 743.53 39.2236C741.2 38.5936 738.57 38.0836 736.79 40.0536C737.14 40.5236 736.55 39.8536 736.95 40.3336C736.83 40.3336 736.83 40.2536 736.71 40.2136C731.31 38.5636 726.15 39.2636 722.57 42.1436C719.38 44.7036 715.6 45.4936 711.54 45.2936C704.64 44.9736 698.7 46.9436 692.75 48.6036C690.11 49.3536 684.75 48.2536 681.09 47.5836C678.76 47.1936 677.82 50.2636 675.06 48.7236C673.48 47.6636 670.73 48.2136 669.54 46.6336C668.36 45.1336 666.7 43.8336 663.99 44.3536C661 44.9036 659.85 46.6736 659.54 48.6836C659.5 49.0036 659.5 49.3136 659.46 49.5936C655.36 48.2936 643.35 44.2336 639.84 40.4536C637.12 37.5036 636.22 38.6036 634.29 39.8236C633.07 40.6136 632.75 42.1836 630.35 41.6736C628.18 41.2036 628.42 40.0636 628.34 38.7236C628.22 36.3636 627.59 36.3636 622.59 38.7636C620.46 37.1136 620.66 35.0636 620.66 33.0536C618.38 33.0536 616.29 33.4436 614.79 34.7436C613.18 36.1636 610.97 36.2036 609.63 35.0636C606.44 32.3436 604.98 34.4336 604.71 36.0436C604.08 39.7036 600.65 40.3336 595.96 40.6936C596 38.0536 599.62 35.6136 596.31 32.3436C594.5 36.9936 588.16 38.2136 584.77 41.4036C583.9 42.2336 583.51 43.7236 581.5 43.4936C578.74 43.1736 581.38 41.2136 579.88 40.4236C578.11 40.8936 579.05 42.1936 578.23 42.9036C576.65 44.2036 574.13 43.8136 574.13 42.5836C574.13 36.9136 569.99 39.5936 566.57 40.5336C565.86 40.1036 565.11 39.9836 564.24 40.2536C560.73 41.9436 557.27 43.6836 554 45.5736C553.02 46.1636 552.39 46.5536 551.01 46.1636C546.83 45.0236 543.8 46.5136 541.08 48.4436C540.69 48.4436 540.33 48.4836 539.94 48.4436C538.92 48.2436 537.97 47.6536 536.83 48.0936C536.63 48.2136 536.51 48.3736 536.51 48.5636C533.2 50.6136 523.74 52.7336 518.03 54.9436C517.01 55.3336 516.02 54.9036 515 54.5136C515.43 54.3936 515.79 54.1636 516.02 53.8436C514.8 53.3736 513.54 52.9336 512.32 52.4636C509.25 52.8536 506.17 53.2936 503.1 53.6836C500.77 52.9336 498.69 51.2436 495.85 53.0136C494.55 54.0736 492.74 53.7636 491.08 53.8836C490.45 54.2736 489.82 54.6336 489.58 55.1436C486.78 54.8236 484.46 55.5336 482.33 56.7236C482.09 56.5236 481.82 56.3336 481.62 56.1336C481.5 55.9736 481.34 55.7836 481.15 55.6636C479.18 56.4136 477.25 56.4536 475.4 55.5036C474.81 57.1936 473.9 55.7036 473.11 55.6236C469.72 57.3536 465.86 55.0736 462.43 56.2136C459.67 55.4636 457.27 53.6136 453.88 54.8736C452.7 55.3436 451.99 55.9336 451.95 56.6436C447.89 56.0536 444.03 56.6436 439.97 57.0736C432.29 57.9036 424.45 57.5836 416.76 56.5236C417.27 56.2436 417.71 55.8936 417.86 55.3836C418.06 54.7136 417.86 54.0836 417.47 53.4936C415.5 51.6436 412.9 51.4436 410.06 52.3136C404.98 53.8936 399.97 53.5736 395.48 51.5236C393.19 50.5036 390.83 50.1036 388.39 49.7136C387.84 49.6736 387.25 49.7136 386.7 49.7936C385.01 50.2236 383.51 51.0536 381.58 51.0136C380.32 51.0136 379.06 51.0136 378.04 51.4436C377.76 51.3636 377.53 51.2836 377.25 51.2436C372.72 50.3336 368.38 49.9836 363.97 47.8136C360.31 46.0036 353.45 45.5336 347.23 46.7136C347.78 45.1336 349.91 43.7236 348.25 42.1436C347.9 41.8336 347.46 41.5936 346.95 41.4336H344.66C339.81 41.8636 336.23 39.4636 331.89 38.6736C329.72 38.5936 327.56 38.5536 325.39 38.4736C324.96 38.5936 324.52 38.7136 324.09 39.0236C324.09 39.8536 324.96 40.6736 324.09 41.5036C320.66 44.2636 324.92 47.0536 324.09 49.8136C323.89 49.7336 323.66 49.6936 323.62 49.6136C322.52 47.8436 323.46 45.0836 319.44 44.7336C316.72 44.4936 312.43 47.7636 311.21 50.4436C310.85 49.9336 310.38 49.4936 309.79 49.2236C306.76 47.7636 305.61 45.8336 305.77 43.3936C303.17 42.3336 300.57 42.6036 298.05 43.5536C294.35 44.8536 290.6 43.5536 286.86 43.7136C283.87 43.4336 281.7 42.0236 279.18 41.0736C279.85 40.5636 280.12 39.9336 278.67 39.9336C274.1 39.8536 270.44 37.8436 266.1 37.5736C260.43 37.1836 257.9 39.5036 259.76 43.2036C258.5 44.9736 255.5 41.7036 254.44 44.0736C253.77 44.5436 253.45 45.4936 252.04 44.9036C251.65 44.6236 251.25 44.3536 250.82 44.0736C247.91 43.0936 245.82 43.4436 244.83 45.7636C243.21 47.9736 240.5 48.4836 237.34 48.0036C233.95 47.4936 231 47.6136 229.22 49.9736C228.47 50.9536 227.45 50.8836 226.23 50.7636C223.51 50.5236 225.24 49.4236 225.36 48.6736C225.48 47.7236 224.97 46.7036 223.67 46.8236C218.12 47.3336 213.19 44.2236 207.4 45.7636C204.88 46.4336 202.2 45.4836 200.35 43.9136C196.57 40.6436 194.84 41.0036 191.17 44.4236C189.75 45.7636 186.28 45.7636 183.61 44.8936C181.99 45.4436 180.42 45.9936 178.8 46.5836C179.23 48.0436 181.99 47.4136 182.7 48.6736C182.07 49.6236 181.05 49.8136 179.98 49.8536C179.66 49.5036 179.35 49.1436 178.92 48.7936C178.45 48.3636 178.29 47.8136 177.9 47.3336C176.88 46.1536 177.23 43.7536 174.43 44.1436C172.46 44.4236 172.22 45.3636 172.38 46.3836C171.67 46.0636 170.88 45.9136 170.17 45.6336C163.43 43.1936 156.62 43.7036 151.85 47.2436C148.86 49.4836 147.24 47.6736 145.74 46.3736C140.5 41.8036 138.77 41.8036 133.49 46.5736C132.15 47.7936 129.63 48.1136 128.84 49.6836C128.29 48.6236 127.38 47.6336 126.04 47.0036C121.59 44.8336 117.89 42.1636 114.65 39.1636C111.77 36.4836 107.72 36.9236 103.7 37.3936C100.04 37.8236 96.81 38.4936 94.13 35.2636C92.36 33.0936 87.98 32.1536 84.24 34.4736C81.64 37.3136 78.49 39.0036 73.41 37.2736C70.73 36.3636 68.68 36.9536 67.85 38.9636C66.08 43.4136 60.17 44.5136 55.32 46.4436C54.02 46.9536 52.21 46.9536 50.91 47.6236C49.57 48.2936 48.43 49.1636 48.98 50.4236C49.45 51.4836 50.91 51.6436 52.37 51.6836C55.13 51.7636 57.89 52.0336 61 52.0036C53.36 52.3236 45.79 52.6736 42.8 58.5036C41.62 56.2636 39.61 54.2936 38.07 52.2036C35.98 49.3636 31.77 48.5836 27.35 48.6936C23.76 48.7736 20.97 48.6936 19.9 45.4636C18.88 42.3536 15.37 42.4736 11.94 44.0836C11.35 43.8836 10.8 43.6936 10.21 43.4936C10.33 43.3336 10.45 43.1736 10.49 42.9436C8.47 39.2936 5.59 38.2736 0 39.1436V213.994H2559.84L2560 213.724V213.714Z" fill="#282A2E"/>
</svg>
