<svg width="2560" height="214" viewBox="0 0 2560 214" fill="none" xmlns="http://www.w3.org/2000/svg">
<path d="M0 214L2560 214L2560 0L1.87085e-05 -0.000223802L0 214Z" fill="#FFF6E9"/>
<path d="M1.8684e-05 0.279774L3.11178e-06 178.405C0.390003 182.305 0.710051 186.245 0.550051 190.145C0.910051 190.975 1.2999 191.796 1.6499 192.626C4.9199 196.016 10.24 194.716 14.7 195.146C16.7 195.346 18.5999 195.226 19.9399 196.486C22.5699 197.786 26.28 197.706 28.25 199.796C28.68 200.036 29.19 200.226 29.74 200.346C32.74 200.506 35.34 201.526 37.78 202.556C40.26 203.616 42.4701 203.616 44.8301 202.556C45.5401 202.126 45.9399 201.576 46.1299 200.976C49.2899 203.496 55.55 204.206 61.78 202.356C63.94 201.726 65.9901 200.856 68.1201 200.146C68.3901 199.946 68.5501 199.676 68.8301 199.436C70.4401 199.676 71.4699 200.346 71.3899 201.716L72.6101 201.716C76.5101 200.456 80.69 199.906 84.98 199.626C94.28 200.456 103.1 198.646 112.05 197.416C117.4 196.706 122.57 197.376 127.65 198.596C129.66 198.086 130.17 196.076 132.73 196.076C133.24 195.956 133.71 195.756 134.19 195.566C135.21 194.856 136.63 194.306 137.18 193.356C138.25 194.266 139.19 195.246 140.88 195.676C141.71 195.796 142.54 195.756 143.29 195.476C143.88 195.156 144.19 194.766 144.55 194.376C144.55 194.616 144.47 194.846 144.39 195.046C148.65 196.226 153.22 195.796 157.59 196.306C159.17 196.466 161.57 196.226 162 197.136C163.93 201.116 168.7 199.306 172.25 200.126C176.82 201.186 179.65 200.446 183.71 199.106C188.24 197.606 192.89 195.756 198.01 195.246C201.12 194.926 203.45 193.986 205.54 192.526C205.81 193.356 205.18 194.416 206.01 195.476C207.35 193.226 208.69 192.406 211.88 194.176C215.07 195.946 218.69 194.296 221.81 193.156C225.39 191.816 227.4 193.866 229.69 194.846C231.81 195.756 229.49 196.656 228.74 197.486C230.24 198.276 231.77 198.466 233.27 197.606C235.44 199.576 238.59 200.516 241.82 201.426C245.09 202.336 248.72 202.446 250.65 205.406C251.87 207.296 256.56 207.726 258.17 205.606C260.65 202.336 264.04 201.546 268.77 202.176C266.76 204.266 269.16 205.446 271.61 206.626C273.14 207.256 275.27 206.626 276.61 207.726C279.09 209.696 281.85 209.186 283.82 207.566C286.06 205.716 287.84 206.066 290.4 207.176C292.92 208.276 295.56 209.386 298.63 209.536C301.7 209.696 304.46 209.296 306.39 206.936C305.37 209.336 305.41 211.346 307.69 213.036C308.4 213.546 309.9 214.176 310.21 213.866C313.96 210.246 318.84 216.106 322.55 213.116C322.82 212.916 323.14 212.726 323.29 212.486C325.3 209.576 327.16 208.466 330.46 212.016C332.36 214.066 336.1 214.146 338.31 212.336C342.68 208.716 349.34 206.826 352.72 202.406C355.99 205.126 361 205.166 364.94 206.736C366.87 207.526 369.55 206.856 371.04 205.756C377.9 200.636 386.25 201.146 394.72 202.686C398.43 203.356 401.77 204.896 404.73 201.736C405.83 200.556 407.17 201.816 408.35 202.166C414.22 203.856 422.06 202.956 425.65 200.236C426.52 199.566 427.03 198.856 427.22 198.026C427.3 198.026 427.38 198.026 427.46 197.986C427.66 197.946 427.78 197.866 427.97 197.826C428.88 198.456 430.14 198.576 431.76 198.296C433.25 198.016 434.55 198.176 434.47 199.596C433.92 201.176 433.37 202.706 435.97 203.696C438.81 203.696 440.27 201.726 442.87 201.336C445.54 200.466 447.55 198.896 450.04 197.796C455.39 204.376 459.57 204.846 468.75 199.966C469.85 197.916 470.25 195.596 473.44 194.416C474.5 193.866 475.45 193.196 476.27 192.446C477.02 191.776 477.69 191.066 478.84 190.756C479.82 191.266 479.7 192.256 480.73 192.726C484.04 193.396 486.16 192.136 487.31 190.286C488.05 189.145 489.31 188.515 490.42 187.725C495.58 188.635 500.74 189.775 505.98 188.045C507.56 187.535 509.01 187.765 510.59 188.125C513.98 188.835 517.33 188.365 520.6 187.695C521.54 187.495 522.33 186.785 523.28 186.825C525.56 186.905 528.4 189.545 529.93 187.175C531.98 183.985 536.71 181.585 536.16 176.775C538.01 179.375 537.93 181.655 539.66 183.475C539.78 183.635 539.98 183.715 540.14 183.865C537.69 185.325 535.73 186.465 536.87 188.665C537.22 189.375 538.36 189.885 539.23 189.495C541.99 188.235 541.08 186.305 541.16 184.375C543.33 184.655 545.26 184.765 546.99 184.655C544.75 185.635 544.08 187.925 543.09 189.615C542.46 190.716 544.55 191.666 547.15 191.706C547.35 189.495 552.86 190.686 552.31 188.195C552.04 186.975 551.76 184.765 549.75 184.335C554.01 183.465 556.72 181.065 558.26 176.815C560.39 178.825 561.45 181.655 565.75 181.305C569.37 180.985 571.93 179.455 573.43 177.165C573.55 176.925 573.43 176.735 573.51 176.495C576.11 175.825 578.98 175.705 580.83 173.975C582.65 175.665 581.5 176.735 580.2 177.555C575.99 180.155 579.3 181.885 582.14 182.325C586.04 182.915 588.99 184.375 592.26 185.635C595.37 186.815 598.68 187.995 602.42 186.585C604 185.995 606.72 186.785 606.25 187.095C603.33 189.025 604.08 192.416 600.18 193.906C599.55 194.146 599.04 194.416 598.48 194.696C600.65 194.816 602.74 194.856 604.95 195.016C606.96 195.176 608.93 195.446 610.9 195.686C611.88 194.816 612.16 193.756 610.11 192.416C609.75 192.176 610.19 191.436 610.26 190.876C616.21 191.266 616.53 186.305 621.14 185.245C622.6 187.685 620.27 188.945 618.42 190.366C617.55 191.036 615.66 192.376 616.69 192.606C620.47 193.476 620.74 195.046 620.55 196.706C623.7 197.096 626.85 197.496 630.04 197.926C630.79 197.806 631.62 197.766 632.48 197.806C634.53 197.886 636.27 197.456 637.72 196.666C639.06 199.696 643.24 199.266 646.47 199.976C647.81 200.136 649.15 200.256 650.45 200.366C650.8 200.246 651.24 200.246 651.51 199.976C655.61 196.076 661.05 195.606 667.27 196.866C669.48 197.296 671.65 197.256 672.87 195.566C670.03 189.936 677.2 187.415 680.79 183.635C681.18 184.505 680.83 185.485 681.77 186.155C684.8 187.615 687.8 186.075 689.41 185.135C693.08 182.925 697.18 180.885 699.89 178.045C699.74 179.385 700.88 180.445 703.79 181.275C708.05 182.455 710.69 182.145 712.82 178.915C716.13 173.875 746.07 176.315 743.39 171.195C742.99 170.485 742.76 169.895 743.51 169.305C744.49 168.555 745.67 168.715 746.74 169.185C749.89 170.525 752.65 169.895 755.29 168.675C755.68 170.215 757.73 170.325 759.74 170.015C765.96 169.035 772.07 167.805 778.53 169.265C780.38 169.655 782 168.875 783.22 167.845C787 164.695 791.1 162.055 797.52 161.665C800.83 161.465 801.81 158.475 804.93 157.685C807.96 163.635 811.07 164.185 818.13 160.085C820.76 158.585 823.37 157.365 826.36 159.765C827.74 160.825 829.63 160.595 830.46 159.565C832.62 156.845 835.74 157.795 838.77 158.225C839.36 158.185 839.87 158.025 840.35 157.835C846.85 155.154 849.56 150.154 854.45 146.534C856.06 151.264 862.8 152.044 866.86 154.724C867.77 154.724 868.51 154.404 869.07 153.894C872.53 150.504 878.68 149.364 882.54 146.294C883.05 145.864 884.59 145.944 885.42 146.214C892.55 148.494 899.87 147.004 907.12 146.844C911.02 146.764 914.37 147.824 918 148.384C923.71 147.244 929.11 148.584 934.39 149.764C939.11 150.824 946.56 150.824 949.04 149.254C954.99 145.434 962.87 145.984 969.61 144.134C970.16 143.974 970.87 143.974 971.34 144.254C977.25 147.604 983.79 148.274 990.96 146.614C991.43 146.494 992.1 146.734 992.73 146.734C993.13 146.734 993.48 146.574 993.84 146.494L993.76 146.494C992.34 148.304 990.45 150.074 994.7 151.024C997.34 151.614 997.23 153.344 998.53 154.454C1000.46 156.065 1002.15 158.035 1005.26 155.365C1005.42 155.245 1005.58 155.205 1005.7 155.445C1007.11 158.045 1010.34 156.825 1012.87 157.095C1013.42 157.095 1013.97 157.095 1014.52 157.015C1016.88 156.625 1017.59 155.085 1018.85 153.904C1020.71 154.814 1020.94 157.095 1024.09 156.705C1025.43 156.385 1026.62 155.875 1027.84 155.365C1028.94 155.285 1030.04 155.205 1031.19 155.085C1032.41 153.354 1035.64 154.214 1037.17 152.914C1037.92 152.484 1038.79 152.124 1039.42 151.654C1039.93 151.414 1040.52 151.304 1041.19 151.414C1042.97 151.804 1044.5 152.714 1046.51 152.364C1047.1 152.204 1047.61 151.934 1047.97 151.574C1048.72 150.594 1048.6 149.804 1048.13 149.054C1049.58 149.684 1051.24 149.724 1052.89 149.764C1055.22 149.724 1057.27 148.784 1059.75 150.514C1061.48 151.734 1065.19 151.854 1068.22 151.734C1069.56 151.654 1071.61 151.574 1072 152.444C1074.09 156.935 1079.37 155.355 1083.35 155.125C1088.31 154.804 1093.79 155.635 1098.08 152.914C1099.3 149.764 1101.08 147.284 1106.91 147.754C1109.35 147.954 1110.37 146.844 1111.08 145.584C1111.52 145.824 1111.91 146.134 1112.46 146.254C1114.24 146.494 1115.93 147.234 1117.86 146.804C1118.73 146.604 1119.51 146.294 1120.18 145.894C1120.89 145.464 1121.45 144.984 1121.96 144.474C1124.08 144.084 1126.02 143.494 1125.35 140.814C1124.95 139.204 1128.26 138.724 1130.07 138.174C1132 137.544 1138.19 141.054 1142.05 140.344C1143.59 140.064 1144.65 140.624 1145.87 141.134C1151.98 143.614 1157.61 141.884 1160.05 142.744L1162.46 142.744C1168.76 142.824 1174.99 143.574 1181.05 144.794C1182.04 144.284 1183.02 143.814 1184.24 143.454C1186.14 143.174 1187.99 142.864 1189.45 141.874C1190.11 141.244 1190.15 141.044 1193.27 141.284C1197.17 141.564 1196.81 140.774 1196.46 139.004C1196.22 137.824 1197.21 137.194 1198.78 136.994C1200.28 136.794 1201.74 137.074 1202.33 138.054C1203.47 139.944 1204.46 141.914 1205.2 143.924C1206.31 146.804 1213.75 147.034 1213.91 150.894C1213.95 152.114 1214.38 153.174 1216.39 153.214C1218.32 153.214 1220.25 153.134 1220.96 151.324C1221.75 149.234 1221.71 146.994 1223.48 145.144C1224.86 144.984 1225.65 144.434 1225.89 143.494C1228.45 142.864 1230.3 141.604 1231.88 140.144C1233.89 139.514 1235.89 138.844 1237.9 140.144C1239.05 142.194 1232.94 140.384 1234.48 143.884C1236.49 148.494 1240.43 146.484 1243.89 146.794C1244.6 147.424 1245.23 148.374 1246.61 147.774C1247.91 147.184 1247.36 146.044 1247.52 145.134C1249.68 147.814 1253.58 148.324 1257.29 149.114L1257.29 149.354C1257.29 149.354 1257.6 149.474 1257.76 149.474C1257.96 149.474 1258.11 149.394 1258.31 149.314C1261.74 152.854 1262.17 152.824 1265.05 148.994C1270.6 151.634 1277.5 151.834 1278.13 153.284C1280.22 152.334 1284.67 153.594 1284.94 153.634C1288.77 154.224 1289.63 155.175 1287.19 156.475C1280.33 160.095 1286.56 160.495 1289.55 161.795C1289.83 161.755 1290.11 161.715 1290.38 161.675C1295.07 159.905 1292.67 156.275 1294.4 153.604C1297.08 154.985 1295.23 156.245 1294.87 157.465C1293.69 161.525 1296.13 163.255 1301.81 161.875C1304.84 161.125 1306.38 163.455 1309.02 162.825C1311.85 162.435 1313.35 161.245 1313.59 159.285C1314.97 158.495 1313.47 156.335 1315.75 156.335C1318.79 156.335 1317.57 158.225 1317.76 159.485C1317.92 160.435 1318.39 161.455 1320.24 161.375C1321.23 161.335 1322.65 160.905 1322.37 160.235C1320.6 155.785 1326.35 157.205 1328.01 156.215C1331.47 156.455 1325.76 160.355 1331.71 159.325L1332.85 159.325C1335.06 160.305 1334.31 162.515 1336.4 163.535C1336.4 163.775 1336.48 164.005 1336.52 164.285C1338.33 164.635 1339.94 164.005 1341.52 163.655C1343.8 163.145 1344.2 164.165 1344.87 165.155C1345.81 165.985 1347.55 165.945 1348.45 166.805C1356.73 167.355 1364.88 166.645 1373.08 165.705C1373.15 165.665 1373.27 165.625 1373.35 165.585C1377.41 167.905 1380.92 170.985 1387.34 170.035C1389.47 169.715 1389.19 171.055 1389.39 171.925C1397.19 173.305 1404.04 170.505 1411.17 169.325C1413.46 168.935 1415.63 168.305 1418.03 168.415C1419.25 167.235 1422.48 169.085 1423.03 166.875C1425.71 165.265 1431.34 165.895 1430.87 162.035C1430.64 165.695 1431.19 166.015 1435.99 165.465C1437.96 165.225 1439.93 163.965 1442.02 165.265C1443.6 161.955 1445.76 159.005 1451.16 157.505C1451.67 159.435 1448.68 159.785 1448.09 161.085C1447.69 161.995 1446.47 163.015 1447.97 163.685C1449.74 164.475 1450.22 163.215 1450.89 162.385C1451.48 161.675 1452.15 160.655 1453.41 161.085C1454.08 161.325 1454.04 162.545 1454.31 163.295C1458.73 161.715 1456.64 159.045 1456.6 156.715C1460.85 158.255 1463.69 155.375 1467.35 154.985C1469.05 154.785 1470.35 153.054 1472.08 155.265C1473.11 156.565 1474.52 155.425 1475.86 154.715C1478.35 153.334 1481.26 152.824 1484.22 154.245L1484.22 155.895C1486.82 154.985 1487.84 155.735 1487.8 157.545C1489.22 157.935 1490.13 157.385 1490.72 156.635C1493.32 153.204 1499.23 152.694 1502.06 154.155C1504.03 155.175 1506.04 154.195 1507.93 153.324C1507.82 154.705 1508.21 155.965 1510.61 156.755L1513.02 156.755C1515.69 156.755 1512.5 154.115 1516.48 153.644C1520.78 153.134 1524.36 149.944 1520.82 156.005C1519.75 157.855 1522.27 159.275 1525.58 158.885C1526.84 158.725 1527.79 157.825 1529.44 158.335C1534.53 159.945 1534.92 159.795 1538.11 156.485C1540.08 158.455 1538.74 161.685 1543.04 162.585C1547.88 162.265 1550.01 159.435 1552.77 157.185C1554.9 158.685 1551.62 158.875 1552.37 159.985C1558.32 161.325 1561.28 157.855 1565.14 155.655C1567.74 157.545 1563.6 159.795 1566.32 161.485C1568.41 161.565 1569.12 158.885 1571.84 160.025C1574.24 161.835 1576.8 163.495 1572.31 165.815C1569.87 167.075 1571.95 169.985 1576.49 171.255C1570.34 172.275 1569.79 174.135 1574.24 176.695C1575.03 176.415 1575.82 176.145 1576.64 175.865C1579.67 177.045 1580.66 180.155 1585.07 180.035L1586.25 180.035C1586.96 180.905 1587.16 182.005 1588.69 182.515C1590.46 185.865 1594.48 183.975 1594.68 182.795C1595.04 180.545 1597.24 179.915 1598.82 178.655C1601.97 182.045 1610.44 182.715 1609.1 188.386C1609.42 190.156 1610.75 190.866 1613.31 190.476C1613.55 190.356 1613.74 190.196 1613.98 190.086C1615.91 187.956 1617.09 189.496 1618.47 190.476C1620.68 192.016 1622.53 192.486 1623.2 189.606C1623.83 186.846 1627.42 185.745 1630.02 184.135C1631.71 183.075 1633.13 183.745 1634.75 184.565C1636.44 185.475 1637.27 187.636 1640.42 186.736C1640.5 186.615 1640.58 186.385 1640.7 186.385C1644.72 185.955 1637.31 182.325 1642.95 182.405C1645.55 182.445 1648.35 181.855 1650.71 183.545C1650.82 181.495 1652.52 179.945 1655.83 178.895C1657.52 179.805 1656.07 181.175 1656.93 182.285C1657.95 183.585 1658.03 185.165 1661.15 183.705C1663.36 182.645 1665.33 184.215 1667.37 185.355C1667.41 183.145 1664.65 182.475 1664.42 180.905C1665.21 180.355 1666.03 179.805 1666.82 179.255C1667.69 178.705 1668.59 178.305 1669.93 178.235C1678.64 177.925 1692.54 175.875 1698.02 176.855C1701.25 177.405 1696.32 180.515 1700.46 180.915C1702.07 180.365 1702.94 181.265 1704.04 181.785L1704.04 182.575C1702.43 184.505 1703.84 185.805 1706.09 186.676C1708.06 187.466 1709.56 186.205 1709.64 185.295C1709.84 183.685 1715.43 182.895 1711.02 180.685C1708.74 179.545 1708.93 177.495 1708.34 175.875C1707.91 174.735 1711.33 175.125 1712.79 174.145C1713.97 173.355 1716.26 174.065 1716.02 175.875C1718.19 174.415 1720.08 173.315 1722.4 175.955C1723.86 177.605 1726.02 179.025 1729.37 177.805C1730.39 177.415 1731.46 177.525 1731.54 178.475C1731.78 181.865 1736.9 182.685 1738.79 185.245C1739.74 186.466 1748.8 185.125 1750.25 183.395C1751.35 182.095 1752.26 181.625 1754.54 181.305C1756.83 180.985 1760.41 179.655 1757.73 177.015C1755.68 175.005 1759.23 174.135 1759.27 172.605C1761.63 171.975 1762.58 169.805 1766.76 171.225C1771.29 172.765 1780.51 172.605 1779.56 174.805C1779.21 175.595 1781.77 176.105 1782.71 175.125C1784.17 173.625 1786.49 173.155 1788.42 172.245C1789.21 175.515 1795.75 177.085 1800.08 175.125C1804.77 173.155 1810.68 173.355 1815.13 171.065C1815.13 171.145 1815.09 171.225 1815.09 171.305C1814.22 172.765 1814.14 174.145 1816.47 174.775C1818.8 175.405 1821.43 175.915 1823.21 173.945C1822.86 173.475 1823.45 174.145 1823.05 173.665C1823.17 173.665 1823.17 173.745 1823.29 173.785C1828.69 175.435 1833.85 174.735 1837.43 171.855C1840.62 169.295 1844.4 168.505 1848.46 168.705C1855.36 169.025 1861.3 167.055 1867.25 165.395C1869.89 164.645 1875.25 165.745 1878.91 166.415C1881.24 166.805 1882.18 163.735 1884.94 165.275C1886.52 166.335 1889.27 165.785 1890.46 167.365C1891.64 168.865 1893.3 170.165 1896.01 169.645C1899 169.095 1900.15 167.325 1900.46 165.315C1900.5 164.995 1900.5 164.685 1900.54 164.405C1904.64 165.705 1916.65 169.765 1920.16 173.545C1922.88 176.495 1923.78 175.395 1925.71 174.175C1926.93 173.385 1927.25 171.815 1929.65 172.325C1931.82 172.795 1931.58 173.935 1931.66 175.275C1931.78 177.635 1932.41 177.635 1937.41 175.235C1939.54 176.885 1939.34 178.935 1939.34 180.945C1941.62 180.945 1943.71 180.555 1945.21 179.255C1946.82 177.835 1949.03 177.795 1950.37 178.935C1953.56 181.655 1955.02 179.565 1955.29 177.955C1955.92 174.295 1959.35 173.665 1964.04 173.305C1964 175.945 1960.38 178.385 1963.69 181.655C1965.5 177.005 1971.84 175.785 1975.23 172.595C1976.1 171.765 1976.49 170.275 1978.5 170.505C1981.26 170.825 1978.62 172.785 1980.12 173.575C1981.89 173.105 1980.95 171.805 1981.77 171.095C1983.35 169.795 1985.87 170.185 1985.87 171.415C1985.87 177.085 1990.01 174.405 1993.43 173.465C1994.14 173.895 1994.89 174.015 1995.76 173.745C1999.27 172.055 2002.73 170.315 2006 168.425C2006.98 167.835 2007.61 167.445 2008.99 167.835C2013.17 168.975 2016.2 167.485 2018.92 165.555C2019.31 165.555 2019.67 165.515 2020.06 165.555C2021.08 165.755 2022.03 166.345 2023.17 165.905C2023.37 165.785 2023.49 165.625 2023.49 165.435C2026.8 163.385 2036.26 161.265 2041.97 159.055C2042.99 158.665 2043.98 159.095 2045 159.485C2044.57 159.605 2044.21 159.835 2043.98 160.155C2045.2 160.625 2046.46 161.065 2047.68 161.535C2050.75 161.145 2053.83 160.705 2056.9 160.315C2059.23 161.065 2061.31 162.755 2064.15 160.985C2065.45 159.925 2067.26 160.235 2068.92 160.115C2069.55 159.725 2070.18 159.365 2070.42 158.855C2073.22 159.175 2075.54 158.465 2077.67 157.275C2077.91 157.475 2078.18 157.665 2078.38 157.865C2078.5 158.025 2078.66 158.215 2078.85 158.335C2080.82 157.585 2082.75 157.545 2084.6 158.495C2085.19 156.805 2086.1 158.295 2086.89 158.375C2090.28 156.645 2094.14 158.925 2097.57 157.785C2100.33 158.535 2102.73 160.385 2106.12 159.125C2107.3 158.655 2108.01 158.065 2108.05 157.355C2112.11 157.945 2115.97 157.355 2120.03 156.925C2127.71 156.095 2135.55 156.415 2143.24 157.475C2142.73 157.755 2142.29 158.105 2142.14 158.615C2141.94 159.285 2142.14 159.915 2142.53 160.505C2144.5 162.355 2147.1 162.555 2149.94 161.685C2155.02 160.105 2160.03 160.425 2164.52 162.475C2166.81 163.495 2169.17 163.895 2171.61 164.285C2172.16 164.325 2172.75 164.285 2173.3 164.205C2174.99 163.775 2176.49 162.945 2178.42 162.985C2179.68 162.985 2180.94 162.985 2181.96 162.555C2182.24 162.635 2182.47 162.715 2182.75 162.755C2187.28 163.665 2191.62 164.015 2196.03 166.185C2199.69 167.995 2206.55 168.465 2212.77 167.285C2212.22 168.865 2210.09 170.275 2211.75 171.855C2212.1 172.165 2212.54 172.405 2213.05 172.565L2215.34 172.565C2220.19 172.135 2223.77 174.535 2228.11 175.325C2230.28 175.405 2232.44 175.445 2234.61 175.525C2235.04 175.405 2235.48 175.285 2235.91 174.975C2235.91 174.145 2235.04 173.325 2235.91 172.495C2239.34 169.735 2235.08 166.945 2235.91 164.185C2236.11 164.265 2236.34 164.305 2236.38 164.385C2237.48 166.155 2236.54 168.915 2240.56 169.265C2243.28 169.505 2247.57 166.235 2248.79 163.555C2249.15 164.065 2249.62 164.505 2250.21 164.775C2253.24 166.235 2254.39 168.165 2254.23 170.605C2256.83 171.665 2259.43 171.395 2261.95 170.445C2265.65 169.145 2269.4 170.445 2273.14 170.285C2276.13 170.565 2278.3 171.975 2280.82 172.925C2280.15 173.435 2279.88 174.065 2281.33 174.065C2285.9 174.145 2289.56 176.155 2293.9 176.425C2299.57 176.815 2302.1 174.495 2300.24 170.795C2301.5 169.025 2304.5 172.295 2305.56 169.925C2306.23 169.455 2306.55 168.505 2307.96 169.095C2308.35 169.375 2308.75 169.645 2309.18 169.925C2312.09 170.905 2314.18 170.555 2315.17 168.235C2316.79 166.025 2319.5 165.515 2322.66 165.995C2326.05 166.505 2329 166.385 2330.78 164.025C2331.53 163.045 2332.55 163.115 2333.77 163.235C2336.49 163.475 2334.76 164.575 2334.64 165.325C2334.52 166.275 2335.03 167.295 2336.33 167.175C2341.88 166.665 2346.81 169.775 2352.6 168.235C2355.12 167.565 2357.8 168.515 2359.65 170.085C2363.43 173.355 2365.16 172.995 2368.83 169.575C2370.25 168.235 2373.72 168.235 2376.39 169.105C2378.01 168.555 2379.58 168.005 2381.2 167.415C2380.77 165.955 2378.01 166.585 2377.3 165.325C2377.93 164.375 2378.95 164.185 2380.02 164.145C2380.34 164.495 2380.65 164.855 2381.08 165.205C2381.55 165.635 2381.71 166.185 2382.1 166.665C2383.12 167.845 2382.77 170.245 2385.57 169.855C2387.54 169.575 2387.78 168.635 2387.62 167.615C2388.33 167.935 2389.12 168.085 2389.83 168.365C2396.57 170.805 2403.38 170.295 2408.15 166.755C2411.14 164.515 2412.76 166.325 2414.26 167.625C2419.5 172.195 2421.23 172.195 2426.51 167.425C2427.85 166.205 2430.37 165.885 2431.16 164.315C2431.71 165.375 2432.62 166.365 2433.96 166.995C2438.41 169.165 2442.11 171.835 2445.35 174.835C2448.23 177.515 2452.28 177.075 2456.3 176.605C2459.96 176.175 2463.19 175.505 2465.87 178.735C2467.64 180.905 2472.02 181.845 2475.76 179.525C2478.36 176.685 2481.51 174.995 2486.59 176.725C2489.27 177.635 2491.32 177.045 2492.15 175.035C2493.92 170.585 2499.83 169.485 2504.68 167.555C2505.98 167.045 2507.79 167.045 2509.09 166.375C2510.43 165.705 2511.57 164.835 2511.02 163.575C2510.55 162.515 2509.09 162.355 2507.63 162.315C2504.87 162.235 2502.11 161.965 2499 161.995C2506.64 161.675 2514.21 161.325 2517.2 155.495C2518.38 157.735 2520.39 159.705 2521.93 161.795C2524.02 164.635 2528.23 165.415 2532.65 165.305C2536.24 165.225 2539.03 165.305 2540.1 168.535C2541.12 171.645 2544.63 171.525 2548.06 169.915C2548.65 170.115 2549.2 170.305 2549.79 170.505C2549.67 170.665 2549.55 170.825 2549.51 171.055C2551.53 174.705 2554.41 175.725 2560 174.855L2560 -9.58386e-06L0.159931 -0.000233372L1.86849e-05 0.269779L1.8684e-05 0.279774Z" fill="#282A2E"/>
</svg>
