<svg width="2560" height="214" viewBox="0 0 2560 214" fill="none" xmlns="http://www.w3.org/2000/svg">
<path d="M1.38183e-05 0.275919L2.93884e-05 178.378C0.394003 182.277 0.70924 186.216 0.551651 190.115C0.906227 190.942 1.30008 191.769 1.65465 192.596C4.92463 195.983 10.2433 194.683 14.6952 195.117C16.7044 195.314 18.5956 195.195 19.9351 196.456C22.5747 197.755 26.278 197.677 28.2479 199.764C28.6812 200 29.1934 200.197 29.745 200.316C32.7392 200.473 35.3396 201.497 37.7822 202.521C40.2642 203.585 42.4704 203.585 44.8342 202.521C45.5434 202.088 45.9374 201.537 46.1344 200.946C49.2862 203.466 55.5503 204.175 61.775 202.324C63.9419 201.694 65.9905 200.828 68.118 200.119C68.3937 199.922 68.5513 199.646 68.8271 199.41C70.4424 199.646 71.4668 200.316 71.388 201.694C71.782 201.694 72.1759 201.694 72.6093 201.694C76.5096 200.434 80.6858 199.882 84.9801 199.607C94.2779 200.434 103.103 198.622 112.046 197.401C117.404 196.692 122.565 197.362 127.648 198.583C129.657 198.071 130.169 196.062 132.73 196.062C133.242 195.944 133.715 195.747 134.187 195.55C135.212 194.841 136.63 194.29 137.182 193.344C138.245 194.25 139.191 195.235 140.885 195.668C141.712 195.786 142.54 195.747 143.288 195.471C143.879 195.156 144.194 194.762 144.549 194.368C144.549 194.605 144.47 194.841 144.391 195.038C148.646 196.219 153.216 195.786 157.589 196.298C159.165 196.456 161.569 196.219 162.002 197.125C163.932 201.103 168.699 199.292 172.245 200.119C176.815 201.182 179.652 200.434 183.71 199.095C188.241 197.598 192.889 195.747 198.011 195.235C201.124 194.92 203.448 193.974 205.536 192.517C205.812 193.344 205.181 194.408 206.009 195.471C207.348 193.226 208.688 192.399 211.879 194.171C215.07 195.944 218.695 194.29 221.807 193.147C225.392 191.808 227.401 193.856 229.687 194.841C231.814 195.747 229.49 196.653 228.741 197.48C230.238 198.267 231.775 198.464 233.272 197.598C235.439 199.567 238.59 200.512 241.821 201.418C245.091 202.324 248.715 202.442 250.646 205.396C251.867 207.287 256.556 207.72 258.171 205.593C260.653 202.324 264.041 201.536 268.769 202.167C266.759 204.254 269.163 205.436 271.605 206.617C273.142 207.247 275.269 206.617 276.609 207.72C279.091 209.689 281.849 209.177 283.818 207.562C286.064 205.711 287.837 206.066 290.398 207.169C292.919 208.271 295.559 209.374 298.632 209.532C301.705 209.689 304.463 209.295 306.393 206.932C305.369 209.335 305.408 211.344 307.693 213.037C308.402 213.549 309.9 214.179 310.215 213.864C313.957 210.241 318.843 216.109 322.546 213.116C322.822 212.919 323.137 212.722 323.295 212.486C325.304 209.571 327.156 208.468 330.465 212.013C332.356 214.061 336.099 214.14 338.305 212.328C342.678 208.705 349.336 206.814 352.725 202.403C355.995 205.121 360.998 205.16 364.938 206.735C366.868 207.523 369.547 206.854 371.044 205.751C377.899 200.631 386.252 201.143 394.722 202.679C398.425 203.348 401.774 204.884 404.729 201.733C405.832 200.552 407.172 201.812 408.354 202.167C414.224 203.86 422.064 202.954 425.649 200.237C426.516 199.567 427.028 198.858 427.225 198.031C427.304 198.031 427.382 198.031 427.461 197.992C427.658 197.952 427.776 197.874 427.973 197.834C428.88 198.464 430.14 198.583 431.756 198.307C433.253 198.031 434.553 198.189 434.474 199.607C433.923 201.182 433.371 202.718 435.971 203.703C438.808 203.703 440.265 201.733 442.865 201.34C445.544 200.473 447.554 198.898 450.036 197.795C455.394 204.372 459.57 204.845 468.75 199.961C469.853 197.913 470.247 195.589 473.438 194.408C474.502 193.856 475.447 193.187 476.275 192.438C477.023 191.769 477.693 191.06 478.835 190.745C479.82 191.257 479.702 192.241 480.727 192.714C484.036 193.384 486.163 192.123 487.306 190.272C488.054 189.13 489.315 188.5 490.418 187.712C495.579 188.618 500.74 189.76 505.98 188.027C507.556 187.515 509.014 187.751 510.59 188.106C513.978 188.815 517.327 188.342 520.597 187.673C521.542 187.476 522.33 186.767 523.276 186.806C525.561 186.885 528.397 189.524 529.934 187.161C531.982 183.97 536.71 181.568 536.159 176.763C538.01 179.362 537.931 181.647 539.665 183.458C539.783 183.616 539.98 183.695 540.138 183.852C537.695 185.31 535.725 186.452 536.868 188.657C537.222 189.366 538.365 189.878 539.231 189.484C541.989 188.224 541.083 186.294 541.162 184.364C543.329 184.64 545.259 184.758 546.993 184.64C544.747 185.625 544.077 187.909 543.092 189.603C542.462 190.705 544.55 191.651 547.15 191.69C547.347 189.484 552.863 190.666 552.311 188.185C552.036 186.964 551.76 184.758 549.75 184.325C554.005 183.458 556.724 181.056 558.26 176.802C560.388 178.811 561.451 181.647 565.746 181.292C569.37 180.977 571.931 179.441 573.428 177.157C573.546 176.92 573.428 176.724 573.507 176.487C576.107 175.818 578.983 175.699 580.835 173.967C582.647 175.66 581.505 176.724 580.205 177.551C575.989 180.15 579.299 181.883 582.135 182.316C586.035 182.907 588.99 184.364 592.26 185.625C595.373 186.806 598.682 187.988 602.425 186.57C604.001 185.979 606.719 186.767 606.246 187.082C603.331 189.012 604.079 192.399 600.179 193.896C599.549 194.132 599.037 194.408 598.485 194.683C600.652 194.802 602.74 194.841 604.946 194.998C606.955 195.156 608.925 195.432 610.895 195.668C611.88 194.802 612.156 193.738 610.107 192.399C609.753 192.163 610.186 191.414 610.265 190.863C616.214 191.257 616.529 186.294 621.138 185.231C622.596 187.673 620.272 188.933 618.42 190.351C617.553 191.02 615.662 192.36 616.687 192.596C620.469 193.462 620.745 195.038 620.548 196.692C623.699 197.086 626.851 197.48 630.042 197.913C630.791 197.795 631.618 197.755 632.485 197.795C634.534 197.874 636.267 197.44 637.725 196.653C639.064 199.685 643.24 199.252 646.471 199.961C647.81 200.119 649.15 200.237 650.45 200.355C650.805 200.237 651.238 200.237 651.514 199.961C655.611 196.062 661.048 195.589 667.273 196.85C669.479 197.283 671.646 197.243 672.867 195.55C670.031 189.918 677.201 187.397 680.786 183.616C681.18 184.482 680.825 185.467 681.771 186.137C684.805 187.594 687.799 186.058 689.414 185.113C693.078 182.907 697.175 180.859 699.894 178.023C699.736 179.362 700.879 180.426 703.794 181.253C708.049 182.434 710.689 182.119 712.816 178.89C716.125 173.848 746.067 176.29 743.388 171.17C742.994 170.461 742.758 169.87 743.507 169.28C744.492 168.531 745.673 168.689 746.737 169.161C749.889 170.501 752.647 169.87 755.286 168.649C755.68 170.185 757.729 170.304 759.738 169.989C765.963 169.004 772.07 167.783 778.531 169.24C780.382 169.634 781.998 168.846 783.219 167.822C787.001 164.671 791.099 162.033 797.52 161.639C800.83 161.442 801.815 158.449 804.927 157.661C807.961 163.608 811.073 164.159 818.125 160.063C820.765 158.567 823.365 157.346 826.359 159.748C827.738 160.812 829.629 160.575 830.457 159.551C832.623 156.834 835.736 157.779 838.769 158.212C839.36 158.173 839.872 158.015 840.345 157.818C846.846 155.14 849.564 150.138 854.45 146.515C856.065 151.241 862.802 152.029 866.86 154.707C867.766 154.707 868.514 154.392 869.066 153.88C872.533 150.493 878.679 149.35 882.54 146.278C883.052 145.845 884.588 145.924 885.416 146.2C892.547 148.484 899.875 146.987 907.124 146.83C911.024 146.751 914.373 147.814 917.997 148.366C923.71 147.224 929.108 148.563 934.387 149.744C939.114 150.808 946.561 150.808 949.043 149.232C954.992 145.412 962.871 145.963 969.608 144.112C970.159 143.955 970.869 143.955 971.341 144.23C977.251 147.578 983.791 148.248 990.961 146.593C991.434 146.475 992.104 146.712 992.734 146.712C993.128 146.712 993.483 146.554 993.837 146.475C993.837 146.475 993.798 146.475 993.758 146.475C992.34 148.287 990.449 150.059 994.704 151.005C997.344 151.595 997.226 153.328 998.526 154.431C1000.46 156.046 1002.15 158.015 1005.26 155.337C1005.42 155.219 1005.58 155.18 1005.7 155.416C1007.11 158.015 1010.34 156.794 1012.87 157.07C1013.42 157.07 1013.97 157.07 1014.52 156.991C1016.88 156.597 1017.59 155.061 1018.85 153.88C1020.71 154.786 1020.94 157.07 1024.09 156.676C1025.43 156.361 1026.62 155.849 1027.84 155.337C1028.94 155.258 1030.04 155.18 1031.19 155.061C1032.41 153.328 1035.64 154.195 1037.17 152.895C1037.92 152.462 1038.79 152.107 1039.42 151.635C1039.93 151.399 1040.52 151.28 1041.19 151.399C1042.97 151.792 1044.5 152.698 1046.51 152.344C1047.1 152.186 1047.61 151.911 1047.97 151.556C1048.72 150.571 1048.6 149.784 1048.13 149.035C1049.58 149.666 1051.24 149.705 1052.89 149.744C1055.22 149.705 1057.27 148.76 1059.75 150.493C1061.48 151.714 1065.19 151.832 1068.22 151.714C1069.56 151.635 1071.61 151.556 1072 152.423C1074.09 156.912 1079.37 155.337 1083.35 155.101C1088.31 154.786 1093.79 155.613 1098.08 152.895C1099.3 149.744 1101.08 147.263 1106.91 147.736C1109.35 147.933 1110.37 146.83 1111.08 145.569C1111.52 145.806 1111.91 146.121 1112.46 146.239C1114.24 146.475 1115.93 147.224 1117.86 146.79C1118.73 146.593 1119.51 146.278 1120.18 145.885C1120.89 145.451 1121.45 144.979 1121.96 144.467C1124.08 144.073 1126.02 143.482 1125.35 140.804C1124.95 139.189 1128.26 138.716 1130.07 138.165C1132 137.535 1138.19 141.04 1142.05 140.331C1143.59 140.055 1144.65 140.607 1145.87 141.119C1151.98 143.6 1157.61 141.867 1160.05 142.734C1160.84 142.734 1161.67 142.734 1162.46 142.734C1168.76 142.812 1174.99 143.561 1181.05 144.782C1182.04 144.27 1183.02 143.797 1184.24 143.443C1186.14 143.167 1187.99 142.852 1189.45 141.867C1190.11 141.237 1190.15 141.04 1193.27 141.276C1197.17 141.552 1196.81 140.764 1196.46 138.992C1196.22 137.81 1197.21 137.18 1198.78 136.983C1200.28 136.786 1201.74 137.062 1202.33 138.047C1203.47 139.937 1204.46 141.907 1205.2 143.915C1206.31 146.79 1213.75 147.027 1213.91 150.886C1213.95 152.107 1214.38 153.171 1216.39 153.21C1218.32 153.21 1220.25 153.131 1220.96 151.32C1221.75 149.232 1221.71 146.987 1223.48 145.136C1224.86 144.979 1225.65 144.427 1225.89 143.482C1228.45 142.852 1230.3 141.591 1231.88 140.134C1233.89 139.504 1235.89 138.834 1237.9 140.134C1239.05 142.182 1232.94 140.371 1234.48 143.876C1236.49 148.484 1240.43 146.475 1243.89 146.79C1244.6 147.421 1245.23 148.366 1246.61 147.775C1247.91 147.184 1247.36 146.042 1247.52 145.136C1249.68 147.814 1253.58 148.326 1257.29 149.114C1257.29 149.193 1257.29 149.272 1257.29 149.35C1257.29 149.39 1257.6 149.469 1257.76 149.469C1257.96 149.469 1258.11 149.39 1258.31 149.311C1261.74 152.856 1262.17 152.816 1265.05 148.996C1270.6 151.635 1277.5 151.832 1278.13 153.289C1280.22 152.344 1284.67 153.604 1284.94 153.643C1288.77 154.234 1289.63 155.18 1287.19 156.479C1280.33 160.103 1286.56 160.497 1289.55 161.796C1289.83 161.757 1290.11 161.718 1290.38 161.678C1295.07 159.906 1292.67 156.282 1294.4 153.604C1297.08 154.983 1295.23 156.243 1294.87 157.464C1293.69 161.521 1296.13 163.254 1301.81 161.875C1304.84 161.127 1306.38 163.45 1309.02 162.82C1311.85 162.426 1313.35 161.245 1313.59 159.276C1314.97 158.488 1313.47 156.322 1315.75 156.322C1318.79 156.322 1317.57 158.212 1317.76 159.473C1317.92 160.418 1318.39 161.442 1320.24 161.363C1321.23 161.324 1322.65 160.89 1322.37 160.221C1320.6 155.77 1326.35 157.188 1328.01 156.204C1331.47 156.44 1325.76 160.339 1331.71 159.315C1332.1 159.315 1332.46 159.315 1332.85 159.315C1335.06 160.3 1334.31 162.505 1336.4 163.529C1336.4 163.766 1336.48 164.002 1336.52 164.278C1338.33 164.632 1339.94 164.002 1341.52 163.647C1343.8 163.135 1344.2 164.159 1344.87 165.144C1345.81 165.971 1347.55 165.932 1348.45 166.798C1356.73 167.35 1364.88 166.641 1373.08 165.695C1373.15 165.656 1373.27 165.617 1373.35 165.577C1377.41 167.901 1380.92 170.973 1387.34 170.028C1389.47 169.713 1389.19 171.052 1389.39 171.918C1397.19 173.297 1404.04 170.501 1411.17 169.319C1413.46 168.925 1415.63 168.295 1418.03 168.413C1419.25 167.232 1422.48 169.083 1423.03 166.877C1425.71 165.262 1431.34 165.892 1430.87 162.033C1430.64 165.695 1431.19 166.011 1435.99 165.459C1437.96 165.223 1439.93 163.962 1442.02 165.262C1443.6 161.954 1445.76 159 1451.16 157.503C1451.67 159.433 1448.68 159.788 1448.09 161.087C1447.69 161.993 1446.47 163.017 1447.97 163.687C1449.74 164.475 1450.22 163.214 1450.89 162.387C1451.48 161.678 1452.15 160.654 1453.41 161.087C1454.08 161.324 1454.04 162.545 1454.31 163.293C1458.73 161.718 1456.64 159.039 1456.6 156.716C1460.85 158.252 1463.69 155.376 1467.35 154.983C1469.05 154.786 1470.35 153.053 1472.08 155.258C1473.11 156.558 1474.52 155.416 1475.86 154.707C1478.35 153.328 1481.26 152.816 1484.22 154.234C1484.22 154.786 1484.22 155.337 1484.22 155.888C1486.82 154.983 1487.84 155.731 1487.8 157.543C1489.22 157.936 1490.13 157.385 1490.72 156.637C1493.32 153.21 1499.23 152.698 1502.06 154.155C1504.03 155.179 1506.04 154.195 1507.93 153.328C1507.82 154.707 1508.21 155.967 1510.61 156.755C1511.4 156.755 1512.19 156.755 1513.02 156.755C1515.69 156.755 1512.5 154.116 1516.48 153.643C1520.78 153.131 1524.36 149.941 1520.82 156.007C1519.75 157.858 1522.27 159.276 1525.58 158.882C1526.84 158.724 1527.79 157.818 1529.44 158.33C1534.53 159.945 1534.92 159.788 1538.11 156.479C1540.08 158.448 1538.74 161.678 1543.04 162.584C1547.88 162.269 1550.01 159.433 1552.77 157.188C1554.89 158.685 1551.62 158.882 1552.37 159.985C1558.32 161.324 1561.28 157.858 1565.14 155.652C1567.74 157.543 1563.6 159.788 1566.32 161.481C1568.41 161.56 1569.12 158.882 1571.84 160.024C1574.24 161.836 1576.8 163.49 1572.31 165.814C1569.87 167.074 1571.95 169.988 1576.48 171.249C1570.34 172.273 1569.79 174.124 1574.24 176.684C1575.03 176.408 1575.81 176.133 1576.64 175.857C1579.68 177.039 1580.66 180.15 1585.07 180.032C1585.47 180.032 1585.86 180.032 1586.26 180.032C1586.96 180.898 1587.16 182.001 1588.7 182.513C1590.47 185.861 1594.49 183.97 1594.69 182.789C1595.04 180.544 1597.25 179.914 1598.82 178.653C1601.97 182.04 1610.45 182.71 1609.11 188.382C1609.42 190.154 1610.76 190.863 1613.32 190.469C1613.56 190.351 1613.75 190.193 1613.99 190.075C1615.92 187.948 1617.1 189.484 1618.48 190.469C1620.69 192.005 1622.54 192.478 1623.21 189.603C1623.84 186.846 1627.43 185.743 1630.03 184.128C1631.72 183.065 1633.14 183.734 1634.75 184.561C1636.45 185.467 1637.27 187.633 1640.43 186.727C1640.51 186.609 1640.58 186.373 1640.7 186.373C1644.72 185.94 1637.31 182.316 1642.95 182.395C1645.55 182.434 1648.35 181.844 1650.71 183.537C1650.81 181.489 1652.52 179.94 1655.83 178.89C1657.53 179.796 1656.07 181.174 1656.93 182.277C1657.96 183.577 1658.04 185.152 1661.15 183.695C1663.36 182.631 1665.33 184.207 1667.37 185.349C1667.41 183.143 1664.66 182.474 1664.42 180.898C1665.21 180.347 1666.03 179.795 1666.82 179.244C1667.69 178.693 1668.6 178.299 1669.94 178.22C1678.64 177.905 1692.55 175.857 1698.03 176.842C1701.26 177.393 1696.33 180.504 1700.47 180.898C1702.08 180.347 1702.95 181.253 1704.05 181.765C1704.05 182.04 1704.05 182.316 1704.05 182.552C1702.44 184.482 1703.86 185.782 1706.1 186.649C1708.07 187.436 1709.57 186.176 1709.65 185.27C1709.84 183.655 1715.44 182.868 1711.03 180.662C1708.74 179.52 1708.94 177.472 1708.35 175.857C1707.91 174.715 1711.34 175.109 1712.8 174.124C1713.98 173.336 1716.27 174.045 1716.03 175.857C1718.2 174.4 1720.09 173.297 1722.41 175.936C1723.87 177.59 1726.04 179.008 1729.39 177.787C1730.41 177.393 1731.47 177.511 1731.55 178.456C1731.79 181.844 1736.91 182.671 1738.8 185.231C1739.75 186.452 1748.81 185.113 1750.27 183.38C1751.37 182.08 1752.28 181.607 1754.56 181.292C1756.85 180.977 1760.43 179.638 1757.75 176.999C1755.7 174.99 1759.25 174.124 1759.29 172.588C1761.65 171.958 1762.6 169.792 1766.77 171.209C1771.3 172.745 1780.52 172.588 1779.58 174.794C1779.22 175.581 1781.78 176.093 1782.73 175.109C1784.19 173.612 1786.51 173.139 1788.44 172.233C1789.23 175.502 1795.77 177.078 1800.1 175.109C1804.79 173.139 1810.7 173.336 1815.15 171.052C1815.15 171.131 1815.11 171.209 1815.11 171.288C1814.25 172.745 1814.17 174.124 1816.49 174.754C1818.82 175.384 1821.46 175.896 1823.23 173.927C1822.88 173.454 1823.47 174.124 1823.07 173.651C1823.19 173.651 1823.19 173.73 1823.31 173.769C1828.71 175.424 1833.87 174.715 1837.45 171.84C1840.64 169.28 1844.43 168.492 1848.48 168.689C1855.38 169.004 1861.33 167.035 1867.28 165.38C1869.92 164.632 1875.27 165.735 1878.94 166.404C1881.26 166.798 1882.21 163.726 1884.97 165.262C1886.54 166.326 1889.3 165.774 1890.48 167.35C1891.66 168.846 1893.32 170.146 1896.04 169.634C1899.03 169.083 1900.17 167.31 1900.49 165.302C1900.53 164.986 1900.53 164.671 1900.57 164.396C1904.66 165.695 1916.68 169.752 1920.19 173.533C1922.91 176.487 1923.81 175.384 1925.74 174.163C1926.96 173.376 1927.28 171.8 1929.68 172.312C1931.85 172.785 1931.61 173.927 1931.69 175.266C1931.81 177.629 1932.44 177.629 1937.44 175.227C1939.57 176.881 1939.37 178.929 1939.37 180.938C1941.66 180.938 1943.75 180.544 1945.24 179.244C1946.86 177.826 1949.07 177.787 1950.4 178.929C1953.6 181.647 1955.05 179.559 1955.33 177.944C1955.96 174.281 1959.39 173.651 1964.08 173.297C1964.04 175.936 1960.41 178.378 1963.72 181.647C1965.53 176.999 1971.88 175.778 1975.26 172.588C1976.13 171.761 1976.53 170.264 1978.53 170.5C1981.29 170.816 1978.65 172.785 1980.15 173.573C1981.92 173.1 1980.98 171.8 1981.8 171.091C1983.38 169.792 1985.9 170.185 1985.9 171.406C1985.9 177.078 1990.04 174.4 1993.47 173.454C1994.18 173.888 1994.92 174.006 1995.79 173.73C1999.3 172.036 2002.76 170.304 2006.03 168.413C2007.02 167.822 2007.65 167.428 2009.03 167.822C2013.2 168.964 2016.24 167.468 2018.96 165.538C2019.35 165.538 2019.7 165.498 2020.1 165.538C2021.12 165.735 2022.07 166.326 2023.21 165.892C2023.41 165.774 2023.53 165.617 2023.53 165.42C2026.84 163.372 2036.29 161.245 2042 159.039C2043.03 158.645 2044.01 159.079 2045.04 159.472C2044.6 159.591 2044.25 159.827 2044.01 160.142C2045.23 160.615 2046.5 161.048 2047.72 161.521C2050.79 161.127 2053.86 160.693 2056.94 160.3C2059.26 161.048 2061.35 162.741 2064.18 160.969C2065.48 159.906 2067.3 160.221 2068.95 160.103C2069.58 159.709 2070.21 159.354 2070.45 158.842C2073.25 159.157 2075.57 158.448 2077.7 157.267C2077.93 157.464 2078.21 157.661 2078.41 157.858C2078.53 158.015 2078.68 158.212 2078.88 158.33C2080.85 157.582 2082.78 157.543 2084.63 158.488C2085.22 156.794 2086.13 158.291 2086.92 158.37C2090.3 156.637 2094.17 158.921 2097.59 157.779C2100.35 158.527 2102.75 160.378 2106.14 159.118C2107.32 158.645 2108.03 158.055 2108.07 157.346C2112.13 157.936 2115.99 157.346 2120.05 156.912C2127.73 156.085 2135.57 156.4 2143.25 157.464C2142.74 157.74 2142.31 158.094 2142.15 158.606C2141.95 159.276 2142.15 159.906 2142.55 160.496C2144.52 162.348 2147.12 162.545 2149.95 161.678C2155.03 160.103 2160.04 160.418 2164.53 162.466C2166.81 163.49 2169.18 163.884 2171.62 164.278C2172.17 164.317 2172.76 164.278 2173.32 164.199C2175.01 163.766 2176.51 162.938 2178.44 162.978C2179.7 162.978 2180.96 162.978 2181.98 162.545C2182.26 162.623 2182.49 162.702 2182.77 162.741C2187.3 163.647 2191.63 164.002 2196.05 166.168C2199.71 167.98 2206.57 168.452 2212.79 167.271C2212.24 168.846 2210.11 170.264 2211.77 171.84C2212.12 172.155 2212.55 172.391 2213.07 172.548C2213.82 172.548 2214.6 172.548 2215.35 172.548C2220.2 172.115 2223.78 174.518 2228.12 175.305C2230.28 175.384 2232.45 175.424 2234.62 175.502C2235.05 175.384 2235.48 175.266 2235.92 174.951C2235.92 174.124 2235.05 173.297 2235.92 172.47C2239.35 169.713 2235.09 166.916 2235.92 164.159C2236.11 164.238 2236.35 164.278 2236.39 164.356C2237.49 166.129 2236.55 168.886 2240.57 169.24C2243.28 169.476 2247.58 166.207 2248.8 163.529C2249.15 164.041 2249.63 164.474 2250.22 164.75C2253.25 166.207 2254.39 168.137 2254.24 170.579C2256.84 171.643 2259.44 171.367 2261.96 170.422C2265.66 169.122 2269.41 170.422 2273.15 170.264C2276.14 170.54 2278.31 171.958 2280.83 172.903C2280.16 173.415 2279.88 174.045 2281.34 174.045C2285.91 174.124 2289.58 176.133 2293.91 176.408C2299.58 176.802 2302.1 174.478 2300.25 170.776C2301.51 169.004 2304.51 172.273 2305.57 169.91C2306.24 169.437 2306.56 168.492 2307.98 169.083C2308.37 169.358 2308.76 169.634 2309.2 169.91C2312.11 170.894 2314.2 170.54 2315.18 168.216C2316.8 166.01 2319.52 165.498 2322.67 165.971C2326.06 166.483 2329.01 166.365 2330.79 164.002C2331.53 163.017 2332.56 163.096 2333.78 163.214C2336.5 163.45 2334.77 164.553 2334.65 165.302C2334.53 166.247 2335.04 167.271 2336.34 167.153C2341.9 166.641 2346.82 169.752 2352.61 168.216C2355.13 167.547 2357.81 168.492 2359.66 170.067C2363.45 173.336 2365.18 172.982 2368.84 169.555C2370.26 168.216 2373.73 168.216 2376.41 169.083C2378.02 168.531 2379.6 167.98 2381.21 167.389C2380.78 165.932 2378.02 166.562 2377.31 165.302C2377.94 164.356 2378.97 164.159 2380.03 164.12C2380.35 164.474 2380.66 164.829 2381.1 165.183C2381.57 165.617 2381.73 166.168 2382.12 166.641C2383.15 167.822 2382.79 170.225 2385.59 169.831C2387.56 169.555 2387.79 168.61 2387.64 167.586C2388.35 167.901 2389.13 168.059 2389.84 168.334C2396.58 170.776 2403.4 170.264 2408.16 166.719C2411.16 164.474 2412.77 166.286 2414.27 167.586C2419.51 172.155 2421.24 172.155 2426.52 167.389C2427.86 166.168 2430.38 165.853 2431.17 164.277C2431.72 165.341 2432.63 166.326 2433.97 166.956C2438.42 169.122 2442.12 171.8 2445.35 174.793C2448.23 177.472 2452.29 177.038 2456.31 176.566C2459.97 176.133 2463.2 175.463 2465.88 178.693C2467.65 180.859 2472.03 181.804 2475.77 179.48C2478.37 176.645 2481.52 174.951 2486.6 176.684C2489.28 177.59 2491.33 176.999 2492.16 174.99C2493.93 170.54 2499.84 169.437 2504.69 167.507C2505.99 166.995 2507.8 166.995 2509.1 166.326C2510.44 165.656 2511.58 164.789 2511.03 163.529C2510.56 162.466 2509.1 162.308 2507.64 162.269C2504.88 162.19 2502.13 161.914 2499.01 161.954C2506.66 161.639 2514.22 161.284 2517.21 155.455C2518.4 157.7 2520.41 159.669 2521.94 161.757C2524.03 164.593 2528.25 165.38 2532.66 165.262C2536.24 165.183 2539.04 165.262 2540.1 168.492C2541.13 171.603 2544.64 171.485 2548.06 169.87C2548.65 170.067 2549.21 170.264 2549.8 170.461C2549.68 170.619 2549.56 170.776 2549.52 171.012C2551.53 174.675 2554.41 175.699 2560 174.833L2560 -2.86585e-06L0.157517 0.000220923L1.38183e-05 0.275919Z" fill="#282A2E"/>
</svg>
