<svg width="2560" height="214" viewBox="0 0 2560 214" fill="none" xmlns="http://www.w3.org/2000/svg">
<g clip-path="url(#clip0_284_7720)">
<path d="M2560 0H0V214H2560V0Z" fill="#A3883C"/>
<path d="M2560 213.721V35.6209C2559.61 31.7209 2559.29 27.7809 2559.45 23.8809C2559.09 23.0509 2558.7 22.2309 2558.35 21.4009C2555.08 18.0109 2549.76 19.3109 2545.3 18.8809C2543.3 18.6809 2541.4 18.8009 2540.06 17.5409C2537.43 16.2409 2533.72 16.3209 2531.75 14.2309C2531.32 13.9909 2530.81 13.8009 2530.26 13.6809C2527.26 13.5209 2524.66 12.5009 2522.22 11.4709C2519.74 10.4109 2517.53 10.4109 2515.17 11.4709C2514.46 11.9009 2514.06 12.4509 2513.87 13.0509C2510.71 10.5309 2504.45 9.82095 2498.22 11.6709C2496.06 12.3009 2494.01 13.1709 2491.88 13.8809C2491.61 14.0809 2491.45 14.3509 2491.17 14.5909C2489.56 14.3509 2488.53 13.6809 2488.61 12.3109H2487.39C2483.49 13.5709 2479.31 14.1209 2475.02 14.4009C2465.72 13.5709 2456.9 15.3809 2447.95 16.6109C2442.6 17.3209 2437.43 16.6509 2432.35 15.4309C2430.34 15.9409 2429.83 17.9509 2427.27 17.9509C2426.76 18.0709 2426.29 18.2709 2425.81 18.4609C2424.79 19.1709 2423.37 19.7209 2422.82 20.6709C2421.75 19.7609 2420.81 18.7809 2419.12 18.3509C2418.29 18.2309 2417.46 18.2709 2416.71 18.5509C2416.12 18.8709 2415.81 19.2609 2415.45 19.6509C2415.45 19.4109 2415.53 19.1809 2415.61 18.9809C2411.35 17.8009 2406.78 18.2309 2402.41 17.7209C2400.83 17.5609 2398.43 17.8009 2398 16.8909C2396.07 12.9109 2391.3 14.7209 2387.75 13.9009C2383.18 12.8409 2380.35 13.5809 2376.29 14.9209C2371.76 16.4209 2367.11 18.2709 2361.99 18.7809C2358.88 19.1009 2356.55 20.0409 2354.46 21.5009C2354.19 20.6709 2354.82 19.6109 2353.99 18.5509C2352.65 20.8009 2351.31 21.6209 2348.12 19.8509C2344.93 18.0809 2341.31 19.7309 2338.19 20.8709C2334.61 22.2109 2332.6 20.1609 2330.31 19.1809C2328.19 18.2709 2330.51 17.3709 2331.26 16.5409C2329.76 15.7509 2328.23 15.5609 2326.73 16.4209C2324.56 14.4509 2321.41 13.5109 2318.18 12.6009C2314.91 11.6909 2311.28 11.5809 2309.35 8.62095C2308.13 6.73095 2303.44 6.30095 2301.83 8.42095C2299.35 11.6909 2295.96 12.4809 2291.23 11.8509C2293.24 9.76095 2290.84 8.58095 2288.39 7.40095C2286.86 6.77095 2284.73 7.40095 2283.39 6.30095C2280.91 4.33095 2278.15 4.84095 2276.18 6.46095C2273.94 8.31095 2272.16 7.96095 2269.6 6.85095C2267.08 5.75095 2264.44 4.64095 2261.37 4.49095C2258.3 4.33095 2255.54 4.73095 2253.61 7.09095C2254.63 4.69095 2254.59 2.68095 2252.31 0.990946C2251.6 0.480946 2250.1 -0.149054 2249.79 0.160946C2246.04 3.78095 2241.16 -2.07905 2237.45 0.910946C2237.18 1.11095 2236.86 1.30095 2236.71 1.54095C2234.7 4.45095 2232.84 5.56095 2229.54 2.01095C2227.64 -0.0390544 2223.9 -0.119054 2221.69 1.69095C2217.32 5.31095 2210.66 7.20095 2207.28 11.6209C2204.01 8.90095 2199 8.86095 2195.06 7.29095C2193.13 6.50095 2190.45 7.17095 2188.96 8.27095C2182.1 13.3909 2173.75 12.8809 2165.28 11.3409C2161.57 10.6709 2158.23 9.13095 2155.27 12.2909C2154.17 13.4709 2152.83 12.2109 2151.65 11.8609C2145.78 10.1709 2137.94 11.0709 2134.35 13.7909C2133.48 14.4609 2132.97 15.1709 2132.78 16.0009C2132.7 16.0009 2132.62 16.0009 2132.54 16.0409C2132.34 16.0809 2132.22 16.1609 2132.03 16.2009C2131.12 15.5709 2129.86 15.4509 2128.24 15.7309C2126.75 16.0109 2125.45 15.8509 2125.53 14.4309C2126.08 12.8509 2126.63 11.3209 2124.03 10.3309C2121.19 10.3309 2119.73 12.3009 2117.13 12.6909C2114.46 13.5609 2112.45 15.1309 2109.96 16.2309C2104.61 9.65095 2100.43 9.18095 2091.25 14.0609C2090.15 16.1109 2089.75 18.4309 2086.56 19.6109C2085.5 20.1609 2084.55 20.8309 2083.73 21.5809C2082.98 22.2509 2082.31 22.9609 2081.16 23.2709C2080.18 22.7609 2080.3 21.7709 2079.27 21.3009C2075.96 20.6309 2073.84 21.8909 2072.69 23.7409C2071.95 24.8809 2070.69 25.5109 2069.58 26.3009C2064.42 25.3909 2059.26 24.2509 2054.02 25.9809C2052.44 26.4909 2050.99 26.2609 2049.41 25.9009C2046.02 25.1909 2042.67 25.6609 2039.4 26.3309C2038.46 26.5309 2037.67 27.2409 2036.72 27.2009C2034.44 27.1209 2031.6 24.4809 2030.07 26.8509C2028.02 30.0409 2023.29 32.4409 2023.84 37.2509C2021.99 34.6509 2022.07 32.3709 2020.34 30.5509C2020.22 30.3909 2020.02 30.3109 2019.86 30.1609C2022.31 28.7009 2024.27 27.5609 2023.13 25.3609C2022.78 24.6509 2021.64 24.1409 2020.77 24.5309C2018.01 25.7909 2018.92 27.7209 2018.84 29.6509C2016.67 29.3709 2014.74 29.2609 2013.01 29.3709C2015.25 28.3909 2015.92 26.1009 2016.91 24.4109C2017.54 23.3109 2015.45 22.3609 2012.85 22.3209C2012.65 24.5309 2007.14 23.3409 2007.69 25.8309C2007.96 27.0509 2008.24 29.2609 2010.25 29.6909C2005.99 30.5609 2003.28 32.9609 2001.74 37.2109C1999.61 35.2009 1998.55 32.3709 1994.25 32.7209C1990.63 33.0409 1988.07 34.5709 1986.57 36.8609C1986.45 37.1009 1986.57 37.2909 1986.49 37.5309C1983.89 38.2009 1981.02 38.3209 1979.17 40.0509C1977.35 38.3609 1978.5 37.2909 1979.8 36.4709C1984.01 33.8709 1980.7 32.1409 1977.86 31.7009C1973.96 31.1109 1971.01 29.6509 1967.74 28.3909C1964.63 27.2109 1961.32 26.0309 1957.58 27.4409C1956 28.0309 1953.28 27.2409 1953.75 26.9309C1956.67 25.0009 1955.92 21.6109 1959.82 20.1209C1960.45 19.8809 1960.96 19.6109 1961.52 19.3309C1959.35 19.2109 1957.26 19.1709 1955.05 19.0109C1953.04 18.8509 1951.07 18.5809 1949.1 18.3409C1948.12 19.2109 1947.84 20.2709 1949.89 21.6109C1950.25 21.8509 1949.81 22.5909 1949.74 23.1509C1943.79 22.7609 1943.47 27.7209 1938.86 28.7809C1937.4 26.3409 1939.73 25.0809 1941.58 23.6609C1942.45 22.9909 1944.34 21.6509 1943.31 21.4209C1939.53 20.5509 1939.26 18.9809 1939.45 17.3209C1936.3 16.9309 1933.15 16.5309 1929.96 16.1009C1929.21 16.2209 1928.38 16.2609 1927.52 16.2209C1925.47 16.1409 1923.73 16.5709 1922.28 17.3609C1920.94 14.3309 1916.76 14.7609 1913.53 14.0509C1912.19 13.8909 1910.85 13.7709 1909.55 13.6609C1909.2 13.7809 1908.76 13.7809 1908.49 14.0509C1904.39 17.9509 1898.95 18.4209 1892.73 17.1609C1890.52 16.7309 1888.35 16.7709 1887.13 18.4609C1889.97 24.0909 1882.8 26.6109 1879.21 30.3909C1878.82 29.5209 1879.17 28.5409 1878.23 27.8709C1875.2 26.4109 1872.2 27.9509 1870.59 28.8909C1866.92 31.1009 1862.82 33.1409 1860.11 35.9809C1860.26 34.6409 1859.12 33.5809 1856.21 32.7509C1851.95 31.5709 1849.31 31.8809 1847.18 35.1109C1843.87 40.1509 1813.93 37.7109 1816.61 42.8309C1817.01 43.5409 1817.24 44.1309 1816.49 44.7209C1815.51 45.4709 1814.33 45.3109 1813.26 44.8409C1810.11 43.5009 1807.35 44.1309 1804.71 45.3509C1804.32 43.8109 1802.27 43.7009 1800.26 44.0109C1794.04 44.9909 1787.93 46.2209 1781.47 44.7609C1779.62 44.3709 1778 45.1509 1776.78 46.1809C1773 49.3309 1768.9 51.9709 1762.48 52.3609C1759.17 52.5609 1758.19 55.5509 1755.07 56.3409C1752.04 50.3909 1748.93 49.8409 1741.87 53.9409C1739.24 55.4409 1736.63 56.6609 1733.64 54.2609C1732.26 53.2009 1730.37 53.4309 1729.54 54.4609C1727.38 57.1809 1724.26 56.2309 1721.23 55.8009C1720.64 55.8409 1720.13 56.0009 1719.65 56.1909C1713.15 58.8709 1710.44 63.8709 1705.55 67.4909C1703.94 62.7609 1697.2 61.9809 1693.14 59.3009C1692.23 59.3009 1691.49 59.6209 1690.93 60.1309C1687.47 63.5209 1681.32 64.6609 1677.46 67.7309C1676.95 68.1609 1675.41 68.0809 1674.58 67.8109C1667.45 65.5309 1660.13 67.0209 1652.88 67.1809C1648.98 67.2609 1645.63 66.2009 1642 65.6409C1636.29 66.7809 1630.89 65.4409 1625.61 64.2609C1620.89 63.2009 1613.44 63.2009 1610.96 64.7709C1605.01 68.5909 1597.13 68.0409 1590.39 69.8909C1589.84 70.0509 1589.13 70.0509 1588.66 69.7709C1582.75 66.4209 1576.21 65.7509 1569.04 67.4109C1568.57 67.5309 1567.9 67.2909 1567.27 67.2909C1566.87 67.2909 1566.52 67.4509 1566.16 67.5309H1566.24C1567.66 65.7209 1569.55 63.9509 1565.3 63.0009C1562.66 62.4109 1562.77 60.6809 1561.47 59.5709C1559.54 57.9609 1557.85 55.9909 1554.74 58.6609C1554.58 58.7809 1554.42 58.8209 1554.3 58.5809C1552.89 55.9809 1549.66 57.2009 1547.13 56.9309C1546.58 56.9309 1546.03 56.9309 1545.48 57.0109C1543.12 57.4009 1542.41 58.9409 1541.15 60.1209C1539.29 59.2109 1539.06 56.9309 1535.91 57.3209C1534.57 57.6409 1533.38 58.1509 1532.16 58.6609C1531.06 58.7409 1529.96 58.8209 1528.81 58.9409C1527.59 60.6709 1524.36 59.8109 1522.83 61.1109C1522.08 61.5409 1521.21 61.9009 1520.58 62.3709C1520.07 62.6109 1519.48 62.7209 1518.81 62.6109C1517.03 62.2209 1515.5 61.3109 1513.49 61.6609C1512.9 61.8209 1512.39 62.0909 1512.03 62.4509C1511.28 63.4309 1511.4 64.2209 1511.87 64.9709C1510.42 64.3409 1508.76 64.3009 1507.11 64.2609C1504.78 64.3009 1502.73 65.2409 1500.25 63.5109C1498.52 62.2909 1494.81 62.1709 1491.78 62.2909C1490.44 62.3709 1488.39 62.4509 1488 61.5809C1485.91 57.0909 1480.63 58.6709 1476.65 58.9009C1471.69 59.2209 1466.21 58.3909 1461.92 61.1109C1460.7 64.2609 1458.92 66.7409 1453.09 66.2709C1450.65 66.0709 1449.63 67.1809 1448.92 68.4409C1448.48 68.2009 1448.09 67.8909 1447.54 67.7709C1445.76 67.5309 1444.07 66.7909 1442.14 67.2209C1441.27 67.4209 1440.49 67.7309 1439.82 68.1309C1439.11 68.5609 1438.55 69.0409 1438.04 69.5509C1435.92 69.9409 1433.98 70.5309 1434.65 73.2109C1435.05 74.8209 1431.74 75.3009 1429.93 75.8509C1428 76.4809 1421.81 72.9709 1417.95 73.6809C1416.41 73.9609 1415.35 73.4009 1414.13 72.8909C1408.02 70.4109 1402.39 72.1409 1399.95 71.2809H1397.54C1391.24 71.2009 1385.01 70.4509 1378.95 69.2309C1377.96 69.7409 1376.98 70.2109 1375.76 70.5709C1373.86 70.8509 1372.01 71.1609 1370.55 72.1509C1369.89 72.7809 1369.85 72.9809 1366.73 72.7409C1362.83 72.4609 1363.19 73.2509 1363.54 75.0209C1363.78 76.2009 1362.79 76.8309 1361.22 77.0309C1359.72 77.2309 1358.26 76.9509 1357.67 75.9709C1356.53 74.0809 1355.54 72.1109 1354.8 70.1009C1353.69 67.2209 1346.25 66.9909 1346.09 63.1309C1346.05 61.9109 1345.62 60.8509 1343.61 60.8109C1341.68 60.8109 1339.75 60.8909 1339.04 62.7009C1338.25 64.7909 1338.29 67.0309 1336.52 68.8809C1335.14 69.0409 1334.35 69.5909 1334.11 70.5309C1331.55 71.1609 1329.7 72.4209 1328.12 73.8809C1326.11 74.5109 1324.11 75.1809 1322.1 73.8809C1320.95 71.8309 1327.06 73.6409 1325.52 70.1409C1323.51 65.5309 1319.57 67.5409 1316.11 67.2309C1315.4 66.6009 1314.77 65.6509 1313.39 66.2509C1312.09 66.8409 1312.64 67.9809 1312.48 68.8909C1310.32 66.2109 1306.42 65.7009 1302.71 64.9109V64.6709C1302.71 64.6709 1302.4 64.5509 1302.24 64.5509C1302.04 64.5509 1301.89 64.6309 1301.69 64.7109C1298.26 61.1709 1297.83 61.2009 1294.95 65.0309C1289.4 62.3909 1282.5 62.1909 1281.87 60.7409C1279.78 61.6909 1275.33 60.4309 1275.06 60.3909C1271.23 59.8009 1270.37 58.8509 1272.81 57.5509C1279.67 53.9309 1273.44 53.5309 1270.45 52.2309C1270.17 52.2709 1269.89 52.3109 1269.62 52.3509C1264.93 54.1209 1267.33 57.7509 1265.6 60.4209C1262.92 59.0409 1264.77 57.7809 1265.13 56.5609C1266.31 52.5009 1263.87 50.7709 1258.19 52.1509C1255.16 52.9009 1253.62 50.5709 1250.98 51.2009C1248.15 51.5909 1246.65 52.7809 1246.41 54.7409C1245.03 55.5309 1246.53 57.6909 1244.25 57.6909C1241.21 57.6909 1242.43 55.8009 1242.24 54.5409C1242.08 53.5909 1241.61 52.5709 1239.76 52.6509C1238.77 52.6909 1237.35 53.1209 1237.63 53.7909C1239.4 58.2409 1233.65 56.8209 1231.99 57.8109C1228.53 57.5709 1234.24 53.6709 1228.29 54.7009H1227.15C1224.94 53.7209 1225.69 51.5109 1223.6 50.4909C1223.6 50.2509 1223.52 50.0209 1223.48 49.7409C1221.67 49.3909 1220.06 50.0209 1218.48 50.3709C1216.2 50.8809 1215.8 49.8609 1215.13 48.8709C1214.19 48.0409 1212.45 48.0809 1211.55 47.2209C1203.27 46.6709 1195.12 47.3809 1186.92 48.3209C1186.85 48.3609 1186.73 48.4009 1186.65 48.4409C1182.59 46.1209 1179.08 43.0409 1172.66 43.9909C1170.53 44.3109 1170.81 42.9709 1170.61 42.1009C1162.81 40.7209 1155.96 43.5209 1148.83 44.7009C1146.54 45.0909 1144.37 45.7209 1141.97 45.6109C1140.75 46.7909 1137.52 44.9409 1136.97 47.1509C1134.29 48.7609 1128.66 48.1309 1129.13 51.9909C1129.36 48.3309 1128.81 48.0109 1124.01 48.5609C1122.04 48.8009 1120.07 50.0609 1117.98 48.7609C1116.4 52.0709 1114.24 55.0209 1108.84 56.5209C1108.33 54.5909 1111.32 54.2409 1111.91 52.9409C1112.31 52.0309 1113.53 51.0109 1112.03 50.3409C1110.26 49.5509 1109.78 50.8109 1109.11 51.6409C1108.52 52.3509 1107.85 53.3709 1106.59 52.9409C1105.92 52.7009 1105.96 51.4809 1105.69 50.7309C1101.27 52.3109 1103.36 54.9809 1103.4 57.3109C1099.15 55.7709 1096.31 58.6509 1092.65 59.0409C1090.95 59.2409 1089.65 60.9709 1087.92 58.7609C1086.89 57.4609 1085.48 58.6009 1084.14 59.3109C1081.65 60.6909 1078.74 61.2009 1075.78 59.7809V58.1309C1073.18 59.0409 1072.16 58.2909 1072.2 56.4809C1070.78 56.0909 1069.87 56.6409 1069.28 57.3909C1066.68 60.8209 1060.77 61.3309 1057.94 59.8709C1055.97 58.8509 1053.96 59.8309 1052.07 60.7009C1052.18 59.3209 1051.79 58.0609 1049.39 57.2709H1046.98C1044.31 57.2709 1047.5 59.9109 1043.52 60.3809C1039.22 60.8909 1035.64 64.0809 1039.18 58.0209C1040.25 56.1709 1037.73 54.7509 1034.42 55.1409C1033.16 55.3009 1032.21 56.2009 1030.56 55.6909C1025.47 54.0809 1025.08 54.2309 1021.89 57.5409C1019.92 55.5709 1021.26 52.3409 1016.96 51.4409C1012.12 51.7609 1009.99 54.5909 1007.23 56.8409C1005.1 55.3409 1008.38 55.1509 1007.63 54.0409C1001.68 52.7009 998.72 56.1709 994.86 58.3709C992.26 56.4809 996.4 54.2309 993.68 52.5409C991.59 52.4609 990.88 55.1409 988.16 54.0009C985.76 52.1909 983.2 50.5309 987.69 48.2109C990.13 46.9509 988.05 44.0409 983.51 42.7709C989.66 41.7509 990.21 39.8909 985.76 37.3309C984.97 37.6109 984.18 37.8809 983.36 38.1609C980.33 36.9809 979.34 33.8709 974.93 33.9909H973.75C973.04 33.1209 972.84 32.0209 971.31 31.5109C969.54 28.1609 965.52 30.0509 965.32 31.2309C964.96 33.4809 962.76 34.1109 961.18 35.3709C958.03 31.9809 949.56 31.3109 950.9 25.6409C950.58 23.8709 949.25 23.1609 946.69 23.5509C946.45 23.6709 946.26 23.8309 946.02 23.9409C944.09 26.0709 942.91 24.5309 941.53 23.5509C939.32 22.0109 937.47 21.5409 936.8 24.4209C936.17 27.1809 932.58 28.2809 929.98 29.8909C928.29 30.9509 926.87 30.2809 925.25 29.4609C923.56 28.5509 922.73 26.3909 919.58 27.2909C919.5 27.4109 919.42 27.6409 919.3 27.6409C915.28 28.0709 922.69 31.7009 917.05 31.6209C914.45 31.5809 911.65 32.1709 909.29 30.4809C909.18 32.5309 907.48 34.0809 904.17 35.1309C902.48 34.2209 903.93 32.8509 903.07 31.7409C902.05 30.4409 901.97 28.8609 898.85 30.3209C896.64 31.3809 894.67 29.8109 892.63 28.6709C892.59 30.8809 895.35 31.5509 895.58 33.1209C894.79 33.6709 893.97 34.2209 893.18 34.7709C892.31 35.3209 891.41 35.7209 890.07 35.7909C881.36 36.1009 867.46 38.1509 861.98 37.1709C858.75 36.6209 863.68 33.5109 859.54 33.1109C857.93 33.6609 857.06 32.7609 855.96 32.2409V31.4509C857.57 29.5209 856.16 28.2209 853.91 27.3509C851.94 26.5609 850.44 27.8209 850.36 28.7309C850.16 30.3409 844.57 31.1309 848.98 33.3409C851.26 34.4809 851.07 36.5309 851.66 38.1509C852.09 39.2909 848.67 38.9009 847.21 39.8809C846.03 40.6709 843.74 39.9609 843.98 38.1509C841.81 39.6109 839.92 40.7109 837.6 38.0709C836.14 36.4209 833.98 35.0009 830.63 36.2209C829.61 36.6109 828.54 36.5009 828.46 35.5509C828.22 32.1609 823.1 31.3409 821.21 28.7809C820.26 27.5609 811.2 28.9009 809.75 30.6309C808.65 31.9309 807.74 32.4009 805.46 32.7209C803.17 33.0409 799.59 34.3709 802.27 37.0109C804.32 39.0209 800.77 39.8909 800.73 41.4209C798.37 42.0509 797.42 44.2209 793.24 42.8009C788.71 41.2609 779.49 41.4209 780.44 39.2209C780.79 38.4309 778.23 37.9209 777.29 38.9009C775.83 40.4009 773.51 40.8709 771.58 41.7809C770.79 38.5109 764.25 36.9409 759.92 38.9009C755.23 40.8709 749.32 40.6709 744.87 42.9609C744.87 42.8809 744.91 42.8009 744.91 42.7209C745.78 41.2609 745.86 39.8809 743.53 39.2509C741.2 38.6209 738.57 38.1109 736.79 40.0809C737.14 40.5509 736.55 39.8809 736.95 40.3609C736.83 40.3609 736.83 40.2809 736.71 40.2409C731.31 38.5909 726.15 39.2909 722.57 42.1709C719.38 44.7309 715.6 45.5209 711.54 45.3209C704.64 45.0009 698.7 46.9709 692.75 48.6309C690.11 49.3809 684.75 48.2809 681.09 47.6109C678.76 47.2209 677.82 50.2909 675.06 48.7509C673.48 47.6909 670.73 48.2409 669.54 46.6609C668.36 45.1609 666.7 43.8609 663.99 44.3809C661 44.9309 659.85 46.7009 659.54 48.7109C659.5 49.0309 659.5 49.3409 659.46 49.6209C655.36 48.3209 643.35 44.2609 639.84 40.4809C637.12 37.5309 636.22 38.6309 634.29 39.8509C633.07 40.6409 632.75 42.2109 630.35 41.7009C628.18 41.2309 628.42 40.0909 628.34 38.7509C628.22 36.3909 627.59 36.3909 622.59 38.7909C620.46 37.1409 620.66 35.0909 620.66 33.0809C618.38 33.0809 616.29 33.4709 614.79 34.7709C613.18 36.1909 610.97 36.2309 609.63 35.0909C606.44 32.3709 604.98 34.4609 604.71 36.0709C604.08 39.7309 600.65 40.3609 595.96 40.7209C596 38.0809 599.62 35.6409 596.31 32.3709C594.5 37.0209 588.16 38.2409 584.77 41.4309C583.9 42.2609 583.51 43.7509 581.5 43.5209C578.74 43.2009 581.38 41.2409 579.88 40.4509C578.11 40.9209 579.05 42.2209 578.23 42.9309C576.65 44.2309 574.13 43.8409 574.13 42.6109C574.13 36.9409 569.99 39.6209 566.57 40.5609C565.86 40.1309 565.11 40.0109 564.24 40.2809C560.73 41.9709 557.27 43.7109 554 45.6009C553.02 46.1909 552.39 46.5809 551.01 46.1909C546.83 45.0509 543.8 46.5409 541.08 48.4709C540.69 48.4709 540.33 48.5109 539.94 48.4709C538.92 48.2709 537.97 47.6809 536.83 48.1209C536.63 48.2409 536.51 48.4009 536.51 48.5909C533.2 50.6409 523.74 52.7609 518.03 54.9709C517.01 55.3609 516.02 54.9309 515 54.5409C515.43 54.4209 515.79 54.1909 516.02 53.8709C514.8 53.4009 513.54 52.9609 512.32 52.4909C509.25 52.8809 506.17 53.3209 503.1 53.7109C500.77 52.9609 498.69 51.2709 495.85 53.0409C494.55 54.1009 492.74 53.7909 491.08 53.9109C490.45 54.3009 489.82 54.6609 489.58 55.1709C486.78 54.8509 484.46 55.5609 482.33 56.7509C482.09 56.5509 481.82 56.3609 481.62 56.1609C481.5 56.0009 481.34 55.8109 481.15 55.6909C479.18 56.4409 477.25 56.4809 475.4 55.5309C474.81 57.2209 473.9 55.7309 473.11 55.6509C469.72 57.3809 465.86 55.1009 462.43 56.2409C459.67 55.4909 457.27 53.6409 453.88 54.9009C452.7 55.3709 451.99 55.9609 451.95 56.6709C447.89 56.0809 444.03 56.6709 439.97 57.1009C432.29 57.9309 424.45 57.6109 416.76 56.5509C417.27 56.2709 417.71 55.9209 417.86 55.4109C418.06 54.7409 417.86 54.1109 417.47 53.5209C415.5 51.6709 412.9 51.4709 410.06 52.3409C404.98 53.9209 399.97 53.6009 395.48 51.5509C393.19 50.5309 390.83 50.1309 388.39 49.7409C387.84 49.7009 387.25 49.7409 386.7 49.8209C385.01 50.2509 383.51 51.0809 381.58 51.0409C380.32 51.0409 379.06 51.0409 378.04 51.4709C377.76 51.3909 377.53 51.3109 377.25 51.2709C372.72 50.3609 368.38 50.0109 363.97 47.8409C360.31 46.0309 353.45 45.5609 347.23 46.7409C347.78 45.1609 349.91 43.7509 348.25 42.1709C347.9 41.8609 347.46 41.6209 346.95 41.4609H344.66C339.81 41.8909 336.23 39.4909 331.89 38.7009C329.72 38.6209 327.56 38.5809 325.39 38.5009C324.96 38.6209 324.52 38.7409 324.09 39.0509C324.09 39.8809 324.96 40.7009 324.09 41.5309C320.66 44.2909 324.92 47.0809 324.09 49.8409C323.89 49.7609 323.66 49.7209 323.62 49.6409C322.52 47.8709 323.46 45.1109 319.44 44.7609C316.72 44.5209 312.43 47.7909 311.21 50.4709C310.85 49.9609 310.38 49.5209 309.79 49.2509C306.76 47.7909 305.61 45.8609 305.77 43.4209C303.17 42.3609 300.57 42.6309 298.05 43.5809C294.35 44.8809 290.6 43.5809 286.86 43.7409C283.87 43.4609 281.7 42.0509 279.18 41.1009C279.85 40.5909 280.12 39.9609 278.67 39.9609C274.1 39.8809 270.44 37.8709 266.1 37.6009C260.43 37.2109 257.9 39.5309 259.76 43.2309C258.5 45.0009 255.5 41.7309 254.44 44.1009C253.77 44.5709 253.45 45.5209 252.04 44.9309C251.65 44.6509 251.25 44.3809 250.82 44.1009C247.91 43.1209 245.82 43.4709 244.83 45.7909C243.21 48.0009 240.5 48.5109 237.34 48.0309C233.95 47.5209 231 47.6409 229.22 50.0009C228.47 50.9809 227.45 50.9109 226.23 50.7909C223.51 50.5509 225.24 49.4509 225.36 48.7009C225.48 47.7509 224.97 46.7309 223.67 46.8509C218.12 47.3609 213.19 44.2509 207.4 45.7909C204.88 46.4609 202.2 45.5109 200.35 43.9409C196.57 40.6709 194.84 41.0309 191.17 44.4509C189.75 45.7909 186.28 45.7909 183.61 44.9209C181.99 45.4709 180.42 46.0209 178.8 46.6109C179.23 48.0709 181.99 47.4409 182.7 48.7009C182.07 49.6509 181.05 49.8409 179.98 49.8809C179.66 49.5309 179.35 49.1709 178.92 48.8209C178.45 48.3909 178.29 47.8409 177.9 47.3609C176.88 46.1809 177.23 43.7809 174.43 44.1709C172.46 44.4509 172.22 45.3909 172.38 46.4109C171.67 46.0909 170.88 45.9409 170.17 45.6609C163.43 43.2209 156.62 43.7309 151.85 47.2709C148.86 49.5109 147.24 47.7009 145.74 46.4009C140.5 41.8309 138.77 41.8309 133.49 46.6009C132.15 47.8209 129.63 48.1409 128.84 49.7109C128.29 48.6509 127.38 47.6609 126.04 47.0309C121.59 44.8609 117.89 42.1909 114.65 39.1909C111.77 36.5109 107.72 36.9509 103.7 37.4209C100.04 37.8509 96.81 38.5209 94.13 35.2909C92.36 33.1209 87.98 32.1809 84.24 34.5009C81.64 37.3409 78.49 39.0309 73.41 37.3009C70.73 36.3909 68.68 36.9809 67.85 38.9909C66.08 43.4409 60.17 44.5409 55.32 46.4709C54.02 46.9809 52.21 46.9809 50.91 47.6509C49.57 48.3209 48.43 49.1909 48.98 50.4509C49.45 51.5109 50.91 51.6709 52.37 51.7109C55.13 51.7909 57.89 52.0609 61 52.0309C53.36 52.3509 45.79 52.7009 42.8 58.5309C41.62 56.2909 39.61 54.3209 38.07 52.2309C35.98 49.3909 31.77 48.6109 27.35 48.7209C23.76 48.8009 20.97 48.7209 19.9 45.4909C18.88 42.3809 15.37 42.5009 11.94 44.1109C11.35 43.9109 10.8 43.7209 10.21 43.5209C10.33 43.3609 10.45 43.2009 10.49 42.9709C8.47 39.3209 5.59 38.3009 0 39.1709V214.001H2559.84L2560 213.731V213.721Z" fill="#FFF6E9"/>
</g>
<defs>
<clipPath id="clip0_284_7720">
<rect width="2560" height="214" fill="white"/>
</clipPath>
</defs>
</svg>
