<svg width="127" height="600" viewBox="0 0 127 600" fill="none" xmlns="http://www.w3.org/2000/svg">
<g clip-path="url(#clip0_277_7693)">
<path d="M47.4614 142.448L77.994 142.436C73.1166 156.789 74.0189 162.003 78.0066 173.677L78.505 519.126C78.5177 556.254 76.8267 572.198 63.2609 598.37C49.9853 572.827 47.9788 557.713 47.9599 519.151L47.4804 173.689C51.3293 162.424 52.648 157.6 47.4677 142.448H47.4614Z" stroke="#DFCBAF" stroke-width="5.17" stroke-linejoin="round"/>
<path d="M63.6581 598.075L63.4751 188.219" stroke="#DFCBAF" stroke-width="5.17" stroke-miterlimit="13.22"/>
<path d="M45.3285 7.67298C49.9851 2.54687 62.1501 2.06885 63.3111 2.03111C64.51 1.96821 76.1766 2.64121 80.7574 8.00004C83.603 13.2394 74.8768 34.3602 72.7883 38.7315C63.5951 34.8319 63.065 34.6181 53.5627 38.3101C51.6824 34.681 42.1485 14.2394 45.3285 7.67927V7.67298Z" stroke="#DFCBAF" stroke-width="5.17" stroke-linejoin="round"/>
<path fill-rule="evenodd" clip-rule="evenodd" d="M50.5469 134.794C60.3143 138.756 70.5738 136.995 74.8076 132.687L73.2933 38.511C66.4536 33.8755 59.0334 34.5422 52.9761 38.2342L50.5469 134.8V134.794Z" stroke="#DFCBAF" stroke-width="4.96" stroke-miterlimit="13.22"/>
<path d="M47.3477 183.559C53.0011 184.188 60.1311 185.44 63.4689 188.647C67.1348 185.339 73.1479 184.333 78.0569 183.553" stroke="#DFCBAF" stroke-width="5.17" stroke-miterlimit="13.22"/>
<path d="M1.52051 151.638C22.292 136.342 36.0786 131.7 49.9031 131.675M123.461 151.066C102.677 135.82 88.8717 131.184 75.0535 131.178M52.1052 134.782C62.1123 138.832 66.3272 138.7 76.1451 134.618C94.2917 134.618 126.162 149.808 124.395 152.997L111.126 166.432C100.084 149.481 77.7414 139.153 64.163 154.443C51.1777 139.587 28.4187 149.355 13.5846 166.444L1.65932 152.022C0.460482 149.669 34.2488 134.801 52.1052 134.782Z" stroke="#DFCBAF" stroke-width="5.17" stroke-linejoin="round"/>
<path d="M48.3448 134.29C47.9536 134.233 47.575 134.315 47.1902 134.378C46.8431 134.391 46.5403 134.498 46.1932 134.586C45.8525 134.642 45.5244 134.642 45.1774 134.655C44.7862 134.674 44.395 134.661 44.0101 134.655C43.5873 134.667 43.1835 134.667 42.7797 134.592C42.3443 134.51 41.8963 134.491 41.4673 134.485C41.0508 134.466 40.6344 134.378 40.2243 134.334C39.8457 134.265 39.4734 134.347 39.1012 134.397C38.7226 134.51 38.3629 134.68 37.9717 134.743C37.5553 134.8 37.1893 135.001 36.836 135.221C36.4826 135.366 36.1167 135.535 35.7507 135.668C35.3784 135.718 35.0314 135.837 34.6907 135.894C34.3437 136.057 33.984 136.152 33.618 136.284C33.454 136.372 33.2584 136.385 33.0628 136.435C32.8924 136.479 32.741 136.554 32.5706 136.598C32.1921 136.636 31.8072 136.743 31.4223 136.806C31.0185 136.806 30.6714 136.969 30.3055 137.095C29.9016 137.246 29.4852 137.334 29.0561 137.448C28.6776 137.561 28.3053 137.687 27.9078 137.731C27.4977 137.913 27.1191 138.095 26.6774 138.221C26.3304 138.309 26.0086 138.429 25.6426 138.479C25.3587 138.624 25.0495 138.611 24.7908 138.787C24.5006 138.988 24.1598 138.97 23.8507 139.077C23.4721 139.19 23.1314 139.322 22.7654 139.448C20.8473 140.668 30.5452 134.875 22.2796 139.731C21.5729 140.14 23.7182 138.919 24.4375 138.498C24.5321 138.454 24.2292 138.643 24.1157 138.693C24.0904 138.731 24.04 138.768 23.9895 138.806C23.1692 139.272 22.3616 139.75 21.5413 140.215C21.4908 140.253 21.4341 140.24 21.3773 140.278C21.2132 140.341 21.0555 140.397 20.9167 140.492C20.8725 140.498 20.7211 140.573 20.7842 140.555C21.5035 140.133 22.2417 139.699 22.9799 139.297L22.86 139.378C22.4247 139.63 21.0302 140.542 20.1027 140.926C25.8761 137.63 19.9324 141.045 19.844 141.102C19.7115 141.165 19.3771 141.272 19.2257 141.303C19.0553 141.347 18.9039 141.423 18.7524 141.498L20.8788 139.806C21.0429 139.743 21.2132 139.706 21.3583 139.655C21.5224 139.592 21.6801 139.536 21.8316 139.46C21.8757 139.454 22.0145 139.36 21.9641 139.397C19.7368 140.68 18.1783 141.574 22.2354 139.24C22.4499 139.146 22.5319 139.083 22.5319 139.083C17.8438 141.831 21.6297 139.573 23.0367 138.787C23.2008 138.724 23.3585 138.668 23.5099 138.592C23.5541 138.586 23.6929 138.492 23.6424 138.529C21.3394 139.888 20.7778 140.246 21.617 139.699C22.3616 139.089 24.2229 138.158 24.4059 138.058C25.1126 137.649 21.5413 139.699 22.2606 139.309C24.9549 137.781 23.838 138.221 24.9044 137.787C25.2577 137.674 25.6237 137.542 25.9833 137.448C26.3114 137.372 26.6269 137.284 26.9172 137.108C27.2074 137.014 27.504 136.932 27.8131 136.869C28.1602 136.781 28.482 136.661 28.829 136.573C29.2454 136.441 29.6303 136.196 30.0657 136.127C30.4569 136.032 30.8229 135.907 31.1888 135.806C31.6179 135.686 32.0343 135.605 32.4571 135.441C32.823 135.315 33.189 135.215 33.5676 135.183C33.9714 135.108 34.3437 135.026 34.7222 134.944C35.0756 134.831 35.4163 134.743 35.7696 134.63C36.123 134.517 36.4826 134.34 36.8549 134.259C37.1956 134.202 37.5427 134.114 37.8771 134.013C38.2493 133.856 38.609 133.711 38.9371 133.535C39.3157 133.353 39.7069 133.183 40.1233 133.126C40.5019 133.013 40.8805 132.831 41.278 132.787C41.6629 132.724 42.0415 132.718 42.4327 132.774C42.8239 132.831 43.2466 132.925 43.6504 132.919C44.0984 132.938 44.5527 132.982 45.007 133.045C45.3982 133.101 45.7957 133.082 46.1995 133.082C46.5844 133.095 46.9819 133.076 47.3858 133.076C47.7012 133.057 48.0357 133.032 48.3701 132.957C48.7045 132.856 49.0389 132.825 49.3607 132.781C49.7771 132.724 50.1683 132.705 50.5721 132.705L48.3638 134.303L48.3448 134.29Z" stroke="#DFCBAF" stroke-width="5.17" stroke-linejoin="round"/>
<path d="M76.1261 132.284C76.4163 132.334 76.7003 132.34 76.9842 132.353C77.2303 132.384 77.4827 132.416 77.7224 132.428C77.9433 132.453 78.183 132.441 78.3976 132.491C78.5932 132.554 78.8014 132.592 79.0033 132.63C79.18 132.661 79.3819 132.699 79.5586 132.699C79.7478 132.718 79.9308 132.724 80.1201 132.743C80.2905 132.806 80.4735 132.774 80.6564 132.825C80.7826 132.862 80.9025 132.856 81.0224 132.875C81.1107 132.894 81.1928 132.938 81.2811 132.95C81.5083 133.02 81.7354 133.095 81.9689 133.133C82.1645 133.196 82.3853 133.221 82.5872 133.259C82.8207 133.303 83.0099 133.397 83.2371 133.466C83.4642 133.535 83.6914 133.611 83.9375 133.667C84.1772 133.68 84.4107 133.799 84.6378 133.869C84.865 133.938 85.1048 134.026 85.3445 134.089C85.5275 134.164 85.7231 134.158 85.9124 134.177C86.1269 134.158 86.3288 134.196 86.5307 134.227C86.7327 134.259 86.9283 134.252 87.1365 134.265C87.3447 134.277 87.5403 134.265 87.7422 134.227C87.9441 134.189 88.1523 134.196 88.3669 134.177C88.5625 134.171 88.7707 134.177 88.9789 134.183L89.654 134.171C89.9064 134.171 90.1336 134.171 90.386 134.171C90.6257 134.183 90.8655 134.171 91.1179 134.171C91.3261 134.177 91.5217 134.171 91.7299 134.177C91.9571 134.177 92.1905 134.215 92.4051 134.24C92.6638 134.315 92.9161 134.391 93.1559 134.479C93.3578 134.592 93.585 134.586 93.7995 134.642C94.0266 134.711 94.2475 134.812 94.4494 134.925C94.6955 135.057 94.9479 135.24 95.1876 135.403C95.4085 135.579 95.6482 135.743 95.888 135.907C96.1341 136.114 96.3928 136.265 96.6767 136.422C96.8534 136.529 97.0301 136.636 97.2193 136.73C97.4213 136.844 97.6484 136.913 97.8251 137.02C98.0522 137.164 98.2794 137.24 98.5191 137.328C98.8346 137.416 99.0744 137.58 99.3583 137.661C99.6359 137.775 99.9199 137.856 100.204 137.888C100.45 137.944 100.671 138.045 100.898 138.12C101.106 138.202 101.34 138.246 101.573 138.29C101.788 138.347 101.996 138.353 102.185 138.404C102.336 138.479 102.488 138.548 102.658 138.611L101.529 139.36C101.39 139.303 101.226 139.215 101.068 139.171C100.866 139.133 100.677 139.083 100.475 139.045C100.242 139.001 100.008 138.963 99.7748 138.875C99.5665 138.793 99.3583 138.712 99.1249 138.668C98.822 138.598 98.5381 138.517 98.2541 138.435C97.9765 138.322 97.7367 138.158 97.4339 138.089C97.1941 138.001 96.9417 137.894 96.7272 137.768C96.5253 137.655 96.2981 137.586 96.1215 137.479C95.9259 137.385 95.7429 137.259 95.5662 137.152C95.2823 136.995 95.0299 136.812 94.7775 136.636C94.5377 136.473 94.279 136.322 94.0771 136.133C93.8247 135.951 93.585 135.787 93.3263 135.667C93.1307 135.573 92.9288 135.46 92.7142 135.41C92.4934 135.384 92.2599 135.34 92.0517 135.259C91.7993 135.152 91.5596 135.064 91.3135 135.032C91.0926 135.007 90.8781 134.95 90.6636 134.976C90.4554 134.969 90.2282 134.976 90.0326 134.976C89.7929 134.963 89.5405 134.963 89.3007 134.976C89.0609 134.963 88.8085 134.963 88.5688 134.976C88.3416 134.976 88.1208 134.957 87.8999 134.957C87.7043 134.963 87.4772 134.969 87.2816 134.976C87.086 134.982 86.8715 135.007 86.6696 135.045C86.455 135.064 86.2468 135.057 86.0701 135.057C85.8619 135.051 85.6537 135.039 85.4329 135.013C85.231 134.976 85.0227 134.969 84.8145 134.963C84.6252 134.944 84.4296 134.925 84.234 134.856C83.9943 134.768 83.7671 134.699 83.5273 134.636C83.3065 134.535 83.0794 134.466 82.8207 134.416C82.6061 134.359 82.36 134.303 82.1392 134.202C81.9247 134.145 81.7165 134.064 81.483 134.02C81.2811 133.982 81.0792 133.944 80.8647 133.894C80.6312 133.85 80.4041 133.781 80.1769 133.711C79.9813 133.648 79.7731 133.636 79.5586 133.586C79.3819 133.586 79.2052 133.554 79.0285 133.516C78.8393 133.498 78.6437 133.504 78.467 133.472C78.2777 133.454 78.101 133.422 77.9307 133.391C77.7098 133.365 77.5142 133.303 77.2997 133.246C77.0978 133.208 76.8517 133.227 76.6309 133.202C76.3911 133.189 76.164 133.145 75.9431 133.12C75.6276 133.108 75.3185 133.095 75.0093 133.057L76.1387 132.277L76.1261 132.284Z" stroke="#DFCBAF" stroke-width="5.17" stroke-linejoin="round"/>
<path d="M52.5784 127.454C52.9506 127.479 53.3355 127.485 53.6889 127.448C53.8088 127.441 53.9223 127.416 54.0296 127.391C54.7741 127.259 55.525 127.095 56.2632 126.989C56.421 126.957 56.5598 126.938 56.7112 126.907C56.9951 126.838 57.4684 126.718 57.746 126.649C58.4211 126.485 59.0647 126.322 59.7272 126.146C61.3678 125.699 62.9767 125.171 64.6172 124.724C65.8287 124.315 67.0717 124.02 68.2895 123.661C68.8447 123.51 69.381 123.341 69.9174 123.196C70.7376 122.988 71.539 122.686 72.3466 122.46C69.0971 123.586 70.8638 123.026 71.5579 122.674C71.7219 122.611 71.9554 122.479 72.1068 122.372C72.3214 122.278 72.498 122.127 72.6873 122.001L74.719 121.561C74.5297 121.693 74.3215 121.831 74.107 121.957C73.7032 122.183 73.9745 122.02 73.5391 122.271C73.4508 122.328 73.3688 122.391 73.2678 122.429C73.1669 122.466 73.0911 122.498 72.9776 122.523C71.4569 123.139 77.1483 121.013 70.5483 123.441C69.8164 123.668 69.0719 123.875 68.3399 124.058C66.5732 124.542 64.8318 125.032 63.0714 125.561C61.4119 126.02 59.7714 126.542 58.0993 127.014C56.9131 127.353 55.7269 127.687 54.5154 127.913C53.7457 128.039 53.0074 128.19 52.2503 128.335C52.1304 128.341 52.0042 128.379 51.878 128.385C51.4805 128.429 51.0514 128.397 50.6729 128.435L52.5784 127.454Z" stroke="#DFCBAF" stroke-width="5.17" stroke-linejoin="round"/>
<path d="M52.8811 118.786C53.2534 118.811 53.6193 118.83 53.9916 118.78C54.0989 118.78 54.2251 118.748 54.3323 118.723C55.0769 118.591 55.8088 118.44 56.566 118.321C56.7048 118.302 56.8625 118.27 57.0013 118.251C57.2979 118.201 57.7837 118.063 58.055 117.981C58.7113 117.83 59.3548 117.666 60.0174 117.484C61.6579 117.037 63.2668 116.509 64.9074 116.063C66.1314 115.673 67.3618 115.358 68.5796 115C69.1348 114.849 69.6712 114.679 70.2264 114.522C71.0467 114.314 71.8291 114.025 72.6367 113.798C69.3998 114.943 71.1729 114.352 71.8606 114.031C72.0247 113.943 72.2644 113.805 72.4096 113.729C72.6115 113.616 72.8008 113.484 72.9774 113.339L75.0218 112.893C74.8135 113.037 74.6116 113.176 74.3908 113.301C73.987 113.528 74.2583 113.364 73.8419 113.603C73.7535 113.66 73.6526 113.735 73.5579 113.773C73.4759 113.805 73.3812 113.842 73.2992 113.874C71.747 114.49 77.4447 112.358 70.8384 114.786C70.1065 115.012 69.362 115.22 68.6301 115.402C66.8823 115.874 65.1219 116.377 63.3804 116.899C61.7083 117.371 60.0804 117.912 58.4084 118.352C57.2222 118.692 56.017 119.038 54.8119 119.264C54.0547 119.384 53.3039 119.541 52.5656 119.679C52.4268 119.698 52.3006 119.736 52.1807 119.742C51.7832 119.786 51.3857 119.761 50.9756 119.792L52.8937 118.799L52.8811 118.786Z" stroke="#DFCBAF" stroke-width="5.17" stroke-linejoin="round"/>
<path d="M53.0958 110.829C53.4555 110.829 53.8151 110.842 54.1748 110.817C54.2694 110.804 54.3767 110.779 54.484 110.754C55.197 110.615 55.9163 110.477 56.6229 110.364C56.7807 110.332 56.9195 110.314 57.0583 110.295C57.3423 110.226 57.7966 110.112 58.0805 110.049C58.6988 109.88 59.3235 109.722 59.9545 109.54C61.5319 109.112 63.0904 108.615 64.6678 108.188C65.8288 107.817 67.0087 107.508 68.1949 107.175L69.766 106.697C70.5484 106.508 71.3182 106.232 72.0943 105.999C68.971 107.087 70.6746 106.546 71.3371 106.219C71.4885 106.144 71.722 106.005 71.8671 105.93C72.0501 105.829 72.2394 105.697 72.4098 105.577L74.3784 105.131C74.1702 105.276 73.9809 105.401 73.7853 105.515C73.3815 105.741 73.6465 105.609 73.2489 105.835C73.1543 105.879 73.066 105.936 72.965 105.98C72.883 106.011 72.801 106.043 72.7063 106.081C71.2172 106.678 76.7193 104.628 70.3465 106.949C69.6651 107.169 68.9394 107.364 68.2264 107.546C66.5418 107.999 64.8634 108.471 63.185 108.974C61.576 109.427 60.0112 109.949 58.4149 110.389C57.2602 110.704 56.1056 111.043 54.932 111.251L52.7867 111.666C52.6668 111.672 52.5406 111.71 52.4144 111.716C52.0358 111.754 51.632 111.722 51.2534 111.76L53.0895 110.823L53.0958 110.829Z" stroke="#DFCBAF" stroke-width="4.97" stroke-linejoin="round"/>
<path d="M53.6955 102.735C54.0236 102.735 54.3769 102.773 54.7176 102.71C54.8123 102.697 54.9195 102.672 55.0268 102.647C55.6956 102.515 56.3834 102.37 57.0522 102.238C57.191 102.219 57.3298 102.2 57.4876 102.169C57.7526 102.112 58.1943 101.987 58.4466 101.911C59.0461 101.754 59.6329 101.571 60.2512 101.402C61.7403 100.955 63.2168 100.42 64.7374 99.9801C65.8416 99.5965 66.9836 99.2694 68.1068 98.9235C68.5989 98.7599 69.0974 98.5964 69.5895 98.4329C70.3467 98.2442 71.0723 97.9423 71.8232 97.7033C68.8387 98.848 70.4729 98.2819 71.0912 97.9297C71.2427 97.8542 71.4572 97.7284 71.596 97.6341C71.779 97.5334 71.9367 97.3951 72.126 97.2693L73.9937 96.8164C73.8044 96.9485 73.6277 97.0932 73.4258 97.2064C73.0536 97.4391 73.3059 97.2881 72.9147 97.5334C72.8201 97.5775 72.7444 97.6529 72.6434 97.6907L72.4037 97.7787C70.984 98.4014 76.2147 96.2944 70.1511 98.697C69.476 98.936 68.8008 99.1247 68.1194 99.3134C66.5041 99.7977 64.9141 100.282 63.3051 100.81C61.7782 101.282 60.2765 101.81 58.7495 102.282C57.6706 102.622 56.5727 102.949 55.4495 103.188C54.7681 103.301 54.0803 103.477 53.3989 103.59C53.2727 103.628 53.1654 103.653 53.0393 103.66C52.667 103.71 52.3073 103.66 51.9351 103.71L53.6891 102.729L53.6955 102.735Z" stroke="#DFCBAF" stroke-width="5.17" stroke-linejoin="round"/>
<path d="M53.9665 94.0616C54.2946 94.0616 54.6353 94.0805 54.9697 94.049C55.077 94.0239 55.1905 93.9987 55.2789 93.9861C55.9666 93.8415 56.6418 93.6779 57.3169 93.5647L57.7333 93.5081C57.9983 93.4515 58.44 93.3257 58.6924 93.2502C59.3107 93.0804 59.8976 92.9043 60.497 92.7408C62.005 92.2816 63.4814 91.747 64.9895 91.2879C66.1063 90.9231 67.2294 90.6023 68.3588 90.2563C68.851 90.0928 69.3494 89.9293 69.8416 89.7657C70.6114 89.5645 71.3244 89.2752 72.0752 89.0361C69.1097 90.1683 70.725 89.6148 71.3622 89.25C71.4947 89.1871 71.7282 89.0487 71.867 88.9544C72.05 88.8537 72.2077 88.7154 72.3844 88.6022L74.271 88.1367C74.0817 88.2688 73.8861 88.426 73.6905 88.5393C73.3182 88.772 73.5706 88.621 73.1984 88.8537C73.1037 88.8978 73.0154 88.9544 72.927 89.011C72.845 89.0424 72.7504 89.0802 72.6683 89.1116C71.2487 89.7343 76.4983 87.6147 70.4347 90.0173C69.7596 90.2563 69.0844 90.445 68.403 90.6337C66.7877 91.118 65.1788 91.6149 63.5887 92.1307C62.0618 92.6024 60.5601 93.1307 59.0331 93.6025C57.9542 93.9421 56.8437 94.2818 55.7332 94.5082C55.0328 94.634 54.364 94.7975 53.6636 94.9233C53.5563 94.9485 53.4428 94.9736 53.3229 94.9799C52.9506 95.0302 52.572 94.9925 52.2061 95.0177L53.9728 94.0553L53.9665 94.0616Z" stroke="#DFCBAF" stroke-width="5.17" stroke-linejoin="round"/>
<path d="M53.4556 86.049C53.7774 86.0805 54.1244 86.0931 54.4715 86.049C54.5661 86.0365 54.6734 86.0113 54.7806 85.9861C55.4684 85.8415 56.1246 85.6905 56.806 85.5773C56.9638 85.5459 57.1026 85.527 57.2288 85.4893C57.4938 85.4326 57.9355 85.3068 58.2005 85.2502C58.7873 85.0741 59.3867 84.9106 59.9924 84.7219C61.4941 84.2942 62.9706 83.7533 64.4786 83.3004C65.6017 82.9042 66.7312 82.6086 67.848 82.2438C68.3527 82.0991 68.8512 81.9356 69.3434 81.772C70.0879 81.5645 70.8261 81.2814 71.5644 81.0236C68.5925 82.1872 70.2267 81.6148 70.8451 81.2689C70.9965 81.1934 71.1984 81.0487 71.3498 80.9733C71.5328 80.8726 71.7095 80.728 71.8672 80.5896L73.7349 80.1367C73.5582 80.2814 73.3816 80.4323 73.1796 80.5455C72.8074 80.7783 73.0598 80.6273 72.6559 80.8537L72.3972 81.0299L72.1575 81.1179C70.7378 81.7406 75.9748 79.6021 69.9049 82.0362C69.2235 82.2563 68.5547 82.4639 67.8732 82.6526C66.2706 83.1243 64.6679 83.6212 63.0589 84.1495C61.532 84.6213 60.0303 85.1496 58.5223 85.6088C57.4118 85.9421 56.3328 86.288 55.2097 86.5019L53.1527 86.9359C53.0455 86.961 52.9067 86.9799 52.7931 87.0051C52.4271 87.0302 52.0612 87.0051 51.6763 87.0428L53.4493 86.049H53.4556Z" stroke="#DFCBAF" stroke-width="5.17" stroke-linejoin="round"/>
<path d="M54.2822 77.1178C54.5976 77.1304 54.9194 77.1619 55.216 77.1053C55.3233 77.1053 55.4179 77.0675 55.5125 77.0549C56.1498 76.9166 56.7808 76.7656 57.4181 76.6272C57.5379 76.6209 57.6768 76.6021 57.803 76.5643C58.0364 76.5014 58.4655 76.3882 58.6863 76.3065C59.2542 76.1429 59.8094 75.9857 60.3647 75.8033C61.7654 75.3441 63.1536 74.8158 64.5417 74.3692C65.5891 73.9793 66.6491 73.6774 67.6902 73.3126C68.1571 73.1427 68.6304 72.9918 69.0847 72.8345C69.7976 72.6207 70.4665 72.3377 71.1542 72.0924C68.378 73.2434 69.9112 72.671 70.4791 72.3314C70.6305 72.2559 70.8324 72.1112 70.9523 72.0295C71.1227 71.91 71.2804 71.7779 71.4571 71.6584L73.1923 71.1992C73.0156 71.3439 72.8389 71.4948 72.6686 71.6143C72.3152 71.8345 72.5487 71.6961 72.1953 71.9162L71.9556 72.0798C71.8735 72.1112 71.7915 72.1427 71.7284 72.1867C70.4034 72.7968 75.2745 70.6835 69.6147 73.0861C68.99 73.3126 68.3654 73.5138 67.7344 73.7025C66.2327 74.2057 64.7373 74.6837 63.2608 75.2183C61.8285 75.6775 60.4278 76.2121 59.0081 76.6838C57.9986 77.0235 56.9638 77.3568 55.9353 77.5896C55.2854 77.7091 54.6544 77.8663 54.0171 78.0047C53.9099 78.0298 53.7963 78.055 53.6764 78.0613C53.3357 78.1179 53.0013 78.0739 52.6479 78.1116L54.2948 77.1241L54.2822 77.1178Z" stroke="#DFCBAF" stroke-width="5.17" stroke-linejoin="round"/>
<path d="M54.5282 68.4386C54.8437 68.4512 55.1655 68.4826 55.4684 68.4449C55.5756 68.4197 55.6576 68.3883 55.7523 68.3757C56.3896 68.2373 57.0205 68.0864 57.6704 67.9606C57.7777 67.9354 57.9165 67.9165 58.0427 67.8788C58.2888 67.8348 58.7052 67.7027 58.9261 67.6209C59.4939 67.4574 60.0681 67.2876 60.6044 67.1177C62.0052 66.6586 63.3933 66.1303 64.7941 65.6711C65.8225 65.2937 66.8826 64.9918 67.9237 64.627C68.4032 64.4761 68.8638 64.3062 69.3181 64.149C70.0311 63.9351 70.6999 63.6521 71.3877 63.4068C68.6303 64.5452 70.1447 63.9855 70.7315 63.6332C70.864 63.5703 71.0722 63.4257 71.1921 63.3439C71.3624 63.2244 71.5328 63.1049 71.6968 62.9728L73.432 62.5137C73.2553 62.6583 73.0976 62.7967 72.9083 62.9288C72.555 63.1489 72.7884 63.0106 72.4351 63.2307L72.1953 63.3942C72.1133 63.4257 72.0313 63.4571 71.9682 63.5012C70.6431 64.1113 75.5142 61.9979 69.867 64.4195C69.2298 64.6333 68.6177 64.8472 67.9741 65.017C66.4724 65.5202 64.977 65.9982 63.5006 66.5328C62.0683 66.9919 60.6675 67.5266 59.2479 67.9983C58.2383 68.3379 57.2035 68.6713 56.175 68.904C55.5251 69.0235 54.8942 69.1808 54.2569 69.3191L53.9288 69.3946C53.5944 69.4261 53.241 69.3946 52.8877 69.4261L54.5345 68.4386H54.5282Z" stroke="#DFCBAF" stroke-width="5.17" stroke-linejoin="round"/>
<path d="M54.0424 60.4319C54.3642 60.4633 54.6797 60.4759 55.0015 60.4319C55.0962 60.4193 55.1845 60.4067 55.2981 60.3815C55.9101 60.2369 56.5348 60.0859 57.191 59.9664C57.3172 59.9287 57.4371 59.9224 57.5632 59.8846C57.8093 59.8406 58.2258 59.7085 58.4592 59.6456C59.0145 59.4632 59.5887 59.2997 60.125 59.1299C61.5383 58.6833 62.9139 58.1424 64.3272 57.7021C65.3557 57.3247 66.4031 57.004 67.4442 56.6392C67.9237 56.4882 68.3843 56.3184 68.8513 56.1486C69.5453 55.9473 70.2331 55.6517 70.9145 55.4315C68.1572 56.57 69.6589 55.9913 70.2583 55.658L70.7063 55.3498C70.8893 55.2491 71.047 55.1108 71.2111 54.9787L72.9462 54.5195C72.7696 54.6642 72.6244 54.8214 72.4225 54.9346L71.9619 55.2554C71.8673 55.2995 71.7916 55.3749 71.7095 55.4064C71.6401 55.4567 71.5581 55.4819 71.4824 55.5133C70.1574 56.1234 75.0411 53.9975 69.3813 56.4316C68.7566 56.658 68.132 56.8593 67.501 57.048C66.0056 57.5197 64.5039 58.0292 63.0148 58.5449C61.5951 59.0167 60.1944 59.5576 58.7621 60.0104C57.7525 60.3501 56.7304 60.7023 55.6893 60.9162C55.052 61.0545 54.421 61.2055 53.7837 61.3439C53.6639 61.3501 53.5503 61.3753 53.443 61.4005C53.1086 61.4319 52.7679 61.413 52.4146 61.4508L54.0551 60.4507L54.0424 60.4319Z" stroke="#DFCBAF" stroke-width="5.17" stroke-linejoin="round"/>
<path d="M54.2696 52.3424C54.5851 52.355 54.8942 52.3676 55.216 52.3236C55.3107 52.311 55.399 52.2984 55.5126 52.2733C56.1436 52.116 56.7808 51.9839 57.4055 51.8581C57.5443 51.8393 57.6516 51.8141 57.7904 51.7952C58.0428 51.7198 58.4403 51.6003 58.6737 51.5374C59.2416 51.3738 59.8032 51.1914 60.3584 51.009C61.7592 50.575 63.141 50.053 64.548 49.5875C65.5765 49.2102 66.6429 48.8768 67.6966 48.5309C68.1446 48.3736 68.6115 48.2038 69.091 48.0529C69.7851 47.8516 70.4728 47.556 71.1606 47.3107C68.3843 48.4617 69.8986 47.9019 70.4854 47.5497C70.6179 47.4868 70.8262 47.3421 70.9461 47.2604C71.1164 47.1409 71.2742 47.0088 71.4382 46.8704L73.186 46.4238C73.0282 46.5622 72.8516 46.7069 72.6497 46.8201L72.1891 47.1409L71.9493 47.3044L71.7095 47.3924C70.3971 48.0214 75.2682 45.8766 69.6084 48.3107C68.9964 48.5309 68.3591 48.7384 67.7281 48.9271C66.2327 49.3989 64.731 49.9083 63.2419 50.4241C61.8223 50.8958 60.4215 51.4367 58.9955 51.9085C57.9797 52.2292 56.9701 52.5689 55.9101 52.7953C55.2728 52.9337 54.6418 53.0846 54.0046 53.223C53.8973 53.2482 53.7837 53.2733 53.6638 53.2796C53.3421 53.3236 52.9887 53.2922 52.6543 53.3173L54.2885 52.3424H54.2696Z" stroke="#DFCBAF" stroke-width="5.17" stroke-linejoin="round"/>
<path d="M54.5093 43.6628C54.8248 43.6753 55.1339 43.6879 55.4557 43.6439C55.5504 43.6313 55.6576 43.6061 55.7523 43.5936C56.3833 43.4363 57.0205 43.3042 57.6452 43.1784C57.784 43.1596 57.9228 43.1407 58.0301 43.1156C58.2825 43.0401 58.68 42.9206 58.9324 42.8451C59.4876 42.6941 60.0429 42.5117 60.5981 42.3293C61.9989 41.8953 63.3807 41.3733 64.7877 40.9079C65.8352 40.5179 66.8952 40.216 67.9363 39.8512C68.3843 39.694 68.8512 39.5241 69.3307 39.3732C70.0248 39.1719 70.7125 38.8763 71.4003 38.631C68.624 39.782 70.1383 39.2222 70.7251 38.87C70.8577 38.8071 71.0659 38.6624 71.1984 38.5681C71.3498 38.4612 71.5139 38.3291 71.6716 38.1907L73.4194 37.7441C73.2616 37.8825 73.085 38.0272 72.902 38.1278L72.4225 38.4612L72.1827 38.6247L71.9429 38.7128C70.6305 39.3417 75.5142 37.2095 69.8607 39.6185C69.2361 39.8449 68.5988 40.0588 67.9615 40.2412C66.4787 40.7318 64.9644 41.2223 63.488 41.757C62.0557 42.2161 60.6549 42.7507 59.2479 43.2099C58.2131 43.5432 57.2035 43.8829 56.175 44.1156C55.5251 44.2351 54.8816 44.4049 54.238 44.537C54.1307 44.5622 54.0171 44.5873 53.9162 44.581C53.5754 44.6377 53.2221 44.6062 52.8877 44.6314L54.5219 43.6565L54.5093 43.6628Z" stroke="#DFCBAF" stroke-width="5.17" stroke-linejoin="round"/>
<path d="M63.0713 1.20703C63.0713 1.68505 63.0713 2.19451 63.0713 2.67253C63.0713 3.07507 63.0713 3.47761 63.0839 3.89902C63.0839 4.48397 63.0713 5.04375 63.065 5.62869C63.0713 6.15074 63.065 6.6602 63.0776 7.18225C63.0902 7.77977 63.0713 8.37729 63.0776 8.97482C63.0713 9.58492 63.0713 10.1699 63.0776 10.7674C63.0713 11.302 63.0776 11.8555 63.0776 12.409C63.0776 12.9185 63.0776 13.4405 63.0776 13.95C63.0776 14.6041 63.0776 15.2645 63.0713 15.9501C63.0713 16.4596 63.0713 16.9816 63.0839 17.5037C63.0713 17.9628 63.0776 18.4408 63.065 18.9063C63.065 19.3843 63.065 19.8623 63.0839 20.3592C63.0713 20.7428 63.0713 21.1517 63.0776 21.5542C63.0776 21.9127 63.0776 22.2838 63.0776 22.6423C63.0776 22.9694 63.0902 23.3153 63.0776 23.6739C63.0776 24.0512 63.0776 24.4035 63.065 24.7934C63.0713 25.24 63.0776 25.6928 63.065 26.152C63.065 26.5105 63.0839 26.8753 63.0776 27.2275C63.065 27.6112 63.0839 28.0075 63.0776 28.3911C63.0776 28.693 63.0902 28.9887 63.0776 29.2717C63.0776 29.5736 63.0776 29.8566 63.0713 30.1397C63.0839 30.3787 63.0713 30.6177 63.0902 30.863C63.0839 31.146 63.0902 31.4479 63.0839 31.731C63.0776 32.014 63.0839 32.2845 63.0839 32.5675C63.0839 32.8946 63.0839 33.1965 63.0965 33.4984C63.0902 33.7814 63.0965 34.0833 63.0902 34.3663C63.0902 34.7249 63.0902 35.0519 63.0776 35.4104C63.0965 35.5488 63.0902 35.6809 63.0902 35.8318L62.9135 36.8634V36.4168C62.9262 36.0771 62.9262 35.7501 62.9262 35.4167C62.9262 35.1148 62.9262 34.8318 62.9262 34.5362C62.9262 34.2406 62.9325 33.9261 62.9262 33.6242C62.9198 33.3223 62.9135 33.0518 62.9198 32.7688C62.9262 32.4857 62.9198 32.1838 62.9262 31.9008C62.9135 31.6618 62.9262 31.4228 62.9072 31.1775L62.9262 30.3284L62.9135 29.4289C62.9262 29.0453 62.9262 28.6364 62.9135 28.2653C62.9135 27.9068 62.9135 27.5357 62.9135 27.1772C62.9072 26.7306 62.9135 26.2652 62.9135 25.8186C62.9135 25.4413 62.9135 25.089 62.9262 24.6991C62.9135 24.3531 62.9262 24.0135 62.9262 23.6676C62.9262 23.3091 62.9262 22.938 62.9262 22.5794C62.9072 22.1895 62.9072 21.7869 62.9072 21.3781C62.9198 20.8875 62.9198 20.4095 62.9198 19.9315C62.9325 19.4723 62.9072 19.0006 62.9198 18.5415C62.9262 18.0068 62.9198 17.4785 62.9262 16.9439C62.9262 16.2897 62.9262 15.6293 62.9262 14.9752C62.9198 14.4531 62.9262 13.9437 62.9135 13.4216C62.9198 12.887 62.9135 12.3335 62.9135 11.78C62.9135 11.1951 62.9198 10.585 62.9135 9.98746C62.9135 9.40251 62.9072 8.80499 62.9135 8.19489C62.9135 7.68543 62.9135 7.16338 62.9135 6.62876C62.9135 6.07526 62.9072 5.52177 62.9135 4.93683C62.9135 4.53428 62.9135 4.13174 62.9135 3.7292C62.9009 3.23232 62.9135 2.74172 62.9135 2.2637L63.0776 1.21961L63.0713 1.20703Z" stroke="#DFCBAF" stroke-width="3.85" stroke-linejoin="round"/>
<path d="M73.1734 35.3041C79.6471 11.7744 78.9026 7.56026 72.0944 5.78028C69.3939 5.06325 63.8161 3.11973 63.1221 8.62951L63.3871 2.2832L81.8113 8.23955C80.9469 19.3472 77.8867 23.9261 73.1797 35.3104L73.1734 35.3041Z" fill="#DFCBAF" stroke="#DFCBAF" stroke-width="2.52" stroke-linejoin="round"/>
</g>
<defs>
<clipPath id="clip0_277_7693">
<rect width="126.099" height="600" fill="white"/>
</clipPath>
</defs>
</svg>
