<?xml version="1.0" encoding="UTF-8"?>
<svg id="Layer_2" data-name="Layer 2" xmlns="http://www.w3.org/2000/svg" viewBox="0 0 228.86 317.01">
  <defs>
    <style>
      .cls-1 {
        fill: #fff6e9;
        stroke: #fff6e9;
        stroke-miterlimit: 10;
        stroke-width: .75px;
      }
    </style>
  </defs>
  <g id="Layer_1-2" data-name="Layer 1">
    <g>
      <path class="cls-1" d="M216.29,111.12c-.21-.14-.45-.26-.61-.44-1.58-1.79-3.14-3.59-4.7-5.39-.11-.12-.19-.26-.32-.36-.39-.32-.77-.19-.83.32-.09.77-.12,1.55-.19,2.32-.07.89-.15,1.78-.24,2.67-.01.12-.1.22-.16.37-.44-.61-.5-1.24-.48-1.92.08-2.46.18-4.91.19-7.37.01-2.85-.06-5.71-.09-8.56,0-.89,0-1.79,0-2.75.55-.04.75.21.76.72,0,.91.02,1.82.05,2.73.04,1.13.11,2.26.14,3.4.02.84-.01,1.69-.06,2.53-.02.38.04.68.31.96,1.2,1.3,2.38,2.63,3.57,3.94.37.41.72.84,1.15,1.18,1.44,1.16,2.6,2.6,3.8,3.99,2.01,2.32,4.02,4.63,6,6.96,1.32,1.56,2.37,3.3,3.29,5.13.56,1.11.47,2.12-.29,3.07-.71.88-1.36,1.82-2.36,2.4-.14.08-.32.18-.35.31-.3,1.06-1.23,1.1-2.02,1.11-1.07.02-2.1.17-3.13.42-.68.17-1.38.29-2.07.35-.51.04-.82.32-1.14.64-1.35,1.34-2.36,2.9-2.95,4.72-.24.73-.69,1.27-1.37,1.54-.77.31-1.56.57-2.37.74-.77.17-1.46.42-2.1.89-2.05,1.49-4.13,2.95-6.17,4.47-1.24.92-2.36,2-3.64,2.86-1.51,1.02-3.11,1.92-4.71,2.81-.4.22-.94.32-1.39.26-.95-.13-1.94-.25-2.79-.65-1.59-.74-3.27-1.15-4.93-1.61-2.28-.63-4.6-1.08-6.9-1.63-.81-.19-1.61-.43-2.39-.72-1.37-.51-2.8-.64-4.23-.79-1.3-.13-2.62-.08-3.91-.24-2.34-.28-4.7-.55-6.94-1.38-.84-.31-1.67-.65-2.51-.95-.23-.08-.51-.15-.73-.08-.48.14-.93.38-1.55.64.46.45.81.82,1.18,1.15,2.57,2.3,5.2,4.52,8.08,6.41,1.91,1.25,3.83,2.49,5.78,3.67,3.11,1.88,6.31,3.57,9.64,5,3.56,1.53,7.17,2.95,10.77,4.41,2.62,1.06,5.25,2.07,7.85,3.16,2.16.9,4.32,1.81,6.41,2.85,3.02,1.5,6.04,3.01,8.84,4.91,1.7,1.15,3.43,2.29,5.08,3.52,1.89,1.41,3.54,3.1,5.13,4.84.52.57,1.01,1.17,1.42,1.87-.18-.15-.37-.27-.52-.45-3.69-4.25-8.21-7.41-13-10.23-3.41-2.01-6.94-3.78-10.55-5.38-2.52-1.12-5.09-2.12-7.65-3.16-2.88-1.17-5.78-2.29-8.65-3.49-2.72-1.14-5.44-2.28-8.11-3.54-3.78-1.79-7.39-3.9-10.85-6.25-2.1-1.43-4.21-2.86-6.21-4.41-1.67-1.3-3.24-2.75-4.8-4.18-1.94-1.78-3.86-3.58-5.73-5.43-2.5-2.49-4.52-5.38-6.46-8.32-1.1-1.67-2.14-3.39-3.14-5.11-.45-.78-.76-1.64-1.14-2.46-.13-.28-.25-.57-.46-1.02-.16.32-.28.46-.3.61-.14.94-.65,1.67-1.24,2.37-.24.29-.58.56-.4,1.02l.02-.02c-.95-.12-1.31.28-.97,1.12,1.36,3.35,3.15,6.44,5.33,9.31,1.78,2.33,3.48,4.73,5.24,7.08,1.91,2.56,3.84,5.1,5.98,7.48,2.9,3.21,5.95,6.26,9.24,9.07,3.19,2.72,6.49,5.29,10,7.58,3.07,2,6.12,4.03,9.23,5.96,2.64,1.65,5.37,3.15,8.04,4.76,2.81,1.7,5.59,3.43,8.37,5.18,1.77,1.12,3.53,2.25,5.23,3.46,2.15,1.53,4.26,3.11,6.19,4.93,1.5,1.41,3.07,2.75,4.5,4.23,1.21,1.25,2.3,2.62,3.38,3.99,1.32,1.68,2.45,3.49,3.26,5.5-.12-.18-.24-.35-.35-.53-.14-.22-.27-.44-.42-.65-1.78-2.59-3.78-4.99-5.88-7.32-2.8-3.11-5.97-5.79-9.3-8.27-3.25-2.43-6.6-4.71-10.1-6.77-4.16-2.44-8.31-4.88-12.42-7.4-3.31-2.03-6.61-4.11-9.81-6.32-3.07-2.12-6.1-4.31-8.98-6.68-2.65-2.19-5.09-4.64-7.56-7.04-1.34-1.3-2.55-2.73-3.82-4.1-.15-.16-.31-.3-.63-.59.04.41.02.62.08.8,1.16,3.54,2.26,7.1,3.52,10.6.62,1.73,1.51,3.37,2.34,5.01.95,1.87,1.97,3.71,2.96,5.56,1.5,2.82,3.12,5.59,4.48,8.48,1.89,4.03,4.27,7.76,6.43,11.63,1.05,1.89,2.19,3.74,3.37,5.56,1.47,2.28,3,4.52,4.53,6.76,1.78,2.62,3.57,5.23,5.39,7.82,2.31,3.27,4.62,6.54,6.99,9.77,3.35,4.55,6.74,9.08,10.15,13.58,1.64,2.16,3.33,4.28,5.06,6.36,2.56,3.08,5.15,6.13,7.79,9.13,1.3,1.47,2.76,2.79,4.12,4.21.76.79,1.43,1.66,2.17,2.47.95,1.05,1.97,2.05,2.89,3.13,1.42,1.67,2.91,3.29,3.68,5.42.64,1.77.1,3.35-1.53,4.3-1.35.79-2.77.93-4.26.55-1.87-.49-3.76-.74-5.7-.74-.54,0-1.08-.14-1.62-.16-1.86-.08-3.07.88-3.85,2.52-.6,1.28-.89,2.66-.9,4.05-.02,1.71.13,3.43.26,5.14.15,2,.47,4-.1,5.99-.57,1.99-1.46,3.82-2.81,5.37-.49.57-1.18,1-1.84,1.37-.85.48-1.72.34-2.56-.15-1.13-.65-1.89-1.63-2.56-2.72-.26-.41-.48-.85-.74-1.25-.44-.67-.9-.82-1.64-.51-.35.15-.69.35-1.01.55-.65.41-1.31.81-1.94,1.26-.27.19-.57.47-.66.77-.68,2.34-2.07,4.24-3.66,6-2.95,3.27-6.43,5.86-10.32,7.87-4.5,2.32-9.23,4.04-14.2,4.98-1.44.27-2.92.3-4.39.44-.6.06-1.21.2-1.81.17-1.79-.08-3.57-.22-5.36-.34-1.02-.07-2.04-.14-3.06-.23-.51-.04-1.01-.12-1.52-.18-2.22-.25-4.44-.58-6.66-.73-2.33-.16-4.67-.23-7.01-.22-1.23,0-2.24.57-2.89,1.77-.83,1.55-1.83,3-3.51,3.75-.69.31-1.42.59-2.17.75-1.67.35-3.35.46-5.05.18-2.99-.5-6-.9-8.99-1.44-2.01-.36-4-.88-5.99-1.36-5.05-1.21-10-2.77-14.83-4.69-.51-.2-1-.44-1.5-.65-1.8-.77-3.57-.64-5.3.21-2.54,1.23-4.73,2.98-6.88,4.79-1.16.97-2.36,1.89-3.62,2.72-1.45.96-2.95,1.85-4.47,2.67-2.11,1.14-3.74.51-4.73-1.72-.65-1.47-.92-3.03-1.14-4.61-.29-2.18-.5-4.37-.8-6.56-.18-1.34-.62-2.58-1.65-3.53-.62-.58-1.33-.85-2.18-.88-.99-.03-1.99-.06-2.96-.22-.94-.15-1.19-.59-.92-1.52.32-1.08.67-2.17,1.13-3.19,1.04-2.3,2.21-4.54,3.21-6.85,1-2.31,1.86-4.69,2.78-7.04.88-2.26,1.78-4.52,2.61-6.8,1.08-2.98,2.14-5.97,3.14-8.97.98-2.94,1.89-5.91,2.8-8.88.71-2.32,1.38-4.65,2.08-6.97,1.22-4.09,2.46-8.18,3.66-12.28.71-2.42,1.38-4.86,2-7.3.75-2.98,1.45-5.97,2.13-8.96.49-2.14.96-4.29,1.35-6.46.53-2.96,1.02-5.93,1.46-8.9.47-3.13.9-6.28,1.27-9.42.24-2.06.34-4.13.46-6.2.1-1.78.14-3.56.2-5.34,0-.28-.03-.57-.05-.86-.45-.05-.52.29-.64.52-.51.9-.98,1.82-1.48,2.73-2.08,3.76-4.16,7.52-6.25,11.29-1.27,2.29-2.56,4.57-3.78,6.88-1.6,3.03-3.17,6.08-4.73,9.13-1.06,2.07-2.1,4.15-3.08,6.26-1.14,2.46-2.25,4.95-3.29,7.46-1.19,2.9-2.35,5.82-3.42,8.77-1.57,4.36-2.83,8.81-3.51,13.41-.42,2.79-.75,5.58-.78,8.41-.02,2.5-.18,4.99-.12,7.48.07,2.68.33,5.36.49,8.04.14,2.33.51,4.63,1,6.91.33,1.55.84,3.06,1.28,4.58.28.96.58,1.92.85,2.89.1.36.12.74.19,1.15-.68.05-1.03-.18-1.31-.71-.71-1.31-1.45-2.6-2.24-3.86-.65-1.04-1.69-1.68-2.69-2.31-1.46-.91-3.06-1.47-4.79-1.57-.67-.04-.8-.16-.69-.72.45-2.22.27-4.43,0-6.65.85,2.13.46,4.38.57,6.6.91.24,1.77.45,2.62.7,2.18.64,3.91,1.92,5.17,3.82.64.97,1.23,1.97,1.84,2.96.08.13.19.23.45.53,0-.41.04-.61,0-.79-.4-1.4-.79-2.8-1.23-4.19-.59-1.86-.94-3.77-1.2-5.69-.26-1.96-.55-3.91-.75-5.88-.15-1.48-.23-2.97-.25-4.46-.03-2.82-.06-5.65.04-8.47.06-1.94.3-3.87.51-5.8.17-1.54.33-3.1.63-4.62.41-2.06.89-4.11,1.46-6.13.61-2.18,1.32-4.33,2.05-6.47.53-1.56,1.12-3.1,1.75-4.63,1.13-2.75,2.26-5.51,3.49-8.22,1.45-3.22,2.93-6.42,4.64-9.51,1.17-2.12,2.22-4.32,3.35-6.47,1.23-2.35,2.49-4.68,3.76-7.01,1.35-2.47,2.73-4.92,4.1-7.37,1.32-2.37,2.67-4.73,3.97-7.11.97-1.79,1.9-3.6,2.79-5.43,1.86-3.84,3.43-7.81,4.96-11.79,1.01-2.63,2-5.27,2.73-7.99.77-2.84,1.43-5.72,1.64-8.67.1-1.32.31-2.65.29-3.97-.03-1.74-.18-3.49-.37-5.23-.21-1.96-.57-3.91-1.21-5.79-.31-.9-.91-1.34-1.95-1.46.36,1.84,1.08,3.52,1.05,5.36-.1-.29-.22-.56-.3-.86-.36-1.41-.7-2.83-1.06-4.24-.22-.86-.4-1.02-1.45-1.43-.26.68-.32,1.32-.03,2.02.68,1.64,1.39,3.28,1.95,4.97.35,1.06.46,2.21.63,3.33.05.33-.05.68-.09,1.1-.73-.26-.62-.99-1.16-1.39-.1.6-.17,1.15-.28,1.68-.11.54-.19,1.09-.38,1.6-.49,1.26-.62,2.58-.76,3.89-.27,2.46-.81,4.86-1.71,7.16-.81,2.08-1.51,4.21-2.65,6.14-1.75,2.95-3.45,5.92-5.16,8.9-.98,1.71-1.87,3.48-2.89,5.16-1.63,2.68-3.33,5.31-5,7.97-.9,1.42-1.77,2.86-2.69,4.26-1.73,2.61-3.51,5.19-5.24,7.81-1.46,2.21-2.84,4.48-4.31,6.68-1.41,2.12-2.91,4.19-4.32,6.31-1.74,2.61-3.46,5.23-5.14,7.87-2.93,4.58-5.46,9.39-7.59,14.41-.95,2.23-1.7,4.54-2.56,6.8-1.32,3.46-2.12,7.07-2.9,10.67-.45,2.05-.72,4.15-1.03,6.23-.21,1.38-.38,2.76-.54,4.14-.06.49,0,1,0,1.68.65-.67.87-1.8,2.03-1.29-.44.49-.88.9-1.22,1.38-.33.48-.56,1.04-.83,1.56-.08-.02-.16-.04-.24-.06-.05-1.02-.14-2.03-.13-3.05.06-3.54.66-7.01,1.31-10.49.49-2.65,1.1-5.26,1.88-7.83,1-3.28,2.11-6.53,3.53-9.66,1-2.21,1.98-4.43,3.04-6.61.72-1.48,1.53-2.92,2.36-4.35.81-1.4,1.65-2.78,2.53-4.14,1.39-2.14,2.83-4.25,4.23-6.38,3.14-4.78,6.49-9.41,9.47-14.3,1.39-2.29,3.05-4.41,4.52-6.66,1.44-2.19,2.79-4.43,4.19-6.64.97-1.53,1.98-3.03,2.93-4.57.96-1.54,1.88-3.09,2.8-4.65,1.21-2.07,2.39-4.15,3.58-6.23.19-.34.38-.68.53-1.03.07-.16.11-.38.06-.55-.26-.93-.54-1.86-.84-2.78-.13-.4-.29-.79-.49-1.16-.38-.71-.55-.76-1.31-.6-.44.1-.88.16-1.31.28-.33.09-.68.19-.96.38-1.45.98-2.67,2.2-3.72,3.62-.75,1.01-1.65,1.9-2.49,2.83-2.33,2.59-4.69,5.15-6.98,7.77-.67.77-1.15,1.71-1.72,2.58-.66,1-1.33,1.98-1.96,3-.86,1.39-2.14,1.69-3.59,1.39-.71-.14-1.28-.08-1.92.26-1.08.57-2.28.82-3.49.98-2.22.29-4.49.06-6.68.57-.74.18-1.51.35-2.18.69-2.15,1.09-4.27,2.21-6.55,3.03-.3.11-.54.5-.73.82-1.13,1.85-2.17,3.75-3.37,5.54-.93,1.38-2.5,1.92-3.84,1.02-.61-.41-1.17-.89-1.74-1.35-.37-.3-.75-.61-1.07-.96-1.1-1.23-2.16-2.49-2.89-3.99-.7-1.42-1.42-2.84-1.78-4.4-.14-.59-.27-1.2-.28-1.81-.03-1.87-.07-3.75,0-5.62.06-1.55.25-3.1.43-4.64.19-1.6.44-3.2.69-4.8.28-1.76.61-3.51.87-5.27.33-2.24.62-4.48.92-6.73.07-.54.11-1.09.15-1.64.03-.41-.11-.73-.42-1.03-1.4-1.37-2.79-2.76-4.16-4.18-.56-.58-1.04-1.23-1.56-1.85-.16-.19-.34-.38-.53-.6-.47.18-.91.35-1.36.51-.9.31-1.8.32-2.74.1-1.93-.46-3.47-1.46-4.23-3.33-.78-1.94-2.32-3.15-3.78-4.45-1.63-1.45-2.79-3.2-3.39-5.31-.42-1.49-.92-2.96-1.06-4.53-.16-1.82-.31-3.65.19-5.4.4-1.39.9-2.76,1.76-3.97.6-.84,1.08-1.76,1.56-2.68.56-1.05.59-2.09.09-3.25-1.24-2.86-.46-4.96,1.43-7.13.3-.34.71-.52,1.26-.53-.03.21-.02.36-.07.5-.4,1.1-.35,2.25-.19,3.37.19,1.3,1,1.67,2.15,1.09.2-.1.38-.22.61-.35-.27.63-.77,1.15-1.26,1.33-.51.2-.87-.09-1.19-.41-.99-1.01-1.23-2.24-.93-3.59.1-.46.22-.91.22-1.4-1.2,1.04-2.05,2.27-2.19,3.9-.11,1.25.02,2.48.63,3.59.46.84.36,1.62-.03,2.41-.54,1.1-1.14,2.18-1.64,3.3-.53,1.18-1.02,2.38-1.45,3.6-.63,1.79-.53,3.67-.31,5.5.2,1.69.7,3.35,1.16,5,.5,1.79,1.53,3.26,2.94,4.47.81.69,1.61,1.39,2.37,2.14.41.4.75.88,1.08,1.36.22.32.39.67.55,1.02.78,1.72,2.11,2.74,3.9,3.16,1.17.27,2.33.23,3.51-.26-.06-.47-.52-.84-.17-1.35.07-.11-.21-.5-.37-.73-.5-.71-1.03-1.4-1.54-2.11-.97-1.37-1.19-2.99-1.4-4.59-.2-1.47-.28-2.96-.41-4.45-.03-.39-.06-.78-.03-1.17.24-2.5-.09-4.98-.24-7.46-.12-1.83-.51-3.65-.76-5.47-.12-.86-.16-1.75.24-2.55.49-.98,1.03-1.94,1.59-2.89.96-1.64,2.04-3.23,2.91-4.92.88-1.71,2.21-2.83,3.86-3.61,2.06-.97,4.15-1.87,6.23-2.79.49-.21,1.01-.35,1.66-.33-.07.31-.07.55-.18.71-.55.84-1.02,1.75-1.71,2.46-1.62,1.66-3.32,3.24-5.03,4.8-.73.67-1.28,1.39-1.62,2.35-.9,2.53-1.89,5.03-2.84,7.55-.08.21-.18.4-.3.67-.26-.4-.08-.7.04-1.01.69-1.78,1.35-3.57,2.06-5.34.45-1.14.93-2.27,1.46-3.37.17-.36.49-.67.79-.94,1.44-1.34,2.93-2.62,4.34-4,.73-.71,1.33-1.57,1.97-2.37.11-.14.13-.35.19-.51-.3-.46-.68-.25-.97-.13-.93.36-1.85.74-2.75,1.16-1.39.65-2.77,1.34-4.15,2.02-.95.47-1.67,1.18-2.22,2.09-1.38,2.3-2.79,4.58-4.18,6.87-.91,1.5-1.25,3.06-.81,4.83.29,1.18.36,2.43.51,3.64.09.71.18,1.42.2,2.13.08,2.29.07,4.59.2,6.88.14,2.52.21,5.05.85,7.51.22.83.66,1.6,1.05,2.37.22.43.55.8.82,1.2.5.75,1.01,1.44,2.06,1.44.73,0,1.17.61,1.67,1.06.6.54,1.18,1.09,1.81,1.6.26.21.61.32.9.47.49-.44.43-.91.36-1.4-.07-.44-.15-.9-.13-1.34.06-1.11,1.06-1.64,1.99-1.03.67.43,1.26.99,1.89,1.49.29.23.59.46.89.68.06-.04.13-.07.19-.11-.05-.22-.06-.45-.15-.65-.4-.85-.52-1.72-.28-2.65.07-.28.1-.59.04-.86-.38-1.82-.23-3.64.25-5.38.3-1.08.75-2.19,1.72-2.93v-.02c-.36.69-.8,1.35-1.04,2.08-.29.88-.48,1.81-.62,2.73-.13.89-.21,1.8-.2,2.69,0,.36.35.71.62,1.21,0-.12.02-.05,0,0-.69,1.27-.3,2.44.34,3.59.29.52.69,1.01.63,1.68-.74-.07-1.63-.58-2.48-1.37-.49-.46-.99-.92-1.52-1.34-.24-.2-.54-.36-.84-.44-.59-.16-.93.12-.94.75,0,.25.06.51.11.76.07.35.17.69.21,1.05.06.5,0,.98-.44,1.31-.45.34-.89.1-1.25-.13-.62-.4-1.19-.87-1.75-1.35-.41-.36-.76-.79-1.17-1.16-.41-.37-.87-.66-1.59-.35.63.81,1.18,1.6,1.82,2.31.95,1.06,1.94,2.08,2.93,3.09,1.9,1.93,3.74,3.92,5.73,5.75,1.46,1.34,2.63,2.92,3.99,4.34.75.79,1.53,1.56,2.2,2.46-.22-.17-.47-.32-.66-.52-1.15-1.17-2.28-2.36-3.43-3.53-.41-.42-.67-.97-1.44-.96-.35,0-.7-.52-1.04-.8-.33-.28-.66-.56-1.06-.91-.13.31-.25.48-.27.65-.15,1.15-.27,2.31-.4,3.47-.08.67-.13,1.34-.27,1.99-.14.63-.27,1.24-.17,1.89.04.23-.12.49-.17.74-.05.25-.17.52-.13.75.29,1.54-.4,2.99-.34,4.51,0,.22-.06.45-.01.66.13.53.14,1.02-.16,1.5-.07.1-.13.26-.11.36.32,1.23-.38,2.38-.22,3.62.15,1.18-.02,2.39.01,3.59.03.97.15,1.93.06,2.92-.1-1.1-.25-2.19-.29-3.29-.05-1.33-.03-2.66,0-3.99,0-.48.11-.96.17-1.44.02-.13.09-.25.08-.37-.2-1.96.21-3.86.44-5.79.14-1.15.15-2.32.27-3.47.16-1.6.35-3.21.54-4.81.13-1.06.31-2.11.39-3.17.04-.47.15-.82.74-.96-.57-.65-1.06-1.23-1.57-1.81-.53.1-.59.51-.59.89,0,2.57-.57,5.08-.85,7.62-.22,2.06-.68,4.08-.98,6.13-.48,3.33-1.05,6.66-.94,10.05.03.97-.03,1.94-.07,2.9-.05,1.31.18,2.59.61,3.81.37,1.07.95,2.05,1.38,3.1.78,1.9,2.02,3.45,3.46,4.86.75.74,1.59,1.38,2.76,1.4,1.19.02,2.03-.57,2.61-1.52,1.02-1.68,1.97-3.41,2.96-5.11.31-.54.66-.94,1.38-1.05.7-.11,1.37-.53,2.03-.85,1.76-.85,3.5-1.74,5.28-2.55.57-.26,1.23-.33,1.85-.42,2.53-.4,5.12-.22,7.62-.79.49-.11.97-.31,1.44-.5.81-.33,1.58-.57,2.51-.35,1.26.3,2.39.01,3.17-1.23.85-1.37,1.79-2.69,2.72-4.01,1.46-2.09,3.19-3.96,4.89-5.84,1.93-2.13,3.76-4.34,5.63-6.52,1.14-1.32,2.26-2.66,3.77-3.58.96-.59,1.98-.88,3.11-.77.32.03.5.15.69.42.67.94,1.04,1.99,1.33,3.1.08.32.24.62.42,1.07.28-.33.46-.5.6-.71.55-.83,1.1-1.66,1.62-2.51.24-.38.45-.79.62-1.21.76-1.89,1.52-3.78,2.22-5.69.57-1.55,1.14-3.17,1.05-4.81-.08-1.44.46-2.66.79-3.95.41-1.61.85-3.19.73-4.88-.01-.14.07-.29.11-.45.77.04.73.89,1.41,1.24-.04-.49,0-.86-.11-1.19-.39-1.23-.8-2.46-1.25-3.67-.48-1.27-1.01-2.53-1.52-3.79-.06-.15-.08-.34-.19-.44-.14-.14-.35-.28-.53-.29-.1,0-.28.26-.3.42-.06.42-.05.84-.08,1.26,0,.11-.04.22-.24.31.03-.44.04-.87.08-1.3.09-.8.03-.87-.8-.78v.02c-.27-.33-.49-.12-.71.09-.92.85-1.56,1.85-1.82,3.11-.55,2.68-1.51,5.22-2.67,7.69-.11.23-.23.46-.37.68-.05.08-.14.12-.24.21-.29-.21-.18-.42-.07-.67.87-1.97,1.81-3.92,2.4-6.01.16-.58.19-1.08-.11-1.58-.87-1.48-1.69-2.99-2.63-4.41-.95-1.42-2.02-2.76-3.04-4.13-.05-.07-.07-.16-.07-.27,1.25,1.24,2.42,2.55,3.35,4.06.92,1.49,1.88,2.96,2.84,4.46.65-.85.25-1.55-.14-2.21-1.5-2.58-3.31-4.93-5.13-7.27-.4-.51-.77-1.04-1.11-1.58-.32-.51-.72-.9-1.3-1.09-.8-.27-1.54-.76-2.68-.82.85.91,1.56,1.67,2.27,2.43-.03.04-.06.08-.09.12-.6-.46-1.19-.94-1.81-1.38-1.2-.86-2.3-1.88-3.68-2.45-.18-.07-.36-.15-.54-.22-1.04-.4-1.9-.2-2.68.66-.82.91-1.73,1.74-2.62,2.58-.6.56-.89,1.18-.85,2.05.08,1.64.02,3.28-.16,4.97-.07-.23-.13-.47-.25-.89-.38.63-.67,1.15-1,1.64-.85,1.26-1.7,2.51-2.58,3.75-.48.68-1.06,1.3-1.51,2.01-.53.83-.72,1.8-.81,2.77-.05.52-.25.91-.53,1.32-.93,1.36-1.9,2.69-2.72,4.12-.44.77-1.06,1.17-1.78,1.53-.38.19-.94.2-.99.79-.05.68-.05,1.28.55,1.84,2.87,2.66,4.98,5.91,6.91,9.29,1.12,1.97,2.01,4.05,2.73,6.21-.8-1.61-1.54-3.25-2.42-4.82-.92-1.63-1.93-3.22-3.01-4.75-1.05-1.48-2.02-3.04-3.37-4.27l-.2.13c.75,1.46,1.58,2.9,2.25,4.4.67,1.5,1.26,3.05,1.75,4.62.51,1.6.86,3.24,1.13,4.9-.34-1.18-.62-2.38-1.04-3.52-.72-1.94-1.55-3.84-2.33-5.76-.78-1.92-1.86-3.69-2.92-5.46-.43-.72-.51-.78-1.2-.43-.61.31-1.21.36-1.86.17-.22-.07-.48-.01-.89-.01,2.23,3.72,3.22,7.72,3.91,11.84-.22-.55-.45-1.09-.65-1.64-.81-2.29-1.59-4.58-2.41-6.86-.59-1.63-1.51-3.07-2.64-4.37-.53-.61-1.23-.89-1.95-1.19-1.15-.48-2.26-1.05-3.39-1.58-.24-.11-.48-.22-.82-.25,1.54,3.04,2.77,6.14,3.15,9.52-.44-1.42-.87-2.84-1.31-4.26-.07,0-.14,0-.21.01-.05.15-.16.31-.15.46.09,1.45.15,2.91.31,4.36.14,1.29-.09,2.54-.19,3.8-.07,0-.15,0-.22,0,0-.89.05-1.79,0-2.68-.18-2.55-.37-5.1-.92-7.6-.52-2.36-1.7-4.39-3.19-6.25-.71-.89-1.72-1.11-2.75-1.13-1.3-.02-2.61.1-4.03.16.12.24.15.4.23.43.86.37,1.44,1.14,2.29,1.55,1.22.59,1.93,1.7,2.31,2.98.79,2.66.98,5.41.99,8.17,0,1.01.01,2.01-.03,3.02-.09,1.74-.2,3.49-.33,5.23-.13,1.71-.26,3.42-.44,5.13-.1.96-.3,1.91-.49,3.07-.16-.47-.11-.75-.06-1.05.13-.93.22-1.86.32-2.79.09-.83.18-1.67.25-2.5.02-.22.07-.47-.01-.67-.54-1.36-.22-2.76-.22-4.14,0-2.4.12-4.79.14-7.19.01-2.05-.35-4.06-.76-6.06-.08-.38-.22-.74-.37-1.1-.18-.44-.5-.72-.94-.93-1.69-.8-2.96-2.14-4.25-3.45-.03-.03-.01-.12-.02-.23.62-.06,1.24-.13,1.86-.19,1.59-.16,3.17-.39,4.77-.05.66.14,1.19.49,1.62.98.65.75,1.27,1.53,1.91,2.28.17.19.36.39.58.5,1.25.65,2.46,1.38,3.86,1.68,1.11.24,2.09.75,2.96,1.53,1.15,1.04,2.52,1.11,3.94.66.5-.16.75-.53.66-1.04-.21-1.23.38-1.83,1.46-2.24.54-.2,1.07-.65,1.42-1.12.97-1.33,1.85-2.72,2.76-4.1.38-.58.54-1.23.56-1.93.01-.44.12-.9.3-1.31.53-1.23,1.31-2.29,2.18-3.3,1.5-1.74,2.88-3.57,3.55-5.83.16-.53.2-1.05.16-1.62-.06-.8.04-1.61.15-2.41.04-.3.21-.63.42-.85,1.23-1.23,2.51-2.41,3.73-3.65.53-.54,1.14-.61,1.77-.43.75.22,1.31.14,1.92-.43.45-.41,1.14-.56,1.72-.82.34-.15.69-.29,1.01-.43,0-.18.03-.28,0-.37-.54-1.35.05-2.35,1.03-3.15.56-.46.8-.87.61-1.64-.34-1.41-.11-2.74,1.1-3.69.87-.68,1.05-1.54.97-2.58-.11-1.42-.16-2.85-.24-4.27-.06-1.02.13-1.94,1.01-2.59.3-.22.29-.52.24-.87-.11-.77-.17-1.54-.24-2.31-.11-1.32.34-2.48,1.01-3.58.86-1.41,1.61-2.88,2.09-4.47.1-.33.17-.7.12-1.04-.31-1.92-.57-3.85-.59-5.8,0-1.1,0-2.2.06-3.3.07-1.16.71-2.04,1.43-2.9,2.25-2.69,4.94-4.89,7.56-7.18,1.21-1.06,2.38-2.17,3.55-3.29.27-.26.42-.65.63-.97.55-.83,1.08-1.69,1.68-2.48.57-.74,1.22-.84,2.04-.38.45.25.88.53,1.29.84.36.27.72.28,1.16.27,1.24-.03,2.12-.68,3.06-1.39,1.56-1.19,3.18-2.32,5.1-2.86,1.57-.44,3.17-.72,4.82-.76,1.8-.05,3.59-.01,5.31.59,1.06.37,2.1.78,3.14,1.18.12.04.23.1.35.16-.04.07-.08.14-.12.21-1.24.07-2.49.11-3.73.21-1.26.1-2.48.39-3.67.8.05.15.05.25.09.26,1.97.59,3.37,1.95,4.59,3.53.59.77,1.15,1.56,1.77,2.3.95,1.16,2.18,1.99,3.42,2.81,1.51,1,3.18,1.67,4.78,2.49,1.91.97,3.08,2.58,3.28,4.81.25,2.82-.12,5.63-.02,8.45.07,1.92.22,3.82,1.04,5.59.07.14.14.31.13.46-.07.84.41,1.41.94,1.93.6.59,1.3,1.08,1.83,1.72,1.33,1.58,3.32,2.17,4.89,3.38.6.46,1.06.34,1.32-.32.28-.69.8-.88,1.41-.99.79-.14,1.58-.3,2.37-.33,1.44-.06,2.88-.1,4.31-.03.47.02.96.36,1.37.66,1.38,1,2.8,1.96,4.06,3.1,1.79,1.63,3.9,2.66,6.01,3.71.41.2.92.25,1.39.28.67.04,1.35.04,2.02-.01,1.05-.07,1.86.39,2.59,1.06.36.33.68.69,1.02,1.04,1.15,1.2,2.53,1.82,4.19,1.83.75,0,1.51.08,2.26.15.39.03.68-.1.92-.41.22-.28.45-.55.72-.78.65-.56,1.27-.57,1.9,0,.33.3.62.66.89,1.01.45.59,1.24,1.3,2,1.71.21-.99,1.02-1.42,1.76-1.92,1.42-.95,2.88-1.84,4.18-2.94.98-.83,1.62-2.02,1.78-3.35.1-.81.39-1.48.87-2.11.37-.49.7-1.01,1.06-1.51.25-.35.34-.69.11-1.08-.05-.08-.08-.17-.12-.26-.85-2-.79-1.24.19-3.07.2-.37.51-.67.75-1.01.63-.87,1.41-1.37,2.53-1.23.57.07,1.16-.02,1.73.05.51.06,1.09.12,1.28.93-.4.02-.74.05-1.07.06-.64,0-1.29.06-1.93,0-1.27-.14-2.91,1.22-3.08,3.02-.03.27.09.57.21.83.51,1.22,1.01,2.45,1.59,3.63.48.99,1.02,1.95,1.63,2.86,1.16,1.74,2.4,3.44,3.55,5.23-.15-.12-.31-.21-.44-.35-1.69-1.8-3.17-3.74-4.36-5.92-.17-.32-.43-.59-.75-.83.3,1.92,1.07,3.65,1.79,5.4.72,1.73,1.49,3.43,2.25,5.19-.87-.96-2.43-3.89-3.26-6.31-.77-2.24-1.45-4.52-2.19-6.85-.13.13-.28.24-.39.38-.32.44-.65.88-.94,1.35-.15.24-.28.52-.3.79-.18,2.33-1.42,4.09-3.07,5.55-.97.86-2.18,1.45-3.29,2.16-.33.21-.69.35-1,.58-.72.54-.74,1.26-.07,1.87.72.65,1.45,1.28,2.16,1.94.3.28.57.6.76,1-.5-.41-1.01-.82-1.51-1.23-.06.05-.11.1-.17.14.39.81,1.1,1.41,1.58,2.15.51.78,1.11,1.51,1.66,2.27.55.76,1.09,1.52,1.62,2.3.54.8,1.08,1.61,1.59,2.44.49.8.96,1.61,1.43,2.42.47.81.94,1.63,1.37,2.46.42.81.8,1.65,1.11,2.51-2.17-3.87-4.53-7.6-7.09-11.2-.07-.1-.19-.15-.47-.36.12.45.15.73.27.97.85,1.8,1.36,3.7,1.78,5.64.07.34.22.67.34,1h0c-.13-.22-.35-.41-.39-.64-.35-2.08-1.3-3.93-2.16-5.81-1.24-2.68-2.78-5.18-4.48-7.59-.17-.24-.4-.45-.6-.67-.06.04-.13.08-.19.11.13.45.21.92.39,1.36.78,1.88,1,3.89,1.26,5.87.27,2.15.49,4.31.57,6.48.1,2.49.02,4.99-.11,7.52-.03-.18-.08-.36-.08-.55-.02-1.85.03-3.7-.06-5.55-.1-2.07-.31-4.13-.49-6.19-.11-1.19-.31-2.38-.39-3.57-.09-1.35-.4-2.62-1.08-3.79-.86-1.48-1.66-3-2.59-4.42-.65-1-1.55-.84-2.13.21-.12.21-.41.41-.65.44-.82.13-1.65.28-2.47.25-1.21-.05-2.44-.2-3.49-.89-.72-.47-1.37-1.05-2.04-1.59-.3-.24-.55-.54-.82-.82-.64-.65-1.35-.84-2.27-.65-1.58.31-3.05-.2-4.41-.98-.81-.46-1.56-1.02-2.35-1.52-.29-.19-.61-.33-1.15-.61.32,1.03.6,1.83.82,2.65.22.8.38,1.62.4,2.49-.09-.26-.18-.51-.28-.77-.6-1.61-1.18-3.23-1.81-4.82-.15-.37-.44-.73-.76-.97-1.25-.96-2.52-1.89-3.8-2.81-.5-.37-1.06-.6-1.7-.57-1.89.08-3.78.15-5.66.22-.96.04-1.63.49-1.94,1.6.25.23.55.56.9.81,1.38.95,2.51,2.1,3.14,3.71.08.19.34.4.54.44.44.09.65.34.83.72.29.64.51,1.31,1.1,1.79.3.24.16.54-.19.66-.54.18-1.12.29-1.64.53-.95.43-.89.5-.78,1.57.14,1.39-.24,2.68-1.09,3.83.03-.08.05-.17.08-.25.03-.09.07-.18.11-.27.59-1.21.59-2.51.54-3.81,0-.17-.11-.36-.21-.51-.27-.36-.19-.66.09-.95.57.29,1.08.08,1.31-.54.34.18.67.28.96-.17-.31.06-.63.12-.94.18-.45.18-.9.37-1.35.55-.11-.12-.25-.36-.32-.34-.5.14-.68-.16-.7-.54-.03-.65-.44-.92-.96-1.05-1.24-.32-2.48-.62-3.73-.88-1.5-.31-2.87-.89-4.11-1.81-.17-.13-.38-.2-.74-.38.08.46.13.77.19,1.07.45,2.2,1.61,4.02,3.13,5.59,1.06,1.1,1.86,2.31,2.18,3.81.47,2.25.92,4.5,1.38,6.75.02.11-.03.24-.07.58-.53-2.28-.98-4.36-1.51-6.41-.25-.97-.59-1.92-.99-2.83-.38-.86-1.13-1.45-1.93-2.22,0,.34-.05.52,0,.66.31.86.46,1.7.4,2.65-.08,1.19-.14,2.37-.27,3.56-.05.51.16,1.08.35,1.58,1.5,3.83,3.75,7.22,6.14,10.52.14.19.34.34.67.65,1.21-4.72,1.72-9.28.98-13.94-.77.27-1.44.52-2.13.71-.11.03-.29-.19-.56-.38.64-.12,1.14-.16,1.6-.32.47-.17.9-.46,1.48-.77.09.31.24.62.28.94.46,4.19.3,8.35-.74,12.45-.11.44-.29.86-.42,1.29-.05.17-.08.34.03.63.15-.12.34-.2.44-.35,1.46-2.12,2.58-4.4,3.33-6.87.09-.31.19-.61.33-1.09.17.3.29.46.35.65.65,2.05.65,4.15.48,6.26-.02.23,0,.45.12.68,1.67-3.62,1.44-7.4.85-11.43.34.26.54.33.61.46.44.82.94,1.63,1.27,2.5.64,1.7,1.01,3.48,1.08,5.31,0,.12.06.24.09.39.44-.47.63-1.53.58-4-.03-1.35-.2-2.69-.32-4.14,1.35,1.29,2.49,2.62,2.4,4.64-.39-.07-.45-.51-.62-.84-.19-.37-.37-.74-.62-1.23-.45.72-.24,1.35-.26,1.96-.04,1.45-.03,2.9-.63,4.38-.16-.17-.25-.34-.38-.39-.17-.06-.37-.01-.66-.01-.36-1.98-.41-4.07-1.41-5.94,0,3.18-.22,6.32-1.66,9.34-.24-.28-.39-.46-.57-.66-.14.21-.24.36-.36.54-.09-.09-.2-.14-.21-.21-.04-.26-.06-.52-.05-.77.04-1.32.1-2.64.13-3.97,0-.27-.1-.54-.15-.8-.07-.01-.14-.03-.22-.04-.14.23-.29.46-.41.7-.58,1.12-1.15,2.24-1.72,3.37-.38.76-.83,1.46-1.71,1.9.16.29.26.56.43.77,1.56,2.01,3.14,4.02,5.23,5.52.3.21.41.7.9.62-.1.4.17.61.41.83.28.27.58.52.86.78.8.76,1.46.84,2.27.13.36-.32.64-.28,1.03-.17,1.93.56,3.86,1.15,5.82,1.61,1.27.3,2.58.4,3.88.57,2.34.3,4.73.17,7.04.78.87.23,1.7.56,2.57.78,2.14.54,4.3.97,6.43,1.56,2.06.57,4.08,1.31,6.13,1.93.91.27,1.86.44,2.81.6.68.12,1.31-.08,1.94-.4,2.04-1.03,3.92-2.31,5.74-3.69,2.31-1.75,4.67-3.41,7.02-5.11.73-.53,1.47-1.05,2.23-1.53.37-.24.8-.41,1.22-.53.67-.19,1.37-.29,2.05-.45.59-.14.86-.65,1.1-1.14.83-1.64,1.52-3.36,2.95-4.61.05-.04.11-.09.12-.15.3-.97,1.1-1.03,1.91-1.1.67-.06,1.34-.12,2-.22.24-.04.56-.11.69-.29.44-.58.99-.5,1.57-.36.19.04.38.08.57.08.69.01,1.24-.17,1.79-.7,1.01-.97,1.84-2.05,2.61-3.21.52-.79.54-1.6.06-2.38-.99-1.59-1.9-3.25-3.06-4.71-2.09-2.62-4.34-5.13-6.55-7.65-.85-.97-1.8-1.85-2.67-2.8-1.24-1.36-2.45-2.74-3.67-4.12-.38-.42-.75-.86-1.28-1.47-.1.89-.22,1.54-.21,2.2,0,.32.22.68.43.94,1.49,1.78,3,3.54,4.51,5.31.54.64,1.09,1.27,1.64,1.91l.02-.02ZM86.77,132.21c-.17-.33-.34-.66-.52-1.04-.4.21-.39.49-.25.81.18.41.48.33.8.21-.06.2-.12.39-.2.67.91.03,1.66.54,2.57.35-.14-.48-.41-.74-.8-.81-.52-.09-1.06-.12-1.59-.18ZM97.34,87.24c.16.01.33.06.48.02,1.6-.4,3.11-.05,4.59.53.23.09.5.2.65.38.11.15.06.43.09.78.32-.19.59-.3.79-.48.53-.45,1.06-.58,1.65-.15.29.21.55.1.79-.09.23-.18.46-.35.68-.54,1.21-1.12,2.55-1.23,4-.56.36.17.72.26,1.14.03.12-.8.25-1.62.38-2.44q-.59.13-1.21.69c-.79.73-1.62,1.31-2.73.65-.22.14-.41.25-.59.39-.65.53-1.37.73-2.23.72-1.42-.03-2.81-.22-4.16-.59-1.17-.32-2.29-.13-3.42.06-.35.06-.78.15-.89.63q-.65-.03-.86.59c.28-.2.56-.41.84-.61ZM86.53,110.98c.14.26.3.5.4.77.48,1.25,1.34,2.19,2.36,3,.14.11.36.14.57.22.01-.18.04-.26.01-.29-.11-.15-.24-.3-.37-.43-1.16-1.19-2.08-2.53-2.49-4.19-.32-1.32-.64-2.63-.97-3.95-.04-.16-.13-.3-.23-.52-.41.39-.53.8-.43,1.21.22.94.51,1.86.76,2.79-.28-.62-.56-1.24-.91-2.02-.14.35-.25.54-.29.75-.04.19,0,.39-.04.58-.03.19-.11.37-.19.62-1.07-2.18-1.4-4.41-1.35-6.69.02-.8.15-1.61.25-2.41.06-.42.08-.78-.4-.94-.07.03-.15.03-.18.07-.64.85-1.27,1.71-1.2,2.88.02.32-.07.64-.08.96-.05,1.16-.13,2.32.21,3.46.52,1.75,1.3,3.39,2.25,4.92.76,1.23,1.67,2.37,2.61,3.47.66.76,1.49,1.36,2.36,1.89.72-1.32.72-1.51-.27-2.36-1.18-1.02-2.02-2.24-2.37-3.78ZM126.27,74.52c.55.26,1.12.49,1.65.79.51.28,1.16.36,1.54,1.01-.23.12-.41.29-.61.31-.79.09-1.59.15-2.38.21-1.4.1-2.77-.13-4.01-.79-1.02-.54-2.02-1.13-2.92-1.85-1.02-.82-1.94-1.77-2.86-2.72-.6-.62-1.1-1.35-1.67-2.01-.34-.39-.75-.69-1.42-.56.14.23.22.4.34.53.78.86,1.57,1.71,2.35,2.58,1.33,1.47,2.54,3.04,2.91,5.06.5,2.7.99,5.41,1.4,8.13.47,3.17,1.43,6.18,2.68,9.1.07.17.24.29.37.43-.1-2.52-.79-4.89-.87-7.36-.08-2.43-.4-4.85-.62-7.27.48,1.28.65,2.61.72,3.96.05.98.19,1.94.63,2.82.62,1.25,1.23,2.5,1.88,3.73,1.35,2.56,2.38,5.23,2.76,8.13.02.15.14.29.23.48.1-.14.15-.18.16-.24.04-.22.07-.45.08-.68.2-3.25-.36-6.39-1.33-9.48-.42-1.34-.93-2.66-.95-4.09.1.17.16.35.22.53.36,1.24.67,2.5,1.08,3.72.75,2.27,1.57,4.51,2.11,6.84.34,1.48.82,2.94,2.02,4.01,1.52,1.35,2.99,2.75,4.54,4.06,1.25,1.06,2.76,1.59,4.36,1.91,1.53.31,3.1.49,4.47,1.55.42-.47.83-.91,1.26-1.39-.56-1.36-1.3-2.58-2.55-3.44-1.24-.86-2.48-1.73-3.72-2.59-.64-.43-1.35-.77-1.93-1.26-1.37-1.17-2.76-2.33-3.98-3.65-1.58-1.71-2.92-3.61-3.67-5.88-.69-2.06-1.41-4.11-2.12-6.17.36.41.64.87.82,1.37.36,1.04.61,2.12,1,3.14.61,1.6,1.12,3.25,2.17,4.64.1.13.26.2.5.38-.03-.28-.02-.41-.06-.52-.63-1.56-.78-3.19-.8-4.86-.02-2.72-.04-5.45-.16-8.17-.11-2.26-1.07-4.02-3.26-4.96-1.35-.58-2.72-1.15-3.9-2.08-.27-.22-.58-.49-1.23-.43.43.47.73.81,1.04,1.15.59.64,1.18,1.27,1.76,1.91-.62-.46-1.26-.89-1.85-1.38-1.06-.89-2.06-1.83-2.86-2.99-1.33-1.94-2.72-3.85-4.41-5.49-.43-.42-.94-.79-1.47-1.06-.53-.27-1.16-.35-1.72-.58-1.02-.43-1.93-.2-2.81.38-.51.33-1.04.64-1.57.95-.18.1-.39.17-.58.25.22-.27.5-.43.76-.61.24-.18.45-.39.68-.58-.04-.07-.08-.14-.12-.21-.97-.04-1.81.46-2.65.83-1.91.86-2.36,1.21-2.68,1.84.66-.03,1.26-.06,1.86-.1,1.01-.06,2.03-.29,3.01-.17,1.46.18,2.74.96,3.98,1.76.21.14.48.31.55.53.26.78.97,1.17,1.45,1.75.18.22.42.41.57.65,1.12,1.76,2.73,3,4.36,4.2,1.06.79,2.21,1.41,3.58,1.53,1.02.08,2.02.25,3.04.35.38.04.78-.02,1.16-.03,0-.06,0-.11,0-.17-.78-.55-1.55-1.1-2.33-1.66ZM80.94,107.72c.35.11.48-.06.46-.38-.04-.65-.09-1.29-.12-1.94-.07-1.52-.3-3.06.38-4.5.54-1.14,1.09-2.29,1.81-3.32.89-1.26,1.19-2.62,1.18-4.11-.01-.84,0-1.68,0-2.56.1.08.18.11.18.16.04.25.08.51.1.77.19,2.35-.21,4.66-.67,6.94-.57,2.87-.69,5.72-.11,8.59.05.26.04.57.45.7.09-.36.17-.67.23-.98.26-1.35.6-2.68,1.37-3.81,1.02-1.49,1.3-3.22,1.7-4.91.04-.18.04-.4-.02-.57-.38-1.05-.49-2.14-.57-3.24-.15-2.2-.43-4.39-.48-6.58-.05-2.23.11-4.47.18-6.71,0-.05.06-.09.16-.22.02.22.05.36.05.5,0,1.98,0,3.96,0,5.94,0,.78.02,1.56.07,2.33.08,1.23.26,2.45.3,3.68.07,2.14.55,4.13,1.5,6.07,1.74,3.57,3.41,7.19,4.98,10.84.92,2.13,1.63,4.36,1.88,6.71.06.52.19,1.03.32,1.72.43-.55.29-.98.26-1.36-.09-1.19-.2-2.39-.34-3.57-.19-1.57-.36-3.15-.63-4.71-.5-2.95-1.51-5.75-2.64-8.5-.93-2.26-1.64-4.56-1.75-7.02-.06-1.32-.23-2.64-.32-3.96-.07-1.06-.17-2.13-.14-3.19.03-1.06.21-2.12.32-3.19.11-1.09.21-2.19.33-3.28.11-1,.29-1.99.33-2.99.04-.93-.05-1.88-.13-2.81-.12-1.33.21-2.57.72-3.78.24-.57.48-1.13.7-1.71.09-.22.12-.47.23-.92-.36.26-.56.36-.71.5-1.71,1.62-3.4,3.25-5.11,4.86-1.5,1.41-3.1,2.71-4.4,4.34-.67.84-1.45,1.64-1.49,2.77-.07,1.94-.08,3.9.02,5.84.09,1.81.34,3.61.52,5.41,0,.03-.03.06-.03.05-.14-.16-.27-.31-.36-.43-.71,1.43-1.37,2.83-2.11,4.19-.54,1-.73,2.06-.76,3.17-.04,1.72.56,3.31.98,4.94.37,1.44.79,2.87,1.2,4.3-.57-1.51-1.15-3.02-1.72-4.52-.13-.35-.26-.7-.47-1.27-.32.45-.61.7-.68,1-.13.52-.18,1.08-.17,1.62.03,2.32.28,4.65.05,6.97-.02.21-.09.42-.16.75-.22-.51.06-1.05-.43-1.32-1.41,1.15-1.77,1.7-1.48,3.34.32,1.84.9,3.64,1.37,5.45,1.52,2.41,2.53,5.14,4.59,7.23,1.26,1.28,2.66,2.34,4.11,3.34.66.46,1.5.11,1.78-.66.09-.24.08-.56.24-.72.49-.49.54-1.07.55-1.7,0-.21.08-.43.13-.64.03,0,.06,0,.09.01-.06.88-.12,1.76-.19,2.62.54.17.78.07.92-.38.48-1.51,1.03-3,1.5-4.51.62-1.99,1.42-3.89,2.44-5.7.61-1.08,1.01-2.25,1.19-3.47.11-.75.29-1.51.04-2.3-.59-1.89-1.32-3.72-2.27-5.46-.12-.22-.3-.42-.5-.56-.83-.58-1.28-1.47-1.9-2.23.57.19.7.95,1.43,1.05-.05-.93-.67-1.52-.94-2.27-.26-.73-.67-1.4-1-2.1-.33-.71-.48-1.52-1.14-2.06-.49.72-.49.72-.29,1.34.06.18.14.39.1.56-.23,1.09.26,2.06.63,2.99.29.72.56,1.44.72,2.19.3,1.39.54,2.8.78,4.2.28,1.57.43,3.16.04,4.73-.44,1.76-.95,3.5-1.45,5.24-.67,2.33-1.33,4.67-1.48,7.12-.04.65-.15,1.3-.23,1.95-.31-1.46-.1-2.9.11-4.32.1-.71,0-1.22-.45-1.78-1.56-1.89-3.11-3.8-4.61-5.74-.6-.78-1.06-1.67-1.69-2.67,1.37,1.09,2.53,2.09,3.78,2.97,1.25.88,2.5,1.76,4,2.36.21-.65.4-1.19.55-1.74.26-.99.18-1.03-.62-1.7-.91-.76-1.86-1.52-2.59-2.45-1.31-1.68-2.41-3.52-3.22-5.52-.06-.16-.2-.29-.39-.57-.11.46-.18.75-.27,1.12-.3-.64-.57-1.22-.85-1.8ZM105.93,94.52c-.57-.82-.61-1.6.12-2.36.16-.16.32-.34.41-.54.14-.29.23-.62.35-.96-.62-.03-.44.8-1.03.69-.02-.77.61-1.45.23-2.37-1.18.58-1.53,1.71-2.05,2.86-.25-1.35.85-2.09,1.1-3.35-1.47.92-1.82,2.5-2.88,3.48.02-.9,1.02-1.42.86-2.52-.28.23-.47.35-.6.51-.6.79-1.31,1.39-2.27,1.73-.95.33-1.51,1.03-1.6,2.1-.04.48-.18.95-.28,1.42-.48-.83.26-1.79-.4-2.63-.99,1.35-1.27,2.73-1,4.61.24,1.63.55,3.26.68,4.9.09,1.05-.07,2.13-.15,3.19-.02.21-.22.4-.33.6-.08,0-.16-.02-.24-.03-.05-.22-.2-.47-.14-.66.29-1.06.23-2.11.09-3.18-.16-1.32-.17-2.66-.46-3.95-.37-1.68-.34-3.27.29-4.86.32-.8.24-.91-.75-1.24-.32.76-.64,1.54-.97,2.31-.28-.75-.05-1.42.21-2.04.28-.65.73-1.22,1.15-1.9-1.32-.19-1.74.78-2.23,1.64-.46-.77.31-1.19.33-1.87-1.15.55-1.01,1.85-1.77,2.71-.19-1.11.57-1.79.7-2.72-.83-.2-1.23.5-1.9.73.08,1.06.19,2.08.24,3.11.1,2.17.73,4.2,1.56,6.18,1.07,2.57,2.01,5.19,2.57,7.93.49,2.35.67,4.74.9,7.13.03.36.16.78.39,1.05.52.61,1.09,1.18,1.69,1.71,1.48,1.29,2.92,2.64,4.69,3.54,1.34.68,2.68,1.37,4.03,2.04,1.07.53,2.16.97,3.4.84.31-.03.64.04.95.1,1.08.2,1.41-.03,1.57-1.1.12-.82,0-.98-.77-.8-.74.18-1.38-.06-2.04-.3.54-.05,1.07-.04,1.6-.06.31-.01.65-.04.93-.16.15-.06.32-.34.3-.5-.02-.17-.23-.36-.4-.44-.19-.09-.45-.03-.66-.09-.43-.12-.91-.21-.79-.85-.83-.08-1.64.04-2.27-.58,1.07.08,2.13.27,3.3-.06-.13-.45-.25-.86-.35-1.23-.75-.16-1.48.1-2.22-.48.33-.06.5-.11.66-.12.32,0,.64.02.96.02.27,0,.56-.07.54-.41-.02-.22-.16-.46-.3-.65-.09-.11-.28-.14-.43-.2-.65-.28-1.3-.54-1.95-.83-.33-.15-.64-.33-.85-.8.37.17.61.28.84.39,1.76.88,3.43.92,4.99-.47.36-.32.8-.55,1.2-.82-.72.85-1.34,1.76-2.32,2.3-.59.33-.59.59-.13,1.27.52-.24,1.05-.49,1.75-.82-.37,1.1-1.36,1.06-1.98,1.64.17.37.33.73.52,1.14.73-.24,1.41-.37,1.99-.69.58-.32,1.06-.82,1.68-1.32.12.57-.1.78-.4.92-.83.41-1.67.81-2.49,1.24-.22.11-.62.05-.56.57h1.16c-.84.46-1.34.89-.92,1.8.37-.14.72-.26,1.06-.41.33-.14.56-.61,1.1-.39-.29.53-.75.69-1.18.87-1.09.46-1.09.45-.95,1.66.01.09.06.18.1.3,1.05.29,2,.19,2.83-.6.32-.31.69-.58,1.02-.89,1.81-1.63,3.48-3.41,4.49-5.64,1.09-2.41,1.97-4.92,2.97-7.38.48-1.2.62-2.45.6-3.71-.03-1.39-.32-2.78-.3-4.16.04-2.25-.65-4.35-1.12-6.49-.06-.25-.09-.59-.58-.63.06.38.14.71.15,1.06.01.32.13.69-.25.96-1.34-2.77-2.45-5.55-3.13-8.56-.5.18-.76,0-.99-.4-.22-.37-.52-.74-1.2-.65.36.89.75,1.7,1.02,2.55.28.89.44,1.82.68,2.72.24.89.53,1.76.81,2.71-.59.03-.69-.35-.83-.65-.58-1.2-.91-2.49-1.15-3.8-.11-.6-.27-1.2-.49-1.77-.17-.46-.78-.75-1.08-.59-.42.22-.31.58-.2.93.01.04-.04.1-.07.15-.65-.63-.66-.66-1.28-.63-.91.05-1.71-.12-2.38-.81-.21-.21-.48-.43-.88-.09.56.62,1.1,1.21,1.64,1.81-.99-.2-1.53-1.24-2.7-1.24.27.71.5,1.3.73,1.91-.84.06-.99,1.02-1.71,1.06-.02.28-.04.48-.06.65-.35-.14-.68-.39-.95-.35-.82.14-1.76-.05-2.38.76-.05.07-.18.13-.25.11-.65-.22-.79.3-.92.71-.16.48-.2,1-.29,1.5l.02-.02ZM98.54,130.02c-.72-.31-1.09-.99-1.49-1.58-1.17-1.72-2.68-3.09-4.23-4.42-.47-.4-.9-.3-1.13.28-.24.6-.4,1.23-.65,1.82-.22.51-.08.88.29,1.21.67.6,1.36,1.17,2.03,1.78.73.66,1.45,1.35,2.17,2.02h.02c-.24-.17-.51-.3-.73-.48-1.19-.94-2.36-1.89-3.54-2.84-.26-.21-.53-.41-.86-.67-.37.93-.7,1.77-.54,2.57.15.73.19,1.34-.18,1.98-.84-.72-1.51-.71-2.24.01.07.06.14.17.21.16,1.01-.05,1.81.78,2.83.66.06,0,.13.03.18.06.85.45,1.69.91,2.54,1.34.83.42,1.65.87,2.5,1.21,1.07.43,2.18.77,3.27,1.13,4.13,1.37,7.81,3.56,11.24,6.22.14.11.25.26.37.4-.56-.09-.88-.77-1.63-.49.17.98.66,1.81.99,2.71.34.91.58,1.85.87,2.77.28.9.14,1.91.59,2.77.07,0,.15,0,.22,0,.14-1.38.28-2.76.41-4.14.11.48.16.97.11,1.44-.19,1.73-.42,3.45-.61,5.17-.35,3.11-1.21,6.09-2.34,8.98-.74,1.89-1.74,3.68-2.57,5.54-.55,1.24-1.01,2.52-1.48,3.79-.46,1.24-.95,2.47-1.3,3.74-.31,1.15-.48,2.34-.65,3.53-.26,1.86-.61,3.72-.67,5.58-.12,3.76-.27,7.53.21,11.32-.87-1.67-1.63-3.38-2.46-5.05-.35-.72-.78-1.42-1.29-2.03-.4-.48-.92-.98-1.48-1.17-.96-.32-1.45-.86-1.51-1.85-.02-.39-.07-.77-.13-1.15-.12-.81-.34-1.57-1.05-2.03-1.49.54-1.28,1.68-1.03,2.83-.1-.03-.16-.03-.16-.04-.34-2.2-.89-4.38-.47-6.64.2-1.08.22-2.19.47-3.25.95-3.86,2.52-7.48,4.44-10.94,1.49-2.69,2.88-5.42,3.83-8.36.94-2.93,1.42-5.93,1.23-9-.09-1.52-.42-3.06-1.27-4.34-1.22-1.86-2.62-3.59-4.43-4.94-.58-.43-1.11-1-1.49-1.62-.4-.66-.91-.79-1.62-.83.03.45-.02.86.08,1.22.37,1.31.64,2.63.83,3.98.22,1.57.49,3.12.52,4.72.04,2.63-.04,5.26-.46,7.86-.66,4-1.74,7.9-3.1,11.71-1.63,4.57-3.55,9.03-5.42,13.5-.44,1.04-.98,2.04-1.48,3.05-.18.37-.13.68,0,1.09.23.76.42,1.58.38,2.37-.1,2.23-.33,4.45-.5,6.68-.1,1.26-.15,2.52-.29,3.78-.21,2-.46,3.99-.71,5.98-.27,2.15-.5,4.31-.84,6.45-.36,2.3-.83,4.57-1.27,6.86-.16.83-.37,1.64-.54,2.47-.38,1.9-.7,3.82-1.15,5.71-.65,2.74-1.39,5.46-2.1,8.18-.51,1.94-1.03,3.87-1.56,5.8-.31,1.12-.73,2.21-1.01,3.34-.61,2.51-1.34,4.98-2.18,7.42-.56,1.65-1.13,3.3-1.65,4.97-.5,1.6-.9,3.24-1.42,4.84-1.02,3.1-2.07,6.2-3.15,9.28-.9,2.57-1.82,5.12-2.78,7.66-1.03,2.72-2.11,5.43-3.16,8.14-.13.33-.23.67-.37.99-.49,1.18-.99,2.37-1.5,3.54-.55,1.27-1.07,2.56-1.68,3.81-.92,1.89-1.97,3.71-2.59,5.73-.09.31-.15.63-.16.95-.01.62.16.83.77.88.57.05,1.16-.01,1.73.04.7.07,1.44.07,2.07.34.95.41,1.71,1.11,2.25,2.05.71,1.25.89,2.63,1.08,4,.29,2.1.48,4.23.8,6.33.2,1.31.48,2.61,1.13,3.8.79,1.43,2.23,1.81,3.62,1.1,1.23-.62,2.43-1.29,3.59-2.03,1.27-.81,2.55-1.63,3.71-2.6,2.45-2.03,4.88-4.09,7.74-5.55.63-.32,1.25-.72,1.92-.86,1.16-.23,2.34-.12,3.46.32,1.76.7,3.51,1.41,5.28,2.06,1.65.61,3.32,1.19,5,1.69,1.9.56,3.82,1.03,5.74,1.52,1.42.36,2.85.74,4.28,1.04,2.19.45,4.39.84,6.59,1.26,2.84.54,5.7.85,8.59.68,1.86-.11,3.6-.65,4.88-2.15.48-.56.88-1.19,1.33-1.77.45-.58.88-1.19,1.39-1.71.66-.69,1.58-.73,2.51-.75.09-.52.17-.99.24-1.47.37-2.69.73-5.39,1.1-8.08.21-1.51.56-3,.63-4.52.07-1.4.4-2.75.53-4.14.12-1.31.69-2.58.34-3.92-.01-.05-.03-.14,0-.16.56-.5.43-1.21.51-1.84.18-1.41.33-2.83.45-4.25.24-2.64.57-5.28.64-7.93.13-4.96.2-9.92-.16-14.88-.1-1.39-.19-2.78-.41-4.15-.45-2.81-.98-5.61-1.51-8.41-.25-1.33-.53-2.66-.88-3.97-.56-2.13-1.19-4.24-1.8-6.35-.48-1.65-.92-3.31-1.46-4.93-.73-2.21-1.56-4.39-2.33-6.59-.59-1.71-1.17-3.43-1.72-5.16-.63-1.97-1.26-3.95-1.81-5.95-.93-3.37-1.82-6.75-2.67-10.14-.64-2.54-1.26-5.09-1.77-7.66-.66-3.3-1.23-6.62-1.77-9.95-.44-2.71-.78-5.44-1.14-8.16-.11-.83-.08-1.69-.25-2.51-.38-1.82-.33-3.67-.49-5.51-.17-2.03-.25-4.06-.39-6.1-.1-1.55-.23-3.1-.34-4.65-.11-1.45-.21-2.91-.32-4.36.2.21.27.44.34.67.69,2.23,1.33,4.47,2.08,6.68,1.01,2.97,2.11,5.91,3.18,8.86.31.85.66,1.68,1.02,2.51.71,1.63,1.43,3.25,2.16,4.87.81,1.8,1.62,3.6,2.45,5.39.72,1.56,1.45,3.1,2.19,4.65.7,1.45,1.43,2.9,2.15,4.34.56,1.13,1.11,2.26,1.67,3.39.46.93.91,1.85,1.37,2.78.57,1.16,1.17,2.3,1.72,3.48.72,1.56,1.37,3.14,2.09,4.7,1.33,2.88,2.7,5.73,4.01,8.62,1.26,2.79,2.47,5.62,3.7,8.43.52,1.18,1.07,2.35,1.56,3.55,1.14,2.78,2.27,5.56,3.38,8.35.72,1.8,1.44,3.6,2.11,5.42.67,1.82,1.29,3.66,1.88,5.5.65,2.03,1.33,4.05,1.87,6.11.66,2.53,1.23,5.09,1.77,7.65.51,2.44.92,4.89,1.37,7.34.19,1.02.42,2.03.56,3.05.24,1.73.45,3.47.65,5.21.25,2.18.52,4.37.7,6.56.15,1.84.17,3.69.26,5.54.01.27.07.53.1.79.09,0,.19-.01.28-.02.2-1.41-.05-2.82-.08-4.23-.04-1.43-.11-2.87-.17-4.43.08.24.15.36.16.48.21,2.22.55,4.44.6,6.67.09,4.38.06,8.77.01,13.15-.02,1.73-.36,3.42-1.46,4.84-.28.36-.48.78-.79,1.1-1.3,1.33-1.9,3.07-2.72,4.68-.1.2-.1.45-.16.74.56-.13.99-.25,1.42-.33,1.57-.26,3.16-.43,4.72-.77,1.46-.32,2.9-.77,4.33-1.23,3.58-1.15,7-2.64,10.23-4.61,3.12-1.91,5.89-4.24,8.3-7.01,1.3-1.49,2.41-3.11,2.93-5.08.1-.37.44-.73.76-.96.88-.64,1.79-1.25,2.73-1.81,1.05-.64,1.86-.45,2.58.53.25.33.43.72.67,1.05.49.68.94,1.41,1.52,2,1.44,1.45,3.42,1.2,4.68-.18,2.31-2.52,3.24-5.54,3.17-8.9-.03-1.32-.26-2.64-.4-3.96-.3-2.78-.25-5.52,1.07-8.06.7-1.35,1.75-2.4,3.32-2.5,2.44-.16,4.86.1,7.25.62,1.57.34,3.12.63,4.67-.2,1.16-.62,1.76-1.43,1.68-2.75-.1-1.61-.94-2.9-1.91-4.06-1.45-1.76-2.99-3.46-4.56-5.13-2.23-2.38-4.53-4.68-6.76-7.06-1.34-1.43-2.59-2.95-3.87-4.44-.97-1.13-1.92-2.27-2.86-3.41-1.6-1.94-3.21-3.88-4.78-5.85-1.28-1.62-2.5-3.29-3.76-4.92-1.75-2.28-3.55-4.52-5.25-6.83-2.14-2.91-4.22-5.88-6.31-8.83-2.58-3.63-5.19-7.24-7.73-10.89-1.6-2.31-3.16-4.65-4.65-7.03-2.38-3.81-4.76-7.62-6.99-11.51-2.1-3.67-4.03-7.44-6-11.19-.98-1.86-1.85-3.77-2.8-5.65-.13-.25-.15-.66-.66-.67.02.17,0,.33.05.46.62,1.49,1.23,2.99,1.88,4.46.97,2.19,1.95,4.37,2.97,6.54,1.3,2.78,2.63,5.55,3.97,8.31.85,1.75,1.7,3.49,2.6,5.21,1.62,3.08,3.29,6.15,4.93,9.21,1.16,2.16,2.32,4.33,3.5,6.48,1.74,3.17,3.51,6.33,5.26,9.5.14.25.23.53.37.86-.16-.03-.21-.03-.22-.05-.74-1.3-1.45-2.62-2.21-3.9-.86-1.44-1.83-2.82-2.62-4.29-2.46-4.55-4.86-9.13-7.28-13.7-1.41-2.66-2.84-5.3-4.21-7.98-1.23-2.42-2.41-4.88-3.57-7.34-1-2.14-1.95-4.3-2.89-6.46-.73-1.69-1.44-3.39-2.11-5.11-.69-1.74-1.31-3.5-1.98-5.24-.4-1.02-.89-2-1.26-3.04-1.09-3.08-2.18-6.16-3.2-9.26-.57-1.72-.98-3.49-1.5-5.22-.13-.42-.39-.81-.63-1.19-.27-.4-.6-.76-.89-1.15-2.23-3.01-4.45-6.03-6.69-9.04-2.27-3.06-4.51-6.14-5.81-9.8-.06-.16-.22-.29-.38-.51-.11.21-.24.35-.24.48.04.84-.29,1.57-.6,2.32-.07.17-.07.38-.13.56-.23.63-.4,1.3-.73,1.87-.43.75-.98,1.44-1.5,2.14-.26.36-.29.7-.09,1.08.46.85.9,1.72,1.37,2.56,1.47,2.6,3.18,5.03,5.27,7.16,1.65,1.68,3.32,3.33,4.96,5.02,2,2.05,3.5,4.46,4.81,7,.34.67.55,1.42.88,2.29-.6-.1-1.03-.11-1.4-.26-.66-.26-1.28-.3-1.97-.11-.95.25-1.53-.22-1.55-1.26-.01-.72-.28-1.33-.66-1.9-.1-.15-.32-.21-.58-.38-.05.4-.08.65-.12.9-.26,1.64-.15,3.24.65,4.72.51.94,1.05,1.86,1.6,2.77.41.67.59,1.36.27,2.12-.38.92-.78,1.83-1.17,2.75-.14.32-.27.65-.37.99-.1.38-.16.77-.26,1.29-.28-1.13-.46-2.11-.77-3.06-.55-1.72-1.04-3.5-1.81-5.12-1.04-2.19-2.46-4.18-4-6.06-1.53-1.87-3.16-3.66-4.73-5.51-2.32-2.73-4.12-5.77-5.51-9.08-.31-.74-.48-1.63-1.48-2.14.37-.3.65-.56.95-.79,1.95-1.45,3.61-3.21,5.28-4.97,1.06-1.12,1.85-2.41,2.22-3.92.29-1.15.5-2.33.76-3.49.48-2.15.97-4.29,1.46-6.44.03-.13.13-.25.2-.37.13,1.43-.42,2.77-.46,4.3.27-.15.4-.18.47-.27.72-.82,1.41-1.64,1.65-2.79.35-1.64.38-3.28.36-4.93-.02-1.46-.34-2.82-1.02-4.1-.23-.43-.44-.87-.57-1.34-.43-1.49-.89-2.98-1.19-4.5-.16-.83-.52-1.42-1.11-1.96-.65-.59-1.27-1.23-1.97-1.91-.1.24-.18.38-.22.53-.38,1.6-.75,3.21-1.12,4.81-.03.12-.04.26-.03.38.05,1.29.11,2.58.17,3.88.06,1.23-.2,2.41-.85,3.44-1.26,1.99-2.58,3.95-3.9,5.9-1.16,1.72-2.35,3.4-3.51,5.12-.48.72-.91,1.48-1.36,2.21v.02c.21-.41.36-.84.6-1.22.87-1.4,1.74-2.79,2.67-4.15,1.57-2.33,3.2-4.61,4.77-6.94.84-1.25,1.27-2.64,1.34-4.19.1-2.05-.31-4.04-.4-6.07,0-.15-.15-.29-.35-.66-.2.92-.44,1.6-.47,2.29-.03.87.09,1.74.17,2.61.14,1.46-.12,2.84-.77,4.13-1.17,2.3-2.51,4.51-4,6.62-.43.6-.84,1.22-1.24,1.84-.7,1.09-1.36,2.19-2.07,3.27-.16.25-.44.43-.66.63h0c.76-1.44,1.48-2.92,2.45-4.26.85-1.17,1.58-2.43,2.35-3.66.46-.74.89-1.5,1.31-2.26.57-1.05,1.16-2.09,1.66-3.17.37-.79.43-2.83.19-3.62-.92.87-.92,2.39-2.15,3,.21-.65.48-1.27.82-1.84.86-1.46,1.53-2.98,1.84-4.66.09-.52.12-.93-.45-1.29,1.17-.35.57-1.49,1.16-2.21.12.7.18,1.28.33,1.83.14.51-.07,1.16.56,1.59.36-1.5.59-2.93.48-4.39-.02-.33-.18-.7-.39-.95-.4-.5-.64-1.04-.74-1.66-.06-.38-.13-.74-.6-1.09-.12,1.17-.21,2.22-.33,3.26-.19,1.71-.44,2.47-.97,2.93-.42-2.18-.06-4.45-.98-6.55-.19.03-.39.05-.64.09-.18-.5-.34-.97-.51-1.43.03-.01.06-.02.1-.03.21.25.41.49.62.74.06-.04.12-.07.18-.11-.29-.84-.54-1.7-.89-2.52-.37-.86-.83-1.68-1.27-2.51-.41-.77-.65-1.65-1.33-2.49-.05.4-.11.59-.09.78.14,1.25.17,2.54.48,3.75.2.78.38,1.72,1.11,2.1.05.45.06.8.13,1.13.11.54.28,1.06.4,1.6.47,2.05.83,4.12,1.05,6.22.25,2.45.09,4.84-.58,7.2-.26.93-.64,1.83-.97,2.74-.93,2.6-2.01,5.12-3.82,7.24-1.32,1.55-2.75,2.98-4.48,4.08-.35.22-.67.47-1.14.19-.17-.1-.49,0-.72.08-1.12.35-2.23.54-3.38.12-.26-.09-.66-.18-.83-.05-.61.45-1.14.17-1.7-.02-1.83-.62-3.58-1.42-5.26-2.36-1.92-1.07-3.62-2.43-5.25-3.91-.29-.27-.54-.67-1.08-.54-.24.8-.05,1.47.55,2.02,1.49,1.38,2.99,2.74,4.46,4.14.6.57,1.1,1.24,1.65,1.86l.02-.03c-.3-.18-.63-.32-.88-.56-1.91-1.78-3.8-3.58-5.71-5.36-.16-.15-.39-.24-.67-.4-.11.42-.19.7-.26.97-.03-1.04-1.1-1.16-1.51-1.84h.56c-.22-.51-.56-.72-1.04-.81-.93,1.37-1.64,2.81-2.23,4.32-.18.46,0,.71.33.99,2.33,1.96,4.31,4.24,6.02,6.76l.02-.02ZM135.64,306.26c.48.03.85.06,1.23.08.89.05,1.79.08,2.68.15,1.66.14,3.31.3,4.97.45.35.03.7.07,1.05.11,1.37.16,2.73.33,4.1.47.92.09,1.85.17,2.77.21,2.17.1,4.35.17,6.45.25.17-.23.27-.32.32-.44.91-2.09,2.04-4.03,3.5-5.79.88-1.05,1.21-2.33,1.2-3.71-.01-.88.01-1.75.04-2.63.02-.97.11-1.94.08-2.91-.01-.47-.12-1-.35-1.39-.31-.51-.38-1.01-.39-1.57-.05-2.07-.06-4.15-.17-6.22-.13-2.36-.21-4.72-.53-7.06-.27-1.95-.37-3.93-.64-5.89-.4-2.85-.86-5.7-1.37-8.53-.45-2.48-.94-4.96-1.51-7.42-.95-4.1-1.95-8.2-3.4-12.15-1.63-4.43-3.3-8.86-5.02-13.26-1.04-2.65-2.2-5.25-3.33-7.87-.9-2.07-1.83-4.14-2.76-6.2-.4-.88-.75-1.81-1.54-2.43-1.04-.81-2.1-1.61-3.17-2.38-.53-.38-1.02-.1-1.04.56-.03,1-.03,2-.05,3-.01.75.01,1.5-.05,2.24-.09,1.06-.5,1.94-1.59,2.32-.83-.31-1.55-.77-2.16-1.42-.66-.71-1.35-1.39-2.06-2.04-1.37-1.23-2.33-2.74-3.08-4.41-.22-.5-.45-1.01-.71-1.49-.14-.26-.36-.47-.66-.87-.08.38-.13.52-.13.67-.05,1.96.25,3.9.71,5.77.53,2.13,1.31,4.2,2.03,6.28.76,2.2,1.65,4.36,2.36,6.58.85,2.65,1.55,5.35,2.34,8.02.95,3.2,1.8,6.42,2.37,9.71.56,3.22,1.04,6.46,1.5,9.69.15,1.02.2,2.06.21,3.1.02,1.29-.13,2.58-.04,3.86.12,1.59.17,3.17-.05,4.75-.06.45-.08.92,0,1.36.37,2.08-.1,4.14-.12,6.21-.02,1.71-.3,3.42-.5,5.12-.34,2.83-.71,5.65-1.09,8.47-.18,1.35-.52,2.68-.6,4.03-.18,2.98-.79,5.9-1.13,8.86-.17,1.51-.44,3.01-.63,4.52-.05.37,0,.75,0,1.21ZM119.29,158.09c-.07.01-.15.02-.22.03-.02.23-.06.47-.05.69.07,1.2.16,2.39.23,3.59.03.42,0,.84.03,1.27.11,1.71.24,3.42.36,5.13.06.77.1,1.55.19,2.32.3,2.6.59,5.2.93,7.79.25,1.89.56,3.78.86,5.66.16,1.04.33,2.09.52,3.12.16.89.36,1.77.54,2.66.31,1.58.56,3.18.92,4.75.35,1.57.81,3.12,1.2,4.69.37,1.47.68,2.96,1.05,4.43.46,1.85.96,3.69,1.44,5.54.04.16.11.32.17.48.07,0,.14,0,.21,0,.22-1.06-.32-2.27.43-3.3.69.46,1.01,1.1,1.35,1.77.67,1.32,1.25,2.71,2.1,3.91.83,1.17,1.92,2.16,2.93,3.2.51.53,1.05,1.05,1.63,1.51.98.78,1.85.42,1.94-.81.1-1.32.09-2.65.17-3.98.05-.81.13-1.61.25-2.41.06-.35.27-.68.47-1.15.84.61,1.54,1.18,2.29,1.65.76.47,1.31,1.3,2.27,1.53,0-.13.04-.2.02-.25-1.2-2.47-2.44-4.92-3.61-7.4-.96-2.05-1.78-4.16-2.75-6.2-1.3-2.75-2.69-5.44-4.02-8.18-2.05-4.22-4.11-8.42-6.09-12.67-1.34-2.87-2.64-5.76-3.81-8.7-1.22-3.06-2.25-6.2-3.38-9.3-.17-.47-.39-.93-.59-1.39ZM114.61,75.21c.06.16.13.26.11.32-.25.89-.11,1.76.19,2.58.33.92.34,1.84.3,2.78-.01.28-.03.57-.04.83.45.25.59-.07.84-.28.2-.18.55-.19.97-.32.14-.68.31-1.43.46-2.18.08-.42.22-.79.71-1.01-.25,1.19-.48,2.3-.73,3.5.21-.05.36-.05.42-.12.41-.54.83-1.07,1.19-1.64.12-.19.13-.49.1-.72-.07-.41-.21-.81-.32-1.22-.36-1.27-.59-2.6-1.44-3.68-.38-.48-.73-.99-1.14-1.44-1.13-1.24-2.26-2.48-3.43-3.68-.28-.29-.68-.57-1.05-.64-1.45-.24-2.91-.37-4.39-.1-.83.16-1.68.3-2.52.4-.88.1-1.79-.04-2.62.45.41-.35.85-.65,1.3-.9.15-.08.38-.09.55-.04.61.17,1.19.09,1.79-.1.42-.13.88-.14,1.32-.2.51-.06,1.02-.09,1.52-.17,1.01-.15,2.02-.31,3.04,0,.38.11.76.2,1.26.33-.1-.26-.11-.39-.17-.42-1.91-1.16-3.99-1.53-6.18-1.4-.51.03-1.02.15-1.52.13-.67-.03-1.21.1-1.4.73-1.32.02-1.95,1.2-3.02,1.54.27-.31.58-.55.89-.79,2.04-1.58,4.1-3.13,6.47-4.18,1.37-.61,2.74-1.29,4.33-.92.14.03.31-.05.46-.09,1.91-.53,3.82-1.06,5.73-1.6.21-.06.4-.2.6-.31-.01-.07-.03-.14-.04-.21-1.16-.2-2.31-.51-3.47-.57-1.34-.06-2.69.06-4.02.17-2.74.23-5.24,1.17-7.45,2.83-1.2.9-2.36,1.85-3.53,2.76-.81-.63-1.63-1.29-2.48-1.92-.79-.59-1.59-.47-2.19.31-.31.41-.63.83-.85,1.29-.9,1.9-1.75,3.82-2.66,5.71-.54,1.13-.59,2.32-.53,3.51.12,2.39.33,4.78.51,7.17.12,1.61.27,3.23.42,4.84.02.23.15.45.28.8.23-.77.24-1.24.16-2.14-.28-2.98-.23-5.97.1-8.93.14-1.2.58-2.4,1.09-3.5.69-1.5,1.7-2.82,2.78-4.08.38-.44.79-.85,1.24-1.22.49-.41.73-.33,1.06.23.08.14.11.32.22.64q-.84-.77-1.49-.08c-.09.09-.22.13-.31.22-.57.6-1.24,1.15-1.68,1.84-.68,1.06-1.2,2.22-1.77,3.34-.1.2-.11.45-.15.68.4-.18.63-.43.85-.69.72-.82,1.41-1.68,2.17-2.47,1.02-1.05,2.3-1.63,3.74-1.86-.13.15-.28.23-.44.32-.79.42-1.6.82-2.37,1.28-1.63.96-2.61,2.55-3.75,3.99-.69.87-.9,1.86-.93,2.89-.05,2.53-.05,5.06-.06,7.6,0,.19-.01.45.1.56.51.48,1.06.93,1.62,1.35.09.07.35-.02.48-.1.05-.03,0-.3-.07-.42-.08-.13-.23-.24-.36-.31-.79-.4-1.06-1.15-1.42-2.06.93,1.33,1.6,1.73,3.07,1.92.29-.4.16-.8-.08-1.15-.39-.55-.86-1.05-1.24-1.61-.46-.69-.88-1.42-1.28-2.15-.07-.13-.01-.33-.01-.5.06-.02.12-.05.18-.07.13.2.27.39.39.59.16.28.25.66.48.82,1.01.71,1.48,1.85,2.2,2.78.66.86.8.91,1.77.21-.85-1.26-1.88-2.42-2.05-4.04.24.21.4.46.52.73.41.97.97,1.83,1.71,2.57.23.23.52.41.78.61.07-.05.14-.11.21-.16-.24-.55-.47-1.11-.71-1.66.85.69.96,2.01,2.28,2.3.06-.67-.21-1.19-.42-1.72-.23-.57-.53-1.11-.73-1.7-.18-.52-.81-.8-.79-1.62,1.67,1.35,2.06,3.33,3.12,4.95.19-.3.31-.49.42-.67.31.21.56.38.88.6.04-.25.09-.38.08-.5-.19-1.39-.71-2.63-1.8-3.55-.73-.61-1.33-1.31-1.7-2.2-.06-.15-.07-.32-.1-.47.3.17.45.42.63.62.41.45.77.99,1.27,1.31,1.49.97,2.18,2.4,2.54,4.07.06.28.09.59.22.84.1.2.34.48.48.47.37-.04.37-.4.3-.69-.2-.78-.41-1.56-.63-2.34-.23-.8-.68-1.42-1.28-2.01-.75-.74-1.6-1.45-1.94-2.51-.23-.72-.59-1.26-1.32-1.55-.42-.16-.66-.5-.44-1.09.32.23.58.47.89.61.85.37,1.24,1.05,1.47,1.92.26,1,.83,1.84,1.55,2.54,1.3,1.27,2.04,2.8,2.27,4.6.02.17.12.33.21.56,1.06-.58.98-1.64,1.23-2.7.41.74.13,1.68,1.1,1.89.13-.23.27-.47.43-.75.06.16.08.25.13.33.05.08.12.13.23.25,1.07-.88.62-2.2.95-3.32.58.76.16,1.59.44,2.34.22-.51.37-1.02.42-1.55.08-.81,0-1.6-.38-2.36-.39-.78-.58-1.61-.22-2.5.15.16.25.34.29.52.06.32.03.66.13.96.21.61.57,1.18.7,1.8.14.64.09,1.32.13,1.99,1.08-.42,1.65-1.15,1.67-2.19.02-1,.08-2.01-.33-2.97-.14-.32-.18-.69-.22-1.04-.06-.59.05-1.13.6-1.57ZM101.87,192.77c.07-.02.14-.04.22-.06,0-.12,0-.24,0-.36-.08-.87-.21-1.73-.24-2.6-.09-3.14-.13-6.29.37-9.41.23-1.4.34-2.83.67-4.21.79-3.22,1.93-6.31,3.39-9.28,1.58-3.23,3.14-6.45,3.93-10,.3-1.36.72-2.72.62-4.11-.13-1.74-.36-3.48-.69-5.19-.37-1.95-1.25-3.74-2.05-5.54-.25-.55-.59-1-1.12-1.28-1.45-.76-2.9-1.52-4.36-2.26-.14-.07-.32-.05-.48-.07.88,1.24,1.98,2.22,2.78,3.61-1.26-1.35-2.42-2.6-3.59-3.84-.22-.23-.46-.49-.75-.6-.98-.39-1.99-.72-2.99-1.05-.14-.05-.32.05-.62.1.36.31.61.51.84.73.85.79,1.78,1.51,2.52,2.39.86,1.03,1.67,2.15,2.27,3.35,1.18,2.33,1.25,4.89.99,7.42-.34,3.25-1.32,6.34-2.68,9.29-1.16,2.52-2.44,4.99-3.7,7.47-1.52,2.99-2.61,6.13-3.13,9.45-.25,1.56-.34,3.15-.47,4.73-.03.39-.11.84.35,1.22.13-.26.24-.48.36-.69.25-.43.79-.5,1.12-.12.13.14.19.33.28.5.51.97.66,2.03.73,3.1.05.74.24,1.16,1.03,1.37.97.26,1.87.79,2.37,1.72.64,1.19,1.18,2.44,1.76,3.67.09.19.17.37.26.56ZM130.73,133.13c-.34.35-.62.64-.91.93-1.04,1.05-2.03,2.15-3.13,3.12-.75.65-.88.7-.54,1.55.84,2.15,1.89,4.18,3.15,6.11,1.28,1.95,2.75,3.74,4.27,5.5,1.77,2.05,3.42,4.2,5.07,6.35,1.67,2.17,2.87,4.58,3.58,7.24.25.95.53,1.9.8,2.85.08,0,.15.02.23.03.35-.93.65-1.87,1.06-2.77.4-.88.22-1.52-.34-2.3-1.63-2.26-2.51-4.81-2.21-7.66.06-.6.07-1.29.76-1.68.86.95,1.6,1.9,1.59,3.25,0,.31.19.63.29.93,1.91-.46,1.55-.81,3.59.35.03-.05.09-.11.08-.16-.01-.13-.03-.26-.08-.37-1.65-3.52-3.87-6.63-6.63-9.35-1.47-1.45-3.02-2.83-4.4-4.35-2.4-2.64-4.33-5.62-5.83-8.88-.09-.2-.22-.38-.39-.69ZM76.54,123.9c.94,1.23,1.9,2.49,2.87,3.73.95,1.22,1.9,2.44,2.87,3.65.97,1.21,1.57,2.68,2.58,3.96.35-.4.6-.69.86-.97.68-.72.67-1.22-.09-1.83-.52-.43-1.09-.81-1.64-1.19-1.04-.73-2.03-1.54-2.66-2.64-1.24-2.15-2.48-4.32-3.55-6.56-.73-1.54-1.17-3.21-1.75-4.82-.1-.29-.22-.57-.33-.87-1.31.7-1.74,1.62-1.35,2.82.18.55.45,1.07.68,1.6.3.68.61,1.36.92,2.04-.06.04-.13.07-.19.11-.54-.74-1.07-1.49-1.59-2.21-2.3.57-2.74.75-3.3,1.38.23.13.43.28.65.37,1.3.54,2.61,1.07,3.91,1.6.21.08.42.19.64.2.12,0,.24-.19.47-.38ZM89.6,113.75c.12-.2.23-.31.23-.41-.01-.71.02-1.43-.09-2.13-.3-1.98-.92-3.91-.84-5.94,0-.04-.09-.08-.16-.14-.09.06-.26.1-.29.2-.44,1.1-.87,2.21-1.3,3.32-.01.03,0,.06,0,.1.31,1.86.99,3.53,2.46,5ZM110.62,89.98c.27-.75.53-1.46.8-2.21-.76-.77-1.68-1.01-2.64-.67-.71.25-1.35.72-1.98,1.14-.15.1-.27.47-.21.66.15.48.4.94.62,1.4.16.34.25.82.78.65.35-.11.67-.32.98-.51.1-.06.15-.2.22-.29.2.06.44.2.54.14.12-.09.13-.34.19-.52.2.06.41.13.71.22ZM118,84.54c.02-.9-.19-1.12-.86-1.07-.38.03-.78.06-1.12.2-.91.36-1.84.72-2.69,1.21-.64.37-.54,1.1.14,1.43.48.23.99.41,1.5.57.17.05.41.04.56-.05.7-.44,1.41-.88,2.03-1.41.28-.24.37-.71.45-.88ZM97.12,88.1q.2,1.79,1.75,2.16c.06.01.12.04.18.06,1.38.44,2.46-.49,3.01-1.32.26-.39.17-.7-.24-.85-1.54-.53-3.1-.65-4.7-.06ZM87.2,122.93c.98-1.16.82-2.18-.42-2.9-1.02-.59-2.01-1.24-3.02-1.84-.15-.09-.34-.12-.64-.21,1.09,1.92,3.27,4.54,4.08,4.96ZM91.32,89.3c.08.05.17.1.25.15.29-.27.72-.49.85-.83.19-.51.28-1.1.23-1.64-.15-1.54-.41-3.07-.61-4.6-.05-.38-.08-.76-.11-1.14-.62,2.69-.74,5.37-.6,8.07ZM114.18,83.32c.03.11.07.22.1.34.29-.08.58-.15.86-.26.73-.28,1.47-.41,2.25-.4.53,0,.83.2,1,.7.1.31.1.72.57.86.13-.14.29-.26.38-.42.5-.89-.07-1.9-1.06-1.85-.7.03-1.4.11-2.08.29-.69.18-1.34.49-2.01.75ZM81.35,127.42c.49,1.86,1.92,2.8,3.27,3.82.03.02.06.04.08.04.15,0,.39.02.43-.05.08-.15.13-.4.05-.53-.13-.21-.36-.35-.56-.51-.65-.52-1.32-1.01-1.96-1.55-.46-.38-.88-.81-1.31-1.22ZM95.7,87.85c-.45.46-1.35.27-1.4,1.2.61.61,1.27.71,2.03.39.3-.64-.01-1.08-.63-1.6ZM89.61,130.75c-.25-.91-.48-1.07-1.11-.76-.48.24-.94.53-1.39.83-.19.13-.42.32-.12.71.74-.65,1.63-.89,2.62-.78ZM87.2,105.71c.82-.82.91-1.52.29-2.37-.69.75-.78,1.51-.29,2.37ZM145.48,108.59c.39-.46.74-.81,1.03-1.22.28-.38,1.05-.34.96-1.08-.98-.09-1.37.63-1.86,1.2-.23.27-.5.52-.13,1.1ZM119.43,80.35c-.1-.04-.2-.08-.3-.12-.26.31-.51.62-.86,1.04.51.17.85.29,1.35.46-.08-.56-.14-.97-.19-1.38ZM146.46,108.37c.66-.25,1.21-.46,1.75-.66,0-.09,0-.17,0-.26-.22-.1-.48-.34-.65-.28-.49.16-.97.4-1.1,1.2ZM120.4,87.64c.4-.56.18-.95-.03-1.28-.17-.28-.47-.25-.78-.02.27.43.51.81.81,1.3ZM120.21,85.7c.14-.44.16-.75-.2-.84-.36-.09-.6.12-.64.58.25.08.51.16.84.26ZM93.4,89.75c.08-.01.15-.02.23-.04-.04-.41-.09-.82-.14-1.34q-.53.69-.09,1.38ZM93.67,86.8v1.08c.27-.05.48-.09.87-.16-.32-.34-.53-.55-.87-.92ZM97.95,92.23c.78.08.8.06.68-.78-.25.29-.45.51-.68.78ZM97.34,91.23c-.45-.03-.74.03-.77.44,0,.08.15.24.24.25.45.05.45-.31.53-.69ZM83.64,98.99q.33-.53.17-1.01c-.26.3-.56.51-.17,1.01ZM95.35,117.63c.16-.26.16-.49-.15-.62-.06-.02-.25.1-.27.18-.07.32.06.49.42.44ZM116.84,87.56q.28.31.53.05c-.21-.02-.37-.04-.53-.05Z"/>
      <path class="cls-1" d="M193.59,81.32c-.21.23-.38.54-.64.68-1.19.64-1.78,1.74-2.28,2.92-.39.92-.76,1.86-1.1,2.8-.2.54-.6.77-1.1.78-.63.02-1.26-.05-2.04-.09-.85.68-1.5,1.88-2.76,2.41-.49-.5-.33-1.01-.18-1.55.64-2.4,1.77-4.57,2.85-6.79.9-1.85,2.14-3.35,3.71-4.64,1.04-.86,1.95-1.87,2.93-2.81.6-.58,1.23-1.14,1.81-1.74.54-.55.43-.97-.32-1.17-.29-.08-.64-.1-.93-.01-1.07.33-2.15.65-3.18,1.08-1.56.66-3.12,1.34-4.59,2.17-.76.43-1.47,1.09-1.95,1.83-1.17,1.79-2.49,3.45-3.91,5.1.46.7,1.12,1.14,1.81,1.51.19.1.51.07.71-.02.96-.43,1.91-.9,2.94-1.4-.34.81-.68,1.57-1,2.35-.4.99-.79,1.98-1.16,2.98-.25.69-.37.83-1.11.81-1.18-.03-2.37-.07-3.54-.21-.4-.05-.86-.34-1.12-.66-1.66-2.02-3.55-3.84-5.01-6.02-.13-.19-.18-.46-.17-.69,0-.08.32-.24.47-.21,1.63.32,3.24.7,4.77,1.32-.19.84-.36,1.61-.53,2.38,0,0,0-.02,0-.02-.1-.21-.27-.42-.29-.63-.02-.25.08-.51.16-.75.12-.37,0-.67-.34-.8-.68-.25-1.37-.49-2.08-.68-.41-.11-.85-.12-1.42-.19.13.35.16.58.27.75,1.27,1.96,2.97,3.54,4.51,5.27.54.6,1.25.63,1.93.68.76.06,1.53-.1,2.29-.12.44-.01.74-.16.9-.58.41-1.09.83-2.17,1.23-3.26.05-.13,0-.3-.02-.56-.37.14-.69.19-.94.36-.87.6-1.67.32-2.4-.22-.42-.31-.81-.49-1.24-.34.01-.27-.01-.56.06-.82.09-.33.2-.68.39-.94.52-.7,1.11-1.34,1.65-2.02.51-.66,1.04-1.32,1.47-2.04.92-1.54,2.33-2.49,3.87-3.24,1.44-.7,2.92-1.32,4.41-1.9.83-.32,1.71-.51,2.57-.72.49-.11,1.07.22,1.28.64.2.4.09.95-.3,1.33-.44.43-.91.82-1.35,1.25-1.04,1.01-2.05,2.05-3.09,3.06-.6.58-1.23,1.13-1.85,1.7-.68.62-1.18,1.36-1.59,2.17-1.16,2.31-2.45,4.55-3.09,7.09-.09.36-.33.74.13,1.09.65-.28,1.15-.8,1.57-1.35,1-1.3,1.87-2.71,2.89-4,.98-1.23,1.99-2.47,3.17-3.49.91-.78,2.1-1.23,3.16-1.82.92-.52,1.84-1.04,2.76-1.56.14-.08.29-.14.44-.19.57-.18,1.07-.05,1.29.32.19.33.09.81-.39,1.18-.86.67-1.75,1.3-2.66,1.89-.94.62-2.01,1.07-2.84,1.8-.75.66-1.36,1.56-1.82,2.46-.83,1.6-1.5,3.29-2.23,4.95-.09.22-.1.47-.15.71.47.16.68-.13.91-.33,1.64-1.44,3.27-2.89,4.92-4.33.26-.23.57-.43.89-.57,1.24-.52,2.5-1,3.75-1.52.41-.17.81-.23,1.18.07.21.17.24.37,0,.57v.02c-.28-.58-.45-.65-.98-.42-1.26.54-2.56,1.02-3.78,1.64-.76.39-1.4.99-2.09,1.52-.15.11-.21.33-.36.45-1.58,1.31-3.17,2.62-4.76,3.91-.16.13-.37.2-.79.42.17-.54.23-.89.38-1.18,1.08-1.98,1.96-4.05,2.82-6.13.48-1.16,1.21-2.13,2.29-2.8,1.04-.64,2.09-1.26,3.11-1.94.89-.6,1.75-1.26,2.61-1.9-.47-.63-.64-.72-1.25-.43-.9.42-1.77.9-2.64,1.39-1.09.62-2.13,1.31-3.23,1.9-1.29.7-2.07,1.9-2.98,2.97-.75.88-1.4,1.85-2.1,2.78-.22.29-.46.55-.18,1.06.22-.22.43-.39.59-.6,1.23-1.53,2.43-3.09,3.69-4.6.32-.38.79-.64,1.22-.91.35-.23.73-.4,1.1-.6h-.02ZM189.79,85.53c-.71.19-.84.71-1.08,1.09-.23.37-.82.56-.65,1.16.81.14.84.15,1.16-.34.35-.53.5-1.14.56-1.9Z"/>
      <path class="cls-1" d="M176.27,74.02c1-.62,1.87-1.33,2.61-2.17.72-.82,1.39-1.69,2.09-2.54.47-.57.96-1.14,1.43-1.71.84-1.02,2.03-1.3,3.24-1.52,1.82-.33,3.64-.65,5.47-.96,1.13-.19,1.76-.04,2.53.64-1.84-.58-3.48.04-5.14.29-1.26.19-2.52.45-3.78.65-.79.13-1.45.46-1.97,1.09-.86,1.05-1.75,2.06-2.59,3.13-1.03,1.3-2.17,2.47-3.57,3.37-.48.31-.92.68-1.55.94.11-.44.19-.9.35-1.33.71-1.98,1.44-3.95,2.18-5.92.49-1.3,1.01-2.59,1.51-3.89.2-.52.57-.81,1.11-.96,3.58-.99,7.14-2.01,10.72-2.99.92-.25,1.88-.43,2.82-.48,1.11-.06,2.13.18,2.76,1.34.28.5.87.85,1.35,1.21.58.44.96,1.01,1.35,1.62,1.55,2.46,2.57,5.23,4.39,7.52.57.72,1.2,1.41,1.86,2.05,1.17,1.14,2.11,2.37,2.59,4,.42,1.42.61,2.83.61,4.3,0,.78.12,1.55.15,2.33.02.61-.03,1.23-.04,1.84,0,.48-.06.97,0,1.45.2,1.45-.34,2.68-1.62,3.32-.56.28-.82.63-.89,1.24-.14,1.29-.31,2.57-.48,3.85-.03.26-.12.5-.18.76-.21,1-1.17,1.26-1.99.45-.28-.28-.48-.69-.61-1.08-.29-.86-.51-1.74-.76-2.61-.06-.22-.1-.45-.2-.65-.21-.43-.49-.5-.83-.18-.3.28-.53.64-.8.96-.2.24-.42.46-.69.77-.15-.21-.31-.33-.32-.45-.09-2.13-.16-4.26-.23-6.39,0-.15.04-.31.07-.53.29.08.52.15.73.21.02.12.06.21.03.24-.51.61-.38,1.35-.36,2.05.02.84.09,1.68.16,2.52.02.24.12.48.23.89.35-.26.59-.43.84-.61.67-.48,1.17-.4,1.61.31.18.29.29.64.39.97.21.71.38,1.44.6,2.15.1.3.25.61.45.85.41.49,1.01.39,1.18-.24.19-.71.27-1.46.38-2.2.05-.35.03-.71.06-1.07.11-1.2.43-2.23,1.61-2.89.92-.51,1.31-1.46,1.24-2.57-.04-.67.05-1.36.02-2.03-.11-2.2-.15-4.41-.41-6.59-.2-1.64-.84-3.12-2.14-4.32-1.95-1.79-3.48-3.94-4.69-6.33-.81-1.61-1.71-3.19-2.67-4.72-.36-.58-1.01-.97-1.53-1.45-.26-.24-.59-.44-.77-.73-.67-1.13-1.7-1.31-2.84-1.12-3.04.5-5.98,1.39-8.92,2.27-1.35.4-2.7.79-4.06,1.14-.42.11-.7.31-.87.69-.33.74-.65,1.47-.94,2.22-.79,2.12-1.57,4.25-2.34,6.38-.12.34-.37.71.04,1.19Z"/>
      <path class="cls-1" d="M189.03,35.72c.38-.89.85-1.75,1.11-2.68.4-1.45.2-2.78-1.03-3.88-1.3-1.17-2.09-2.7-2.37-4.45-.06-.37-.07-.78.02-1.14.52-2.19,1.74-3.87,3.68-5,.86-.5,1.74-.97,2.62-1.44.25-.13.52-.21.8-.32.33.45,0,.72-.19.97-.57.73-.95,1.55-1.02,2.48-.04.54-.08,1.1,0,1.62.31,1.79,1.07,3.31,2.59,4.38,1.15.81,2.01,1.89,2.78,3.06.76,1.17.92,2.43.46,3.71-.46,1.28-.96,2.56-1.6,3.74-1.39,2.58-1.36,5.29-.87,8.05.41,2.33,1.47,4.35,3.14,6.01.61.61,1.34,1.11,2.04,1.61.27.2.64.27.96.39.66.25,1.31.51,1.98.72.73.23,1.46.47,2.21.61.89.17,1.74.37,2.48.95.4.31.89.52,1.32.78,2.45,1.51,3.79,3.8,4.44,6.55.12.5.22,1.05-.35,1.49-.34.26-.07.73.09,1.08.16.35.26.66-.28.99-.05-.8-.07-1.53-.14-2.25-.19-1.96-.82-3.76-1.99-5.36-1.11-1.53-2.7-2.37-4.3-3.19-.49-.26-1.12-.23-1.67-.4-.61-.19-1.2-.45-1.79-.7-.88-.37-1.74-.82-2.65-1.13-2.19-.76-3.65-2.3-4.8-4.26-1.12-1.92-1.64-4.03-1.72-6.2-.06-1.7.14-3.43,1.12-4.94.81-1.25,1.43-2.58,1.73-4.08.42-2.16-.23-3.95-1.67-5.51-.39-.42-.82-.83-1.29-1.16-1.46-1.04-2.36-2.42-2.75-4.18-.24-1.09-.14-2.12.25-3.15.19-.51.38-1.02.61-1.62-.22,0-.39-.05-.51,0-.78.37-1.59.71-2.33,1.16-1.64,1.03-2.64,2.57-2.95,4.48-.2,1.25.22,2.45.88,3.51.46.73.99,1.44,1.6,2.05,1.03,1.04,1.3,2.19.79,3.54-.33.88-.66,1.75-1.02,2.62-.08.19-.29.31-.45.47,0,0,.01.02.01.02Z"/>
      <path class="cls-1" d="M170.61,52.86c-.22-.13-.44-.26-.67-.37-.08-.04-.18,0-.37,0,0,.37-.05.72,0,1.05.25,1.3-.19,2.44-.82,3.51-.82,1.39-1.75,2.72-2.59,4.1-1.31,2.15-2.67,4.27-3.56,6.65-.69,1.84-1.41,3.68-2.06,5.53-.24.69-.31,1.45-.46,2.18-.26,1.28-.24,2.57-.15,3.85.24,3.42,1.72,6.12,4.67,7.89,1.32.79,2.69,1.5,4.07,2.19,1.26.63,1.91,1.67,2.25,2.98.05.19.11.37.15.56.51,2.54,2.03,3.93,4.79,4.26.73.09,1.46.12,2.19.21,1.15.13,2.22-.22,3.31-.47.88-.21,1.51.03,1.96.81.35.61.83.9,1.5,1.08,1.49.41,2.96.43,4.45.03-1.17.72-2.43,1.11-3.81.86-1.16-.21-2.22-.65-2.8-1.81-.18-.37-.49-.5-.88-.45-.41.05-.82.11-1.23.17-.35.06-.73.27-1.03.18-.81-.24-1.57-.07-2.37.02-1.52.16-2.92-.2-4.2-1.06-1.15-.78-1.89-1.83-2.13-3.21-.07-.41-.13-.83-.19-1.25-.18-1.13-.69-2.02-1.74-2.51-1.4-.65-2.81-1.26-4.2-1.92-3.48-1.65-5.29-4.51-5.61-8.3-.18-2.13-.12-4.28.58-6.35.25-.73.5-1.47.79-2.19.99-2.42,1.79-4.93,3.15-7.18.94-1.54,2.03-2.99,3.06-4.47.58-.82,1.23-1.58,1.78-2.42,1.1-1.69,1.49-3.44.18-5.24-.03-.04,0-.12-.01-.18.72-.09,1.38.34,1.97,1.3l.02-.02Z"/>
      <path class="cls-1" d="M170.64,55.71c.08.6.14,1.07.19,1.54.09.81.77,1.06,1.39,1.01.52-.04,1.03-.56,1.05-1.2.02-.64-.06-1.29-.14-1.93-.18-1.64-.73-3.16-1.6-4.54-.71-1.11-1.69-1.95-2.86-2.54-1.45-.73-2.67-1.77-3.87-2.86-1.49-1.36-2.69-2.95-3.8-4.62-1.25-1.88-2.16-3.93-2.51-6.15-.38-2.37.13-4.64,1.51-6.63.96-1.39,2.11-2.61,3.59-3.47.64-.37,1.29-.71,1.91-1.1.43-.27.89-.53,1.22-.91.65-.76,1.26-1.56,1.81-2.39.46-.69.53-1.47.45-2.32-.12-1.34-.46-2.56-1.37-3.55-.54-.59-1.17-1.1-1.78-1.63-.85-.74-1.67-1.49-2.25-2.5-.93-1.64-.84-3.27-.09-4.93-.05.28-.11.55-.14.83-.03.32,0,.65-.02.97-.16,1.91.65,3.38,2.03,4.6.89.79,1.84,1.53,2.65,2.39,1.35,1.44,2,3.15,1.47,5.16-.09.34-.18.71-.39.99-1.34,1.8-2.6,3.65-4.75,4.69-2.59,1.26-4.22,3.51-4.95,6.26-.41,1.56-.38,3.21.11,4.87.54,1.83,1.31,3.51,2.34,5.07,1.45,2.2,3.28,4.06,5.35,5.67.63.49,1.35.87,2.04,1.27,1.9,1.12,3.01,2.85,3.73,4.89.51,1.42.69,2.89.59,4.4-.06.88-.83,1.72-1.57,1.64-.92-.1-1.63-.52-1.62-1.67,0-.4-.06-.82.22-1.31Z"/>
      <path class="cls-1" d="M31.69,24.68c.27.46.56.91.79,1.39.41.84.79,1.7,1.17,2.55.82,1.85.35,3.62-.4,5.35-.74,1.72-1.81,3.2-3.23,4.41-.17.14-.3.34-.43.52-1.4,1.83-2.6,3.79-3.59,5.86-.75,1.56-1.21,3.24-1.17,4.97.04,1.97.13,3.96.45,5.89.29,1.77.83,3.49,1.8,5.08,1.08,1.78,2.33,3.41,3.54,5.08,1.16,1.61,1.34,3.4.92,5.27-.3,1.34-.87,2.57-1.77,3.63-.12.15-.2.33-.3.5-.08-.06-.15-.12-.23-.18.16-.29.33-.57.48-.86.78-1.43,1.43-2.88,1.41-4.58-.02-1.29-.37-2.4-1.12-3.44-1.19-1.65-2.35-3.32-3.48-5.01-1.09-1.61-1.61-3.45-1.95-5.34-.33-1.82-.52-3.66-.42-5.51.13-2.49.76-4.85,2.01-7.03,1.33-2.34,2.84-4.52,4.66-6.53,1.76-1.95,2.68-4.36,2.33-7.06-.12-.91-.56-1.77-.9-2.64-.29-.74-.67-1.44-.56-2.33Z"/>
      <path class="cls-1" d="M51.82,108.03c.89-1.35.84-2.82.51-4.31-.57-2.58-.25-4.97,1.46-7.05.42-.51.98-.93,1.53-1.3.65-.43,1.38-.76,2.12-1.16.14.43-.14.67-.29.92-1.3,2.17-1.47,4.5-.63,6.82.67,1.84,1.12,3.72,1.37,5.64.2,1.53-.08,3.04-.58,4.49-.63,1.84-1.65,3.42-3.12,4.71-.87.76-1.67,1.6-2.53,2.38-.92.83-1,1.92-.91,3.03.07.74.31,1.45.46,2.18.56,2.65.58,5.27-.33,7.85-.08.21-.16.42-.25.63-.03.08-.1.14-.27.36.96-2.81.66-5.45.12-8.1-.2-.98-.4-1.96-.61-2.95-.27-1.28.19-2.36.96-3.33.3-.37.7-.66,1.06-.98.95-.81,1.96-1.57,2.87-2.44,2.11-2.03,3.05-4.5,2.59-7.46-.16-1.05-.25-2.12-.47-3.17-.17-.82-.48-1.6-.76-2.39-.69-1.96-.83-3.92-.08-5.89.09-.23.17-.47.33-.93-.48.2-.83.26-1.08.45-1.51,1.19-2.49,2.71-2.54,4.7-.02.93.08,1.87.14,2.81.1,1.41.12,2.8-.7,4.03-.1.15-.26.27-.4.4,0,0,.02.03.02.03Z"/>
      <path class="cls-1" d="M29.16,135.45c.07-.27.1-.58.23-.82.57-1.05,1.15-2.1,1.78-3.1.47-.75,1.1-1.33,1.99-1.6,1.36-.41,2.65-.99,3.81-1.82.29-.21.53-.5.9-.87-.91-.22-1.62-.18-2.34-.02-1.25.27-2.48.62-3.74.82-.71.11-1.29.39-1.8.83-1.24,1.07-2.45,2.18-3.68,3.27-.29.25-.57.54-.9.7-.54.27-.91.02-.85-.58.05-.47.19-.95.42-1.36.85-1.56,1.72-3.1,2.64-4.61.52-.85,1.12-1.65,1.72-2.45.65-.88,1.55-1.44,2.47-1.97,1.25-.72,2.51-1.42,3.73-2.18.71-.44,1.37-.95,2.02-1.48.33-.27.59-.63.96-1.04-.65-.27-1.15-.23-1.63-.1-2.23.57-4.45,1.17-6.68,1.75-.61.16-1.07.51-1.51.96-1.47,1.51-2.7,3.2-3.95,4.88-1,1.34-2.04,2.65-3.07,3.96-.12.15-.29.25-.44.36-.03.02-.11,0-.23-.02.3-.37.59-.7.85-1.05,1.58-2.08,3.14-4.18,4.73-6.25.63-.82,1.28-1.63,2.02-2.34.42-.41.99-.75,1.55-.91,1.9-.54,3.83-1,5.75-1.48.68-.17,1.37-.31,2.04-.49.55-.15.94-.02,1.25.63-.33.36-.65.81-1.06,1.15-1.98,1.67-4.18,3-6.46,4.18-1,.51-1.81,1.21-2.42,2.15-.9,1.38-1.85,2.72-2.7,4.14-.61,1.02-1.11,2.12-1.62,3.2-.12.25-.08.58-.12.88.06.03.13.06.19.09.19-.14.4-.27.58-.44,1.3-1.21,2.61-2.4,3.87-3.64.78-.77,1.78-.99,2.76-1.25.83-.22,1.69-.34,2.54-.5,1.25-.23,2.5-.46,3.75-.69.31.42.15.75-.1,1-.43.43-.85.92-1.37,1.2-1.21.66-2.45,1.27-3.73,1.77-.87.33-1.48.83-1.95,1.62-.71,1.19-1.46,2.36-2.2,3.53,0,0,.02.03.02.03Z"/>
      <path class="cls-1" d="M164.4,3.99c.15.49.28.98.45,1.45.82,2.16,2.15,3.85,4.19,5,1.07.6,2.13,1.16,3.28,1.56,1.6.56,3.01,1.48,4.31,2.52,1.55,1.22,2.2,2.98,2.36,4.93.15,1.87-.3,3.67-.68,5.48-.49,2.37-.55,4.78-.03,7.13.43,1.93,1.49,3.57,2.93,4.93.35.33.72.64,1.04,1.01.7.79,1.58,1.15,2.62,1.19.48.02.87-.13,1.23-.44.39-.33.8-.63,1.39-1.08-.12.35-.14.52-.23.64-.17.23-.37.45-.58.65-1.01.99-1.58,1.09-2.84.51-.41-.19-.82-.36-1.23-.56-1.6-.79-2.75-2.04-3.76-3.52-1.74-2.56-2.08-5.34-1.76-8.33.12-1.08.43-2.09.71-3.11.53-1.94.66-3.89.28-5.86-.26-1.38-.93-2.49-2.06-3.38-1.57-1.23-3.33-2.03-5.14-2.8-1.48-.63-2.88-1.45-4.03-2.6-1.44-1.44-2.37-3.19-2.48-5.32Z"/>
      <path class="cls-1" d="M32.48,43.35c.43.14.62,0,.73-.46.22-.91.46-1.83.81-2.69.37-.89.9-1.71,1.33-2.57.25-.5.91-.92.33-1.62-.05-.06.08-.28.16-.42.28-.54.58-1.08.86-1.63.93-1.85.82-3.68-.15-5.48-.73-1.37-1.48-2.73-2.14-4.13-.5-1.06-.49-2.17.12-3.23-.43,1.9.32,3.53,1.28,5.02,1.07,1.66,1.63,3.44,1.86,5.36.13,1.06-.22,2.05-.57,3.03-.62,1.71-1.61,3.23-2.46,4.82-.89,1.66-1.36,3.42-1.08,5.42.32,2.35,1.67,3.72,3.6,4.67,1.47.72,2.72,1.7,3.88,2.83.97.94,1.44,2.11,1.68,3.42.18,1.02.41,2.03.62,3.04.23,1.06.26,2.12.05,3.19-.19.98-.44,1.96-.62,2.94-.09.5-.29,1.11.16,1.47.5.4.94-.2,1.39-.36.31-.11.56-.39.87-.55-.32.64-.75,1.18-1.4,1.5-.91.45-1.6.07-1.71-.95-.13-1.16.18-2.26.48-3.35.4-1.5.48-2.99.09-4.5-.33-1.28-.55-2.6-.96-3.85-.2-.61-.66-1.16-1.1-1.67-.89-1.03-2.04-1.74-3.18-2.48-1.1-.71-2.12-1.59-2.99-2.57-.59-.67-.87-1.64-1.26-2.49-.26-.55-.47-1.13-.7-1.7h0Z"/>
      <path class="cls-1" d="M10.44,109.91c.16-1.17-.07-2.11-.5-3.03-.17-.38-.28-.79-.38-1.2-.41-1.6-.79-3.2-1.23-4.79-.37-1.32-.51-2.66-.61-4.02-.08-1.1-.22-2.19.04-3.28.17-.68.31-1.39.58-2.03,1.01-2.44,2.71-4.23,5.1-5.32.9-.41,1.83-.76,2.75-1.12,1.78-.69,3.43-1.6,4.89-2.83,1.97-1.66,3.91-3.35,6.02-5.17-.7.83-1.25,1.52-1.84,2.19-1.64,1.88-3.5,3.52-5.58,4.88-1.01.66-2.1,1.2-3.31,1.5-1.95.48-3.78,1.33-5.26,2.72-1.83,1.71-2.89,3.85-2.91,6.44-.01,1.98.12,3.95.57,5.88.54,2.3,1.12,4.59,1.73,6.87.2.74.28,1.45-.08,2.32Z"/>
      <path class="cls-1" d="M49.43,109.32c-.2-.21-.44-.4-.61-.64-.75-1.05-.86-2.28-.87-3.51,0-1.65.5-3.18,1.1-4.69.62-1.56.93-3.16.63-4.85-.32-1.75-1.32-3.06-2.6-4.2-.94-.83-1.89-1.66-2.78-2.55-1.42-1.42-2.32-3.17-3-5.04-.06-.15-.13-.31-.13-.47-.11-2.42-.34-4.86.92-7.13-.1.4-.22.79-.29,1.19-.07.45-.06.91-.12,1.35-.52,3.73.39,7.02,3.06,9.72.95.96,2.01,1.81,3.01,2.72,1.14,1.04,2.02,2.27,2.47,3.77.53,1.78.23,3.53-.34,5.25-.2.62-.43,1.22-.64,1.83-.51,1.49-.67,3.04-.55,4.6.04.57.26,1.12.44,1.67.1.3.28.56.42.84-.04.04-.09.07-.13.11Z"/>
      <path class="cls-1" d="M196.85,95.79c.44.55.88,1.11,1.37,1.73.49-.71.39-1.41.53-2.05.05-.22.02-.46.08-.67.02-.09.17-.21.27-.21.09,0,.26.12.27.2.03.29.05.58,0,.87-.11.73-.3,1.46-.39,2.2-.04.33,0,.74.17,1,1.37,2.03,2.71,4.1,4.21,6.03,1.46,1.88,3.12,3.61,4.67,5.42.4.46.75.96,1.11,1.45,1.35,1.8,2.93,3.4,4.69,4.78,1.43,1.13,2.92,2.21,4.6,2.96.11.05.2.13.21.34-.83-.47-1.67-.9-2.48-1.41-2.34-1.48-4.48-3.25-6.46-5.17-2.34-2.26-4.47-4.73-6.45-7.32-.86-1.13-1.75-2.24-2.54-3.41-.94-1.39-1.8-2.83-2.69-4.25-.41-.66-.82-1.32-1.21-1.98-.07-.11-.07-.27-.1-.41.05-.03.1-.05.14-.08Z"/>
      <path class="cls-1" d="M20.17,128.9c-.28-.2-.25-.49-.13-.82.19-.52.3-1.07.55-1.55,1.42-2.68,2.85-5.35,4.34-8,.53-.94,1.37-1.62,2.27-2.2,2.07-1.35,4.16-2.66,6.21-4.03.44-.29.83-.71,1.16-1.13.14-.18.16-.56.08-.8-.04-.11-.45-.14-.68-.12-.87.07-1.68.35-2.47.72-1.18.57-2.38,1.09-3.6,1.59-.7.29-1.46.45-2.16.74-.94.39-1.67,1.04-2.28,1.87-.72.98-1.54,1.9-2.3,2.85-1.17,1.45-2.33,2.92-3.5,4.37-.15.18-.38.29-.58.43-.05-.05-.1-.1-.14-.15.96-1.17,1.92-2.34,2.87-3.52,1.08-1.33,2.18-2.63,3.2-4,1.01-1.34,2.29-2.21,3.85-2.76,1.08-.38,2.13-.88,3.19-1.31.89-.36,1.77-.75,2.69-1.04.6-.19,1.24-.29,1.88-.35.61-.06.79.22.66.83-.23,1.03-.94,1.67-1.77,2.2-1.19.76-2.39,1.51-3.58,2.27-1.03.66-2.06,1.32-3.07,2-.93.62-1.61,1.5-2.13,2.47-1.4,2.65-2.76,5.33-4.11,8.01-.22.44-.31.95-.46,1.43Z"/>
      <path class="cls-1" d="M202.15,36.2c-.04.64-.04,1.29-.11,1.93-.18,1.71-.21,3.42.04,5.13.28,1.89,1.29,3.25,2.78,4.35,1.22.89,2.37,1.87,3.52,2.86.4.35.7.83,1.14,1.37.15-.35.35-.6.35-.84.02-1.23.16-2.49-.06-3.67-.31-1.64-1.55-2.7-2.86-3.63-.13-.09-.28-.15-.42-.23-1.48-.85-1.89-1.5-2.02-3.27.41,1.45,1.58,2.17,2.75,2.83,1.94,1.09,2.93,2.73,2.95,4.97.01,1.01,0,2.01,0,3.02,0,.64-.12,1.26-.59,1.88-.13-.25-.23-.4-.3-.56-.35-.94-.94-1.7-1.74-2.27-.81-.58-1.63-1.15-2.49-1.65-2.04-1.2-3.23-2.95-3.66-5.31-.25-1.38-.09-2.71.07-4.05.12-.95.28-1.9.42-2.85.07,0,.14,0,.21.01Z"/>
      <path class="cls-1" d="M13.77,50.94c-.14.06-.29.11-.41.2-1.66,1.23-2.91,2.77-3.7,4.72-.55,1.36-.98,2.74-1.15,4.19-.17,1.38-.21,2.79.16,4.15.26.98,1.06,1.59,1.71,2.3.45.49.88.99,1.32,1.48-.05.05-.09.1-.14.15-.17-.1-.37-.18-.52-.32-.76-.69-1.51-1.4-2.26-2.1-.86-.81-1.14-1.9-1.17-3-.09-3.1.52-6.06,2.25-8.67.91-1.37,2.04-2.58,3.46-3.46.29-.18.6-.31.9-.46.06.05.12.1.18.15-.25.68-.45,1.38-.76,2.02-.48.99-.71,2.01-.49,3.1.05.24.08.5-.24.49-.11,0-.29-.25-.3-.4-.02-.32,0-.66.09-.96.26-.8.56-1.58.85-2.37.13-.36.26-.71.39-1.07l-.16-.15Z"/>
      <path class="cls-1" d="M176.98,84.41c.11.14.22.27.34.42.47-1.22.88-2.4,1.36-3.53.72-1.69,1.49-3.37,2.27-5.04.46-1,.95-1.98,1.45-2.95.38-.73.97-1.27,1.64-1.75,2.24-1.58,4.64-2.87,7.14-3.96.79-.34,1.51-.83,2.35-1.16-.12.15-.22.36-.38.45-.85.5-1.68,1.06-2.58,1.45-1.82.81-3.61,1.67-5.25,2.8-.6.42-1.26.81-1.73,1.36-.68.8-1.31,1.67-1.79,2.6-.78,1.52-1.42,3.12-2.11,4.69-.36.83-.74,1.66-1.01,2.52-.16.53-.07,1.13-.17,1.69-.05.29-.23.6-.44.82-.51.52-.84.38-1.09-.41,0,0,0,.02,0,.02Z"/>
      <path class="cls-1" d="M151.72,111.22c.89-.69,1.79-.11,2.67-.18-.08-.55-.5-.56-.79-.65-.91-.3-1.84-.53-2.76-.81-.31-.1-.61-.26-.87-.47,2.15.42,4.38.59,6.16,2.27h-3.43c.05.19.05.38.14.47,2.05,2.05,3.46,4.48,4.28,7.27.23.77.52,1.53.86,2.25.34.73.21,1.44.09,2.19-.66-2.23-1.24-4.48-2.23-6.58-1.01-2.15-2.54-3.93-4.11-5.75Z"/>
      <path class="cls-1" d="M50.05,134.79c-.34.35-.57.68-.87.88-1.53,1.01-2.46,2.48-3.2,4.13-.76,1.71-2.06,2.93-3.6,3.93-1.2.79-2.52,1.24-3.93,1.43-.33.05-.7-.12-1.05-.19,0-.07,0-.14.01-.21.13-.05.26-.12.39-.14,3.63-.34,6.34-2.11,7.86-5.47.83-1.84,2.03-3.27,3.73-4.28.11-.06.22-.11.34-.16.02,0,.06.02.3.09Z"/>
      <path class="cls-1" d="M17.75,67.75c.42.77.45,1.57.14,2.34-.51,1.26-1.06,2.49-1.63,3.73-.38.82-1.02,1.43-1.78,1.86-.85.48-1.74.89-2.87,1.24.08-.5.1-.81.18-1.1.3-1.09.71-2.16.91-3.27.13-.71,0-1.47-.04-2.21-.01-.24-.13-.47-.11-.73.37.91.81,1.8.52,2.84-.26.97-.48,1.95-.7,2.92-.04.18-.04.37-.08.7,1.42-.36,2.68-.83,3.34-2.13.84-1.63,1.65-3.3,1.85-5.18.04-.35.18-.68.27-1.02Z"/>
      <path class="cls-1" d="M218.77,65.75c.49,1.06.76,2.19.84,3.34.15,2.33.18,4.66.26,6.99.1,3.02-.82,5.73-2.49,8.21-.1.14-.23.26-.47.31.11-.25.2-.52.34-.75,1.01-1.67,1.6-3.53,2.26-5.35.04-.12.08-.25.08-.38-.06-2.12.13-4.24-.3-6.36-.3-1.48-.31-3.02-.47-4.53-.05-.48-.16-.95-.24-1.42.06-.02.13-.04.19-.06Z"/>
      <path class="cls-1" d="M28.19,139.05c.54-1.54,1.15-2.8,1.97-3.95.17-.23.41-.45.49-.71.27-.87.86-1.29,1.7-1.5.83-.21,1.65-.49,2.48-.71.23-.06.49,0,.96,0-.34.44-.56.79-.84,1.06-1.01.98-2.03,1.97-3.09,2.91-1.01.89-2.07,1.72-3.11,2.58-.11.09-.25.15-.57.34ZM29.83,137.36c1.45-1.16,2.88-2.38,4.22-3.7.14-.14.18-.38.34-.72-.98.14-1.82.23-2.59.65-.25.14-.51.31-.67.54-.53.76-1.02,1.56-1.51,2.34-.19.3-.22.6.2.89Z"/>
      <path class="cls-1" d="M82.69,153.46c-.04-1.1.48-2.02.8-3,.32-.96.54-1.96.85-3.16-1.22.56-1.39,1.9-2.48,2.27.96-1.8,2.24-3.39,3.27-5.19.31.85.21,1.78-.6,4.7-.43,1.53-.99,3.02-1.85,4.38Z"/>
      <path class="cls-1" d="M43.36,255.06c-.12-.97-.04-2.03-1.34-2.44-.15.29-.33.56-.44.85-.61,1.58-.91,3.24-.98,4.93-.04.85.13,1.67.8,2.34.89-.26,1.07-1.13,1.55-1.75.01.74-.21,1.41-.68,1.97-.46.55-.98.53-1.48,0-.45-.48-.64-1.11-.58-1.7.14-1.61.18-3.24.74-4.78.2-.55.39-1.1.64-1.62.29-.59.63-.64,1.15-.24.84.64.79,1.52.62,2.43Z"/>
      <path class="cls-1" d="M46.21,64.94c.8.04.99.2,1.23.82.19.49-.05.77-.39,1.08-1.29,1.14-2.21,2.47-2.22,4.32,0,.76-.23,1.53-.38,2.29-.04.22-.12.45-.26.62-.43.51-.89.99-1.34,1.48-.06-.04-.11-.07-.17-.11.22-.44.41-.9.67-1.31.39-.62.59-1.26.64-2,.11-1.65.6-3.16,1.82-4.36.23-.23.42-.48.64-.72.81-.88.78-1.26-.25-2.1Z"/>
      <path class="cls-1" d="M223.82,183.47c-.73-.08-1.44-.21-2.16-.22-1.07-.03-1.49.42-1.32,1.48.13.82.3,1.67.66,2.41.98,2.03,2.06,4.02,3.1,6.02.16.31.32.61.36.99-.61-1-1.28-1.96-1.83-3-.87-1.65-1.71-3.33-2.47-5.03-.31-.69-.49-1.47-.18-2.26.3-.76.74-1.03,1.55-.94.79.08,1.58.13,2.3.54Z"/>
      <path class="cls-1" d="M216.65,58.6c1.13,1.45,1.47,3.02,1.55,4.68-.39-1.14-.78-2.28-1.23-3.59-.2.29-.33.4-.35.52-.16.92-.3,1.85-.46,2.77-.14.77-.43,1.47-.98,2.28.08-.86.09-1.54.21-2.2.13-.76.4-1.49.53-2.25.12-.72.13-1.46.73-2.21Z"/>
      <path class="cls-1" d="M88.56,145.88c.43,1.31.21,2.53.19,3.73-.37.08-.73.04-.86.2-.16.18-.16.54-.16.81.02.97.08,1.93.04,2.9-.28-.31-.16-.69-.19-1.04-.04-.54.05-1.09-.39-1.55-.13-.13-.12-.49-.05-.71.44-1.41.91-2.81,1.42-4.34Z"/>
      <path class="cls-1" d="M44.47,269.59c-.39-.33-.78-.66-1.17-1-.75-.68-1.6-1.15-2.59-1.41-.81-.21-.89-.12-1.01-1.13-.13-1.12-.46-2.21-.71-3.31-.06-.28-.16-.55-.19-.84.62,1.03.85,2.19.97,3.35.1.89.5,1.19,1.29,1.36,1.2.26,2.91,1.41,3.4,2.98Z"/>
      <path class="cls-1" d="M198.87,86.27c-.22.29-.37.67-.66.85-1.17.72-2.41,1.3-4.01,1.45,1.17-1.72,3.01-1.75,4.42-2.57.08.09.17.18.25.27Z"/>
      <path class="cls-1" d="M86.56,148.68c.6,1.1-.35,1.74-.35,2.63-.58-.14-.84.17-1.1.58-.36.57-.77,1.11-1.18,1.64-.12.16-.32.26-.49.4-.06-.13-.11-.19-.11-.24.01-.09.04-.19.09-.27,1.01-1.53,2.02-3.06,3.14-4.74Z"/>
      <path class="cls-1" d="M219.86,191.3c-.53-.3-1.04-.63-1.59-.88-.28-.13-.63-.12-1.16-.22.66,1.81,1.78,3.02,2.74,4.34-1.33-.95-2.29-2.21-2.98-3.67-.12-.25-.14-.71,0-.87.16-.17.62-.21.86-.11.78.33,1.61.64,2.09,1.43l.02-.02Z"/>
      <path class="cls-1" d="M220.85,120.9c.59.18,1.1.69,1.81.38.15-.07.43.1.62.21.97.5,1.93,1.01,2.89,1.52.1.05.19.15.21.39-.53-.14-1.09-.22-1.59-.44-1.34-.61-2.65-1.29-3.98-1.94-.02-.01-.04-.05-.04-.08,0-.02.04-.03.07-.05Z"/>
      <path class="cls-1" d="M13.23,58.33c.07.29.14.59.2.88.25,1.43.87,2.62,2.08,3.48.76.54,1.41,1.21,1.7,2.16-.62-1.06-1.64-1.67-2.55-2.38-1.12-.87-1.37-2.14-1.65-3.4-.05-.23.04-.49.06-.73.05,0,.11-.01.16-.02Z"/>
      <path class="cls-1" d="M210.25,90.51c.07-.12.1-.32.21-.36,1.95-.88,3.64-2.14,5.18-3.62-1.43,1.81-2.96,3.48-5.38,3.98Z"/>
      <path class="cls-1" d="M228.54,209.79c-1.83-2.45-3.27-5.09-4.05-8.08,1.02,2.86,2.52,5.48,4.05,8.08Z"/>
      <path class="cls-1" d="M81.01,149.1c.12-.38.25-.75.36-1.13.08-.27.26-.58.2-.82-.27-1.05.46-1.48,1.15-2.11.18.92-.23,1.59-.5,2.27-.26.66-.44,1.38-.98,1.89l-.23-.09Z"/>
      <path class="cls-1" d="M29.72,189.53l2.6-7.18c-.53,2.51-1.49,4.87-2.42,7.24-.06-.02-.12-.04-.18-.06Z"/>
      <path class="cls-1" d="M184.59,6.72c-.32-.71-.53-1.39-.91-1.95-.38-.55-.93-.98-1.52-1.57,1.57.2,2.66,1.86,2.43,3.52Z"/>
      <path class="cls-1" d="M225.91,196.42c-.32-.07-.6-.12-.87-.18-.86-.2-1.06-.05-1.13.86-.02.29-.05.57-.08.92-.58-1.08-.53-1.84.1-2.23.64-.39,1.46-.15,1.97.62Z"/>
      <path class="cls-1" d="M182.22,12.91c0-.41-.08-.74.01-1.01.29-.84.31-1.67.06-2.52,1,1.26,1.01,2.57-.07,3.53Z"/>
      <path class="cls-1" d="M225.45,207.28c-.86-.6-1.77-1.15-2.58-1.82-.65-.54-1.3-1.04-2.09-1.33-.25-.1-.56-.14-.57-.69.35.16.64.26.89.42.4.26.79.55,1.17.84.98.72,1.76,1.69,2.89,2.22.12.06.18.26.26.39l.02-.02Z"/>
      <path class="cls-1" d="M34.81,19.37c-1.16,1.22-2.39,2.38-3.04,4,.32-1.87,1.6-3,3.04-4Z"/>
      <path class="cls-1" d="M187.75,124.46c.14.38.28.77.44,1.22-1.14.03-.55,1.02-.94,1.67-.1-1.1.01-2.01.26-2.9.08,0,.16,0,.24,0Z"/>
      <path class="cls-1" d="M200.95,84.79c-.13.24-.25.49-.39.73-.16.29-.34.57-.57.95-.2-.11-.5-.28-.92-.5.72-.44,1.31-.79,1.89-1.15,0,0-.01-.03-.01-.03Z"/>
      <path class="cls-1" d="M189.55,127.43c.2,1.37.4,2.74.6,4.12-.06,0-.12.02-.19.02-.18-1.38-.53-2.73-.41-4.14,0,0,0,0,0,0Z"/>
      <path class="cls-1" d="M181.31,8.02c-.89-.58-1.79-1.22-1.79-2.69.3.64.47,1.14.75,1.55.29.42.69.76,1.04,1.14Z"/>
      <path class="cls-1" d="M25.6,188.56c.64.9,1.23,1.73,1.86,2.61-.73-.5-1.61-1.73-1.86-2.61Z"/>
      <path class="cls-1" d="M179.94,1.85c-.1.42-.16.69-.2.84v-1.63c.45.56.75.93,1.06,1.3-.02.03-.05.05-.07.08-.21-.16-.43-.31-.79-.58Z"/>
      <path class="cls-1" d="M135.88,123.05c.43.78.85,1.56,1.28,2.34.17.31.34.61.51.92,0,0,0-.02,0-.02-.12-.09-.3-.15-.36-.27-.48-.99-.95-2-1.42-3,0,0-.02.02-.02.02Z"/>
      <path class="cls-1" d="M220.77,116.84c.39.65.79,1.3,1.18,1.95-.05.03-.1.06-.14.09-.41-.64-.81-1.29-1.22-1.93.06-.04.12-.07.18-.11Z"/>
      <path class="cls-1" d="M24.55,185.93c.29.62.58,1.24.88,1.87-.08.04-.15.08-.23.12-.14-.32-.28-.63-.41-.95-.14-.32-.27-.64-.41-.96.06-.03.11-.05.17-.08Z"/>
      <path class="cls-1" d="M93.16,141.22c.1.76.21,1.51.31,2.27-.05,0-.09.01-.14.02-.11-.76-.23-1.53-.34-2.29.06,0,.11,0,.17,0Z"/>
      <path class="cls-1" d="M218.99,114.43c-.37-.34-.76-.67-1.1-1.04-.26-.28-.47-.61-.61-1,.56.69,1.13,1.38,1.69,2.07l.02-.02Z"/>
      <path class="cls-1" d="M219.84,191.32c.92.31,1.25,1.16,1.71,1.9-.56-.64-1.12-1.28-1.68-1.92,0,0-.03.02-.03.02Z"/>
      <path class="cls-1" d="M32.48,43.34c-.08-.96-.03-1.9.42-2.72-.13.86-.28,1.79-.42,2.72,0,0,0,0,0,0Z"/>
      <path class="cls-1" d="M193.61,81.33c.77-.45,1.54-.91,2.31-1.36h-.02c-.64.67-1.37,1.19-2.31,1.35,0,0,.02,0,.02,0Z"/>
      <path class="cls-1" d="M221.95,194.8c-.25.82-.33.85-1.06.49.29-.13.63-.29,1.06-.49Z"/>
      <path class="cls-1" d="M202.83,35.76l1.28.41c-.02.08-.04.16-.07.24-.43-.12-.85-.25-1.28-.37.02-.09.04-.19.07-.28Z"/>
      <path class="cls-1" d="M32.31,164.38c.39.44.79.88,1.18,1.32,0,0,.02-.01.02-.02-.42-.4-.85-.8-1.27-1.2.02-.03.04-.07.07-.1Z"/>
      <path class="cls-1" d="M170.59,52.88c.41.6.64,1.23.33,1.96-.11-.68-.21-1.33-.31-1.99,0,0-.02.02-.02.02Z"/>
      <path class="cls-1" d="M153.18,135.63l1.32-1.43s.08.08.12.12l-1.31,1.44s-.09-.09-.14-.13Z"/>
      <path class="cls-1" d="M51.8,108c-.11.77-.68,1.17-1.21,1.61.41-.53.82-1.06,1.23-1.59,0,0-.02-.03-.02-.03Z"/>
      <path class="cls-1" d="M218.97,114.45c.33.44.65.88.98,1.32l-.21.13c-.25-.49-.51-.98-.76-1.47,0,0-.01.02-.01.02Z"/>
      <path class="cls-1" d="M34.04,176.39c.06-.45.12-.9.18-1.35.25.51.15.95-.19,1.33,0,0,.01.02.01.02Z"/>
      <path class="cls-1" d="M33.18,180.1c-.12.46-.24.93-.36,1.39l-.12-.03.35-1.39s.09.02.14.04Z"/>
      <path class="cls-1" d="M138.63,128.06c-.61-.43-.87-1.05-.95-1.77,0,0,0,.02,0,.01.32.59.63,1.18.95,1.78v-.02Z"/>
      <path class="cls-1" d="M189.01,35.7c-.21.52-.42,1.05-.63,1.57-.06-.03-.13-.06-.19-.09.28-.48.56-.97.84-1.45,0,0-.02-.03-.02-.03Z"/>
      <path class="cls-1" d="M87.24,133.71c.04.6-.37.96-.74,1.34.25-.44.5-.87.75-1.31,0,0-.01-.03-.01-.03Z"/>
      <path class="cls-1" d="M49.28,162.17c-.09-.29-.18-.59-.27-.88.06-.02.11-.03.17-.05.07.3.15.59.22.89-.04.01-.08.03-.12.04Z"/>
      <path class="cls-1" d="M190.61,98.18c-.17.15-.34.31-.51.46-.05-.05-.09-.09-.14-.14.16-.17.31-.34.47-.51.06.06.12.12.17.19Z"/>
      <path class="cls-1" d="M33.63,177.7c.14-.43.28-.87.42-1.31,0,0-.01-.02-.01-.03.04.49.09,1-.4,1.33h0Z"/>
      <path class="cls-1" d="M35.36,36.75c-.15.18-.29.36-.44.54-.03-.02-.06-.05-.09-.07.13-.2.27-.4.4-.6.04.05.08.09.13.14Z"/>
      <path class="cls-1" d="M225.43,207.3c.27.13.55.27.82.4-.04.06-.08.12-.12.18-.23-.2-.45-.41-.68-.61,0,0-.03.02-.03.02Z"/>
      <path class="cls-1" d="M33.63,177.69v1.17s-.1,0-.15,0c.05-.38.1-.77.15-1.15,0,0,0,0,0,0Z"/>
      <path class="cls-1" d="M28.93,191.14l-.5.73c-.05-.05-.1-.09-.15-.14l.67-.57s-.02-.03-.02-.03Z"/>
      <path class="cls-1" d="M138.62,128.09c.13.25.27.49.4.74-.05.02-.1.04-.16.06-.08-.27-.16-.55-.23-.82,0,0-.01.02-.01.02Z"/>
      <path class="cls-1" d="M195.93,79.97c.24-.13.48-.26.72-.4.02.05.04.1.06.14-.27.08-.53.16-.8.24,0,0,.02,0,.02,0Z"/>
      <path class="cls-1" d="M29.65,161.83l-.23-.31s.07-.06.11-.09c.08.1.17.2.25.3-.04.04-.09.07-.13.11Z"/>
      <path class="cls-1" d="M28.95,191.16c0-.29.1-.51.35-.61.07.07.15.13.22.2-.2.13-.4.26-.59.39,0,0,.02.03.02.03Z"/>
      <path class="cls-1" d="M10.8,120.13c-.04-.09-.09-.15-.1-.22,0-.04.06-.08.09-.12.04.07.09.13.11.2,0,.03-.06.08-.11.15Z"/>
      <path class="cls-1" d="M219.41,120.08c.15.08.29.15.44.23-.02.03-.03.06-.05.1-.15-.07-.3-.13-.45-.2.02-.04.04-.09.06-.13Z"/>
      <path class="cls-1" d="M195.21,95.94c-.05.07-.07.14-.11.15-.05.01-.13,0-.17-.04-.02-.02,0-.1.01-.15.08.01.17.03.27.05Z"/>
      <path class="cls-1" d="M216.27,111.14c.13.18.25.36.38.53-.05.02-.09.04-.14.06-.08-.21-.15-.41-.23-.62,0,0-.02.02-.02.02Z"/>
      <path class="cls-1" d="M91.32,89.3c-.14-2.7-.02-5.38.6-8.07.04.38.06.76.11,1.14.21,1.53.46,3.06.61,4.6.05.54-.04,1.14-.23,1.64-.13.34-.55.56-.85.83-.08-.05-.17-.1-.25-.15Z"/>
      <path class="cls-1" d="M114.18,83.32c.67-.25,1.32-.57,2.01-.75.67-.17,1.38-.25,2.08-.29,1-.05,1.56.97,1.06,1.85-.09.16-.25.28-.38.42-.47-.14-.47-.55-.57-.86-.17-.5-.46-.69-1-.7-.78-.01-1.52.12-2.25.4-.28.11-.57.17-.86.26-.03-.11-.07-.22-.1-.34Z"/>
      <path class="cls-1" d="M95.7,87.85c.62.51.93.96.63,1.6-.76.31-1.43.21-2.03-.39.05-.93.96-.74,1.4-1.2Z"/>
      <path class="cls-1" d="M89.61,130.75c-.99-.11-1.88.12-2.62.78-.3-.39-.07-.58.12-.71.45-.3.9-.59,1.39-.83.63-.31.86-.14,1.11.76Z"/>
      <path class="cls-1" d="M145.48,108.59c-.37-.57-.1-.83.13-1.1.49-.57.88-1.29,1.86-1.2.08.74-.69.7-.96,1.08-.29.4-.64.76-1.03,1.22Z"/>
      <path class="cls-1" d="M86.77,132.21c.53.06,1.06.09,1.58.18.39.07.66.33.8.81-.91.19-1.66-.32-2.57-.35.08-.28.14-.47.2-.67l-.02.02Z"/>
      <path class="cls-1" d="M119.43,80.35c.06.41.11.82.19,1.38-.5-.17-.84-.28-1.35-.46.35-.42.6-.73.86-1.04.1.04.2.08.3.12Z"/>
      <path class="cls-1" d="M146.46,108.37c.13-.79.61-1.03,1.1-1.2.17-.06.43.18.65.28,0,.09,0,.17,0,.26-.54.2-1.08.41-1.75.66Z"/>
      <path class="cls-1" d="M120.4,87.64c-.3-.48-.55-.87-.81-1.3.32-.23.61-.26.78.02.2.33.42.72.03,1.28Z"/>
      <path class="cls-1" d="M120.21,85.7c-.33-.1-.59-.18-.84-.26.05-.46.29-.66.64-.58.36.09.34.4.2.84Z"/>
      <path class="cls-1" d="M86.79,132.18c-.32.13-.62.2-.8-.21-.14-.32-.15-.6.25-.81.19.38.36.71.53,1.04,0,0,.02-.02.02-.02Z"/>
      <path class="cls-1" d="M93.4,89.75q-.44-.69.09-1.38c.06.52.1.93.14,1.34-.08.01-.15.02-.23.04Z"/>
      <path class="cls-1" d="M93.67,86.8c.35.37.55.58.87.92-.39.07-.61.11-.87.16v-1.08Z"/>
      <path class="cls-1" d="M97.95,92.23c.24-.27.43-.49.68-.78.12.83.1.85-.68.78Z"/>
      <path class="cls-1" d="M97.34,91.23c-.08.38-.08.74-.53.69-.09,0-.24-.17-.24-.25.03-.41.32-.47.77-.44Z"/>
      <path class="cls-1" d="M147.34,108.56c-.22.62-.73.84-1.3.54,0,0-.02.02-.02.03.45-.18.9-.37,1.34-.55l-.02-.02Z"/>
      <path class="cls-1" d="M83.64,98.99c-.39-.51-.09-.72.17-1.01q.16.48-.17,1.01Z"/>
      <path class="cls-1" d="M95.35,117.63c-.36.05-.49-.13-.42-.44.02-.08.21-.2.27-.18.31.13.31.36.15.62Z"/>
      <path class="cls-1" d="M97.34,87.24c-.28.2-.56.41-.84.61q.21-.62.86-.59s-.02-.02-.02-.02Z"/>
      <path class="cls-1" d="M116.84,87.56c.16.02.32.03.53.05q-.25.26-.53-.05Z"/>
      <path class="cls-1" d="M147.36,108.58c.31-.06.63-.12.94-.18-.29.45-.62.35-.96.17,0,0,.01.01.01.01Z"/>
      <path class="cls-1" d="M189.79,85.53c-.06.77-.21,1.37-.56,1.9-.32.49-.35.48-1.16.34-.17-.6.42-.79.65-1.16.24-.38.37-.9,1.08-1.09Z"/>
      <path class="cls-1" d="M108.01,166.87c-.18,1.93-.38,3.86-.53,5.79-.1,1.19-.18,2.39-.17,3.59.02,1.85.07,3.7.22,5.54.16,1.96.38,3.93.69,5.87.55,3.48,1.18,6.96,1.79,10.43.24,1.34.55,2.66.81,4,.37,1.87.73,3.73,1.07,5.6.31,1.72.64,3.43.89,5.16.33,2.3.61,4.61.89,6.93.2,1.67.38,3.34.51,5.02.12,1.49.2,2.98.24,4.46.08,2.82.12,5.64.18,8.46,0,.27-.03.54-.19.8-.01-.24-.03-.49-.04-.73-.08-2.53-.13-5.06-.25-7.58-.09-1.97-.2-3.95-.39-5.91-.24-2.35-.57-4.69-.87-7.03-.2-1.6-.39-3.21-.62-4.81-.19-1.34-.4-2.69-.64-4.02-.4-2.13-.83-4.25-1.25-6.38-.44-2.25-.89-4.5-1.3-6.76-.32-1.78-.59-3.57-.89-5.36-.2-1.15-.45-2.29-.61-3.44-.21-1.6-.39-3.21-.5-4.82-.12-1.78-.13-3.56-.2-5.34-.09-2.22.31-4.39.62-6.57.12-.86.2-1.73.3-2.6.01-.11.05-.23.08-.34.05.02.1.04.15.06Z"/>
      <path class="cls-1" d="M128.08,151.07c.52,1.1,1.13,2.17,1.55,3.31,1.73,4.68,3.77,9.22,6.08,13.64,1.33,2.55,2.63,5.12,4,7.65.74,1.36,1.6,2.66,2.45,3.96,2.15,3.27,4.29,6.54,6.49,9.77,2.6,3.82,5.26,7.59,7.88,11.39,1.46,2.13,2.91,4.26,4.33,6.43.99,1.51,1.98,3.03,2.84,4.62,1.68,3.1,3.05,6.35,4.12,9.73.76,2.4,1.61,4.78,2.02,7.28.04.25.08.51-.02.79-.58-2.02-1.12-4.06-1.75-6.07-.49-1.57-1.04-3.13-1.63-4.67-.96-2.51-1.95-5.01-3.28-7.35-.94-1.66-1.97-3.27-3.02-4.85-1.52-2.29-3.08-4.54-4.64-6.79-1.14-1.64-2.32-3.25-3.46-4.9-.95-1.38-1.85-2.81-2.78-4.2-.54-.8-1.11-1.58-1.65-2.39-1.52-2.28-3.05-4.56-4.55-6.86-2.7-4.11-5.19-8.34-7.29-12.8-1.11-2.37-2.33-4.7-3.38-7.1-1-2.28-1.85-4.62-2.78-6.93-.49-1.23-1.01-2.45-1.52-3.68v.02Z"/>
      <path class="cls-1" d="M123.83,220.19c-.14-.21-.33-.4-.4-.63-1.39-4.58-2.75-9.17-3.78-13.86-.77-3.51-1.51-7.02-2.14-10.56-.51-2.83-.89-5.69-1.23-8.55-.4-3.38-.62-6.77-1.03-10.14-.4-3.33-.33-6.67-.35-10,0-.12.04-.23.09-.48.1.19.16.27.16.34.08,1.85.13,3.69.25,5.54.14,2.2.34,4.39.52,6.58.13,1.68.25,3.36.41,5.03.1,1.06.25,2.12.4,3.18.31,2.18.61,4.36.95,6.53.29,1.85.6,3.7.96,5.54.62,3.14,1.21,6.3,1.97,9.41.99,4.05,2.13,8.07,3.2,12.1h0Z"/>
      <path class="cls-1" d="M116.51,144.67c-.65-1.89-1.25-3.8-1.97-5.66-1.06-2.73-2.53-5.23-4.58-7.34-.96-.98-1.91-1.97-2.8-3.01,4.05,2.3,6.14,6.21,8.1,10.23.43-.17.41-.48.43-.76.12-2.72,1.03-5.24,1.75-7.82.3-1.07.86-1.88,1.47-2.73.22-.3.38-.65.7-.91-.19.43-.38.85-.56,1.28-.82,1.97-1.47,3.99-2.02,6.07-.51,1.93-.76,3.87-.83,5.84-.04,1.19.16,2.38.26,3.57.03.42.09.83.14,1.24-.03,0-.05,0-.08,0Z"/>
      <path class="cls-1" d="M122.43,134.61c-.32.43-.63.87-.95,1.3-.04-.03-.08-.06-.12-.08.39-.59.75-1.22,1.19-1.78,2.43-3.1,4.89-6.17,7.31-9.28.49-.63.88-1.36,1.22-2.08,1.43-3,2.32-6.17,2.87-9.44.04-.26.06-.52.07-.77.07-1.68.13-3.36.26-5.05,0,1.48.1,2.96-.03,4.42-.15,1.67-.39,3.35-.81,4.97-.54,2.09-1.19,4.18-2,6.18-.4.98-1.25,1.77-1.93,2.62-1.66,2.06-3.38,4.07-5.01,6.15-.96,1.23-1.44,2.73-2.01,4.17-.03.09-.09.17-.21.23.14-.48.28-.97.43-1.45-.09-.03-.19-.07-.28-.1Z"/>
      <path class="cls-1" d="M85.89,206.07c-.98-.85-.64-1.9-.72-2.83-.09-1.16.03-2.33.05-3.49,0-.46.04-.88.4-1.25.17-.17.18-.53.19-.8.02-.79,0-1.58,0-2.37.06,0,.13,0,.19,0,0,.71-.04,1.43,0,2.14.07,1.21-.22,2.4-.02,3.62.08.52-.29,1.12-.49,1.76.63.25.55.76.43,1.43-.12.64,0,1.33.08,1.99.04.41.05.71-.37.99-.22.15-.31.6-.34.93-.1,1.35-.15,2.71-.33,4.06.06-1.48.11-2.95.17-4.43.01-.29.04-.58,0-.86-.07-.48.13-.74.74-.88ZM85.73,204.12c-.08,0-.17,0-.25,0-.16.41-.29.82.25,1.24v-1.25Z"/>
      <path class="cls-1" d="M99.03,130.95c.7.61,1.44,1.18,2.08,1.84,1.15,1.17,2.51,2.03,3.94,2.73,2.06,1.02,3.95,2.26,5.63,3.82.6.56,1.11,1.22,1.55,1.93-1.03-.94-2-1.96-3.1-2.8-1.22-.93-2.51-1.76-3.92-2.41-.81-.37-1.57-.87-2.35-1.31-.08-.05-.17-.09-.24-.16-1.19-1.21-2.38-2.43-3.56-3.65,0,0-.02.02-.02.02Z"/>
      <path class="cls-1" d="M79.99,262.43c-.24-.89.13-1.71.27-2.55.01-.08.1-.16.17-.21.73-.52.84-.9.52-1.83-.11.06-.22.1-.3.17-.08.08-.13.19-.24.35.13-.9.24-1.73.37-2.64.12.29.21.49.3.7.68-1.47.83-3.02.94-4.57.07.01.14.03.21.04-.55,3.69-1.11,7.39-1.67,11.14-.2-.21-.4-.42-.6-.62.12-.01.3.02.35-.05.37-.46.47-1.63.16-2.16-.45.72-.33,1.51-.49,2.24Z"/>
      <path class="cls-1" d="M85.43,220.02c-1.06-.53-.64-1.47-.65-2.26-.02-1.36.06-2.71.11-4.07,0-.08.05-.16.22-.24,0,.5-.02,1,0,1.49.01.24.02.6.17.71.51.35.46.83.42,1.31-.08,1.03-.19,2.05-.28,3.06ZM85.38,216.24c-.55.88-.54,1.33,0,1.82v-1.82Z"/>
      <path class="cls-1" d="M120.98,126.7c-.06.25-.08.52-.18.75-1.17,2.64-1.86,5.44-2.58,8.22-.19.75-.29,1.52-.46,2.45-.05-.28-.13-.44-.1-.58.73-3.52,1.65-6.99,3.05-10.31.07-.18.19-.34.28-.51,0,0-.02-.03-.02-.03Z"/>
      <path class="cls-1" d="M82.46,244.76c.17-1.56.33-3.12.5-4.66.11.17.24.36.37.57.13-.08.27-.11.28-.17.08-.66.3-1.33-.19-1.94-.31-.39-.23-.82-.05-1.29.04.36.08.68.14,1.16.22-.26.34-.4.57-.66-.12,1.11-.22,2.1-.35,3.08-.02.17-.18.43-.3.45-.66.1-.55.6-.59,1.04-.08.82-.16,1.63-.24,2.45-.05,0-.09-.01-.14-.02Z"/>
      <path class="cls-1" d="M82.32,249.01c.38-.58.62-1.11.05-1.77-.22-.26-.16-.79-.17-1.19,0-.53.02-.53.69-.85.07-.34.14-.68.26-1.23.28,1.08-.13,1.72-.63,2.35.14-.01.28-.02.42-.04-.23.83.13,1.73-.35,2.51-.06.09-.18.14-.27.22,0,0,0,0,0,0Z"/>
      <path class="cls-1" d="M134.88,238.25c-.75-2.77-1.51-5.54-2.26-8.3l.13-.04c.76,2.77,1.52,5.53,2.28,8.3-.05.01-.1.03-.15.04Z"/>
      <path class="cls-1" d="M123.99,138.78c-1.24.56-1.94,1.89-3.39,2.14,1.07-.79,2.14-1.57,3.2-2.36.06.07.12.14.18.21Z"/>
      <path class="cls-1" d="M84.65,231.73l-.37,4.85h-.16c.13-1.62.25-3.22.38-4.83l.15-.02Z"/>
      <path class="cls-1" d="M84.59,230.58c.11-1.23.22-2.46.34-3.69.22,1.24-.1,2.44-.34,3.69Z"/>
      <path class="cls-1" d="M151.34,226.27c.49,1.2.98,2.4,1.47,3.59-.06.02-.11.05-.17.07l-1.47-3.59c.06-.02.11-.05.17-.07Z"/>
      <path class="cls-1" d="M85.71,213.95v-2.57s.08,0,.12,0v2.58s-.08,0-.12,0Z"/>
      <path class="cls-1" d="M84.22,228.52c-.08,1.21-.15,2.42-.23,3.62-.04,0-.08,0-.13,0,.05-1.2.11-2.4.16-3.6h.19Z"/>
      <path class="cls-1" d="M99.98,123.65c.84.75,1.68,1.5,2.52,2.26l-.09.11c-.42-.38-.84-.75-1.27-1.13-.42-.37-.85-.75-1.27-1.12.03-.04.07-.08.1-.11Z"/>
      <path class="cls-1" d="M79.22,266.2c.18.21.26.29.33.37.08.1.15.2.15.2-.22.35-.42.67-.6.95.01-.41-.04-.89.13-1.52Z"/>
      <path class="cls-1" d="M127.17,148.45c-.3-.91-.59-1.81-.89-2.72.04-.01.08-.03.12-.04.31.91.61,1.82.92,2.72-.05.01-.1.03-.16.04Z"/>
      <path class="cls-1" d="M117.09,150.87c-.14-.83-.29-1.7-.46-2.7.47,1.27.63,2.34.46,2.7Z"/>
      <path class="cls-1" d="M98.14,140.11c.38.54.77,1.08,1.14,1.62.1.15.19.31.16.54-.48-.68-.95-1.36-1.43-2.05.04-.04.08-.08.12-.12Z"/>
      <path class="cls-1" d="M85.14,223.53v-1.06s.08,0,.11,0v1.04s-.08.01-.11.02Z"/>
      <path class="cls-1" d="M85.85,208.23c.4.53.13,1.02,0,1.5v-1.5Z"/>
      <path class="cls-1" d="M86,193.13v1.28q-.25-.65,0-1.28Z"/>
      <path class="cls-1" d="M81.73,249.43c.03-.49.07-.97.1-1.46.06,0,.13.02.19.02-.07.48-.13.95-.2,1.43-.03,0-.07,0-.1.01Z"/>
      <path class="cls-1" d="M85.89,192.14v-1.69c.03.5.07,1.09.11,1.68-.04,0-.08,0-.11.01Z"/>
      <path class="cls-1" d="M84.42,221.66c.1-.41.2-.82.3-1.23.05.01.11.03.16.04-.12.4-.25.81-.37,1.21-.03,0-.06-.01-.09-.02Z"/>
      <path class="cls-1" d="M98.27,122.07l-.78-.99s-.04.03-.06.05c.24.35.47.71.71,1.06.04-.04.09-.08.13-.12Z"/>
      <path class="cls-1" d="M116.4,145.79c.06.35.11.69.17,1.04-.04,0-.09.01-.13.02-.06-.34-.12-.69-.18-1.03.05,0,.09-.02.14-.02Z"/>
      <path class="cls-1" d="M82.31,249.01c.5.52.07,1.07,0,1.61,0-.54,0-1.07,0-1.61,0,0,0,0,0,0Z"/>
      <path class="cls-1" d="M108.44,132.21c-.23-.25-.46-.51-.7-.76.02-.02.03-.04.05-.06.13.11.26.21.38.33.13.13.26.27.38.41-.04.03-.07.06-.11.08Z"/>
      <path class="cls-1" d="M81.8,250.68c-.08.31-.17.63-.25.94-.05-.01-.09-.02-.14-.04l.22-.97c.06.02.11.04.17.06Z"/>
      <path class="cls-1" d="M83.34,243.19c.04-.28.08-.55.11-.83.04,0,.08.01.13.02-.02.28-.04.55-.06.83l-.18-.02Z"/>
      <path class="cls-1" d="M105.31,128.93c-.24-.21-.48-.41-.71-.61.02-.02.04-.04.07-.06.21.22.43.45.65.68Z"/>
      <path class="cls-1" d="M128.09,151.06c-.15-.43-.3-.87-.45-1.3.07-.02.14-.04.21-.06.08.46.16.91.23,1.37,0,0,0-.01,0-.01Z"/>
      <path class="cls-1" d="M123.82,220.2c.12.45.24.9.35,1.34-.05.01-.11.02-.16.03-.06-.46-.13-.92-.19-1.39,0,0,0,.01,0,.01Z"/>
      <path class="cls-1" d="M118.19,150.39c-.08-.21-.17-.43-.25-.64l.08-.03c.09.21.19.42.28.63l-.11.05Z"/>
      <path class="cls-1" d="M83.6,234.58c-.01.21-.03.42-.04.63-.02,0-.03,0-.05,0v-.62s.06-.01.09-.02Z"/>
      <path class="cls-1" d="M85.17,225.03v.56s-.05,0-.07,0v-.56s.05,0,.07,0Z"/>
      <path class="cls-1" d="M109.61,133.55c-.12-.13-.25-.27-.37-.4.02-.03.03-.06.05-.09.08.04.17.07.22.13.08.09.15.19.22.29-.04.02-.08.04-.12.06Z"/>
      <path class="cls-1" d="M79.49,264.6l.05-.36c.05.07.13.13.16.21.01.04-.05.11-.08.16-.04,0-.08,0-.12-.01Z"/>
      <path class="cls-1" d="M81.15,253.37c.01-.21.03-.43.04-.64.02,0,.03,0,.05,0v.64s-.06,0-.09,0Z"/>
      <path class="cls-1" d="M95.51,131.13c.26.07.52.14.77.22l-.06.16c-.23-.13-.45-.27-.68-.4,0,0-.03.02-.03.02Z"/>
      <path class="cls-1" d="M84.47,223.62v-.54s.04,0,.06,0c.01.18.02.35.03.53-.03,0-.07,0-.1.01Z"/>
      <path class="cls-1" d="M103.87,126c.17.15.33.3.5.45-.07.05-.13.09-.2.14-.09-.21-.18-.41-.27-.62,0,0-.02.02-.02.02Z"/>
      <path class="cls-1" d="M98.52,130.05c.17.3.34.6.51.9,0,0,.02-.02.02-.02-.17-.3-.34-.6-.51-.9,0,0-.02.02-.02.02Z"/>
      <path class="cls-1" d="M84.1,227.21c.04-.09.08-.18.12-.27.02.01.07.03.07.04-.02.09-.04.18-.07.27l-.12-.04Z"/>
      <path class="cls-1" d="M198.74,245.29c.07.1.14.2.21.3-.03.02-.07.05-.1.07-.07-.1-.14-.2-.21-.31.03-.02.06-.04.09-.07Z"/>
      <path class="cls-1" d="M120.55,124.89v.7s-.1,0-.15-.01c.05-.22.1-.45.15-.68,0,0,0-.02,0-.02Z"/>
      <path class="cls-1" d="M101.43,107.15c-.45-.32-.89-.63-1.34-.95-.4-.29-.5-.64-.26-1.1.16-.31.27-.64.4-.95.3-.11.62-.2.92-.33.43-.19.23-.62.32-.94.19-.7.42-1.39.72-2.07.09.76-.3,1.51.1,2.27.42-.04.47-.34.46-.62-.07-1.59.79-2.92,1.2-4.37.02-.08.11-.14.21-.26-.05,1.33-.77,2.49-.69,3.96,1.61-1.15,2.34-2.56,2.45-4.36.43.52-.29,1.13.27,1.67.66-.18,1.16-.73,1.77-1.04.63-.31,1.27-.61,1.96-.94.01-.25.02-.52.04-.98.21.4.34.67.5.98.89-.39,1.81-.26,2.73-.26.47,0,.94-.17,1.4.28.26.26.81.21,1.32.32-.08-1.11-.67-1.86-1.01-2.75.14.17.29.34.41.52.14.21.27.44.39.67.26.49.52.97.76,1.46.21.42.53.62,1.09.6-.11-.41-.21-.78-.36-1.34.71.53.9,1.16,1.12,1.74.22.56.5,1.04,1.18,1.14.29-.59-.23-.98-.36-1.5.64.48.92.96,1,1.89.04.45.18.8.5,1.11.54.54.65,1.17.3,1.87-.32.64-.3,1.29-.13,1.98.21.91.34,1.84.47,2.77.02.16-.13.35-.23.6-.5-.4-.52-.85-.54-1.3-.03-.87,0-1.76-.42-2.56-.06-.1-.13-.2-.26-.4-.44.9-.77,1.73-1.23,2.49-.44.74-.94,1.48-1.54,2.09-1.15,1.17-2.36,2.29-3.6,3.36-.45.39-1.03.66-1.59.85-.71.25-1.45.24-2.15-.12-1.43-.74-2.73-1.66-3.88-2.83-.98-1-2.11-1.86-3.19-2.79-.66.38-.96.87-.99,1.59-.03.68-.12,1.35-.22,2.02-.02.16-.18.29-.29.46-.45-.68-.41-1.24.21-3.97.23-.11.53-.25.37-.53-.12-.22-.43-.32-.65-.48-.05.05-.09.1-.14.15.15.3.3.59.45.89ZM102.89,105.24c1.5.84,2.46.52,3.02-.95.06-.15.11-.3.15-.46.11-.44.22-.89.35-1.44.11.23.17.34.23.46.41.93.69,1.13,1.7,1.01.36-.04.75-.21,1.02-.45.49-.44.91-.97,1.39-1.49.43.78,1.15,1.19,2.03,1.14.9-.05,1.59-.57,2.06-1.44.18.35.28.61.43.85.45.71.93.77,1.58.22.19-.16.38-.31.62-.5.15.3.23.56.39.74.13.15.38.31.56.29.8-.09,1.17-.75,1.48-1.37.24-.48-.17-.85-.49-1.16-.58-.55-1.18-1.09-1.78-1.61-.24-.21-.51-.51-.79-.53-1.08-.09-2.12-.45-3.17-.58-1-.13-2.07.24-3.1.43-1.31.23-2.43.98-3.64,1.49-.7.29-1.25.76-1.69,1.38-.24.34-.51.67-.82.94-.87.75-1.78,1.46-2.66,2.21-.23.19-.4.46-.59.69.61.62,1.16.58,1.73.14ZM103.63,106.68l-.08.23c.31.31.62.62.94.91.81.72,1.63,1.43,2.45,2.14.81.71,1.18.73,1.95-.07.48-.51,1.01-.73,1.63-.53.67.22,1.26.01,1.86-.18.79-.26,1.56-.58,2.43-.37.19.05.43-.08.63-.15.56-.2,1.11-.42,1.68-.63.04-.21.03-.49.16-.66.14-.18.42-.24.61-.34-.19-1.13,1.03-1.73.92-2.8-.81-.36-1.6-.65-2.51-.43-.28.06-.65-.04-.9-.2-.53-.33-1.02-.32-1.54-.04-.72.4-1.48.49-2.2.08-.72-.41-1.24-.22-1.78.32-.71.7-1.58.98-2.56.64-.42-.15-.66.03-.87.37-.64,1.05-1.53,1.72-2.83,1.73ZM115.56,109.35c-.06-.06-.13-.12-.19-.18-.33.06-.71.23-1,.14-.59-.19-1.08-.04-1.56.24-.64.38-1.32.46-2.03.42-.29-.02-.58-.01-.86.02-.56.07-.93.39-1.17.9-.15.31-.14.57.17.75.83.47,1.7.8,2.66.56,1.4-.35,2.57-1.12,3.57-2.16.18-.19.27-.45.41-.68ZM119.85,103.43q.67-.06.53-.95c-.23.4-.38.67-.53.95Z"/>
      <path class="cls-1" d="M102.58,107.89c.33.29.68.56.99.87,1.55,1.61,3.23,3.05,5.09,4.27.63.41,1.39.63,2.1.93.06.02.13.04.19.02.97-.32,2.04-.12,2.97-.8,1.54-1.12,2.77-2.48,3.75-4.1.62-1.02,1.21-2.05,1.82-3.08.09-.16.21-.3.32-.45.06.03.12.07.18.1-.43.85-.83,1.71-1.28,2.55-.37.68-.79,1.33-1.19,2-.95,1.58-2.15,2.89-3.78,3.78-1.4.76-2.83.78-4.22.05-.91-.47-1.78-1.03-2.6-1.65-1.57-1.19-3.03-2.5-4.29-4.03-.08-.09-.14-.2-.2-.31.06-.06.11-.11.17-.17Z"/>
      <path class="cls-1" d="M105.91,94.54c.16-.11.34-.2.46-.34.4-.46.81-.46,1.37-.23.64.25,1.31.46,2.05.21.3-.1.68.04,1.04.08.59-.69.81-1.84,2.2-1.78-.25-.44-.43-.77-.57-1.02.98.53,1.06,1.55.04,2.24-1.12.75-2.28,1.45-3.65,1.64-1.09.15-2.1,0-2.92-.82,0,0-.02.03-.02.03ZM109.27,94.81s.01-.1.02-.15c-.26-.09-.52-.21-.79-.25-.16-.02-.35.07-.49.16-.05.03-.03.29.04.34.11.08.28.11.41.09.27-.04.54-.13.81-.2Z"/>
      <path class="cls-1" d="M111.33,76.25c-.12-.22-.22-.32-.21-.42,0-.1.13-.19.2-.28.07.09.18.18.19.28.01.09-.08.2-.18.42Z"/>
      <path class="cls-1" d="M86.15,109.91c.13.37.27.74.4,1.11-.13-.37-.27-.74-.4-1.11Z"/>
      <path class="cls-1" d="M108.86,87.68c-.19.08-.39.17-.58.25-.02-.04-.03-.08-.05-.11.19-.08.38-.16.57-.23.02.03.04.07.06.1Z"/>
      <path class="cls-1" d="M85.73,204.12v1.25c-.54-.42-.41-.82-.25-1.24.08,0,.17,0,.25,0Z"/>
      <path class="cls-1" d="M79.99,262.43c.15-.73.04-1.52.49-2.24.31.53.21,1.7-.16,2.16-.06.07-.23.04-.35.05,0,0,.03.03.03.03Z"/>
      <path class="cls-1" d="M85.38,216.24v1.82c-.54-.5-.55-.94,0-1.82Z"/>
      <path class="cls-1" d="M101.43,107.15c-.15-.3-.3-.59-.45-.89.05-.05.09-.1.14-.15.22.16.53.27.65.48.16.29-.14.42-.37.53,0,0,.03.02.03.02Z"/>
      <path class="cls-1" d="M119.85,103.43c.15-.27.31-.54.53-.95q.14.88-.53.95Z"/>
      <path class="cls-1" d="M109.27,94.81c-.27.07-.54.16-.81.2-.13.02-.31-.01-.41-.09-.07-.05-.09-.31-.04-.34.14-.09.33-.19.49-.16.27.04.53.16.79.25,0,.05-.01.1-.02.15Z"/>
      <path class="cls-1" d="M114.78,100.33c.01.14.02.28.04.42-.04.01-.08.03-.12.05-.04-.08-.11-.15-.12-.24-.01-.08.03-.16.05-.25.05,0,.1.01.16.02Z"/>
      <path class="cls-1" d="M117.48,101.38l.1-.42s.09.02.13.03c-.02.14-.05.28-.07.43-.05-.01-.1-.02-.16-.03Z"/>
    </g>
  </g>
</svg>