<svg width="385" height="411" viewBox="0 0 385 411" fill="none" xmlns="http://www.w3.org/2000/svg">
                    <path d="M361.118 321.08C320.359 338.057 274.526 338.148 233.701 321.333C192.875 304.517 160.402 272.173 143.425 231.415C126.447 190.656 126.356 144.823 143.171 103.998C159.987 63.1725 192.331 30.6991 233.09 13.7216C238.311 11.2246 245.802 8.50056 251.023 6.00356C210.116 -4.65195 166.8 -1.04891 128.216 16.2186C103.031 26.3246 80.1123 41.3467 60.7973 60.4077C41.4824 79.4686 26.1583 102.187 15.7198 127.235C5.28125 152.284 -0.0624871 179.161 0.000551292 206.297C0.0635897 233.433 5.53214 260.285 16.0869 285.285C26.6417 310.285 42.0712 332.931 61.4745 351.902C80.8778 370.874 103.866 385.789 129.097 395.778C154.328 405.767 181.297 410.629 208.428 410.081C235.559 409.533 262.309 403.585 287.116 392.585C328.811 375.874 363.289 345.013 384.499 305.417C377.344 311.534 369.497 316.791 361.118 321.08Z" fill="#C0C0C0"/>
                    </svg>