<svg width="2560" height="214" viewBox="0 0 2560 214" fill="none" xmlns="http://www.w3.org/2000/svg">
<path d="M2560 213.724L2560 35.622C2559.61 31.7228 2559.29 27.7843 2559.45 23.8851C2559.09 23.058 2558.7 22.2309 2558.35 21.4038C2555.08 18.0166 2549.76 19.3164 2545.3 18.8831C2543.3 18.6862 2541.4 18.8044 2540.06 17.544C2537.43 16.2443 2533.72 16.3231 2531.75 14.2356C2531.32 13.9993 2530.81 13.8024 2530.26 13.6842C2527.26 13.5267 2524.66 12.5027 2522.22 11.4786C2519.74 10.4152 2517.53 10.4152 2515.17 11.4786C2514.46 11.9119 2514.06 12.4633 2513.87 13.0541C2510.71 10.5334 2504.45 9.82443 2498.22 11.6756C2496.06 12.3057 2494.01 13.1722 2491.88 13.8812C2491.61 14.0781 2491.45 14.3538 2491.17 14.5901C2489.56 14.3538 2488.53 13.6842 2488.61 12.3057C2488.22 12.3057 2487.82 12.3057 2487.39 12.3057C2483.49 13.5661 2479.31 14.1175 2475.02 14.3932C2465.72 13.5661 2456.9 15.3778 2447.95 16.5988C2442.6 17.3077 2437.43 16.6382 2432.35 15.4172C2430.34 15.9292 2429.83 17.9379 2427.27 17.9379C2426.76 18.056 2426.29 18.253 2425.81 18.4499C2424.79 19.1588 2423.37 19.7102 2422.82 20.6555C2421.75 19.7496 2420.81 18.765 2419.12 18.3317C2418.29 18.2136 2417.46 18.253 2416.71 18.5287C2416.12 18.8438 2415.81 19.2376 2415.45 19.6315C2415.45 19.3952 2415.53 19.1588 2415.61 18.9619C2411.35 17.7803 2406.78 18.2136 2402.41 17.7016C2400.83 17.544 2398.43 17.7803 2398 16.8745C2396.07 12.8965 2391.3 14.7083 2387.75 13.8812C2383.18 12.8178 2380.35 13.5661 2376.29 14.9052C2371.76 16.4019 2367.11 18.253 2361.99 18.765C2358.88 19.0801 2356.55 20.0253 2354.46 21.4826C2354.19 20.6555 2354.82 19.5921 2353.99 18.5287C2352.65 20.7737 2351.31 21.6008 2348.12 19.8284C2344.93 18.0561 2341.31 19.7103 2338.19 20.8524C2334.61 22.1916 2332.6 20.1435 2330.31 19.1589C2328.19 18.253 2330.51 17.3471 2331.26 16.52C2329.76 15.7323 2328.23 15.5354 2326.73 16.4019C2324.56 14.4326 2321.41 13.4873 2318.18 12.5815C2314.91 11.6756 2311.28 11.5574 2309.35 8.60351C2308.13 6.713 2303.44 6.27976 2301.83 8.40659C2299.35 11.6756 2295.96 12.4633 2291.23 11.8331C2293.24 9.7457 2290.84 8.56413 2288.39 7.38256C2286.86 6.75239 2284.73 7.38256 2283.39 6.27977C2280.91 4.31048 2278.15 4.8225 2276.18 6.43731C2273.94 8.28843 2272.16 7.93396 2269.6 6.83117C2267.08 5.72837 2264.44 4.62557 2261.37 4.46803C2258.3 4.31049 2255.54 4.70434 2253.61 7.06748C2254.63 4.66496 2254.59 2.65629 2252.31 0.96271C2251.6 0.450697 2250.1 -0.179473 2249.79 0.135612C2246.04 3.75909 2241.16 -2.10937 2237.45 0.883942C2237.18 1.08087 2236.86 1.2778 2236.71 1.51411C2234.7 4.42865 2232.84 5.53145 2229.54 1.98674C2227.64 -0.0613119 2223.9 -0.140083 2221.69 1.67166C2217.32 5.29514 2210.66 7.18565 2207.28 11.5968C2204.01 8.87923 2199 8.83985 2195.06 7.26442C2193.13 6.47671 2190.45 7.14627 2188.96 8.24906C2182.1 13.3692 2173.75 12.8572 2165.28 11.3211C2161.57 10.6516 2158.23 9.11555 2155.27 12.2664C2154.17 13.448 2152.83 12.1876 2151.65 11.8332C2145.78 10.1396 2137.94 11.0455 2134.35 13.7631C2133.48 14.4326 2132.97 15.1416 2132.78 15.9687C2132.7 15.9687 2132.62 15.9687 2132.54 16.008C2132.34 16.0474 2132.22 16.1262 2132.03 16.1656C2131.12 15.5354 2129.86 15.4173 2128.24 15.693C2126.75 15.9687 2125.45 15.8111 2125.53 14.3932C2126.08 12.8178 2126.63 11.2818 2124.03 10.2971C2121.19 10.2971 2119.73 12.2664 2117.13 12.6603C2114.46 13.5268 2112.45 15.1022 2109.96 16.205C2104.61 9.62757 2100.43 9.15495 2091.25 14.0388C2090.15 16.0868 2089.75 18.4106 2086.56 19.5921C2085.5 20.1435 2084.55 20.8131 2083.73 21.5614C2082.98 22.231 2082.31 22.9399 2081.16 23.255C2080.18 22.743 2080.3 21.7584 2079.27 21.2857C2075.96 20.6162 2073.84 21.8765 2072.69 23.7276C2071.95 24.8698 2070.69 25.5 2069.58 26.2877C2064.42 25.3818 2059.26 24.2397 2054.02 25.9726C2052.44 26.4846 2050.99 26.2483 2049.41 25.8939C2046.02 25.1849 2042.67 25.6575 2039.4 26.3271C2038.46 26.524 2037.67 27.233 2036.72 27.1936C2034.44 27.1148 2031.6 24.476 2030.07 26.8391C2028.02 30.0293 2023.29 32.4319 2023.84 37.2369C2021.99 34.6375 2022.07 32.3531 2020.34 30.5414C2020.22 30.3838 2020.02 30.305 2019.86 30.1475C2022.31 28.6902 2024.27 27.5481 2023.13 25.3425C2022.78 24.6335 2021.64 24.1215 2020.77 24.5154C2018.01 25.7757 2018.92 27.7056 2018.84 29.6355C2016.67 29.3598 2014.74 29.2416 2013.01 29.3598C2015.25 28.3752 2015.92 26.0908 2016.91 24.3972C2017.54 23.2944 2015.45 22.3492 2012.85 22.3098C2012.65 24.5154 2007.14 23.3338 2007.69 25.8151C2007.96 27.036 2008.24 29.2416 2010.25 29.6749C2005.99 30.5414 2003.28 32.9439 2001.74 37.1975C1999.61 35.1889 1998.55 32.3531 1994.25 32.7076C1990.63 33.0227 1988.07 34.5587 1986.57 36.8431C1986.45 37.0794 1986.57 37.2763 1986.49 37.5126C1983.89 38.1822 1981.02 38.3003 1979.17 40.0333C1977.35 38.3397 1978.5 37.2763 1979.8 36.4492C1984.01 33.8498 1980.7 32.1168 1977.86 31.6836C1973.96 31.0928 1971.01 29.6355 1967.74 28.3752C1964.63 27.1936 1961.32 26.012 1957.58 27.4299C1956 28.0207 1953.28 27.233 1953.75 26.9179C1956.67 24.988 1955.92 21.6008 1959.82 20.1042C1960.45 19.8679 1960.96 19.5922 1961.52 19.3165C1959.35 19.1983 1957.26 19.1589 1955.05 19.0014C1953.04 18.8438 1951.07 18.5681 1949.1 18.3318C1948.12 19.1983 1947.84 20.2617 1949.89 21.6008C1950.25 21.8371 1949.81 22.5855 1949.74 23.1369C1943.79 22.743 1943.47 27.7056 1938.86 28.769C1937.4 26.3271 1939.73 25.0668 1941.58 23.6489C1942.45 22.9793 1944.34 21.6402 1943.31 21.4039C1939.53 20.5374 1939.26 18.962 1939.45 17.3078C1936.3 16.9139 1933.15 16.5201 1929.96 16.0868C1929.21 16.205 1928.38 16.2444 1927.52 16.205C1925.47 16.1262 1923.73 16.5595 1922.28 17.3472C1920.94 14.3145 1916.76 14.7477 1913.53 14.0388C1912.19 13.8813 1910.85 13.7631 1909.55 13.6449C1909.2 13.7631 1908.76 13.7631 1908.49 14.0388C1904.39 17.938 1898.95 18.4106 1892.73 17.1503C1890.52 16.717 1888.35 16.7564 1887.13 18.45C1889.97 24.0821 1882.8 26.6028 1879.21 30.3838C1878.82 29.5174 1879.17 28.5327 1878.23 27.8632C1875.2 26.4059 1872.2 27.9419 1870.59 28.8872C1866.92 31.0928 1862.82 33.1408 1860.11 35.9766C1860.26 34.6375 1859.12 33.5741 1856.21 32.747C1851.95 31.5654 1849.31 31.8805 1847.18 35.1101C1843.87 40.1515 1813.93 37.7096 1816.61 42.8297C1817.01 43.5387 1817.24 44.1294 1816.49 44.7202C1815.51 45.4686 1814.33 45.311 1813.26 44.8384C1810.11 43.4993 1807.35 44.1294 1804.71 45.3504C1804.32 43.8144 1802.27 43.6962 1800.26 44.0113C1794.04 44.9959 1787.93 46.2169 1781.47 44.7596C1779.62 44.3658 1778 45.1535 1776.78 46.1775C1773 49.3284 1768.9 51.9672 1762.48 52.361C1759.17 52.558 1758.19 55.5513 1755.07 56.339C1752.04 50.3918 1748.93 49.8404 1741.87 53.9365C1739.24 55.4331 1736.63 56.6541 1733.64 54.2516C1732.26 53.1882 1730.37 53.4245 1729.54 54.4485C1727.38 57.1661 1724.26 56.2208 1721.23 55.7876C1720.64 55.827 1720.13 55.9845 1719.65 56.1815C1713.15 58.8597 1710.44 63.8617 1705.55 67.4851C1703.94 62.7589 1697.2 61.9712 1693.14 59.2929C1692.23 59.2929 1691.49 59.608 1690.93 60.12C1687.47 63.5072 1681.32 64.6494 1677.46 67.7215C1676.95 68.1547 1675.41 68.0759 1674.58 67.8002C1667.45 65.5159 1660.13 67.0125 1652.88 67.1701C1648.98 67.2488 1645.63 66.1854 1642 65.634C1636.29 66.7762 1630.89 65.4371 1625.61 64.2555C1620.89 63.1921 1613.44 63.1921 1610.96 64.7675C1605.01 68.588 1597.13 68.0366 1590.39 69.8877C1589.84 70.0452 1589.13 70.0452 1588.66 69.7695C1582.75 66.4217 1576.21 65.7522 1569.04 67.4064C1568.57 67.5245 1567.9 67.2882 1567.27 67.2882C1566.87 67.2882 1566.52 67.4458 1566.16 67.5245C1566.16 67.5245 1566.2 67.5245 1566.24 67.5245C1567.66 65.7128 1569.55 63.9405 1565.3 62.9952C1562.66 62.4044 1562.77 60.6715 1561.47 59.5687C1559.54 57.9538 1557.85 55.9846 1554.74 58.6628C1554.58 58.7809 1554.42 58.8203 1554.3 58.584C1552.89 55.9846 1549.66 57.2055 1547.13 56.9298C1546.58 56.9298 1546.03 56.9298 1545.48 57.0086C1543.12 57.4024 1542.41 58.9385 1541.15 60.1201C1539.29 59.2142 1539.06 56.9298 1535.91 57.3237C1534.57 57.6388 1533.38 58.1508 1532.16 58.6628C1531.06 58.7416 1529.96 58.8203 1528.81 58.9385C1527.59 60.6715 1524.36 59.805 1522.83 61.1047C1522.08 61.5379 1521.21 61.8924 1520.58 62.365C1520.07 62.6014 1519.48 62.7195 1518.81 62.6014C1517.03 62.2075 1515.5 61.3016 1513.49 61.6561C1512.9 61.8136 1512.39 62.0893 1512.03 62.4438C1511.28 63.4285 1511.4 64.2162 1511.87 64.9645C1510.42 64.3343 1508.76 64.2949 1507.11 64.2556C1504.78 64.2949 1502.73 65.2402 1500.25 63.5072C1498.52 62.2863 1494.81 62.1681 1491.78 62.2863C1490.44 62.365 1488.39 62.4438 1488 61.5773C1485.91 57.0874 1480.63 58.6628 1476.65 58.8991C1471.69 59.2142 1466.21 58.3871 1461.92 61.1047C1460.7 64.2556 1458.92 66.7369 1453.09 66.2642C1450.65 66.0673 1449.63 67.1701 1448.92 68.4304C1448.48 68.1941 1448.09 67.879 1447.54 67.7609C1445.76 67.5246 1444.07 66.7762 1442.14 67.2095C1441.27 67.4064 1440.49 67.7215 1439.82 68.1154C1439.11 68.5486 1438.55 69.0212 1438.04 69.5332C1435.92 69.9271 1433.98 70.5179 1434.65 73.1961C1435.05 74.8109 1431.74 75.2835 1429.93 75.8349C1428 76.4651 1421.81 72.9598 1417.95 73.6687C1416.41 73.9444 1415.35 73.393 1414.13 72.881C1408.02 70.3997 1402.39 72.1327 1399.95 71.2662C1399.16 71.2662 1398.33 71.2662 1397.54 71.2662C1391.24 71.1874 1385.01 70.4391 1378.95 69.2182C1377.96 69.7302 1376.98 70.2028 1375.76 70.5573C1373.86 70.833 1372.01 71.1481 1370.55 72.1327C1369.89 72.7629 1369.85 72.9598 1366.73 72.7235C1362.83 72.4478 1363.19 73.2355 1363.54 75.0079C1363.78 76.1894 1362.79 76.8196 1361.22 77.0165C1359.72 77.2134 1358.26 76.9377 1357.67 75.9531C1356.53 74.0626 1355.54 72.0933 1354.8 70.0847C1353.69 67.2095 1346.25 66.9732 1346.09 63.1134C1346.05 61.8924 1345.62 60.829 1343.61 60.7896C1341.68 60.7896 1339.75 60.8684 1339.04 62.6802C1338.25 64.7676 1338.29 67.0126 1336.52 68.8637C1335.14 69.0212 1334.35 69.5726 1334.11 70.5179C1331.55 71.1481 1329.7 72.4084 1328.12 73.8657C1326.11 74.4959 1324.11 75.1654 1322.1 73.8657C1320.95 71.8176 1327.06 73.6294 1325.52 70.124C1323.51 65.5159 1319.57 67.5246 1316.11 67.2095C1315.4 66.5793 1314.77 65.6341 1313.39 66.2249C1312.09 66.8157 1312.64 67.9578 1312.48 68.8637C1310.32 66.1855 1306.42 65.6735 1302.71 64.8858C1302.71 64.807 1302.71 64.7282 1302.71 64.6494C1302.71 64.6101 1302.4 64.5313 1302.24 64.5313C1302.04 64.5313 1301.89 64.6101 1301.69 64.6888C1298.26 61.1441 1297.83 61.1835 1294.95 65.0039C1289.4 62.3651 1282.5 62.1682 1281.87 60.7109C1279.78 61.6561 1275.33 60.3958 1275.06 60.3564C1271.23 59.7656 1270.37 58.8204 1272.81 57.5207C1279.67 53.8972 1273.44 53.5033 1270.45 52.2036C1270.17 52.243 1269.89 52.2824 1269.62 52.3218C1264.93 54.0941 1267.33 57.7176 1265.6 60.3958C1262.92 59.0173 1264.77 57.757 1265.13 56.536C1266.31 52.4793 1263.87 50.7463 1258.19 52.1248C1255.16 52.8732 1253.62 50.5494 1250.98 51.1796C1248.15 51.5734 1246.65 52.755 1246.41 54.7243C1245.03 55.512 1246.53 57.6782 1244.25 57.6782C1241.21 57.6782 1242.43 55.7877 1242.24 54.5273C1242.08 53.5821 1241.61 52.5581 1239.76 52.6368C1238.77 52.6762 1237.35 53.1095 1237.63 53.779C1239.4 58.2296 1233.65 56.8117 1231.99 57.7964C1228.53 57.56 1234.24 53.6609 1228.29 54.6849C1227.9 54.6849 1227.54 54.6849 1227.15 54.6849C1224.94 53.7003 1225.69 51.4947 1223.6 50.4706C1223.6 50.2343 1223.52 49.998 1223.48 49.7223C1221.67 49.3678 1220.06 49.998 1218.48 50.3525C1216.2 50.8645 1215.8 49.8405 1215.13 48.8558C1214.19 48.0287 1212.45 48.0681 1211.55 47.2016C1203.27 46.6502 1195.12 47.3592 1186.92 48.3044C1186.85 48.3438 1186.73 48.3832 1186.65 48.4226C1182.59 46.0988 1179.08 43.0268 1172.66 43.972C1170.53 44.2871 1170.81 42.948 1170.61 42.0815C1162.81 40.703 1155.96 43.4994 1148.83 44.681C1146.54 45.0748 1144.37 45.705 1141.97 45.5868C1140.75 46.7684 1137.52 44.9173 1136.97 47.1229C1134.29 48.7377 1128.66 48.1075 1129.13 51.9673C1129.36 48.3044 1128.81 47.9894 1124.01 48.5408C1122.04 48.7771 1120.07 50.0374 1117.98 48.7377C1116.4 52.0461 1114.24 55 1108.84 56.4967C1108.33 54.5668 1111.32 54.2123 1111.91 52.9126C1112.31 52.0067 1113.53 50.9827 1112.03 50.3131C1110.26 49.5254 1109.78 50.7857 1109.11 51.6128C1108.52 52.3218 1107.85 53.3458 1106.59 52.9126C1105.92 52.6762 1105.96 51.4553 1105.69 50.707C1101.27 52.2824 1103.36 54.9606 1103.4 57.2844C1099.15 55.7483 1096.31 58.6235 1092.65 59.0173C1090.95 59.2143 1089.65 60.9472 1087.92 58.7416C1086.89 57.4419 1085.48 58.5841 1084.14 59.293C1081.65 60.6715 1078.74 61.1835 1075.78 59.7657C1075.78 59.2143 1075.78 58.6629 1075.78 58.1115C1073.18 59.0173 1072.16 58.269 1072.2 56.4573C1070.78 56.0634 1069.87 56.6148 1069.28 57.3631C1066.68 60.7897 1060.77 61.3017 1057.94 59.8444C1055.97 58.8204 1053.96 59.8051 1052.07 60.6715C1052.18 59.293 1051.79 58.0327 1049.39 57.245C1048.6 57.245 1047.81 57.245 1046.98 57.245C1044.31 57.245 1047.5 59.8838 1043.52 60.3565C1039.22 60.8685 1035.64 64.0587 1039.18 57.9933C1040.25 56.1422 1037.73 54.7243 1034.42 55.1182C1033.16 55.2757 1032.21 56.1816 1030.56 55.6696C1025.47 54.0548 1025.08 54.2123 1021.89 57.5207C1019.92 55.5514 1021.26 52.3218 1016.96 51.4159C1012.12 51.731 1009.99 54.5668 1007.23 56.8118C1005.11 55.3151 1008.38 55.1182 1007.63 54.0154C1001.68 52.6763 998.723 56.1422 994.862 58.3478C992.261 56.4573 996.398 54.2123 993.68 52.5187C991.592 52.44 990.883 55.1182 988.164 53.976C985.761 52.1643 983.2 50.5101 987.691 48.1863C990.134 46.926 988.046 44.0114 983.515 42.7511C989.661 41.7271 990.213 39.8759 985.761 37.3159C984.973 37.5916 984.185 37.8673 983.358 38.143C980.324 36.9614 979.339 33.8499 974.927 33.9681C974.533 33.9681 974.139 33.9681 973.745 33.9681C973.036 33.1016 972.839 31.9988 971.302 31.4868C969.529 28.139 965.511 30.0295 965.314 31.2111C964.959 33.4561 962.753 34.0863 961.177 35.3466C958.025 31.9594 949.555 31.2899 950.894 25.6183C950.579 23.846 949.24 23.137 946.679 23.5309C946.442 23.6491 946.245 23.8066 946.009 23.9248C944.079 26.0516 942.897 24.5155 941.518 23.5309C939.311 21.9949 937.46 21.5222 936.79 24.3974C936.16 27.1544 932.575 28.2572 929.974 29.872C928.28 30.9354 926.862 30.2659 925.247 29.4388C923.553 28.5329 922.725 26.3667 919.573 27.2725C919.495 27.3907 919.416 27.627 919.298 27.627C915.279 28.0603 922.686 31.6837 917.052 31.605C914.452 31.5656 911.655 32.1564 909.291 30.4628C909.186 32.5108 907.478 34.06 904.169 35.1103C902.475 34.2044 903.933 32.8259 903.066 31.7231C902.042 30.4234 901.963 28.848 898.85 30.3052C896.644 31.3687 894.674 29.7932 892.626 28.651C892.586 30.8566 895.344 31.5262 895.58 33.1016C894.792 33.653 893.965 34.2044 893.177 34.7558C892.31 35.3072 891.404 35.7011 890.065 35.7798C881.358 36.0949 867.451 38.143 861.974 37.1584C858.744 36.607 863.669 33.4955 859.532 33.1016C857.917 33.653 857.05 32.7472 855.947 32.2351C855.947 31.9594 855.947 31.6837 855.947 31.4474C857.562 29.5175 856.144 28.2178 853.898 27.3513C851.928 26.5636 850.431 27.824 850.352 28.7298C850.155 30.3446 844.561 31.1324 848.973 33.3379C851.258 34.4801 851.061 36.5282 851.652 38.143C852.086 39.2852 848.658 38.8913 847.2 39.876C846.019 40.6637 843.733 39.9547 843.97 38.143C841.803 39.6003 839.912 40.7031 837.588 38.0642C836.13 36.41 833.963 34.9921 830.614 36.2131C829.59 36.607 828.526 36.4888 828.447 35.5435C828.211 32.1564 823.089 31.3293 821.198 28.7692C820.253 27.5483 811.191 28.8874 809.734 30.6203C808.63 31.9201 807.724 32.3927 805.439 32.7078C803.154 33.0229 799.569 34.362 802.248 37.0008C804.297 39.0095 800.751 39.876 800.712 41.412C798.348 42.0422 797.402 44.2084 793.226 42.7905C788.695 41.2545 779.476 41.412 780.422 39.2064C780.777 38.4187 778.216 37.9067 777.27 38.8913C775.812 40.388 773.488 40.8606 771.558 41.7665C770.77 38.4975 764.23 36.9221 759.896 38.8913C755.208 40.8606 749.298 40.6637 744.846 42.9481C744.846 42.8693 744.886 42.7905 744.886 42.7117C745.752 41.2545 745.831 39.876 743.507 39.2458C741.182 38.6156 738.543 38.1036 736.77 40.0729C737.124 40.5455 736.533 39.876 736.927 40.3486C736.809 40.3486 736.809 40.2698 736.691 40.2305C731.293 38.5763 726.132 39.2852 722.547 42.1603C719.356 44.7204 715.574 45.5081 711.516 45.3112C704.621 44.9961 698.672 46.9654 692.723 48.6196C690.084 49.3679 684.726 48.2651 681.062 47.5956C678.737 47.2017 677.792 50.2738 675.034 48.7378C673.458 47.6743 670.7 48.2257 669.518 46.6503C668.337 45.1537 666.682 43.8539 663.963 44.366C660.969 44.9174 659.827 46.6897 659.512 48.6984C659.472 49.0135 659.472 49.3285 659.433 49.6042C655.335 48.3045 643.319 44.2478 639.813 40.4668C637.094 37.5129 636.188 38.6157 634.258 39.8366C633.037 40.6243 632.721 42.1998 630.318 41.6877C628.151 41.2151 628.388 40.0729 628.309 38.7338C628.191 36.3707 627.56 36.3707 622.557 38.7732C620.429 37.119 620.626 35.071 620.626 33.0623C618.341 33.0623 616.253 33.4561 614.756 34.7559C613.141 36.1738 610.935 36.2131 609.595 35.071C606.404 32.3534 604.946 34.4408 604.67 36.0556C604.04 39.7185 600.613 40.3486 595.924 40.7031C595.964 38.0643 599.588 35.6224 596.279 32.3533C594.467 37.0009 588.124 38.2218 584.735 41.412C583.869 42.2391 583.475 43.7358 581.465 43.4995C578.708 43.1844 581.347 41.2151 579.85 40.4274C578.077 40.9 579.023 42.1998 578.195 42.9087C576.62 44.2084 574.098 43.8146 574.098 42.5936C574.098 36.9221 569.961 39.6003 566.534 40.5456C565.825 40.1123 565.076 39.9942 564.209 40.2699C560.703 41.9635 557.236 43.6964 553.966 45.5869C552.981 46.1777 552.351 46.5716 550.972 46.1777C546.796 45.0355 543.762 46.5322 541.044 48.4621C540.65 48.4621 540.295 48.5015 539.901 48.4621C538.877 48.2652 537.931 47.6744 536.789 48.1076C536.592 48.2258 536.474 48.3833 536.474 48.5802C533.164 50.6283 523.709 52.7551 517.996 54.9607C516.972 55.3546 515.987 54.9213 514.963 54.5275C515.396 54.4093 515.751 54.173 515.987 53.8579C514.766 53.3853 513.505 52.9521 512.284 52.4794C509.211 52.8733 506.138 53.3065 503.065 53.7004C500.74 52.9521 498.652 51.2585 495.816 53.0308C494.515 54.0942 492.703 53.7792 491.049 53.8973C490.418 54.2912 489.788 54.6456 489.551 55.1577C486.754 54.8426 484.43 55.5515 482.302 56.7331C482.066 56.5362 481.79 56.3392 481.593 56.1423C481.475 55.9847 481.317 55.7878 481.12 55.6697C479.151 56.418 477.22 56.4574 475.368 55.5121C474.777 57.2057 473.871 55.7091 473.083 55.6303C469.695 57.3632 465.834 55.0789 462.407 56.2211C459.649 55.4727 457.246 53.6216 453.857 54.882C452.676 55.3546 451.966 55.9454 451.927 56.6543C447.869 56.0635 444.008 56.6543 439.95 57.0876C432.268 57.9147 424.428 57.5996 416.745 56.5362C417.257 56.2605 417.691 55.906 417.848 55.394C418.045 54.7244 417.848 54.0943 417.454 53.5035C415.484 51.6523 412.884 51.4554 410.048 52.3219C404.965 53.8973 399.962 53.5822 395.471 51.5342C393.185 50.5102 390.822 50.1163 388.379 49.7225C387.827 49.6831 387.237 49.7225 386.685 49.8012C384.991 50.2345 383.494 51.0616 381.563 51.0222C380.303 51.0222 379.042 51.0222 378.018 51.4554C377.742 51.3767 377.505 51.2979 377.23 51.2585C372.699 50.3526 368.365 49.9982 363.953 47.8319C360.289 46.0202 353.434 45.5476 347.209 46.7292C347.76 45.1537 349.888 43.7358 348.233 42.1604C347.879 41.8453 347.445 41.609 346.933 41.4515C346.184 41.4515 345.397 41.4515 344.648 41.4515C339.802 41.8847 336.217 39.4822 331.883 38.6945C329.716 38.6157 327.55 38.5763 325.383 38.4976C324.949 38.6157 324.516 38.7339 324.083 39.049C324.083 39.8761 324.949 40.7032 324.083 41.5302C320.655 44.2872 324.91 47.0836 324.083 49.8406C323.886 49.7618 323.649 49.7225 323.61 49.6437C322.507 47.8713 323.452 45.1143 319.434 44.7599C316.715 44.5236 312.421 47.7926 311.2 50.4708C310.845 49.9588 310.372 49.5255 309.781 49.2498C306.748 47.7926 305.605 45.8627 305.763 43.4208C303.163 42.3574 300.562 42.6331 298.041 43.5783C294.338 44.878 290.595 43.5783 286.852 43.7359C283.858 43.4602 281.691 42.0423 279.17 41.097C279.839 40.585 280.115 39.9548 278.657 39.9548C274.087 39.8761 270.423 37.8674 266.09 37.5917C260.416 37.1978 257.895 39.5216 259.747 43.2238C258.486 44.9962 255.492 41.7272 254.428 44.0903C253.758 44.563 253.443 45.5082 252.025 44.9174C251.631 44.6417 251.237 44.366 250.804 44.0903C247.888 43.1057 245.8 43.4602 244.815 45.7839C243.2 47.9895 240.481 48.5015 237.33 48.0289C233.941 47.5169 230.987 47.635 229.214 49.9982C228.465 50.9828 227.441 50.904 226.22 50.7859C223.501 50.5496 225.235 49.4468 225.353 48.6985C225.471 47.7532 224.959 46.7292 223.659 46.8473C218.104 47.3593 213.179 44.2479 207.388 45.7839C204.866 46.4535 202.187 45.5082 200.336 43.9328C196.553 40.6638 194.82 41.0183 191.156 44.4448C189.738 45.7839 186.271 45.7839 183.592 44.9174C181.976 45.4688 180.4 46.0202 178.785 46.611C179.219 48.0683 181.976 47.4381 182.686 48.6985C182.055 49.6437 181.031 49.8406 179.967 49.88C179.652 49.5256 179.337 49.1711 178.903 48.8166C178.431 48.3834 178.273 47.832 177.879 47.3594C176.855 46.1778 177.209 43.7753 174.412 44.1691C172.442 44.4448 172.206 45.3901 172.363 46.4141C171.654 46.099 170.866 45.9415 170.157 45.6658C163.42 43.2239 156.604 43.7359 151.837 47.2806C148.843 49.5256 147.228 47.7138 145.731 46.4141C140.491 41.8454 138.757 41.8454 133.478 46.611C132.139 47.832 129.617 48.1471 128.829 49.7225C128.278 48.6591 127.372 47.6744 126.032 47.0443C121.58 44.8781 117.877 42.1998 114.646 39.2065C111.77 36.5283 107.712 36.9616 103.694 37.4342C100.03 37.8674 96.7993 38.537 94.1203 35.3074C92.3474 33.1412 87.9743 32.1959 84.2315 34.5197C81.6313 37.3554 78.4795 39.049 73.3973 37.316C70.7182 36.4102 68.6696 37.0009 67.8422 39.0096C66.0694 43.4602 60.1598 44.563 55.3139 46.4929C54.0138 47.0049 52.2015 47.0049 50.9014 47.6745C49.5619 48.344 48.4193 49.2105 48.9709 50.4708C49.4437 51.5343 50.9014 51.6918 52.3591 51.7312C55.1169 51.8099 57.8747 52.0856 60.9871 52.0463C53.344 52.3613 45.7797 52.7158 42.7855 58.5449C41.6036 56.2999 39.5943 54.3306 38.0578 52.2432C35.9698 49.4074 31.7543 48.6197 27.3418 48.7379C23.7566 48.8166 20.9594 48.7379 19.8957 45.5083C18.8713 42.3968 15.365 42.5149 11.9374 44.1298C11.3464 43.9328 10.7949 43.7359 10.2039 43.539C10.3221 43.3814 10.4403 43.2239 10.4797 42.9876C8.47044 39.3247 5.59443 38.3007 6.84821e-06 39.1672L3.74169e-05 214L2559.84 214L2560 213.724Z" fill="#5F2945"/>
</svg>
