<svg width="1440" height="117" viewBox="0 0 1440 117" fill="none" xmlns="http://www.w3.org/2000/svg">
<path d="M1440.09 116.74L1440.09 19.5941C1439.87 17.4673 1439.69 15.319 1439.78 13.1922C1439.58 12.741 1439.36 12.2899 1439.16 11.8387C1437.32 9.99122 1434.33 10.7002 1431.82 10.4638C1430.69 10.3564 1429.63 10.4209 1428.87 9.73343C1427.39 9.02449 1425.31 9.06746 1424.2 7.92887C1423.95 7.79997 1423.67 7.69256 1423.36 7.62811C1421.67 7.54218 1420.21 6.98362 1418.83 6.42507C1417.44 5.84503 1416.2 5.84503 1414.87 6.42507C1414.47 6.66138 1414.25 6.96214 1414.14 7.28439C1412.36 5.90948 1408.84 5.52279 1405.34 6.53249C1404.12 6.87621 1402.97 7.34884 1401.77 7.73553C1401.61 7.84294 1401.53 7.99332 1401.37 8.12222C1400.46 7.99332 1399.89 7.62811 1399.93 6.87621C1399.71 6.87621 1399.49 6.87621 1399.24 6.87621C1397.05 7.56367 1394.7 7.86443 1392.28 8.01481C1387.05 7.56367 1382.09 8.55188 1377.06 9.21785C1374.04 9.60454 1371.14 9.23933 1368.28 8.57337C1367.15 8.85264 1366.86 9.94827 1365.42 9.94827C1365.14 10.0127 1364.87 10.1201 1364.6 10.2275C1364.03 10.6142 1363.23 10.915 1362.92 11.4306C1362.32 10.9365 1361.79 10.3994 1360.84 10.1631C1360.37 10.0986 1359.91 10.1201 1359.48 10.2705C1359.15 10.4424 1358.97 10.6572 1358.77 10.872C1358.77 10.7431 1358.82 10.6142 1358.86 10.5068C1356.47 9.86234 1353.9 10.0987 1351.44 9.81937C1350.55 9.73344 1349.2 9.86234 1348.96 9.36823C1347.87 7.19847 1345.19 8.18668 1343.19 7.73554C1340.62 7.1555 1339.03 7.56368 1336.75 8.29409C1334.2 9.11044 1331.58 10.1201 1328.7 10.3994C1326.95 10.5713 1325.64 11.0869 1324.47 11.8817C1324.31 11.4306 1324.67 10.8506 1324.2 10.2705C1323.45 11.495 1322.69 11.9462 1320.9 10.9795C1319.1 10.0127 1317.07 10.915 1315.31 11.538C1313.3 12.2684 1312.17 11.1513 1310.88 10.6142C1309.69 10.1201 1310.99 9.62603 1311.41 9.17489C1310.57 8.74524 1309.71 8.63782 1308.87 9.11045C1307.65 8.0363 1305.87 7.52072 1304.06 7.02661C1302.22 6.5325 1300.18 6.46806 1299.09 4.85684C1298.4 3.82566 1295.77 3.58935 1294.86 4.74943C1293.46 6.53251 1291.56 6.96216 1288.9 6.61844C1290.03 5.47985 1288.68 4.83536 1287.3 4.19087C1286.44 3.84715 1285.24 4.19088 1284.49 3.58936C1283.09 2.51521 1281.54 2.79449 1280.43 3.67529C1279.17 4.68498 1278.17 4.49164 1276.73 3.89012C1275.31 3.2886 1273.83 2.68708 1272.1 2.60115C1270.37 2.51521 1268.82 2.73004 1267.73 4.01902C1268.31 2.70856 1268.29 1.61293 1267 0.689172C1266.6 0.409894 1265.76 0.0661687 1265.58 0.238032C1263.48 2.21446 1260.73 -0.986491 1258.65 0.646207C1258.49 0.753622 1258.31 0.861036 1258.22 0.989933C1257.09 2.57967 1256.05 3.18119 1254.19 1.24773C1253.13 0.130619 1251.02 0.087654 1249.78 1.07587C1247.32 3.05229 1243.57 4.08347 1241.67 6.48955C1239.83 5.00723 1237.01 4.98575 1234.8 4.12644C1233.71 3.69678 1232.21 4.06199 1231.36 4.66351C1227.51 7.45628 1222.81 7.177 1218.04 6.33917C1215.96 5.97397 1214.08 5.13613 1212.41 6.85476C1211.79 7.49925 1211.04 6.8118 1210.38 6.61845C1207.07 5.69469 1202.66 6.1888 1200.65 7.67111C1200.16 8.03632 1199.87 8.42301 1199.76 8.87415C1199.72 8.87415 1199.67 8.87415 1199.63 8.89564C1199.52 8.91712 1199.45 8.96009 1199.34 8.98157C1198.83 8.63784 1198.12 8.5734 1197.21 8.72377C1196.37 8.87415 1195.64 8.78822 1195.68 8.01484C1195.99 7.15553 1196.3 6.31769 1194.84 5.78062C1193.24 5.78062 1192.42 6.85477 1190.96 7.0696C1189.45 7.54222 1188.32 8.40153 1186.93 9.00305C1183.91 5.41541 1181.56 5.15762 1176.4 7.8215C1175.78 8.93861 1175.56 10.2061 1173.76 10.8506C1173.17 11.1513 1172.63 11.5166 1172.17 11.9247C1171.75 12.2899 1171.37 12.6766 1170.73 12.8485C1170.17 12.5692 1170.24 12.0321 1169.66 11.7743C1167.8 11.4091 1166.6 12.0966 1165.96 13.1063C1165.54 13.7293 1164.83 14.073 1164.21 14.5027C1161.31 14.0086 1158.4 13.3856 1155.46 14.3308C1154.57 14.6101 1153.75 14.4812 1152.86 14.2878C1150.96 13.9012 1149.07 14.1589 1147.23 14.5242C1146.7 14.6316 1146.26 15.0183 1145.73 14.9968C1144.44 14.9538 1142.85 13.5145 1141.98 14.8034C1140.83 16.5435 1138.17 17.854 1138.48 20.4749C1137.44 19.057 1137.48 17.811 1136.51 16.8228C1136.44 16.7369 1136.33 16.6939 1136.24 16.608C1137.62 15.8131 1138.72 15.1901 1138.08 13.9871C1137.88 13.6004 1137.24 13.3211 1136.75 13.5359C1135.2 14.2234 1135.71 15.2761 1135.67 16.3287C1134.45 16.1783 1133.36 16.1139 1132.39 16.1783C1133.65 15.6413 1134.03 14.3953 1134.58 13.4715C1134.94 12.87 1133.76 12.3544 1132.3 12.3329C1132.19 13.5359 1129.08 12.8915 1129.39 14.2449C1129.55 14.9109 1129.7 16.1139 1130.83 16.3502C1128.44 16.8228 1126.91 18.1333 1126.05 20.4534C1124.85 19.3578 1124.25 17.811 1121.84 18.0044C1119.8 18.1762 1118.36 19.0141 1117.52 20.2601C1117.45 20.389 1117.52 20.4964 1117.47 20.6253C1116.01 20.9905 1114.39 21.055 1113.35 22.0002C1112.33 21.0764 1112.97 20.4964 1113.7 20.0453C1116.07 18.6274 1114.21 17.6821 1112.62 17.4458C1110.42 17.1236 1108.76 16.3287 1106.92 15.6413C1105.17 14.9968 1103.31 14.3523 1101.2 15.1257C1100.32 15.4479 1098.79 15.0183 1099.05 14.8464C1100.69 13.7937 1100.27 11.9462 1102.47 11.1299C1102.82 11.001 1103.11 10.8506 1103.42 10.7002C1102.2 10.6358 1101.03 10.6143 1099.79 10.5284C1098.66 10.4424 1097.55 10.292 1096.44 10.1631C1095.88 10.6358 1095.73 11.2158 1096.88 11.9462C1097.08 12.0751 1096.84 12.4833 1096.79 12.7841C1093.45 12.5692 1093.27 15.2761 1090.68 15.8561C1089.86 14.5242 1091.16 13.8367 1092.21 13.0633C1092.69 12.6981 1093.76 11.9677 1093.18 11.8388C1091.05 11.3662 1090.9 10.5069 1091.01 9.60459C1089.24 9.38976 1087.46 9.17493 1085.67 8.93862C1085.25 9.00307 1084.78 9.02455 1084.29 9.00307C1083.14 8.9601 1082.17 9.19642 1081.35 9.62607C1080.59 7.97189 1078.24 8.20821 1076.43 7.82151C1075.67 7.73558 1074.92 7.67113 1074.19 7.60669C1073.99 7.67114 1073.74 7.67114 1073.59 7.82152C1071.28 9.94832 1068.23 10.2061 1064.72 9.51866C1063.48 9.28235 1062.26 9.30383 1061.58 10.2276C1063.17 13.2996 1059.14 14.6746 1057.12 16.7369C1056.9 16.2643 1057.1 15.7272 1056.57 15.362C1054.86 14.5671 1053.18 15.405 1052.27 15.9206C1050.21 17.1236 1047.9 18.2407 1046.37 19.7875C1046.46 19.0571 1045.82 18.477 1044.18 18.0259C1041.79 17.3814 1040.3 17.5533 1039.1 19.3149C1037.24 22.0647 1020.4 20.7327 1021.91 23.5255C1022.13 23.9122 1022.26 24.2344 1021.84 24.5567C1021.29 24.9648 1020.62 24.8789 1020.02 24.6211C1018.25 23.8907 1016.7 24.2344 1015.21 24.9004C1014.99 24.0626 1013.84 23.9981 1012.71 24.17C1009.21 24.7071 1005.77 25.373 1002.14 24.5782C1001.1 24.3633 1000.19 24.793 999.501 25.3515C997.373 27.0702 995.068 28.5095 991.456 28.7244C989.594 28.8318 989.04 30.4645 987.289 30.8941C985.583 27.6502 983.832 27.3495 979.865 29.5837C978.38 30.4 976.917 31.066 975.233 29.7555C974.457 29.1755 973.393 29.3044 972.928 29.863C971.709 31.3453 969.958 30.8297 968.252 30.5934C967.919 30.6149 967.631 30.7008 967.365 30.8082C963.709 32.269 962.179 34.9974 959.431 36.9738C958.523 34.3958 954.733 33.9662 952.45 32.5053C951.94 32.5053 951.519 32.6772 951.209 32.9565C949.259 34.804 945.801 35.427 943.629 37.1027C943.341 37.339 942.477 37.296 942.012 37.1456C938 35.8996 933.878 36.716 929.8 36.8019C927.606 36.8449 925.722 36.2648 923.683 35.9641C920.47 36.5871 917.433 35.8567 914.464 35.2122C911.804 34.6322 907.616 34.6322 906.219 35.4915C902.873 37.5753 898.44 37.2746 894.651 38.2842C894.34 38.3702 893.941 38.3702 893.675 38.2198C890.351 36.3938 886.672 36.0285 882.639 36.9308C882.373 36.9953 881.996 36.8664 881.641 36.8664C881.42 36.8664 881.22 36.9523 881.021 36.9953C881.021 36.9953 881.043 36.9953 881.065 36.9953C881.863 36.0071 882.927 35.0403 880.533 34.5247C879.048 34.2025 879.115 33.2573 878.383 32.6557C877.297 31.7749 876.344 30.7008 874.594 32.1616C874.505 32.2261 874.416 32.2476 874.35 32.1187C873.552 30.7008 871.735 31.3668 870.316 31.2164C870.006 31.2164 869.696 31.2164 869.386 31.2594C868.056 31.4742 867.657 32.312 866.948 32.9565C865.906 32.4624 865.773 31.2164 864 31.4312C863.247 31.6031 862.582 31.8824 861.895 32.1616C861.274 32.2046 860.654 32.2476 860.011 32.312C859.324 33.2573 857.506 32.7846 856.642 33.4936C856.221 33.7299 855.734 33.9232 855.379 34.181C855.091 34.3099 854.758 34.3744 854.382 34.3099C853.384 34.0951 852.52 33.601 851.39 33.7943C851.057 33.8803 850.769 34.0306 850.57 34.224C850.149 34.7611 850.215 35.1907 850.481 35.5989C849.661 35.2552 848.73 35.2337 847.799 35.2122C846.492 35.2337 845.339 35.7493 843.943 34.804C842.968 34.1381 840.885 34.0736 839.178 34.1381C838.425 34.181 837.272 34.224 837.051 33.7514C835.876 31.3023 832.906 32.1616 830.668 32.2905C827.875 32.4624 824.795 32.0113 822.379 33.4936C821.692 35.2122 820.695 36.5656 817.415 36.3078C816.041 36.2004 815.464 36.8019 815.066 37.4894C814.822 37.3605 814.6 37.1886 814.29 37.1242C813.293 36.9953 812.34 36.5871 811.254 36.8234C810.766 36.9308 810.323 37.1027 809.946 37.3175C809.547 37.5538 809.237 37.8116 808.949 38.0909C807.752 38.3057 806.666 38.628 807.043 40.0888C807.264 40.9696 805.403 41.2274 804.383 41.5282C803.297 41.8719 799.818 39.9599 797.646 40.3466C796.782 40.497 796.183 40.1962 795.496 39.917C792.061 38.5635 788.892 39.5088 787.518 39.0362C787.074 39.0362 786.609 39.0362 786.166 39.0362C782.62 38.9932 779.118 38.585 775.705 37.9191C775.151 38.1983 774.597 38.4561 773.91 38.6495C772.846 38.7999 771.805 38.9717 770.985 39.5088C770.608 39.8525 770.586 39.9599 768.835 39.831C766.641 39.6807 766.84 40.1103 767.04 41.077C767.173 41.7215 766.619 42.0652 765.732 42.1727C764.89 42.2801 764.07 42.1297 763.737 41.5926C763.095 40.5615 762.541 39.4873 762.12 38.3917C761.499 36.8234 757.31 36.6945 757.222 34.5892C757.2 33.9232 756.956 33.3432 755.826 33.3217C754.74 33.3217 753.654 33.3647 753.255 34.3529C752.811 35.4915 752.834 36.716 751.836 37.7257C751.061 37.8116 750.617 38.1124 750.484 38.628C749.044 38.9717 748.002 39.6592 747.116 40.454C745.985 40.7978 744.855 41.163 743.725 40.454C743.082 39.3369 746.517 40.3251 745.653 38.4132C744.523 35.8997 742.306 36.9953 740.356 36.8234C739.957 36.4797 739.603 35.9641 738.827 36.2864C738.096 36.6086 738.406 37.2316 738.317 37.7257C737.098 36.2649 734.904 35.9856 732.821 35.5559C732.821 35.513 732.821 35.47 732.821 35.4271C732.821 35.4056 732.644 35.3626 732.555 35.3626C732.444 35.3626 732.356 35.4056 732.245 35.4485C730.317 33.5151 730.073 33.5366 728.455 35.6204C725.33 34.181 721.452 34.0736 721.097 33.2788C719.922 33.7944 717.418 33.1069 717.263 33.0854C715.113 32.7632 714.626 32.2476 716 31.5387C719.856 29.5622 716.354 29.3474 714.67 28.6385C714.515 28.66 714.36 28.6814 714.205 28.7029C711.567 29.6697 712.919 31.6461 711.944 33.1069C710.437 32.355 711.479 31.6676 711.678 31.0016C712.343 28.7889 710.969 27.8436 707.778 28.5955C706.071 29.0037 705.207 27.7362 703.722 28.0799C702.126 28.2947 701.284 28.9392 701.151 30.0134C700.375 30.443 701.217 31.6246 699.932 31.6246C698.226 31.6246 698.913 30.5934 698.802 29.906C698.713 29.3904 698.447 28.8318 697.406 28.8748C696.852 28.8963 696.054 29.1326 696.209 29.4978C697.206 31.9254 693.97 31.152 693.04 31.689C691.089 31.5601 694.303 29.4333 690.956 29.9919C690.735 29.9919 690.535 29.9919 690.314 29.9919C689.072 29.4548 689.494 28.2518 688.319 27.6932C688.319 27.5643 688.275 27.4354 688.252 27.2851C687.233 27.0917 686.324 27.4354 685.438 27.6288C684.152 27.9081 683.931 27.3495 683.554 26.8124C683.022 26.3613 682.047 26.3828 681.537 25.9102C676.883 25.6094 672.296 25.9961 667.686 26.5117C667.641 26.5332 667.575 26.5546 667.531 26.5761C665.248 25.3086 663.275 23.633 659.663 24.1486C658.466 24.3204 658.621 23.59 658.511 23.1174C654.122 22.3655 650.266 23.8908 646.255 24.5353C644.969 24.7501 643.75 25.0938 642.399 25.0294C641.711 25.6738 639.894 24.6642 639.584 25.8672C638.077 26.748 634.908 26.4043 635.174 28.5096C635.307 26.5117 634.996 26.3398 632.292 26.6406C631.184 26.7695 630.076 27.4569 628.902 26.748C628.015 28.5526 626.796 30.1638 623.76 30.9801C623.472 29.9275 625.156 29.7341 625.489 29.0252C625.71 28.5311 626.397 27.9725 625.555 27.6073C624.558 27.1777 624.292 27.8651 623.915 28.3162C623.583 28.7029 623.206 29.2615 622.497 29.0252C622.12 28.8963 622.142 28.2303 621.987 27.8221C619.505 28.6815 620.679 30.1423 620.702 31.4098C618.308 30.5719 616.712 32.1402 614.651 32.355C613.698 32.4624 612.967 33.4077 611.992 32.2046C611.416 31.4957 610.618 32.1187 609.864 32.5054C608.468 33.2573 606.828 33.5366 605.166 32.7632C605.166 32.4624 605.166 32.1617 605.166 31.8609C603.703 32.355 603.127 31.9469 603.149 30.9586C602.351 30.7438 601.841 31.0446 601.509 31.4527C600.046 33.3218 596.722 33.601 595.126 32.8062C594.018 32.2476 592.888 32.7847 591.824 33.2573C591.89 32.5054 591.669 31.818 590.317 31.3883C589.874 31.3883 589.43 31.3883 588.965 31.3883C587.458 31.3883 589.253 32.8277 587.015 33.0854C584.599 33.3647 582.582 35.1048 584.577 31.7965C585.175 30.7868 583.757 30.0134 581.895 30.2282C581.186 30.3142 580.654 30.8083 579.723 30.529C576.864 29.6482 576.643 29.7341 574.848 31.5387C573.739 30.4645 574.493 28.7029 572.077 28.2088C569.351 28.3807 568.154 29.9275 566.603 31.152C565.406 30.3356 567.246 30.2282 566.825 29.6267C563.478 28.8963 561.816 30.7868 559.644 31.9898C558.181 30.9586 560.508 29.7341 558.979 28.8104C557.805 28.7674 557.406 30.2282 555.877 29.6052C554.525 28.617 553.084 27.7147 555.611 26.4472C556.985 25.7598 555.81 24.1701 553.261 23.4826C556.719 22.9241 557.029 21.9144 554.525 20.518C554.081 20.6684 553.638 20.8187 553.173 20.9691C551.466 20.3246 550.912 18.6275 548.43 18.6919C548.208 18.6919 547.987 18.6919 547.765 18.6919C547.366 18.2193 547.255 17.6178 546.391 17.3385C545.394 15.5125 543.133 16.5436 543.022 17.1881C542.823 18.4127 541.582 18.7564 540.695 19.4438C538.922 17.5963 534.157 17.2311 534.911 14.1376C534.734 13.1708 533.98 12.7841 532.54 12.999C532.407 13.0634 532.296 13.1494 532.163 13.2138C531.077 14.3739 530.412 13.536 529.636 12.999C528.395 12.1611 527.354 11.9034 526.977 13.4716C526.622 14.9754 524.605 15.5769 523.143 16.4577C522.19 17.0378 521.392 16.6725 520.483 16.2214C519.53 15.7273 519.065 14.5457 517.292 15.0399C517.248 15.1043 517.203 15.2332 517.137 15.2332C514.876 15.4695 519.043 17.4459 515.873 17.403C514.411 17.3815 512.837 17.7037 511.507 16.78C511.448 17.8971 510.488 18.7421 508.626 19.3149C507.673 18.8208 508.493 18.0689 508.006 17.4674C507.43 16.7585 507.385 15.8992 505.634 16.694C504.393 17.2741 503.285 16.4148 502.133 15.7918C502.111 16.9948 503.662 17.36 503.795 18.2193C503.352 18.5201 502.886 18.8208 502.443 19.1216C501.956 19.4224 501.446 19.6372 500.692 19.6802C495.794 19.852 487.971 20.9691 484.891 20.4321C483.073 20.1313 485.843 18.4342 483.516 18.2193C482.608 18.5201 482.12 18.026 481.5 17.7467C481.5 17.5963 481.5 17.4459 481.5 17.317C482.408 16.2644 481.61 15.5554 480.347 15.0828C479.239 14.6532 478.397 15.3406 478.353 15.8347C478.242 16.7155 475.095 17.1452 477.577 18.3482C478.862 18.9712 478.752 20.0883 479.084 20.9691C479.328 21.5921 477.4 21.3773 476.58 21.9144C475.915 22.344 474.629 21.9573 474.762 20.9691C473.543 21.764 472.48 22.3655 471.172 20.9262C470.352 20.0239 469.133 19.2505 467.249 19.9165C466.673 20.1313 466.075 20.0669 466.03 19.5513C465.897 17.7037 463.016 17.2526 461.952 15.8562C461.421 15.1902 456.323 15.9207 455.503 16.8659C454.883 17.5748 454.373 17.8326 453.087 18.0045C451.802 18.1764 449.785 18.9068 451.292 20.3461C452.445 21.4418 450.45 21.9144 450.428 22.7522C449.098 23.0959 448.566 24.2775 446.217 23.5041C443.668 22.6663 438.482 22.7522 439.014 21.5492C439.214 21.1195 437.773 20.8402 437.241 21.3773C436.421 22.1937 435.114 22.4515 434.028 22.9456C433.585 21.1625 429.906 20.3032 427.468 21.3773C424.83 22.4515 421.506 22.344 419.002 23.59C419.002 23.5471 419.024 23.5041 419.024 23.4612C419.512 22.6663 419.556 21.9144 418.248 21.5707C416.941 21.2269 415.456 20.9477 414.459 22.0218C414.658 22.2796 414.326 21.9144 414.547 22.1722C414.481 22.1722 414.481 22.1292 414.414 22.1077C411.378 21.2055 408.475 21.5921 406.458 23.1604C404.663 24.5568 402.535 24.9864 400.252 24.879C396.374 24.7072 393.027 25.7813 389.681 26.6836C388.196 27.0918 385.182 26.4902 383.121 26.125C381.813 25.9102 381.281 27.5859 379.73 26.748C378.844 26.168 377.292 26.4688 376.627 25.6094C375.962 24.7931 375.032 24.0842 373.502 24.3634C371.818 24.6642 371.175 25.6309 370.998 26.7266C370.976 26.8984 370.976 27.0703 370.954 27.2207C368.649 26.5117 361.889 24.299 359.917 22.2366C358.388 20.6254 357.878 21.2269 356.792 21.8929C356.105 22.3226 355.928 23.1819 354.576 22.9026C353.357 22.6448 353.49 22.0218 353.445 21.2914C353.379 20.0024 353.024 20.0024 350.21 21.3129C349.013 20.4106 349.124 19.2935 349.124 18.1979C347.838 18.1979 346.664 18.4127 345.822 19.1216C344.913 19.895 343.672 19.9165 342.918 19.2935C341.123 17.8112 340.303 18.9498 340.148 19.8306C339.793 21.8285 337.865 22.1722 335.228 22.3655C335.25 20.9262 337.289 19.5942 335.427 17.8112C334.408 20.3461 330.84 21.0121 328.934 22.7522C328.446 23.2034 328.225 24.0197 327.094 23.8908C325.543 23.719 327.028 22.6448 326.186 22.2152C325.188 22.473 325.72 23.1819 325.255 23.5686C324.368 24.2775 322.95 24.0627 322.95 23.3967C322.95 20.3032 320.623 21.764 318.695 22.2796C318.296 22.0433 317.875 21.9789 317.387 22.1292C315.415 23.053 313.465 23.9982 311.625 25.0294C311.071 25.3517 310.716 25.5665 309.941 25.3517C307.592 24.7287 305.885 25.545 304.356 26.5977C304.134 26.5977 303.935 26.6192 303.713 26.5977C303.137 26.4903 302.605 26.168 301.962 26.4043C301.852 26.4688 301.785 26.5547 301.785 26.6621C299.923 27.7792 294.604 28.9393 291.391 30.1423C290.815 30.3572 290.261 30.1209 289.684 29.906C289.928 29.8416 290.128 29.7127 290.261 29.5408C289.574 29.283 288.864 29.0467 288.177 28.7889C286.449 29.0038 284.72 29.2401 282.991 29.4549C281.684 29.0467 280.509 28.123 278.913 29.0897C278.182 29.6697 277.163 29.4979 276.232 29.5623C275.877 29.7771 275.523 29.9705 275.39 30.2498C273.816 30.0779 272.509 30.4646 271.312 31.1091C271.179 31.0017 271.024 30.8942 270.913 30.7868C270.846 30.7009 270.758 30.5935 270.647 30.529C269.539 30.9372 268.453 30.9587 267.411 30.4431C267.079 31.3669 266.569 30.5505 266.126 30.5076C264.22 31.4528 262.048 30.2068 260.12 30.8298C258.568 30.4216 257.216 29.4119 255.311 30.0994C254.646 30.3572 254.247 30.6794 254.225 31.0661C251.942 30.7439 249.77 31.0661 247.487 31.3024C243.166 31.7536 238.755 31.5817 234.434 31.0017C234.722 30.8513 234.965 30.6579 235.054 30.3787C235.165 30.0135 235.054 29.6697 234.832 29.3475C233.724 28.3378 232.262 28.2304 230.666 28.703C227.807 29.5623 224.992 29.3905 222.466 28.2733C221.18 27.7148 219.851 27.5 218.477 27.2851C218.166 27.2637 217.834 27.2851 217.524 27.3281C216.571 27.5644 215.729 28.0156 214.643 27.9941C213.933 27.9941 213.224 27.9941 212.648 28.2304C212.493 28.1874 212.36 28.1445 212.205 28.123C209.656 27.6289 207.218 27.4355 204.736 26.254C202.675 25.2657 198.819 25.008 195.317 25.6524C195.627 24.7931 196.824 24.0197 195.893 23.1604C195.694 22.9886 195.45 22.8597 195.162 22.7737C194.741 22.7737 194.298 22.7737 193.876 22.7737C191.15 23.01 189.134 21.6996 186.696 21.2699C185.477 21.227 184.258 21.2055 183.039 21.1625C182.795 21.227 182.551 21.2914 182.308 21.4633C182.308 21.9144 182.795 22.3656 182.308 22.8167C180.38 24.3205 182.773 25.8458 182.308 27.3496C182.197 27.3066 182.064 27.2851 182.042 27.2422C181.421 26.2754 181.953 24.7716 179.693 24.5783C178.163 24.4494 175.748 26.2325 175.061 27.6933C174.861 27.414 174.595 27.1777 174.263 27.0273C172.556 26.2325 171.914 25.1798 172.002 23.8479C170.539 23.2678 169.077 23.4182 167.658 23.9338C165.575 24.6428 163.47 23.9338 161.364 24.0197C159.68 23.8694 158.461 23.096 157.043 22.5804C157.419 22.3011 157.574 21.9574 156.754 21.9574C154.184 21.9144 152.123 20.8188 149.685 20.6684C146.493 20.4536 145.075 21.7211 146.117 23.7405C145.407 24.7072 143.723 22.9241 143.125 24.2131C142.748 24.4709 142.571 24.9865 141.773 24.6642C141.551 24.5139 141.329 24.3635 141.086 24.2131C139.446 23.676 138.271 23.8694 137.717 25.1369C136.808 26.3399 135.279 26.6192 133.506 26.3614C131.6 26.0821 129.938 26.1466 128.941 27.4355C128.52 27.9726 127.943 27.9296 127.256 27.8652C125.727 27.7363 126.702 27.1348 126.769 26.7266C126.835 26.211 126.547 25.6525 125.816 25.7169C122.691 25.9962 119.921 24.299 116.663 25.1369C115.244 25.5021 113.737 24.9865 112.696 24.1272C110.568 22.3441 109.593 22.5374 107.532 24.4065C106.734 25.1369 104.784 25.1369 103.277 24.6642C102.368 24.965 101.482 25.2658 100.573 25.588C100.817 26.3829 102.368 26.0392 102.767 26.7266C102.412 27.2422 101.836 27.3496 101.238 27.3711C101.06 27.1777 100.883 26.9844 100.639 26.7911C100.373 26.5547 100.285 26.254 100.063 25.9962C99.4869 25.3517 99.6864 24.0412 98.1128 24.2561C97.0047 24.4065 96.8717 24.922 96.9604 25.4806C96.5615 25.3087 96.1182 25.2228 95.7193 25.0724C91.9295 23.7405 88.0954 24.0198 85.4138 25.9532C83.7294 27.1777 82.8208 26.1895 81.9786 25.4806C79.031 22.9886 78.0559 22.9886 75.0861 25.588C74.3326 26.254 72.9142 26.4258 72.471 27.2852C72.1607 26.7051 71.651 26.1681 70.8974 25.8243C68.3931 24.6428 66.3098 23.1819 64.4925 21.5492C62.8746 20.0884 60.5919 20.3247 58.3314 20.5825C56.2703 20.8188 54.453 21.184 52.9459 19.4224C51.9486 18.2409 49.4886 17.7253 47.3832 18.9928C45.9204 20.5395 44.1474 21.4633 41.2885 20.5181C39.7815 20.024 38.629 20.3462 38.1636 21.4418C37.1663 23.8694 33.8419 24.4709 31.116 25.5236C30.3846 25.8028 29.3651 25.8028 28.6338 26.1681C27.8803 26.5333 27.2376 27.0059 27.5478 27.6933C27.8138 28.2734 28.6338 28.3593 29.4538 28.3808C31.0052 28.4238 32.5565 28.5741 34.3074 28.5527C30.0079 28.7245 25.7527 28.9179 24.0683 32.0973C23.4035 30.8728 22.2732 29.7987 21.4089 28.6601C20.2342 27.1133 17.8629 26.6836 15.3807 26.7481C13.3639 26.7911 11.7904 26.7481 11.192 24.9865C10.6158 23.2894 8.64333 23.3538 6.7152 24.2346C6.38277 24.1272 6.07249 24.0198 5.74006 23.9124C5.80655 23.8264 5.87303 23.7405 5.89519 23.6116C4.76491 21.6137 3.14706 21.0551 3.84327e-06 21.5278L2.09987e-05 116.89L1440 116.89L1440.09 116.74Z" fill="#C0C0C0"/>
</svg>
