<svg width="1440" height="117" viewBox="0 0 1440 117" fill="none" xmlns="http://www.w3.org/2000/svg">
<path d="M1.04858e-05 0.15068L1.74772e-06 97.2962C0.221559 99.423 0.398927 101.571 0.310304 103.698C0.509767 104.149 0.731324 104.6 0.930787 105.052C2.77026 106.899 5.76221 106.19 8.26648 106.426C9.39673 106.534 10.4606 106.469 11.2141 107.157C12.699 107.866 14.7822 107.823 15.8904 108.961C16.1342 109.09 16.4222 109.198 16.7325 109.262C18.4169 109.348 19.8796 109.907 21.2538 110.465C22.65 111.045 23.891 111.045 25.2208 110.465C25.6198 110.229 25.8413 109.928 25.9521 109.606C27.7252 110.981 31.2489 111.367 34.7506 110.358C35.9695 110.014 37.1219 109.541 38.3187 109.155C38.4738 109.047 38.5625 108.897 38.7175 108.768C39.6262 108.897 40.2025 109.262 40.1582 110.014C40.3798 110.014 40.6014 110.014 40.8452 110.014C43.0393 109.327 45.3886 109.026 47.8042 108.875C53.0345 109.327 57.9989 108.338 63.0298 107.672C66.0438 107.286 68.9471 107.651 71.8062 108.317C72.9364 108.038 73.2245 106.942 74.665 106.942C74.9531 106.878 75.2191 106.77 75.485 106.663C76.0613 106.276 76.8591 105.975 77.1694 105.46C77.7678 105.954 78.2997 106.491 79.2527 106.727C79.718 106.792 80.1835 106.77 80.6045 106.62C80.937 106.448 81.1143 106.233 81.3137 106.018C81.3137 106.147 81.2694 106.276 81.2251 106.383C83.6187 107.028 86.1895 106.792 88.6494 107.071C89.536 107.157 90.8878 107.028 91.1316 107.522C92.2177 109.692 94.8992 108.704 96.8938 109.155C99.4646 109.735 101.06 109.327 103.343 108.596C105.892 107.78 108.507 106.77 111.388 106.491C113.139 106.319 114.446 105.803 115.621 105.009C115.776 105.46 115.422 106.04 115.887 106.62C116.641 105.395 117.394 104.944 119.189 105.911C120.984 106.878 123.023 105.975 124.774 105.352C126.791 104.622 127.921 105.739 129.207 106.276C130.403 106.77 129.096 107.264 128.675 107.715C129.517 108.145 130.381 108.252 131.223 107.78C132.442 108.854 134.215 109.37 136.033 109.864C137.872 110.358 139.911 110.422 140.997 112.033C141.684 113.065 144.321 113.301 145.23 112.141C146.626 110.358 148.532 109.928 151.192 110.272C150.061 111.41 151.413 112.055 152.787 112.699C153.652 113.043 154.849 112.699 155.602 113.301C156.998 114.375 158.55 114.096 159.658 113.215C160.921 112.205 161.918 112.399 163.359 113C164.777 113.602 166.262 114.203 167.991 114.289C169.719 114.375 171.271 114.16 172.357 112.871C171.781 114.182 171.803 115.277 173.088 116.201C173.487 116.48 174.329 116.824 174.506 116.652C176.612 114.676 179.36 117.877 181.443 116.244C181.598 116.137 181.776 116.029 181.864 115.9C182.995 114.311 184.036 113.709 185.898 115.643C186.962 116.76 189.067 116.803 190.308 115.814C192.768 113.838 196.514 112.807 198.42 110.401C200.259 111.883 203.074 111.905 205.29 112.764C206.376 113.194 207.883 112.828 208.725 112.227C212.581 109.434 217.28 109.713 222.045 110.551C224.128 110.916 226.012 111.754 227.674 110.036C228.295 109.391 229.048 110.079 229.713 110.272C233.015 111.196 237.425 110.702 239.442 109.219C239.93 108.854 240.218 108.467 240.329 108.016C240.373 108.016 240.417 108.016 240.462 107.995C240.573 107.973 240.639 107.93 240.75 107.909C241.26 108.252 241.969 108.317 242.877 108.167C243.72 108.016 244.451 108.102 244.407 108.875C244.096 109.735 243.786 110.573 245.249 111.11C246.844 111.11 247.664 110.036 249.127 109.821C250.634 109.348 251.765 108.489 253.161 107.887C256.175 111.475 258.524 111.733 263.688 109.069C264.308 107.952 264.53 106.684 266.325 106.04C266.924 105.739 267.456 105.374 267.921 104.966C268.342 104.6 268.719 104.214 269.361 104.042C269.915 104.321 269.849 104.858 270.425 105.116C272.287 105.481 273.484 104.794 274.126 103.784C274.547 103.161 275.257 102.817 275.877 102.388C278.78 102.882 281.684 103.505 284.631 102.56C285.518 102.28 286.338 102.409 287.224 102.602C289.13 102.989 291.014 102.731 292.854 102.366C293.385 102.259 293.829 101.872 294.361 101.894C295.646 101.937 297.242 103.376 298.106 102.087C299.259 100.347 301.918 99.0363 301.608 96.4154C302.649 97.8333 302.605 99.0793 303.58 100.068C303.647 100.153 303.757 100.196 303.846 100.282C302.472 101.077 301.364 101.7 302.007 102.903C302.206 103.29 302.849 103.569 303.336 103.354C304.888 102.667 304.378 101.614 304.422 100.562C305.641 100.712 306.727 100.776 307.702 100.712C306.439 101.249 306.062 102.495 305.508 103.419C305.154 104.02 306.328 104.536 307.791 104.557C307.902 103.354 311.005 103.999 310.694 102.645C310.539 101.979 310.384 100.776 309.254 100.54C311.647 100.068 313.176 98.7571 314.041 96.4369C315.238 97.5325 315.836 99.0793 318.252 98.886C320.291 98.7141 321.731 97.8763 322.573 96.6303C322.64 96.5014 322.573 96.3939 322.618 96.265C324.08 95.8998 325.698 95.8354 326.74 94.8901C327.759 95.8139 327.116 96.3939 326.385 96.8451C324.014 98.263 325.875 99.2082 327.471 99.4445C329.665 99.7668 331.327 100.562 333.167 101.249C334.918 101.894 336.779 102.538 338.885 101.765C339.771 101.442 341.3 101.872 341.035 102.044C339.395 103.097 339.816 104.944 337.621 105.76C337.267 105.889 336.979 106.04 336.668 106.19C337.887 106.255 339.062 106.276 340.303 106.362C341.433 106.448 342.542 106.598 343.65 106.727C344.204 106.255 344.359 105.675 343.206 104.944C343.007 104.815 343.251 104.407 343.295 104.106C346.642 104.321 346.819 101.614 349.412 101.034C350.232 102.366 348.924 103.054 347.883 103.827C347.395 104.192 346.331 104.923 346.907 105.052C349.035 105.524 349.19 106.383 349.079 107.286C350.852 107.501 352.625 107.715 354.421 107.952C354.842 107.887 355.307 107.866 355.795 107.887C356.947 107.93 357.922 107.694 358.742 107.264C359.496 108.918 361.845 108.682 363.662 109.069C364.416 109.155 365.169 109.219 365.901 109.284C366.1 109.219 366.344 109.219 366.499 109.069C368.804 106.942 371.862 106.684 375.364 107.372C376.605 107.608 377.824 107.587 378.511 106.663C376.915 103.591 380.949 102.216 382.966 100.153C383.187 100.626 382.988 101.163 383.52 101.528C385.226 102.323 386.911 101.485 387.819 100.97C389.88 99.7668 392.185 98.6496 393.714 97.1029C393.626 97.8333 394.269 98.4133 395.909 98.8645C398.302 99.509 399.787 99.3371 400.984 97.5755C402.845 94.8257 419.689 96.1576 418.182 93.3649C417.96 92.9782 417.827 92.6559 418.248 92.3337C418.802 91.9255 419.467 92.0114 420.065 92.2692C421.839 92.9997 423.39 92.6559 424.875 91.99C425.096 92.8278 426.249 92.8922 427.379 92.7204C430.881 92.1833 434.316 91.5173 437.951 92.3122C438.992 92.527 439.901 92.0974 440.588 91.5388C442.715 89.8202 445.02 88.3808 448.633 88.166C450.494 88.0586 451.048 86.4259 452.799 85.9962C454.506 89.2402 456.257 89.5409 460.224 87.3067C461.709 86.4904 463.171 85.8244 464.856 87.1348C465.631 87.7149 466.695 87.586 467.161 87.0274C468.379 85.5451 470.13 86.0607 471.837 86.297C472.169 86.2755 472.457 86.1896 472.723 86.0822C476.38 84.6213 477.909 81.893 480.657 79.9166C481.566 82.4945 485.356 82.9242 487.639 84.385C488.148 84.385 488.569 84.2132 488.88 83.9339C490.83 82.0864 494.287 81.4634 496.459 79.7877C496.747 79.5514 497.612 79.5944 498.077 79.7447C502.088 80.9907 506.211 80.1744 510.289 80.0885C512.483 80.0455 514.366 80.6255 516.405 80.9263C519.619 80.3033 522.655 81.0337 525.625 81.6782C528.284 82.2582 532.473 82.2582 533.869 81.3989C537.216 79.3151 541.648 79.6158 545.438 78.6062C545.748 78.5202 546.147 78.5202 546.413 78.6706C549.737 80.4966 553.417 80.8619 557.45 79.9596C557.716 79.8951 558.093 80.024 558.447 80.024C558.669 80.024 558.868 79.9381 559.068 79.8951C559.068 79.8951 559.046 79.8951 559.024 79.8951C558.226 80.8833 557.162 81.8501 559.555 82.3657C561.04 82.6879 560.974 83.6331 561.705 84.2347C562.791 85.1155 563.744 86.1896 565.495 84.7288C565.584 84.6643 565.672 84.6428 565.739 84.7717C566.537 86.1896 568.354 85.5236 569.772 85.674C570.083 85.674 570.393 85.674 570.703 85.631C572.033 85.4162 572.432 84.5784 573.141 83.9339C574.183 84.428 574.316 85.674 576.089 85.4592C576.842 85.2873 577.507 85.008 578.194 84.7288C578.815 84.6858 579.435 84.6428 580.078 84.5784C580.765 83.6331 582.582 84.1058 583.447 83.3968C583.868 83.1605 584.355 82.9672 584.71 82.7094C584.998 82.5805 585.33 82.516 585.707 82.5805C586.704 82.7953 587.569 83.2894 588.699 83.0961C589.031 83.0101 589.32 82.8598 589.519 82.6664C589.94 82.1293 589.874 81.6997 589.608 81.2915C590.428 81.6352 591.358 81.6567 592.289 81.6782C593.597 81.6567 594.749 81.1411 596.146 82.0864C597.121 82.7524 599.204 82.8168 600.91 82.7523C601.664 82.7094 602.816 82.6664 603.038 83.139C604.213 85.5881 607.182 84.7288 609.421 84.5999C612.213 84.428 615.294 84.8792 617.71 83.3968C618.397 81.6782 619.394 80.3248 622.674 80.5826C624.048 80.69 624.624 80.0885 625.023 79.401C625.267 79.5299 625.489 79.7018 625.799 79.7662C626.796 79.8951 627.749 80.3033 628.835 80.067C629.323 79.9596 629.766 79.7877 630.143 79.5729C630.542 79.3366 630.852 79.0788 631.14 78.7995C632.337 78.5847 633.423 78.2624 633.046 76.8016C632.824 75.9208 634.686 75.663 635.705 75.3622C636.791 75.0185 640.271 76.9305 642.443 76.5438C643.307 76.3934 643.905 76.6942 644.592 76.9735C648.028 78.3269 651.197 77.3816 652.571 77.8543C653.014 77.8543 653.48 77.8543 653.923 77.8543C657.469 77.8972 660.97 78.3054 664.383 78.9714C664.938 78.6921 665.492 78.4343 666.179 78.241C667.242 78.0906 668.284 77.9187 669.104 77.3816C669.481 77.0379 669.503 76.9305 671.254 77.0594C673.448 77.2098 673.248 76.7801 673.049 75.8134C672.916 75.1689 673.47 74.8252 674.357 74.7178C675.199 74.6104 676.019 74.7607 676.351 75.2978C676.994 76.329 677.548 77.4031 677.969 78.4987C678.59 80.067 682.778 80.1959 682.867 82.3012C682.889 82.9672 683.133 83.5472 684.263 83.5687C685.349 83.5687 686.435 83.5257 686.834 82.5375C687.277 81.3989 687.255 80.1744 688.252 79.1647C689.028 79.0788 689.471 78.778 689.604 78.2624C691.045 77.9187 692.086 77.2313 692.973 76.4364C694.103 76.0927 695.233 75.7275 696.364 76.4364C697.006 77.5535 693.571 76.5653 694.436 78.4773C695.566 80.9908 697.782 79.8951 699.732 80.067C700.131 80.4107 700.486 80.9263 701.262 80.6041C701.993 80.2818 701.683 79.6588 701.771 79.1647C702.99 80.6256 705.184 80.9048 707.268 81.3345C707.268 81.3775 707.268 81.4204 707.268 81.4634C707.268 81.4849 707.445 81.5278 707.534 81.5278C707.644 81.5278 707.733 81.4849 707.844 81.4419C709.772 83.3754 710.016 83.3539 711.634 81.27C714.759 82.7094 718.637 82.8168 718.992 83.6117C720.166 83.0961 722.67 83.7835 722.826 83.805C724.975 84.1273 725.463 84.6428 724.089 85.3518C720.233 87.3282 723.734 87.543 725.419 88.252C725.574 88.2305 725.729 88.209 725.884 88.1875C728.521 87.2208 727.169 85.2444 728.145 83.7835C729.652 84.5354 728.61 85.2229 728.411 85.8889C727.746 88.1016 729.12 89.0468 732.311 88.2949C734.018 87.8868 734.882 89.1543 736.367 88.8105C737.963 88.5957 738.805 87.9512 738.938 86.8771C739.713 86.4474 738.871 85.2659 740.157 85.2659C741.863 85.2659 741.176 86.297 741.287 86.9845C741.376 87.5001 741.641 88.0586 742.683 88.0157C743.237 87.9942 744.035 87.7579 743.88 87.3927C742.883 84.9651 746.118 85.7385 747.049 85.2014C748.999 85.3303 745.786 87.4571 749.132 86.8986C749.354 86.8986 749.553 86.8986 749.775 86.8986C751.016 87.4356 750.595 88.6387 751.77 89.1972C751.77 89.3261 751.814 89.455 751.836 89.6054C752.856 89.7987 753.764 89.455 754.651 89.2617C755.936 88.9824 756.158 89.5409 756.535 90.078C757.066 90.5292 758.042 90.5077 758.551 90.9803C763.205 91.2811 767.793 90.8944 772.403 90.3788C772.447 90.3573 772.514 90.3358 772.558 90.3143C774.841 91.5818 776.813 93.2575 780.426 92.7419C781.622 92.57 781.467 93.3004 781.578 93.7731C785.966 94.525 789.823 92.9997 793.834 92.3552C795.119 92.1404 796.338 91.7966 797.69 91.8611C798.377 91.2166 800.195 92.2263 800.505 91.0233C802.012 90.1425 805.181 90.4862 804.915 88.3809C804.782 90.3788 805.092 90.5506 807.796 90.2499C808.904 90.121 810.012 89.4335 811.187 90.1425C812.073 88.3379 813.292 86.7267 816.329 85.9103C816.617 86.963 814.932 87.1564 814.6 87.8653C814.378 88.3594 813.691 88.9179 814.534 89.2832C815.531 89.7128 815.797 89.0254 816.174 88.5742C816.506 88.1875 816.883 87.629 817.592 87.8653C817.969 87.9942 817.947 88.6602 818.102 89.0683C820.584 88.209 819.409 86.7482 819.387 85.4807C821.781 86.3185 823.376 84.7503 825.437 84.5354C826.39 84.428 827.122 83.4828 828.097 84.6858C828.673 85.3948 829.471 84.7718 830.224 84.3851C831.621 83.6332 833.261 83.3539 834.923 84.1273C834.923 84.428 834.923 84.7288 834.923 85.0296C836.386 84.5354 836.962 84.9436 836.94 85.9318C837.738 86.1467 838.247 85.8459 838.58 85.4377C840.042 83.5687 843.367 83.2894 844.962 84.0843C846.071 84.6429 847.201 84.1058 848.265 83.6332C848.198 84.3851 848.42 85.0725 849.772 85.5022C850.215 85.5022 850.658 85.5022 851.124 85.5022C852.631 85.5022 850.836 84.0628 853.074 83.805C855.49 83.5258 857.506 81.7856 855.512 85.094C854.913 86.1037 856.332 86.8771 858.193 86.6623C858.903 86.5763 859.434 86.0822 860.365 86.3615C863.224 87.2423 863.446 87.1564 865.241 85.3518C866.349 86.4259 865.596 88.1875 868.011 88.6816C870.737 88.5098 871.934 86.963 873.485 85.7385C874.682 86.5548 872.843 86.6623 873.264 87.2638C876.61 87.9942 878.273 86.1037 880.444 84.9007C881.907 85.9318 879.58 87.1564 881.109 88.0801C882.284 88.1231 882.683 86.6623 884.212 87.2853C885.564 88.2735 887.005 89.1757 884.478 90.4432C883.104 91.1307 884.279 92.7204 886.827 93.4079C883.37 93.9664 883.06 94.9761 885.564 96.3725C886.007 96.2221 886.45 96.0717 886.916 95.9214C888.622 96.5659 889.176 98.263 891.659 98.1986C891.88 98.1986 892.102 98.1986 892.323 98.1986C892.722 98.6712 892.833 99.2727 893.698 99.552C894.695 101.378 896.955 100.347 897.066 99.7024C897.266 98.4778 898.507 98.1341 899.393 97.4467C901.166 99.2942 905.931 99.6594 905.178 102.753C905.355 103.72 906.108 104.106 907.549 103.892C907.682 103.827 907.793 103.741 907.926 103.677C909.012 102.517 909.677 103.354 910.452 103.892C911.693 104.729 912.735 104.987 913.112 103.419C913.466 101.915 915.483 101.314 916.946 100.433C917.899 99.8527 918.697 100.218 919.605 100.669C920.558 101.163 921.024 102.345 922.797 101.851C922.841 101.786 922.885 101.657 922.952 101.657C925.212 101.421 921.046 99.4446 924.215 99.4875C925.678 99.509 927.251 99.1868 928.581 100.111C928.64 98.9934 929.601 98.1484 931.462 97.5756C932.415 98.0697 931.595 98.8216 932.083 99.4231C932.659 100.132 932.703 100.991 934.454 100.196C935.695 99.6164 936.803 100.476 937.956 101.099C937.978 99.8957 936.427 99.5305 936.294 98.6712C936.737 98.3704 937.202 98.0697 937.646 97.7689C938.133 97.4681 938.643 97.2533 939.396 97.2103C944.294 97.0385 952.118 95.9214 955.198 96.4584C957.015 96.7592 954.245 98.4564 956.572 98.6712C957.481 98.3704 957.968 98.8645 958.589 99.1438C958.589 99.2942 958.589 99.4446 958.589 99.5735C957.68 100.626 958.478 101.335 959.741 101.808C960.85 102.237 961.692 101.55 961.736 101.056C961.847 100.175 964.994 99.7453 962.512 98.5423C961.226 97.9193 961.337 96.8022 961.005 95.9214C960.761 95.2984 962.689 95.5132 963.509 94.9761C964.174 94.5465 965.459 94.9332 965.326 95.9214C966.545 95.1265 967.609 94.525 968.917 95.9643C969.737 96.8666 970.956 97.64 972.839 96.974C973.416 96.7592 974.014 96.8237 974.058 97.3392C974.191 99.1868 977.072 99.6379 978.136 101.034C978.668 101.7 983.765 100.97 984.585 100.025C985.206 99.3157 985.716 99.0579 987.001 98.886C988.287 98.7141 990.303 97.9837 988.796 96.5444C987.644 95.4488 989.638 94.9761 989.661 94.1383C990.99 93.7946 991.522 92.613 993.871 93.3864C996.42 94.2242 1001.61 94.1383 1001.07 95.3413C1000.87 95.771 1002.32 96.0503 1002.85 95.5132C1003.67 94.6969 1004.97 94.4391 1006.06 93.945C1006.5 95.728 1010.18 96.5873 1012.62 95.5132C1015.26 94.4391 1018.58 94.5465 1021.09 93.3005C1021.09 93.3434 1021.06 93.3864 1021.06 93.4294C1020.58 94.2242 1020.53 94.9761 1021.84 95.3199C1023.15 95.6636 1024.63 95.9429 1025.63 94.8687C1025.43 94.6109 1025.76 94.9761 1025.54 94.7183C1025.61 94.7183 1025.61 94.7613 1025.67 94.7828C1028.71 95.6851 1031.61 95.2984 1033.63 93.7301C1035.43 92.3337 1037.55 91.9041 1039.84 92.0115C1043.71 92.1834 1047.06 91.1092 1050.41 90.2069C1051.89 89.7988 1054.91 90.4003 1056.97 90.7655C1058.28 90.9803 1058.81 89.3047 1060.36 90.1425C1061.25 90.7225 1062.8 90.4218 1063.46 91.2811C1064.13 92.0974 1065.06 92.8064 1066.59 92.5271C1068.27 92.2263 1068.91 91.2596 1069.09 90.164C1069.11 89.9921 1069.11 89.8203 1069.13 89.6699C1071.44 90.3788 1078.2 92.5915 1080.17 94.6539C1081.7 96.2651 1082.21 95.6636 1083.3 94.9976C1083.98 94.568 1084.16 93.7087 1085.51 93.9879C1086.73 94.2457 1086.6 94.8687 1086.64 95.5991C1086.71 96.8881 1087.06 96.8881 1089.88 95.5777C1091.08 96.4799 1090.96 97.597 1090.96 98.6927C1092.25 98.6927 1093.42 98.4778 1094.27 97.7689C1095.18 96.9955 1096.42 96.974 1097.17 97.597C1098.97 99.0794 1099.79 97.9408 1099.94 97.06C1100.3 95.0621 1102.22 94.7183 1104.86 94.525C1104.84 95.9644 1102.8 97.2963 1104.66 99.0794C1105.68 96.5444 1109.25 95.8784 1111.15 94.1383C1111.64 93.6872 1111.86 92.8708 1112.99 92.9997C1114.55 93.1716 1113.06 94.2457 1113.9 94.6754C1114.9 94.4176 1114.37 93.7087 1114.83 93.322C1115.72 92.613 1117.14 92.8279 1117.14 93.4938C1117.14 96.5874 1119.47 95.1265 1121.39 94.6109C1121.79 94.8472 1122.21 94.9117 1122.7 94.7613C1124.67 93.8375 1126.62 92.8923 1128.46 91.8611C1129.02 91.5389 1129.37 91.3241 1130.15 91.5389C1132.5 92.1619 1134.2 91.3455 1135.73 90.2929C1135.95 90.2929 1136.15 90.2714 1136.38 90.2929C1136.95 90.4003 1137.48 90.7225 1138.13 90.4862C1138.24 90.4218 1138.3 90.3358 1138.3 90.2284C1140.17 89.1113 1145.48 87.9512 1148.7 86.7482C1149.27 86.5334 1149.83 86.7697 1150.4 86.9845C1150.16 87.049 1149.96 87.1779 1149.83 87.3497C1150.52 87.6075 1151.22 87.8438 1151.91 88.1016C1153.64 87.8868 1155.37 87.6505 1157.1 87.4357C1158.4 87.8438 1159.58 88.7676 1161.18 87.8009C1161.91 87.2208 1162.93 87.3927 1163.86 87.3282C1164.21 87.1134 1164.57 86.9201 1164.7 86.6408C1166.27 86.8127 1167.58 86.426 1168.78 85.7815C1168.91 85.8889 1169.07 85.9963 1169.18 86.1037C1169.24 86.1897 1169.33 86.2971 1169.44 86.3615C1170.55 85.9533 1171.64 85.9319 1172.68 86.4474C1173.01 85.5237 1173.52 86.34 1173.96 86.383C1175.87 85.4378 1178.04 86.6838 1179.97 86.0608C1181.52 86.4689 1182.87 87.4786 1184.78 86.7912C1185.44 86.5334 1185.84 86.2111 1185.86 85.8244C1188.15 86.1467 1190.32 85.8244 1192.6 85.5881C1196.92 85.137 1201.33 85.3089 1205.66 85.8889C1205.37 86.0393 1205.12 86.2326 1205.03 86.5119C1204.92 86.8771 1205.03 87.2208 1205.26 87.5431C1206.36 88.5528 1207.83 88.6602 1209.42 88.1876C1212.28 87.3282 1215.1 87.5001 1217.62 88.6172C1218.91 89.1758 1220.24 89.3906 1221.61 89.6054C1221.92 89.6269 1222.25 89.6054 1222.56 89.5625C1223.52 89.3262 1224.36 88.875 1225.45 88.8965C1226.16 88.8965 1226.86 88.8965 1227.44 88.6602C1227.6 88.7032 1227.73 88.7461 1227.88 88.7676C1230.43 89.2617 1232.87 89.4551 1235.35 90.6366C1237.41 91.6248 1241.27 91.8826 1244.77 91.2381C1244.46 92.0974 1243.26 92.8708 1244.2 93.7301C1244.39 93.902 1244.64 94.0309 1244.93 94.1168C1245.35 94.1168 1245.79 94.1168 1246.21 94.1168C1248.94 93.8805 1250.95 95.191 1253.39 95.6206C1254.61 95.6636 1255.83 95.6851 1257.05 95.7281C1257.29 95.6636 1257.54 95.5992 1257.78 95.4273C1257.78 94.9762 1257.29 94.525 1257.78 94.0739C1259.71 92.5701 1257.32 91.0448 1257.78 89.541C1257.89 89.584 1258.02 89.6054 1258.05 89.6484C1258.67 90.6151 1258.14 92.1189 1260.4 92.3123C1261.93 92.4412 1264.34 90.6581 1265.03 89.1973C1265.23 89.4765 1265.49 89.7129 1265.83 89.8632C1267.53 90.6581 1268.18 91.7108 1268.09 93.0427C1269.55 93.6227 1271.01 93.4724 1272.43 92.9568C1274.51 92.2478 1276.62 92.9568 1278.72 92.8708C1280.41 93.0212 1281.63 93.7946 1283.05 94.3102C1282.67 94.5895 1282.51 94.9332 1283.33 94.9332C1285.91 94.9762 1287.97 96.0718 1290.4 96.2222C1293.6 96.437 1295.01 95.1695 1293.97 93.1501C1294.68 92.1834 1296.37 93.9665 1296.96 92.6775C1297.34 92.4197 1297.52 91.9041 1298.32 92.2263C1298.54 92.3767 1298.76 92.5271 1299 92.6775C1300.64 93.2146 1301.82 93.0212 1302.37 91.7537C1303.28 90.5507 1304.81 90.2714 1306.58 90.5292C1308.49 90.8085 1310.15 90.744 1311.15 89.4551C1311.57 88.918 1312.15 88.961 1312.83 89.0254C1314.36 89.1543 1313.39 89.7558 1313.32 90.164C1313.25 90.6796 1313.54 91.2381 1314.27 91.1737C1317.4 90.8944 1320.17 92.5916 1323.43 91.7537C1324.84 91.3885 1326.35 91.9041 1327.39 92.7634C1329.52 94.5465 1330.5 94.3532 1332.56 92.4841C1333.35 91.7537 1335.3 91.7537 1336.81 92.2264C1337.72 91.9256 1338.61 91.6248 1339.52 91.3026C1339.27 90.5077 1337.72 90.8514 1337.32 90.164C1337.68 89.6484 1338.25 89.541 1338.85 89.5195C1339.03 89.7129 1339.21 89.9062 1339.45 90.0995C1339.72 90.3359 1339.8 90.6366 1340.03 90.8944C1340.6 91.5389 1340.4 92.8494 1341.98 92.6345C1343.08 92.4841 1343.22 91.9686 1343.13 91.41C1343.53 91.5819 1343.97 91.6678 1344.37 91.8182C1348.16 93.1501 1351.99 92.8708 1354.67 90.9374C1356.36 89.7129 1357.27 90.7011 1358.11 91.41C1361.06 93.902 1362.03 93.902 1365 91.3026C1365.76 90.6366 1367.17 90.4648 1367.62 89.6054C1367.93 90.1855 1368.44 90.7226 1369.19 91.0663C1371.7 92.2478 1373.78 93.7087 1375.6 95.3414C1377.21 96.8022 1379.5 96.5659 1381.76 96.3081C1383.82 96.0718 1385.64 95.7066 1387.14 97.4682C1388.14 98.6497 1390.6 99.1653 1392.71 97.8978C1394.17 96.3511 1395.94 95.4273 1398.8 96.3726C1400.31 96.8667 1401.46 96.5444 1401.93 95.4488C1402.92 93.0212 1406.25 92.4197 1408.97 91.367C1409.7 91.0878 1410.72 91.0878 1411.45 90.7226C1412.21 90.3574 1412.85 89.8847 1412.54 89.1973C1412.27 88.6172 1411.45 88.5313 1410.63 88.5098C1409.08 88.4669 1407.53 88.3165 1405.78 88.338C1410.08 88.1661 1414.34 87.9728 1416.02 84.7933C1416.69 86.0178 1417.82 87.092 1418.68 88.2305C1419.85 89.7773 1422.23 90.207 1424.71 90.1425C1426.72 90.0996 1428.3 90.1425 1428.9 91.9041C1429.47 93.6013 1431.45 93.5368 1433.37 92.656C1433.71 92.7634 1434.02 92.8708 1434.35 92.9783C1434.28 93.0642 1434.22 93.1501 1434.19 93.279C1435.32 95.2769 1436.94 95.8355 1440.09 95.3629L1440.09 0.000427246L0.0886335 0.000304892L1.04858e-05 0.15068Z" fill="#C0C0C0"/>
</svg>
