<svg width="448" height="449" viewBox="0 0 448 449" fill="none" xmlns="http://www.w3.org/2000/svg">
<path d="M347.834 272.744L397.096 271.004L397.189 270.485L355.017 244.698L355.303 243.728L448 224.476L447.971 224.112L355.148 205.311L355.027 204.341L397.169 178.069L396.951 177.54L347.931 176.28L347.747 175.344L417.698 112.803L417.427 112.202L327.944 141.834L327.533 141.116L350.975 97.5358L350.53 97.1964L306.965 120.676L306.374 120.06L335.994 30.4175L335.51 30.1509L272.505 101.419L271.939 101.065L270.724 51.0756L270.157 50.9205L244.478 93.0997L243.549 92.8815L224.254 0L223.862 0.0339371L204.577 93.0027L203.609 93.0803L177.785 50.5617L177.363 50.7169L175.655 100.886L174.914 101.249L112.05 30.2236L111.566 30.6163L141.761 120.269L141.277 120.754L97.5569 97.1431L97.1745 97.5358L120.666 141.223L120.012 141.785L29.9196 112.134L29.6098 112.618L100.636 175.713L100.311 176.304L51.0777 177.516L50.9083 178.045L92.5373 204.385L92.4162 205.355L0 223.981L0.0726075 224.539L92.4985 243.801V244.746L50.8163 270.514L51.0535 270.999L100.355 272.739L100.65 273.496L29.5662 336.537L29.8809 336.988L119.916 307.317L120.477 307.976L97.2907 350.858L97.828 351.188L140.943 327.917L141.688 328.59L111.435 418.888L111.919 419.077L174.846 347.901L175.655 348.313L177.373 397.546L177.964 397.609L203.783 355.76L204.519 355.866L223.881 448.952L224.336 449L243.607 355.915L244.396 355.765L270.182 397.692L270.719 397.556L271.919 348.26L272.742 347.949L335.631 419.067L336.033 418.796L306.423 328.479L307.096 327.868L350.632 351.387L350.927 350.95L327.692 308.248L328.385 307.399L417.364 336.881L417.669 336.27L347.481 273.476L347.834 272.744ZM224.056 332.28C165.175 332.28 117.447 284.472 117.447 225.504C117.447 166.535 165.199 118.727 224.056 118.727C282.912 118.727 330.664 166.53 330.664 225.504C330.664 284.477 282.936 332.28 224.056 332.28Z" fill="#A3883C"/>
</svg>
