<svg width="2560" height="214" viewBox="0 0 2560 214" fill="none" xmlns="http://www.w3.org/2000/svg">
<path d="M2560 213.72V35.598C2559.61 31.6975 2559.29 27.757 2559.45 23.8565C2559.09 23.0264 2558.7 22.2063 2558.35 21.3762C2555.08 17.9858 2549.76 19.286 2545.3 18.8559C2543.3 18.6559 2541.4 18.7759 2540.06 17.5158C2537.43 16.2156 2533.72 16.2956 2531.75 14.2054C2531.32 13.9653 2530.81 13.7753 2530.26 13.6553C2527.26 13.4953 2524.66 12.4751 2522.22 11.445C2519.74 10.3849 2517.53 10.3849 2515.17 11.445C2514.46 11.8751 2514.06 12.4251 2513.87 13.0252C2510.71 10.5049 2504.45 9.79481 2498.22 11.645C2496.06 12.2751 2494.01 13.1452 2491.88 13.8553C2491.61 14.0553 2491.45 14.3254 2491.17 14.5654C2489.56 14.3254 2488.53 13.6553 2488.61 12.2851H2487.39C2483.49 13.5453 2479.31 14.0953 2475.02 14.3754C2465.72 13.5453 2456.9 15.3555 2447.95 16.5856C2442.6 17.2957 2437.43 16.6257 2432.35 15.4055C2430.34 15.9156 2429.83 17.9258 2427.27 17.9258C2426.76 18.0458 2426.29 18.2459 2425.81 18.4359C2424.79 19.146 2423.37 19.696 2422.82 20.6461C2421.75 19.736 2420.81 18.7559 2419.12 18.3259C2418.29 18.2058 2417.46 18.2459 2416.71 18.5259C2416.12 18.8459 2415.81 19.236 2415.45 19.626C2415.45 19.386 2415.53 19.156 2415.61 18.9559C2411.35 17.7758 2406.78 18.2058 2402.41 17.6958C2400.83 17.5358 2398.43 17.7758 2398 16.8657C2396.07 12.8852 2391.3 14.6954 2387.75 13.8753C2383.18 12.8152 2380.35 13.5553 2376.29 14.8954C2371.76 16.3956 2367.11 18.2459 2361.99 18.7559C2358.88 19.076 2356.55 20.0161 2354.46 21.4763C2354.19 20.6461 2354.82 19.586 2353.99 18.5259C2352.65 20.7762 2351.31 21.5963 2348.12 19.826C2344.93 18.0558 2341.31 19.706 2338.19 20.8462C2334.61 22.1863 2332.6 20.1361 2330.31 19.156C2328.19 18.2459 2330.51 17.3457 2331.26 16.5156C2329.76 15.7255 2328.23 15.5355 2326.73 16.3956C2324.56 14.4254 2321.41 13.4853 2318.18 12.5752C2314.91 11.665 2311.28 11.555 2309.35 8.59466C2308.13 6.70443 2303.44 6.27438 2301.83 8.39464C2299.35 11.665 2295.96 12.4551 2291.23 11.8251C2293.24 9.7348 2290.84 8.55466 2288.39 7.37451C2286.86 6.74443 2284.73 7.37451 2283.39 6.27438C2280.91 4.30413 2278.15 4.8142 2276.18 6.4344C2273.94 8.28462 2272.16 7.93458 2269.6 6.82444C2267.08 5.72431 2264.44 4.61417 2261.37 4.46415C2258.3 4.30413 2255.54 4.70418 2253.61 7.06447C2254.63 4.66418 2254.59 2.65393 2252.31 0.963721C2251.6 0.453658 2250.1 -0.17642 2249.79 0.133618C2246.04 3.75406 2241.16 -2.10666 2237.45 0.883711C2237.18 1.08374 2236.86 1.27376 2236.71 1.51379C2234.7 4.42415 2232.84 5.53428 2229.54 1.98385C2227.64 -0.0664063 2223.9 -0.146416 2221.69 1.66381C2217.32 5.28425 2210.66 7.17449 2207.28 11.595C2204.01 8.8747 2199 8.83469 2195.06 7.2645C2193.13 6.4744 2190.45 7.14448 2188.96 8.24462C2182.1 13.3653 2173.75 12.8552 2165.28 11.315C2161.57 10.6449 2158.23 9.10473 2155.27 12.2651C2154.17 13.4453 2152.83 12.1851 2151.65 11.8351C2145.78 10.1449 2137.94 11.045 2134.35 13.7653C2133.48 14.4354 2132.97 15.1455 2132.78 15.9756C2132.7 15.9756 2132.62 15.9756 2132.54 16.0156C2132.34 16.0556 2132.22 16.1356 2132.03 16.1756C2131.12 15.5455 2129.86 15.4255 2128.24 15.7055C2126.75 15.9856 2125.45 15.8256 2125.53 14.4054C2126.08 12.8252 2126.63 11.295 2124.03 10.3049C2121.19 10.3049 2119.73 12.2751 2117.13 12.6652C2114.46 13.5353 2112.45 15.1055 2109.96 16.2056C2104.61 9.62479 2100.43 9.15473 2091.25 14.0353C2090.15 16.0856 2089.75 18.4059 2086.56 19.586C2085.5 20.1361 2084.55 20.8062 2083.73 21.5563C2082.98 22.2263 2082.31 22.9364 2081.16 23.2465C2080.18 22.7364 2080.3 21.7463 2079.27 21.2762C2075.96 20.6061 2073.84 21.8663 2072.69 23.7165C2071.95 24.8567 2070.69 25.4867 2069.58 26.2768C2064.42 25.3667 2059.26 24.2266 2054.02 25.9568C2052.44 26.4669 2050.99 26.2368 2049.41 25.8768C2046.02 25.1667 2042.67 25.6368 2039.4 26.3068C2038.46 26.5069 2037.67 27.217 2036.72 27.177C2034.44 27.0969 2031.6 24.4566 2030.07 26.8269C2028.02 30.0173 2023.29 32.4176 2023.84 37.2282C2021.99 34.6279 2022.07 32.3476 2020.34 30.5274C2020.22 30.3673 2020.02 30.2873 2019.86 30.1373C2022.31 28.6771 2024.27 27.537 2023.13 25.3367C2022.78 24.6266 2021.64 24.1166 2020.77 24.5066C2018.01 25.7668 2018.92 27.697 2018.84 29.6273C2016.67 29.3472 2014.74 29.2372 2013.01 29.3472C2015.25 28.3671 2015.92 26.0768 2016.91 24.3866C2017.54 23.2865 2015.45 22.3364 2012.85 22.2964C2012.65 24.5066 2007.14 23.3165 2007.69 25.8068C2007.96 27.0269 2008.24 29.2372 2010.25 29.6673C2005.99 30.5374 2003.28 32.9377 2001.74 37.1882C1999.61 35.1779 1998.55 32.3476 1994.25 32.6976C1990.63 33.0177 1988.07 34.5479 1986.57 36.8381C1986.45 37.0782 1986.57 37.2682 1986.49 37.5082C1983.89 38.1783 1981.02 38.2983 1979.17 40.0285C1977.35 38.3383 1978.5 37.2682 1979.8 36.4481C1984.01 33.8478 1980.7 32.1176 1977.86 31.6775C1973.96 31.0874 1971.01 29.6273 1967.74 28.3671C1964.63 27.187 1961.32 26.0068 1957.58 27.417C1956 28.0071 1953.28 27.217 1953.75 26.9069C1956.67 24.9767 1955.92 21.5863 1959.82 20.0961C1960.45 19.8561 1960.96 19.586 1961.52 19.306C1959.35 19.186 1957.26 19.146 1955.05 18.9859C1953.04 18.8259 1951.07 18.5559 1949.1 18.3159C1948.12 19.186 1947.84 20.2461 1949.89 21.5863C1950.25 21.8263 1949.81 22.5664 1949.74 23.1265C1943.79 22.7364 1943.47 27.697 1938.86 28.7572C1937.4 26.3168 1939.73 25.0567 1941.58 23.6365C1942.45 22.9664 1944.34 21.6263 1943.31 21.3962C1939.53 20.5261 1939.26 18.9559 1939.45 17.2957C1936.3 16.9057 1933.15 16.5056 1929.96 16.0756C1929.21 16.1956 1928.38 16.2356 1927.52 16.1956C1925.47 16.1156 1923.73 16.5456 1922.28 17.3357C1920.94 14.3054 1916.76 14.7354 1913.53 14.0253C1912.19 13.8653 1910.85 13.7453 1909.55 13.6353C1909.2 13.7553 1908.76 13.7553 1908.49 14.0253C1904.39 17.9258 1898.95 18.3959 1892.73 17.1357C1890.52 16.7057 1888.35 16.7457 1887.13 18.4359C1889.97 24.0666 1882.8 26.5869 1879.21 30.3673C1878.82 29.4972 1879.17 28.5171 1878.23 27.847C1875.2 26.3869 1872.2 27.927 1870.59 28.8672C1866.92 31.0774 1862.82 33.1177 1860.11 35.958C1860.26 34.6179 1859.12 33.5577 1856.21 32.7276C1851.95 31.5475 1849.31 31.8575 1847.18 35.0879C1843.87 40.1286 1813.93 37.6883 1816.61 42.8089C1817.01 43.519 1817.24 44.109 1816.49 44.6991C1815.51 45.4492 1814.33 45.2892 1813.26 44.8191C1810.11 43.479 1807.35 44.109 1804.71 45.3292C1804.32 43.789 1802.27 43.679 1800.26 43.989C1794.04 44.9691 1787.93 46.1993 1781.47 44.7391C1779.62 44.3491 1778 45.1292 1776.78 46.1593C1773 49.3097 1768.9 51.95 1762.48 52.3401C1759.17 52.5401 1758.19 55.5305 1755.07 56.3206C1752.04 50.3698 1748.93 49.8197 1741.87 53.9203C1739.24 55.4204 1736.63 56.6406 1733.64 54.2403C1732.26 53.1802 1730.37 53.4102 1729.54 54.4403C1727.38 57.1607 1724.26 56.2105 1721.23 55.7805C1720.64 55.8205 1720.13 55.9805 1719.65 56.1705C1713.15 58.8509 1710.44 63.8515 1705.55 67.4719C1703.94 62.7413 1697.2 61.9612 1693.14 59.2809C1692.23 59.2809 1691.49 59.601 1690.93 60.111C1687.47 63.5014 1681.32 64.6416 1677.46 67.712C1676.95 68.142 1675.41 68.062 1674.58 67.792C1667.45 65.5117 1660.13 67.0019 1652.88 67.1619C1648.98 67.2419 1645.63 66.1818 1642 65.6217C1636.29 66.7618 1630.89 65.4217 1625.61 64.2415C1620.89 63.1814 1613.44 63.1814 1610.96 64.7516C1605.01 68.5721 1597.13 68.022 1590.39 69.8722C1589.84 70.0322 1589.13 70.0322 1588.66 69.7522C1582.75 66.4018 1576.21 65.7317 1569.04 67.3919C1568.57 67.5119 1567.9 67.2719 1567.27 67.2719C1566.87 67.2719 1566.52 67.4319 1566.16 67.5119H1566.24C1567.66 65.7017 1569.55 63.9315 1565.3 62.9814C1562.66 62.3913 1562.77 60.6611 1561.47 59.5509C1559.54 57.9407 1557.85 55.9705 1554.74 58.6408C1554.58 58.7609 1554.42 58.8009 1554.3 58.5608C1552.89 55.9605 1549.66 57.1807 1547.13 56.9106C1546.58 56.9106 1546.03 56.9106 1545.48 56.9906C1543.12 57.3807 1542.41 58.9209 1541.15 60.101C1539.29 59.1909 1539.06 56.9106 1535.91 57.3007C1534.57 57.6207 1533.38 58.1308 1532.16 58.6408C1531.06 58.7208 1529.96 58.8009 1528.81 58.9209C1527.59 60.6511 1524.36 59.791 1522.83 61.0911C1522.08 61.5212 1521.21 61.8812 1520.58 62.3513C1520.07 62.5913 1519.48 62.7013 1518.81 62.5913C1517.03 62.2013 1515.5 61.2912 1513.49 61.6412C1512.9 61.8012 1512.39 62.0713 1512.03 62.4313C1511.28 63.4114 1511.4 64.2015 1511.87 64.9516C1510.42 64.3215 1508.76 64.2815 1507.11 64.2415C1504.78 64.2815 1502.73 65.2216 1500.25 63.4914C1498.52 62.2713 1494.81 62.1513 1491.78 62.2713C1490.44 62.3513 1488.39 62.4313 1488 61.5612C1485.91 57.0706 1480.63 58.6508 1476.65 58.8809C1471.69 59.2009 1466.21 58.3708 1461.92 61.0911C1460.7 64.2415 1458.92 66.7218 1453.09 66.2518C1450.65 66.0517 1449.63 67.1619 1448.92 68.422C1448.48 68.182 1448.09 67.872 1447.54 67.752C1445.76 67.5119 1444.07 66.7718 1442.14 67.2019C1441.27 67.4019 1440.49 67.712 1439.82 68.112C1439.11 68.5421 1438.55 69.0221 1438.04 69.5322C1435.92 69.9222 1433.98 70.5123 1434.65 73.1926C1435.05 74.8028 1431.74 75.2829 1429.93 75.833C1428 76.463 1421.81 72.9526 1417.95 73.6627C1416.41 73.9427 1415.35 73.3827 1414.13 72.8726C1408.02 70.3923 1402.39 72.1225 1399.95 71.2624H1397.54C1391.24 71.1824 1385.01 70.4323 1378.95 69.2121C1377.96 69.7222 1376.98 70.1923 1375.76 70.5523C1373.86 70.8323 1372.01 71.1424 1370.55 72.1325C1369.89 72.7626 1369.85 72.9626 1366.73 72.7226C1362.83 72.4425 1363.19 73.2326 1363.54 75.0029C1363.78 76.183 1362.79 76.8131 1361.22 77.0131C1359.72 77.2131 1358.26 76.9331 1357.67 75.953C1356.53 74.0627 1355.54 72.0925 1354.8 70.0822C1353.69 67.2019 1346.25 66.9719 1346.09 63.1114C1346.05 61.8912 1345.62 60.8311 1343.61 60.7911C1341.68 60.7911 1339.75 60.8711 1339.04 62.6813C1338.25 64.7716 1338.29 67.0119 1336.52 68.8621C1335.14 69.0221 1334.35 69.5722 1334.11 70.5123C1331.55 71.1424 1329.7 72.4025 1328.12 73.8627C1326.11 74.4928 1324.11 75.1629 1322.1 73.8627C1320.95 71.8125 1327.06 73.6227 1325.52 70.1223C1323.51 65.5117 1319.57 67.5219 1316.11 67.2119C1315.4 66.5818 1314.77 65.6317 1313.39 66.2318C1312.09 66.8218 1312.64 67.962 1312.48 68.8721C1310.32 66.1918 1306.42 65.6817 1302.71 64.8916V64.6516C1302.71 64.6516 1302.4 64.5316 1302.24 64.5316C1302.04 64.5316 1301.89 64.6116 1301.69 64.6916C1298.26 61.1511 1297.83 61.1811 1294.95 65.0116C1289.4 62.3713 1282.5 62.1713 1281.87 60.7211C1279.78 61.6712 1275.33 60.4111 1275.06 60.371C1271.23 59.781 1270.37 58.8309 1272.81 57.5307C1279.67 53.9103 1273.44 53.5102 1270.45 52.21C1270.17 52.25 1269.89 52.2901 1269.62 52.3301C1264.93 54.1003 1267.33 57.7307 1265.6 60.4011C1262.92 59.0209 1264.77 57.7607 1265.13 56.5406C1266.31 52.4801 1263.87 50.7499 1258.19 52.13C1255.16 52.8801 1253.62 50.5498 1250.98 51.1799C1248.15 51.57 1246.65 52.7601 1246.41 54.7204C1245.03 55.5105 1246.53 57.6707 1244.25 57.6707C1241.21 57.6707 1242.43 55.7805 1242.24 54.5203C1242.08 53.5702 1241.61 52.5501 1239.76 52.6301C1238.77 52.6701 1237.35 53.1002 1237.63 53.7702C1239.4 58.2208 1233.65 56.8006 1231.99 57.7907C1228.53 57.5507 1234.24 53.6502 1228.29 54.6803H1227.15C1224.94 53.7002 1225.69 51.49 1223.6 50.4698C1223.6 50.2298 1223.52 49.9998 1223.48 49.7197C1221.67 49.3697 1220.06 49.9998 1218.48 50.3498C1216.2 50.8599 1215.8 49.8397 1215.13 48.8496C1214.19 48.0195 1212.45 48.0595 1211.55 47.1994C1203.27 46.6494 1195.12 47.3594 1186.92 48.2996C1186.85 48.3396 1186.73 48.3796 1186.65 48.4196C1182.59 46.0993 1179.08 43.0189 1172.66 43.969C1170.53 44.2891 1170.81 42.9489 1170.61 42.0788C1162.81 40.6986 1155.96 43.499 1148.83 44.6791C1146.54 45.0692 1144.37 45.6992 1141.97 45.5892C1140.75 46.7694 1137.52 44.9191 1136.97 47.1294C1134.29 48.7396 1128.66 48.1095 1129.13 51.97C1129.36 48.3096 1128.81 47.9895 1124.01 48.5396C1122.04 48.7796 1120.07 50.0398 1117.98 48.7396C1116.4 52.05 1114.24 55.0004 1108.84 56.5006C1108.33 54.5703 1111.32 54.2203 1111.91 52.9201C1112.31 52.01 1113.53 50.9899 1112.03 50.3198C1110.26 49.5297 1109.78 50.7899 1109.11 51.62C1108.52 52.3301 1107.85 53.3502 1106.59 52.9201C1105.92 52.6801 1105.96 51.46 1105.69 50.7099C1101.27 52.2901 1103.36 54.9604 1103.4 57.2907C1099.15 55.7505 1096.31 58.6308 1092.65 59.0209C1090.95 59.2209 1089.65 60.9511 1087.92 58.7408C1086.89 57.4407 1085.48 58.5808 1084.14 59.2909C1081.65 60.6711 1078.74 61.1811 1075.78 59.761V58.1108C1073.18 59.0209 1072.16 58.2708 1072.2 56.4606C1070.78 56.0705 1069.87 56.6206 1069.28 57.3707C1066.68 60.8011 1060.77 61.3112 1057.94 59.851C1055.97 58.8309 1053.96 59.811 1052.07 60.6811C1052.18 59.3009 1051.79 58.0408 1049.39 57.2507H1046.98C1044.31 57.2507 1047.5 59.891 1043.52 60.361C1039.22 60.8711 1035.64 64.0615 1039.18 58.0008C1040.25 56.1505 1037.73 54.7304 1034.42 55.1204C1033.16 55.2804 1032.21 56.1805 1030.56 55.6705C1025.47 54.0603 1025.08 54.2103 1021.89 57.5207C1019.92 55.5505 1021.26 52.3201 1016.96 51.4199C1012.12 51.74 1009.99 54.5703 1007.23 56.8206C1005.1 55.3204 1008.38 55.1304 1007.63 54.0203C1001.68 52.6801 998.72 56.1505 994.86 58.3508C992.26 56.4606 996.4 54.2103 993.68 52.5201C991.59 52.4401 990.88 55.1204 988.16 53.9803C985.76 52.17 983.2 50.5098 987.69 48.1895C990.13 46.9294 988.05 44.019 983.51 42.7489C989.66 41.7288 990.21 39.8685 985.76 37.3082C984.97 37.5882 984.18 37.8583 983.36 38.1383C980.33 36.9582 979.34 33.8478 974.93 33.9678H973.75C973.04 33.0977 972.84 31.9975 971.31 31.4875C969.54 28.1371 965.52 30.0273 965.32 31.2075C964.96 33.4577 962.76 34.0878 961.18 35.348C958.03 31.9575 949.56 31.2875 950.9 25.6168C950.58 23.8465 949.25 23.1365 946.69 23.5265C946.45 23.6465 946.26 23.8065 946.02 23.9166C944.09 26.0468 942.91 24.5066 941.53 23.5265C939.32 21.9863 937.47 21.5163 936.8 24.3966C936.17 27.157 932.58 28.2571 929.98 29.8673C928.29 30.9274 926.87 30.2573 925.25 29.4372C923.56 28.5271 922.73 26.3669 919.58 27.267C919.5 27.387 919.42 27.617 919.3 27.617C915.28 28.0471 922.69 31.6775 917.05 31.5975C914.45 31.5575 911.65 32.1476 909.29 30.4574C909.18 32.5076 907.48 34.0578 904.17 35.1079C902.48 34.1978 903.93 32.8277 903.07 31.7175C902.05 30.4174 901.97 28.8372 898.85 30.2973C896.64 31.3575 894.67 29.7873 892.63 28.6471C892.59 30.8574 895.35 31.5275 895.58 33.0977C894.79 33.6478 893.97 34.1978 893.18 34.7479C892.31 35.298 891.41 35.698 890.07 35.768C881.36 36.0781 867.46 38.1283 861.98 37.1482C858.75 36.5981 863.68 33.4877 859.54 33.0877C857.93 33.6378 857.06 32.7376 855.96 32.2176V31.4275C857.57 29.4972 856.16 28.1971 853.91 27.327C851.94 26.5369 850.44 27.797 850.36 28.7071C850.16 30.3173 844.57 31.1074 848.98 33.3177C851.26 34.4579 851.07 36.5081 851.66 38.1283C852.09 39.2684 848.67 38.8784 847.21 39.8585C846.03 40.6486 843.74 39.9385 843.98 38.1283C841.81 39.5885 839.92 40.6886 837.6 38.0483C836.14 36.3981 833.98 34.9779 830.63 36.1981C829.61 36.5881 828.54 36.4781 828.46 35.528C828.22 32.1376 823.1 31.3175 821.21 28.7572C820.26 27.537 811.2 28.8772 809.75 30.6074C808.65 31.9075 807.74 32.3776 805.46 32.6976C803.17 33.0177 799.59 34.3478 802.27 36.9882C804.32 38.9984 800.77 39.8685 800.73 41.3987C798.37 42.0288 797.42 44.1991 793.24 42.7789C788.71 41.2387 779.49 41.3987 780.44 39.1984C780.79 38.4083 778.23 37.8983 777.29 38.8784C775.83 40.3786 773.51 40.8486 771.58 41.7588C770.79 38.4883 764.25 36.9182 759.92 38.8784C755.23 40.8486 749.32 40.6486 744.87 42.9389C744.87 42.8589 744.91 42.7789 744.91 42.6989C745.78 41.2387 745.86 39.8585 743.53 39.2284C741.2 38.5984 738.57 38.0883 736.79 40.0585C737.14 40.5286 736.55 39.8585 736.95 40.3386C736.83 40.3386 736.83 40.2586 736.71 40.2186C731.31 38.5684 726.15 39.2684 722.57 42.1488C719.38 44.7091 715.6 45.4992 711.54 45.2992C704.64 44.9792 698.7 46.9494 692.75 48.6096C690.11 49.3597 684.75 48.2596 681.09 47.5895C678.76 47.1994 677.82 50.2698 675.06 48.7296C673.48 47.6695 670.73 48.2196 669.54 46.6394C668.36 45.1392 666.7 43.839 663.99 44.3591C661 44.9091 659.85 46.6794 659.54 48.6896C659.5 49.0096 659.5 49.3197 659.46 49.5997C655.36 48.2996 643.35 44.2391 639.84 40.4586C637.12 37.5082 636.22 38.6084 634.29 39.8285C633.07 40.6186 632.75 42.1888 630.35 41.6787C628.18 41.2087 628.42 40.0685 628.34 38.7284C628.22 36.3681 627.59 36.3681 622.59 38.7684C620.46 37.1182 620.66 35.0679 620.66 33.0577C618.38 33.0577 616.29 33.4477 614.79 34.7479C613.18 36.1681 610.97 36.2081 609.63 35.0679C606.44 32.3476 604.98 34.4379 604.71 36.048C604.08 39.7085 600.65 40.3386 595.96 40.6986C596 38.0583 599.62 35.618 596.31 32.3476C594.5 36.9982 588.16 38.2183 584.77 41.4087C583.9 42.2388 583.51 43.729 581.5 43.499C578.74 43.1789 581.38 41.2187 579.88 40.4286C578.11 40.8986 579.05 42.1988 578.23 42.9089C576.65 44.2091 574.13 43.819 574.13 42.5889C574.13 36.9182 569.99 39.5985 566.57 40.5386C565.86 40.1086 565.11 39.9885 564.24 40.2586C560.73 41.9488 557.27 43.689 554 45.5792C553.02 46.1693 552.39 46.5593 551.01 46.1693C546.83 45.0292 543.8 46.5193 541.08 48.4496C540.69 48.4496 540.33 48.4896 539.94 48.4496C538.92 48.2496 537.97 47.6595 536.83 48.0995C536.63 48.2195 536.51 48.3796 536.51 48.5696C533.2 50.6198 523.74 52.7401 518.03 54.9504C517.01 55.3404 516.02 54.9104 515 54.5203C515.43 54.4003 515.79 54.1703 516.02 53.8502C514.8 53.3802 513.54 52.9401 512.32 52.4701C509.25 52.8601 506.17 53.3002 503.1 53.6902C500.77 52.9401 498.69 51.2499 495.85 53.0201C494.55 54.0803 492.74 53.7702 491.08 53.8903C490.45 54.2803 489.82 54.6403 489.58 55.1504C486.78 54.8304 484.46 55.5405 482.33 56.7306C482.09 56.5306 481.82 56.3406 481.62 56.1405C481.5 55.9805 481.34 55.7905 481.15 55.6705C479.18 56.4206 477.25 56.4606 475.4 55.5104C474.81 57.2007 473.9 55.7105 473.11 55.6305C469.72 57.3607 465.86 55.0804 462.43 56.2205C459.67 55.4704 457.27 53.6202 453.88 54.8804C452.7 55.3504 451.99 55.9405 451.95 56.6506C447.89 56.0605 444.03 56.6506 439.97 57.0806C432.29 57.9107 424.45 57.5907 416.76 56.5306C417.27 56.2505 417.71 55.9005 417.86 55.3904C418.06 54.7204 417.86 54.0903 417.47 53.5002C415.5 51.65 412.9 51.4499 410.06 52.3201C404.98 53.9003 399.97 53.5802 395.48 51.53C393.19 50.5098 390.83 50.1098 388.39 49.7197C387.84 49.6797 387.25 49.7197 386.7 49.7997C385.01 50.2298 383.51 51.0599 381.58 51.0199C380.32 51.0199 379.06 51.0199 378.04 51.45C377.76 51.3699 377.53 51.2899 377.25 51.2499C372.72 50.3398 368.38 49.9898 363.97 47.8195C360.31 46.0093 353.45 45.5392 347.23 46.7194C347.78 45.1392 349.91 43.729 348.25 42.1488C347.9 41.8388 347.46 41.5987 346.95 41.4387H344.66C339.81 41.8688 336.23 39.4685 331.89 38.6784C329.72 38.5984 327.56 38.5584 325.39 38.4783C324.96 38.5984 324.52 38.7184 324.09 39.0284C324.09 39.8585 324.96 40.6786 324.09 41.5087C320.66 44.2691 324.92 47.0594 324.09 49.8197C323.89 49.7397 323.66 49.6997 323.62 49.6197C322.52 47.8495 323.46 45.0892 319.44 44.7391C316.72 44.4991 312.43 47.7695 311.21 50.4498C310.85 49.9398 310.38 49.4997 309.79 49.2297C306.76 47.7695 305.61 45.8393 305.77 43.399C303.17 42.3388 300.57 42.6089 298.05 43.559C294.35 44.8591 290.6 43.559 286.86 43.719C283.87 43.439 281.7 42.0288 279.18 41.0787C279.85 40.5686 280.12 39.9385 278.67 39.9385C274.1 39.8585 270.44 37.8483 266.1 37.5782C260.43 37.1882 257.9 39.5085 259.76 43.2089C258.5 44.9792 255.5 41.7087 254.44 44.079C253.77 44.5491 253.45 45.4992 252.04 44.9091C251.65 44.6291 251.25 44.3591 250.82 44.079C247.91 43.0989 245.82 43.449 244.83 45.7692C243.21 47.9795 240.5 48.4896 237.34 48.0095C233.95 47.4995 231 47.6195 229.22 49.9798C228.47 50.9599 227.45 50.8899 226.23 50.7699C223.51 50.5298 225.24 49.4297 225.36 48.6796C225.48 47.7295 224.97 46.7094 223.67 46.8294C218.12 47.3394 213.19 44.2291 207.4 45.7692C204.88 46.4393 202.2 45.4892 200.35 43.919C196.57 40.6486 194.84 41.0087 191.17 44.4291C189.75 45.7692 186.28 45.7692 183.61 44.8991C181.99 45.4492 180.42 45.9993 178.8 46.5894C179.23 48.0495 181.99 47.4195 182.7 48.6796C182.07 49.6297 181.05 49.8197 179.98 49.8598C179.66 49.5097 179.35 49.1497 178.92 48.7996C178.45 48.3696 178.29 47.8195 177.9 47.3394C176.88 46.1593 177.23 43.759 174.43 44.149C172.46 44.4291 172.22 45.3692 172.38 46.3893C171.67 46.0693 170.88 45.9193 170.17 45.6392C163.43 43.1989 156.62 43.709 151.85 47.2494C148.86 49.4897 147.24 47.6795 145.74 46.3793C140.5 41.8088 138.77 41.8088 133.49 46.5793C132.15 47.7995 129.63 48.1195 128.84 49.6897C128.29 48.6296 127.38 47.6395 126.04 47.0094C121.59 44.8391 117.89 42.1688 114.65 39.1684C111.77 36.4881 107.72 36.9282 103.7 37.3982C100.04 37.8283 96.81 38.4984 94.13 35.268C92.36 33.0977 87.98 32.1576 84.24 34.4779C81.64 37.3182 78.49 39.0084 73.41 37.2782C70.73 36.3681 68.68 36.9582 67.85 38.9684C66.08 43.419 60.17 44.5191 55.32 46.4493C54.02 46.9594 52.21 46.9594 50.91 47.6295C49.57 48.2996 48.43 49.1697 48.98 50.4298C49.45 51.49 50.91 51.65 52.37 51.69C55.13 51.77 57.89 52.04 61 52.01C53.36 52.3301 45.79 52.6801 42.8 58.5108C41.62 56.2705 39.61 54.3003 38.07 52.21C35.98 49.3697 31.77 48.5896 27.35 48.6996C23.76 48.7796 20.97 48.6996 19.9 45.4692C18.88 42.3588 15.37 42.4788 11.94 44.089C11.35 43.889 10.8 43.699 10.21 43.499C10.33 43.3389 10.45 43.1789 10.49 42.9489C8.47 39.2985 5.59 38.2783 0 39.1484V214H2559.84L2560 213.73V213.72Z" fill="#8F270D"/>
</svg>
